<?xml version="1.0" encoding="UTF-8"?>
<svg version="1.1" xmlns="http://www.w3.org/2000/svg" width="512" height="512">
<path d="M0 0 C1.62070061 -0.00407187 3.24139843 -0.00941719 4.86209106 -0.01593018 C9.23813387 -0.02953643 13.61396306 -0.02433295 17.99000931 -0.01479292 C22.58440955 -0.00716148 27.17879234 -0.01425157 31.77319336 -0.01895142 C39.48652405 -0.02439886 47.19976838 -0.01724397 54.91308594 -0.00292969 C63.81203731 0.01339487 72.71078243 0.00810565 81.60972881 -0.0084089 C89.27033844 -0.02205266 96.93088623 -0.02392933 104.5915041 -0.0160929 C109.15803212 -0.01143224 113.72446342 -0.01074708 118.29098511 -0.02070236 C122.58554545 -0.02941193 126.87984162 -0.02327778 131.17437363 -0.00601959 C132.74403318 -0.00207596 134.31371523 -0.00315211 135.88336563 -0.00980759 C147.54820542 -0.05468193 157.51536845 0.57394088 166.7421875 8.29833984 C176.30596437 18.08155328 177.08413016 28.64203498 176.98046875 41.63427734 C176.9767332 43.01432591 176.97388879 44.39437714 176.97189331 45.77442932 C176.96429949 49.38625561 176.94468819 52.99791809 176.92248535 56.60968018 C176.90193471 60.30340357 176.89287198 63.99715374 176.8828125 67.69091797 C176.86143773 74.92341409 176.82735395 82.15577579 176.78515625 89.38818359 C177.65466415 89.38374237 178.52417206 89.37930115 179.42002869 89.37472534 C187.64353763 89.33452998 195.86701323 89.3041391 204.09059811 89.28455925 C208.31768447 89.27415443 212.54468915 89.26005605 216.77172852 89.23730469 C220.85660662 89.2154579 224.94140652 89.20359017 229.02633858 89.19842911 C230.57912997 89.19475449 232.13191743 89.18757926 233.68467522 89.17672348 C247.55799315 89.08365262 258.00971701 89.98613186 268.53515625 99.63818359 C275.99752455 107.4412993 276.93170712 116.7566747 276.9621582 127.05273438 C276.9687294 128.02090591 276.9753006 128.98907745 276.98207092 129.98658752 C277.00175427 133.18555791 277.01345648 136.38448142 277.0234375 139.58349609 C277.02751303 140.67946987 277.03158855 141.77544365 277.03578758 142.90462875 C277.05662874 148.70741333 277.07093805 154.51017441 277.08032227 160.31298828 C277.09137301 166.28799573 277.12576353 172.26262939 277.16549397 178.23750496 C277.19171672 182.847958 277.20001922 187.45832279 277.20360374 192.06884384 C277.20845627 194.27031855 277.22003188 196.47178967 277.23864174 198.67319107 C277.3538343 213.20454514 277.44937064 226.24496193 266.78515625 237.38818359 C260.94369284 242.38818359 260.94369284 242.38818359 257.78515625 242.38818359 C257.78653894 243.92877253 257.78653894 243.92877253 257.78794956 245.50048447 C257.81013171 270.47072766 257.82657374 295.44096959 257.83696842 320.41122055 C257.84212859 332.48655294 257.849166 344.56187882 257.8605957 356.63720703 C257.87055104 367.15988426 257.87701171 377.68255678 257.87924474 388.20523858 C257.8805504 393.77885791 257.88362714 399.35246377 257.89088631 404.9260788 C257.8976599 410.16921229 257.89977046 415.41232672 257.89826393 420.65546417 C257.89853965 422.5824036 257.90053685 424.50934365 257.90436172 426.4362793 C257.90931983 429.0623405 257.90814665 431.68832929 257.90541077 434.31439209 C257.90832361 435.08093038 257.91123645 435.84746868 257.91423756 436.6372354 C257.90465996 440.02680337 257.8520308 443.1487055 256.78515625 446.38818359 C257.80996094 446.33017578 258.83476562 446.27216797 259.890625 446.21240234 C261.25125636 446.16548402 262.61193721 446.11998607 263.97265625 446.07568359 C264.64619141 446.03378906 265.31972656 445.99189453 266.01367188 445.94873047 C269.92227226 445.85339875 271.62049277 446.26322926 274.765625 448.64990234 C276.78515625 451.38818359 276.78515625 451.38818359 277.23046875 453.52099609 C277.12476563 454.17841797 277.0190625 454.83583984 276.91015625 455.51318359 C276.83023437 456.17576172 276.7503125 456.83833984 276.66796875 457.52099609 C275.33241918 460.34574252 273.56668368 461.02969705 270.78515625 462.38818359 C267.55380917 462.76423109 267.55380917 462.76423109 263.81199646 462.76570702 C263.11886876 462.77006734 262.42574106 462.77442766 261.71160948 462.77892011 C259.38363187 462.78988873 257.056245 462.77944722 254.72827148 462.76913452 C253.04459803 462.77259046 251.36092684 462.77735459 249.6772604 462.78331625 C245.04630672 462.79586475 240.415538 462.78963839 235.78458357 462.7803576 C230.79201458 462.77358319 225.7994779 462.78404034 220.80691528 462.79229736 C211.0247694 462.80565409 201.24269248 462.80274832 191.46054387 462.79405944 C183.51209143 462.78729093 175.56365835 462.78636257 167.61520386 462.78963089 C166.48497754 462.79009059 165.35475121 462.79055029 164.19027561 462.79102392 C161.89441593 462.79198307 159.59855625 462.79295571 157.30269659 462.79394169 C135.76220494 462.80250127 114.22175156 462.79265255 92.68126619 462.77654059 C74.18885881 462.7631369 55.69650792 462.76546484 37.20410156 462.77929688 C15.74195583 462.79534266 -5.72015635 462.80167724 -27.18230724 462.79246008 C-29.46983528 462.79150441 -31.75736331 462.7905613 -34.04489136 462.78963089 C-35.73325909 462.78893665 -35.73325909 462.78893665 -37.45573527 462.78822839 C-45.39685944 462.78563549 -53.33796237 462.79001594 -61.27908325 462.79706955 C-70.9534752 462.80547362 -80.62779411 462.80322744 -90.30217767 462.78722732 C-95.24047254 462.77932988 -100.17864551 462.77627805 -105.11693954 462.78617477 C-109.63458636 462.79509173 -114.15199789 462.79023851 -118.66962326 462.77424212 C-120.30683085 462.77088156 -121.94405819 462.77261687 -123.58125317 462.77986948 C-125.80168189 462.78895381 -128.02129809 462.779675 -130.24168396 462.76570702 C-132.09388125 462.76497643 -132.09388125 462.76497643 -133.98349667 462.76423109 C-137.50554431 462.35435336 -139.39871635 461.50504813 -142.21484375 459.38818359 C-143.09765625 457.52099609 -143.09765625 457.52099609 -143.33984375 455.51318359 C-143.49839844 454.52705078 -143.49839844 454.52705078 -143.66015625 453.52099609 C-142.91274947 449.94131099 -141.0720901 448.55639544 -138.21484375 446.38818359 C-135.37610365 446.02047115 -133.19664224 445.90187555 -130.40234375 446.07568359 C-129.70947266 446.09824219 -129.01660156 446.12080078 -128.30273438 446.14404297 C-126.60582802 446.20255698 -124.91004514 446.2922288 -123.21484375 446.38818359 C-123.3773635 445.89470554 -123.53988325 445.40122749 -123.70732784 444.89279556 C-124.42076436 441.37195686 -124.34868831 437.890724 -124.33509827 434.31439209 C-124.33595269 433.49426392 -124.33680712 432.67413575 -124.33768743 431.82915521 C-124.33933618 429.07765035 -124.33383074 426.32620629 -124.32836914 423.57470703 C-124.32808711 421.60369875 -124.32824531 419.63269035 -124.32881165 417.66168213 C-124.32909901 412.3067087 -124.32321208 406.95175759 -124.31623769 401.59678936 C-124.30999405 396.00204773 -124.30939955 390.40730561 -124.30821228 384.81256104 C-124.30510195 374.21623189 -124.29689257 363.61991303 -124.28686279 353.02358842 C-124.2756924 340.96084868 -124.27018887 328.89810845 -124.26516736 316.83536482 C-124.25470973 292.01963203 -124.23711604 267.20390839 -124.21484375 242.38818359 C-125.0025415 242.08058105 -125.79023926 241.77297852 -126.60180664 241.45605469 C-134.32631132 238.29927776 -137.57149335 232.50495744 -141.05078125 225.19287109 C-142.61894589 221.41454153 -143.33859146 218.22648193 -143.35528564 214.1401062 C-143.36099579 213.29922958 -143.36670593 212.45835297 -143.37258911 211.59199524 C-143.37370697 210.6776622 -143.37482483 209.76332916 -143.37597656 208.82128906 C-143.38094147 207.85165726 -143.38590637 206.88202545 -143.39102173 205.88301086 C-143.40563048 202.67379038 -143.41244433 199.46461938 -143.41796875 196.25537109 C-143.42372261 194.02059936 -143.42948032 191.78582763 -143.4352417 189.55105591 C-143.44574897 184.86199718 -143.45159299 180.17295557 -143.45507812 175.48388672 C-143.46055285 169.49200554 -143.48456034 163.50035274 -143.51305008 157.50854301 C-143.5317299 152.8895503 -143.53688498 148.27061191 -143.538414 143.65158463 C-143.54143055 141.4437142 -143.54942515 139.2358445 -143.56259918 137.02801132 C-143.57976628 133.92898268 -143.57775303 130.83050297 -143.57128906 127.73144531 C-143.58050385 126.82925766 -143.58971863 125.92707001 -143.59921265 124.99754333 C-143.52873194 114.14166659 -140.37563737 105.79030341 -133.02734375 97.76318359 C-125.69622393 90.652312 -116.92133728 89.25703325 -107.01611328 89.2746582 C-105.97604378 89.27443916 -105.97604378 89.27443916 -104.91496277 89.2742157 C-102.64249449 89.27490764 -100.37011006 89.28266609 -98.09765625 89.29052734 C-96.51439458 89.29239408 -94.93113233 89.29381678 -93.34786987 89.29481506 C-89.19521469 89.29862011 -85.04259489 89.30843308 -80.88995361 89.31951904 C-76.64669269 89.32977656 -72.40342602 89.33432196 -68.16015625 89.33935547 C-59.84503591 89.35005727 -51.52994424 89.36710936 -43.21484375 89.38818359 C-43.2248365 88.25638168 -43.2248365 88.25638168 -43.23503113 87.10171509 C-43.29541578 79.95280361 -43.34095601 72.80401772 -43.37028027 65.65491676 C-43.38586353 61.98044482 -43.4069654 58.30618554 -43.44116211 54.63183594 C-43.47402041 51.07861651 -43.49175179 47.52560022 -43.49947548 43.97224045 C-43.50762691 41.97276859 -43.53100299 39.97337719 -43.55473328 37.97402954 C-43.55692793 25.95894383 -41.62388462 17.21680238 -33.21484375 8.38818359 C-23.98233941 -0.3229558 -11.96013725 -0.05071223 0 0 Z M-22.21484375 20.38818359 C-26.15515203 25.33882733 -27.34143697 29.00321708 -27.32836914 35.23657227 C-27.32829361 36.43759079 -27.32821808 37.63860931 -27.32814026 38.87602234 C-27.32297897 40.17296524 -27.31781769 41.46990814 -27.3125 42.80615234 C-27.31063452 44.14707893 -27.30921123 45.4880062 -27.30821228 46.82893372 C-27.30439731 50.35527433 -27.29457574 53.88157364 -27.2835083 57.40789795 C-27.27327225 61.00744061 -27.26870996 64.60698995 -27.26367188 68.20654297 C-27.25295255 75.26710833 -27.235364 82.32763892 -27.21484375 89.38818359 C-22.59484375 89.38818359 -17.97484375 89.38818359 -13.21484375 89.38818359 C-13.20549805 87.96030518 -13.19615234 86.53242676 -13.18652344 85.0612793 C-13.14662326 79.7588797 -13.08086351 74.45706029 -13.00732422 69.1550293 C-12.97911493 66.86115985 -12.95790022 64.56719321 -12.94384766 62.27319336 C-12.92241824 58.97377767 -12.87576592 55.67553057 -12.82421875 52.37646484 C-12.82299011 51.35232986 -12.82176147 50.32819489 -12.82049561 49.27302551 C-12.73096831 44.91158774 -12.65626956 42.14404393 -10.42675781 38.32641602 C-6.47437156 34.86306122 -3.62469346 34.13772031 1.6166687 34.12075806 C2.80830627 34.11222809 3.99994385 34.10369812 5.22769165 34.09490967 C6.53168915 34.09581604 7.83568665 34.09672241 9.17919922 34.09765625 C10.56905478 34.0916706 11.95890702 34.08486497 13.34875488 34.07730103 C17.12154562 34.05963741 20.89424563 34.0549455 24.66707373 34.05366945 C27.02501843 34.0522475 29.38294008 34.04797706 31.74087906 34.04267502 C39.96935744 34.02417355 48.19777104 34.01600455 56.42626953 34.01757812 C64.09258168 34.01877956 71.7586123 33.99767724 79.42485321 33.9660908 C86.01012459 33.93992649 92.59530403 33.92921089 99.18062699 33.93048894 C103.11225731 33.93099854 107.04363743 33.92531713 110.97521591 33.90413284 C114.67386065 33.88474762 118.37201659 33.88462747 122.07067871 33.89916611 C124.07099782 33.90224923 126.07131699 33.88557973 128.07156372 33.86828613 C139.10663812 33.94560572 139.10663812 33.94560572 143.78515625 38.38818359 C145.91309793 41.58009612 146.04615168 42.46139344 146.10400391 46.13500977 C146.13380844 47.57616402 146.13380844 47.57616402 146.16421509 49.0464325 C146.1815419 50.59811882 146.1815419 50.59811882 146.19921875 52.18115234 C146.22826797 53.77290031 146.22826797 53.77290031 146.25790405 55.39680481 C146.31773458 58.78968237 146.36409946 62.18259379 146.41015625 65.57568359 C146.4483328 67.8745266 146.48738434 70.17335526 146.52734375 72.47216797 C146.62343912 78.11072342 146.70745759 83.74934584 146.78515625 89.38818359 C151.40515625 89.38818359 156.02515625 89.38818359 160.78515625 89.38818359 C160.87581172 81.703389 160.94907562 74.01879589 160.99240494 66.33359528 C161.0132094 62.76434841 161.04139394 59.19548886 161.08691406 55.62646484 C161.13063025 52.17697893 161.15434696 48.72786368 161.16466522 45.27812195 C161.1755663 43.33279178 161.20675091 41.38760907 161.23834229 39.44250488 C161.24014594 32.27478823 160.77129118 27.42756423 156.78515625 21.38818359 C151.61086312 17.26986865 147.83177432 16.26453666 141.32807922 16.24101257 C140.66962499 16.23733589 140.01117076 16.2336592 139.33276337 16.22987109 C137.12198086 16.21884062 134.91124536 16.21499149 132.70043945 16.21118164 C131.11693676 16.20491645 129.53343553 16.19826959 127.94993591 16.19126892 C122.74528018 16.17023067 117.54062417 16.15986594 112.3359375 16.14990234 C110.54347404 16.14585453 108.75101074 16.1417376 106.95854759 16.13755226 C98.53623815 16.11850017 90.11393748 16.10426985 81.69161063 16.09594029 C71.97420078 16.08617098 62.2570189 16.05985958 52.53968936 16.0194394 C45.02618827 15.98926052 37.51275246 15.97446969 29.99919194 15.97115928 C25.51303855 15.96881057 21.02712871 15.95987374 16.54104042 15.9346981 C12.31796557 15.91138166 8.09529399 15.9071984 3.8721714 15.91745949 C2.32584795 15.91795411 0.77950441 15.91165528 -0.76675797 15.89790344 C-12.08478591 15.78680762 -12.08478591 15.78680762 -22.21484375 20.38818359 Z M2.78515625 49.38818359 C2.78515625 62.58818359 2.78515625 75.78818359 2.78515625 89.38818359 C45.02515625 89.38818359 87.26515625 89.38818359 130.78515625 89.38818359 C130.78515625 76.18818359 130.78515625 62.98818359 130.78515625 49.38818359 C88.54515625 49.38818359 46.30515625 49.38818359 2.78515625 49.38818359 Z M-122.17578125 110.10693359 C-122.87574219 110.98865234 -122.87574219 110.98865234 -123.58984375 111.88818359 C-124.07195312 112.47599609 -124.5540625 113.06380859 -125.05078125 113.66943359 C-127.19388899 116.83375375 -127.33493112 119.57376736 -127.3125 123.27490234 C-127.30927734 124.21269531 -127.30605469 125.15048828 -127.30273438 126.11669922 C-127.29435547 127.09316406 -127.28597656 128.06962891 -127.27734375 129.07568359 C-127.27283203 130.06375 -127.26832031 131.05181641 -127.26367188 132.06982422 C-127.25188678 134.50933833 -127.23543386 136.94873048 -127.21484375 139.38818359 C-125.87679687 139.42685547 -125.87679687 139.42685547 -124.51171875 139.46630859 C-122.75601563 139.55138672 -122.75601563 139.55138672 -120.96484375 139.63818359 C-119.8046875 139.68458984 -118.64453125 139.73099609 -117.44921875 139.77880859 C-113.7055519 140.48413713 -112.47907533 141.37653577 -110.21484375 144.38818359 C-109.71484375 147.38818359 -109.71484375 147.38818359 -110.21484375 150.38818359 C-112.47907533 153.39983142 -113.7055519 154.29223006 -117.44921875 154.99755859 C-118.609375 155.04396484 -119.76953125 155.09037109 -120.96484375 155.13818359 C-122.1353125 155.19490234 -123.30578125 155.25162109 -124.51171875 155.31005859 C-125.40375 155.33583984 -126.29578125 155.36162109 -127.21484375 155.38818359 C-127.3078411 163.20333547 -127.37875848 171.01835583 -127.42209244 178.83392334 C-127.4428989 182.4637009 -127.47108729 186.09309775 -127.51660156 189.72265625 C-127.56031034 193.23049622 -127.58403296 196.73797179 -127.59435272 200.24606323 C-127.60525629 202.22463003 -127.6364421 204.2030518 -127.66802979 206.18139648 C-127.6697169 212.99779961 -127.62738451 218.89193643 -123.21484375 224.38818359 C-118.46531904 228.601844 -113.02170058 229.80441984 -107.00390625 231.31396484 C-105.90446686 231.60000076 -104.80502747 231.88603668 -103.67227173 232.18074036 C-101.06619405 232.85768694 -98.4592625 233.53009601 -95.85070801 234.19732666 C-90.55422862 235.5543963 -85.26503995 236.93908742 -79.97558594 238.32324219 C-67.98903791 241.45773751 -55.99785501 244.57424483 -44.00598145 247.68829346 C-39.43606773 248.87539325 -34.86651882 250.0638939 -30.29697227 251.25240612 C-25.84435841 252.41035471 -21.39154897 253.56754976 -16.93867874 254.7245121 C-14.8362073 255.27085044 -12.73378619 255.81738248 -10.63142014 256.36412621 C1.1600378 259.43002604 12.95810939 262.4623086 24.78515625 265.38818359 C24.79635498 264.51186279 24.80755371 263.63554199 24.8190918 262.73266602 C24.86927768 259.20052272 24.95269408 255.66971577 25.03515625 252.13818359 C25.04933594 250.88392578 25.06351563 249.62966797 25.078125 248.33740234 C25.11035156 247.13212891 25.14257812 245.92685547 25.17578125 244.68505859 C25.19672852 243.57485352 25.21767578 242.46464844 25.23925781 241.32080078 C25.90189916 237.7610298 26.92624811 236.5521372 29.78515625 234.38818359 C33.89293374 233.88519043 35.29391608 234.06069015 38.78515625 236.38818359 C39.91256336 239.77040491 39.94433316 242.40457062 39.99047852 245.97094727 C40.00037811 246.63462814 40.01027771 247.29830902 40.02047729 247.98210144 C40.05203715 250.17341559 40.0768278 252.36475141 40.1015625 254.55615234 C40.1221368 256.07644714 40.1431334 257.59673628 40.16453552 259.11701965 C40.21970709 263.11676447 40.269138 267.11656048 40.31738281 271.11639404 C40.37647014 275.9164057 40.44267106 280.71632387 40.5076828 285.51625824 C40.6056305 292.80684288 40.69452872 300.09748772 40.78515625 307.38818359 C57.94515625 307.38818359 75.10515625 307.38818359 92.78515625 307.38818359 C92.85863281 300.09466797 92.85863281 300.09466797 92.93359375 292.65380859 C92.96898012 289.57305863 93.00494008 286.4923368 93.04296875 283.41162109 C93.10327185 278.52201364 93.16145238 273.63244554 93.20703125 268.74267578 C93.24391172 264.80034043 93.29027907 260.85822028 93.34321976 256.91606903 C93.36174905 255.41222662 93.37686245 253.90833811 93.38850021 252.40442657 C93.40538799 250.29755122 93.4344282 248.19116711 93.46630859 246.08447266 C93.4862941 244.28577728 93.4862941 244.28577728 93.50668335 242.45074463 C93.77391944 239.51176261 94.15211535 237.81760871 95.78515625 235.38818359 C98.62599266 233.96776539 100.63992903 234.07366087 103.78515625 234.38818359 C106.64979045 236.54735785 107.66828237 237.76032622 108.33105469 241.32080078 C108.35200195 242.43100586 108.37294922 243.54121094 108.39453125 244.68505859 C108.42514648 245.77141602 108.45576172 246.85777344 108.48730469 247.97705078 C108.50338075 249.3640936 108.51930555 250.75113818 108.53515625 252.13818359 C108.5784289 254.50181497 108.62311537 256.86542073 108.66894531 259.22900391 C108.70768229 261.2820638 108.74641927 263.3351237 108.78515625 265.38818359 C132.34448399 259.54560885 155.86277142 253.56050365 179.34844971 247.42883301 C182.44383586 246.62121305 185.53973924 245.81558572 188.63563156 245.00990868 C196.18209941 243.04593168 203.72644547 241.07407219 211.26856613 239.09346581 C215.61219864 237.95392909 219.95864642 236.8260224 224.30771446 235.70741558 C227.06998405 234.99542954 229.83035378 234.27626962 232.59036636 233.55558968 C234.476703 233.06555446 236.36537704 232.58454415 238.25411987 232.10386658 C249.47365056 229.36292281 249.47365056 229.36292281 258.22265625 222.32568359 C260.46679888 218.10669545 260.90841136 215.16691089 260.89868164 210.44799805 C260.89856834 208.61643913 260.89856834 208.61643913 260.89845276 206.74787903 C260.89071083 204.76965401 260.89071083 204.76965401 260.8828125 202.75146484 C260.88094705 201.388118 260.87952375 200.02477048 260.87852478 198.66142273 C260.87470957 195.07589868 260.8648878 191.49041525 260.8538208 187.90490723 C260.84358526 184.2450414 260.83902257 180.58516899 260.83398438 176.92529297 C260.82326463 169.74623801 260.80620018 162.5672165 260.78515625 155.38818359 C259.44710937 155.34951172 259.44710937 155.34951172 258.08203125 155.31005859 C256.32632813 155.22498047 256.32632813 155.22498047 254.53515625 155.13818359 C253.375 155.09177734 252.21484375 155.04537109 251.01953125 154.99755859 C247.2758644 154.29223006 246.04938783 153.39983142 243.78515625 150.38818359 C243.28515625 147.38818359 243.28515625 147.38818359 243.78515625 144.38818359 C246.04938783 141.37653577 247.2758644 140.48413713 251.01953125 139.77880859 C252.1796875 139.73240234 253.33984375 139.68599609 254.53515625 139.63818359 C255.705625 139.58146484 256.87609375 139.52474609 258.08203125 139.46630859 C258.9740625 139.44052734 259.86609375 139.41474609 260.78515625 139.38818359 C260.8728318 136.01334946 260.92577253 132.63881144 260.97265625 129.26318359 C260.99779297 128.31185547 261.02292969 127.36052734 261.04882812 126.38037109 C261.11571693 119.9590456 260.5753879 115.47621259 256.1015625 110.52490234 C255.23337891 109.80753906 255.23337891 109.80753906 254.34765625 109.07568359 C253.77144531 108.58455078 253.19523437 108.09341797 252.6015625 107.58740234 C248.8766226 105.12814095 245.05388991 105.26175385 240.6902647 105.25675583 C239.43259499 105.25291468 238.17492528 105.24907354 236.87914437 105.245116 C235.48084615 105.24589624 234.08254798 105.24677502 232.68424988 105.2477417 C231.20085759 105.24515807 229.717466 105.24214491 228.23407537 105.2387383 C224.15205699 105.23066494 220.0700562 105.22887854 215.98803079 105.22814083 C211.58778497 105.22629088 207.18754828 105.21874388 202.78730774 105.21200562 C193.16341583 105.19841981 183.53952809 105.19239731 173.91562819 105.18799496 C167.90798272 105.18523319 161.90033886 105.18099598 155.89269447 105.17649078 C139.26339793 105.16429825 122.63410267 105.15399861 106.00480175 105.15061569 C104.94036312 105.15039613 103.87592449 105.15017656 102.77923014 105.14995034 C101.71222948 105.14973206 100.64522882 105.14951378 99.5458948 105.14928889 C97.38370526 105.14884542 95.22151571 105.14839886 93.05932617 105.14794922 C91.45054146 105.14761707 91.45054146 105.14761707 89.80925605 105.14727822 C72.42573031 105.14332916 55.04224646 105.12587176 37.65873691 105.1025897 C19.81680901 105.07888626 1.97490214 105.06641432 -15.86704177 105.06524777 C-25.88687177 105.06433049 -35.90664719 105.0585648 -45.92646217 105.04042816 C-54.45749877 105.02504084 -62.9884639 105.01989865 -71.51951174 105.02816626 C-75.87275841 105.0320775 -80.22586109 105.03112009 -84.57909012 105.01710892 C-88.56457531 105.00439854 -92.54980789 105.0055422 -96.53529259 105.01769963 C-97.976744 105.01966159 -99.41821313 105.01655516 -100.85963962 105.00785527 C-112.36721316 104.76709218 -112.36721316 104.76709218 -122.17578125 110.10693359 Z M-108.21484375 247.38818359 C-108.21484375 295.56818359 -108.21484375 343.74818359 -108.21484375 393.38818359 C7.28515625 393.38818359 122.78515625 393.38818359 241.78515625 393.38818359 C241.78515625 345.20818359 241.78515625 297.02818359 241.78515625 247.38818359 C235.45619441 248.65397596 229.24887212 249.95910787 223.01953125 251.58374023 C222.20461716 251.79390778 221.38970306 252.00407532 220.5500946 252.22061157 C217.8777559 252.91053981 215.20644924 253.60437479 212.53515625 254.29833984 C210.63555293 254.78979858 208.73589355 255.28104066 206.83618164 255.77207947 C202.84819733 256.80349244 198.86068295 257.83669598 194.87353516 258.87133789 C189.87250536 260.16905384 184.87067804 261.46365997 179.86853027 262.7570591 C156.15327646 268.88965326 132.4564656 275.0880805 108.78515625 281.38818359 C108.78515625 289.96818359 108.78515625 298.54818359 108.78515625 307.38818359 C111.42515625 308.70818359 114.06515625 310.02818359 116.78515625 311.38818359 C121.17893133 316.56056106 120.27187258 322.79562815 120.23120117 329.25317383 C120.222693 331.31677109 120.25147481 333.37759384 120.28320312 335.44091797 C120.28223633 337.40834961 120.28223633 337.40834961 120.28125 339.41552734 C120.28310303 340.60911865 120.28495605 341.80270996 120.28686523 343.0324707 C119.68247167 347.07499605 118.32575428 349.21998624 115.78515625 352.38818359 C111.88649184 354.9872932 108.60218738 354.6835825 104.07861328 354.67871094 C102.74401062 354.68878677 102.74401062 354.68878677 101.38244629 354.69906616 C98.43589724 354.71809191 95.48957543 354.7219727 92.54296875 354.72412109 C90.4965709 354.73054598 88.45017398 354.7372741 86.40377808 354.74429321 C82.11144887 354.75627753 77.81920022 354.75997286 73.52685547 354.75878906 C68.02646003 354.75858584 62.52658108 354.78588634 57.02630806 354.82033348 C52.79867175 354.84257066 48.57116034 354.84662757 44.34347153 354.84556961 C42.3156748 354.84793043 40.28787487 354.85678092 38.26013565 354.87223434 C35.4232187 354.89182926 32.58742328 354.88608175 29.75048828 354.87402344 C28.91290985 354.88526245 28.07533142 354.89650146 27.21237183 354.90808105 C23.20140927 354.86475613 21.26297746 354.69545225 17.80554199 352.47210693 C12.48093108 346.98004632 13.4128238 340.90893211 13.41455078 333.59863281 C13.41018398 331.5263407 13.3738594 329.45619209 13.3359375 327.38427734 C13.33207031 326.06814453 13.32820313 324.75201172 13.32421875 323.39599609 C13.31600098 322.19604004 13.3077832 320.99608398 13.29931641 319.75976562 C13.90120655 315.58282953 15.00689402 313.55955895 17.78515625 310.38818359 C20.09515625 309.39818359 22.40515625 308.40818359 24.78515625 307.38818359 C24.78515625 298.80818359 24.78515625 290.22818359 24.78515625 281.38818359 C22.33932129 280.74905029 19.89348633 280.10991699 17.37353516 279.45141602 C9.09564326 277.28826056 0.81778519 275.12497567 -7.46005821 272.96163464 C-13.42283622 271.40332011 -19.38563597 269.84508886 -25.34846115 268.28695488 C-28.25000908 267.52871777 -31.15152484 266.77035765 -34.05303955 266.01199341 C-37.92914933 264.99894043 -41.80542914 263.98654143 -45.68182373 262.97457886 C-54.58030897 260.65079075 -63.47731691 258.32178273 -72.36890984 255.97173977 C-76.29108371 254.93519355 -80.21390409 253.90110545 -84.13673782 252.86705971 C-85.9940665 252.37661739 -87.85104405 251.8848433 -89.70765305 251.39168358 C-92.26210174 250.71319659 -94.8176764 250.03911912 -97.37353516 249.3659668 C-98.12860981 249.16407808 -98.88368446 248.96218937 -99.66164017 248.75418282 C-102.60077529 247.98383547 -105.1618042 247.38818359 -108.21484375 247.38818359 Z M28.78515625 323.38818359 C28.78515625 328.99818359 28.78515625 334.60818359 28.78515625 340.38818359 C53.86515625 340.38818359 78.94515625 340.38818359 104.78515625 340.38818359 C104.78515625 334.77818359 104.78515625 329.16818359 104.78515625 323.38818359 C79.70515625 323.38818359 54.62515625 323.38818359 28.78515625 323.38818359 Z M-108.21484375 409.38818359 C-108.21484375 419.61818359 -108.21484375 429.84818359 -108.21484375 440.38818359 C-102.71142961 446.10860202 -102.71142961 446.10860202 -95.73527813 446.51961136 C-93.97829886 446.52537308 -93.97829886 446.52537308 -92.18582505 446.53125119 C-90.8877027 446.53038471 -89.58958036 446.52951823 -88.25212097 446.52862549 C-86.86802456 446.53120773 -85.48392889 446.53422049 -84.09983426 446.53762889 C-80.2830735 446.54571874 -76.46633152 446.54748956 -72.64956319 446.54822636 C-68.53834804 446.55007347 -64.42714272 446.55761907 -60.31593323 446.56436157 C-51.32013641 446.57795953 -42.32434404 446.58397189 -33.32853866 446.58837223 C-27.71456733 446.5911322 -22.10059774 446.5953691 -16.48662758 446.5998764 C-0.9520068 446.61207101 14.58261258 446.62236993 30.11723804 446.6257515 C31.11202737 446.62597106 32.1068167 446.62619063 33.13175116 446.62641685 C34.12896019 446.62663512 35.12616922 446.6268534 36.1535967 446.62707829 C38.17441928 446.62752177 40.19524187 446.62796833 42.21606445 446.62841797 C43.71967047 446.62875011 43.71967047 446.62875011 45.25365236 446.62908897 C61.50054908 446.63303798 77.74740097 446.65049429 93.99428038 446.67377749 C110.66318255 446.69747323 127.33206221 446.70995254 144.00098151 446.71111941 C153.36461463 446.71203718 162.72818935 446.71781496 172.09180641 446.73593903 C180.06446762 446.75131606 188.03705239 446.75647469 196.00972561 446.74820092 C200.07917701 446.74428588 204.14847437 446.74526545 208.21790695 446.75925827 C211.94184689 446.77194626 215.66551623 446.77084495 219.38945552 446.75866756 C221.37795017 446.75576888 223.36644927 446.7676849 225.35490733 446.78008962 C227.12362147 446.77020485 227.12362147 446.77020485 228.92806721 446.76012039 C229.94577271 446.76071748 230.96347821 446.76131457 232.01202327 446.76192975 C235.28726746 446.32051207 237.13612472 445.33984098 239.78515625 443.38818359 C246.08262556 433.94197963 241.78515625 420.74110784 241.78515625 409.38818359 C126.28515625 409.38818359 10.78515625 409.38818359 -108.21484375 409.38818359 Z " fill="#4d1300" transform="translate(189.21484375,24.61181640625)"/>
<path d="M0 0 C0.82830322 -0.00191345 1.65660645 -0.0038269 2.51000977 -0.00579834 C4.25830388 -0.00715712 6.00660818 -0.00348214 7.75488281 0.00488281 C10.42796534 0.01558682 13.10037583 0.00497727 15.7734375 -0.0078125 C17.47395981 -0.00649085 19.17448171 -0.00392834 20.875 0 C21.67301025 -0.00404846 22.47102051 -0.00809692 23.29321289 -0.01226807 C30.2852274 0.04669574 30.2852274 0.04669574 33.4375 2.265625 C35.5190902 4.94195526 35.43337591 6.38316168 35.3125 9.828125 C34.4375 13.265625 34.4375 13.265625 32.9453125 14.95556641 C29.1696468 16.92794006 25.63746264 16.69436229 21.4375 16.6640625 C20.12845703 16.66836777 20.12845703 16.66836777 18.79296875 16.67276001 C16.95051422 16.67479867 15.10803795 16.66928264 13.265625 16.65673828 C10.44742379 16.64068154 7.63065667 16.65659338 4.8125 16.67578125 C3.02083017 16.67379878 1.22916124 16.66995503 -0.5625 16.6640625 C-1.82513672 16.67317154 -1.82513672 16.67317154 -3.11328125 16.6824646 C-6.59561558 16.64065415 -8.94957929 16.58580924 -12.0703125 14.95556641 C-14.44601748 12.26501832 -14.43957988 9.76884846 -14.5625 6.265625 C-13.80528903 3.71864264 -13.17537504 2.69703641 -11.015625 1.17675781 C-7.39402496 -0.16836673 -3.81224098 -0.01934024 0 0 Z " fill="#4d1300" transform="translate(245.5625,163.734375)"/>
<path d="M0 0 C0.8245166 -0.00524185 1.6490332 -0.0104837 2.49853516 -0.0158844 C4.23664222 -0.02228962 5.97479272 -0.02098705 7.71289062 -0.01245117 C10.36667214 -0.00393298 13.01830546 -0.03273422 15.671875 -0.06445312 C17.36458269 -0.06606517 19.05729418 -0.06548754 20.75 -0.0625 C21.93456787 -0.07935097 21.93456787 -0.07935097 23.14306641 -0.09654236 C27.06100327 -0.04715994 28.95567482 0.1683857 32.3515625 2.31616211 C34.75174235 4.8278368 35.375 5.96231006 35.375 9.43359375 C33.09789157 15.07214797 33.09789157 15.07214797 30.375 16.43359375 C24.72220147 16.71903388 19.06825965 16.74737909 13.40893555 16.78369141 C11.51655781 16.80024707 9.6242425 16.8275321 7.73217773 16.86572266 C5.00211186 16.92053847 2.2735111 16.94237193 -0.45703125 16.95703125 C-1.7213372 16.99103531 -1.7213372 16.99103531 -3.01118469 17.02572632 C-7.41148627 17.00993152 -9.09493695 16.85125266 -12.67016602 14.03417969 C-14.625 11.43359375 -14.625 11.43359375 -15.0703125 9.30078125 C-14.96460938 8.64335937 -14.85890625 7.9859375 -14.75 7.30859375 C-14.67007812 6.64601562 -14.59015625 5.9834375 -14.5078125 5.30078125 C-11.82142895 -0.38103882 -5.46199655 -0.02030417 0 0 Z " fill="#4d1300" transform="translate(312.625,163.56640625)"/>
<path d="M0 0 C0.8273465 -0.00428513 1.65469299 -0.00857025 2.5071106 -0.01298523 C4.2571725 -0.01872689 6.00725827 -0.01922999 7.75732422 -0.01489258 C10.42847708 -0.01173863 13.09851581 -0.03517198 15.76953125 -0.06054688 C17.47135277 -0.06282056 19.17317727 -0.06352304 20.875 -0.0625 C22.06897903 -0.07631462 22.06897903 -0.07631462 23.28707886 -0.09040833 C27.86536876 -0.05242225 30.84235248 0.34691584 34.5703125 3.30078125 C35.453125 5.16796875 35.453125 5.16796875 35.6953125 7.17578125 C35.80101562 7.83320313 35.90671875 8.490625 36.015625 9.16796875 C35.27140761 12.73237836 33.382553 14.07560019 30.5703125 16.30078125 C27.53318513 17.01914033 24.58229391 16.9789684 21.47265625 16.9296875 C20.1657357 16.93330544 20.1657357 16.93330544 18.83241272 16.93699646 C16.99589472 16.93601951 15.15934672 16.92266203 13.32299805 16.89770508 C10.51314332 16.86334643 7.70642643 16.87706478 4.89648438 16.89648438 C3.10936163 16.88958692 1.32224698 16.87991543 -0.46484375 16.8671875 C-1.30346451 16.87214737 -2.14208527 16.87710724 -3.00611877 16.88221741 C-8.81298202 16.76498046 -8.81298202 16.76498046 -11.93139648 14.41772461 C-13.71698842 11.89485225 -14.35408971 10.40029071 -14.4296875 7.30078125 C-11.20169453 0.36059637 -7.07228789 -0.00805682 0 0 Z " fill="#4d1300" transform="translate(178.4296875,163.69921875)"/>
<path d="M0 0 C0.84671265 -0.00241196 1.69342529 -0.00482391 2.5657959 -0.00730896 C4.35104061 -0.00633206 6.1363162 0.00702428 7.92138672 0.03198242 C10.6478608 0.06630065 13.37109312 0.0526329 16.09765625 0.03320312 C17.83595124 0.04010192 19.5742379 0.0497746 21.3125 0.0625 C22.12408569 0.05754013 22.93567139 0.05258026 23.77185059 0.04747009 C27.75541521 0.13001048 29.72196708 0.35358713 33.16967773 2.53930664 C35.15625 4.62890625 35.15625 4.62890625 35.78515625 6.62890625 C35.76324219 7.28890625 35.74132812 7.94890625 35.71875 8.62890625 C35.72068359 9.61890625 35.72068359 9.61890625 35.72265625 10.62890625 C34.86400324 13.66083964 33.67966434 14.71963172 31.15625 16.62890625 C28.17198782 17.24059773 25.22969789 17.21328192 22.19140625 17.1953125 C21.32108261 17.20151108 20.45075897 17.20770966 19.55406189 17.21409607 C17.7158215 17.22119082 15.87751682 17.21802619 14.03930664 17.20532227 C11.23137682 17.19146855 8.42678835 17.22551445 5.61914062 17.26367188 C3.83072835 17.26462324 2.04231192 17.26276333 0.25390625 17.2578125 C-0.58269028 17.27107071 -1.4192868 17.28432892 -2.28123474 17.29798889 C-6.61265977 17.22905764 -8.34059405 17.01950189 -11.87329102 14.27709961 C-13.84375 11.62890625 -13.84375 11.62890625 -14.46875 8.62890625 C-12.7969489 0.60426095 -6.9856313 -0.11411852 0 0 Z " fill="#4d1300" transform="translate(378.84375,163.37109375)"/>
<path d="M0 0 C1.27006897 -0.00929787 1.27006897 -0.00929787 2.5657959 -0.01878357 C4.35098118 -0.02586845 6.13623271 -0.02273096 7.92138672 -0.01000977 C10.64804911 0.00386452 13.37128305 -0.03024032 16.09765625 -0.06835938 C17.83593834 -0.06931058 19.57422471 -0.06745167 21.3125 -0.0625 C22.12408569 -0.07575821 22.93567139 -0.08901642 23.77185059 -0.10267639 C28.04074621 -0.03267375 29.68914579 0.20188787 33.16992188 2.91821289 C35.15625 5.56640625 35.15625 5.56640625 35.78125 8.56640625 C34.92039185 12.69852535 33.48150047 13.9850429 30.15625 16.56640625 C27.11776912 17.2801162 24.16863924 17.24459986 21.05859375 17.1953125 C19.7516732 17.19893044 19.7516732 17.19893044 18.41835022 17.20262146 C16.58183222 17.20164451 14.74528422 17.18828703 12.90893555 17.16333008 C10.09908082 17.12897143 7.29236393 17.14268978 4.48242188 17.16210938 C2.69529913 17.15521192 0.90818448 17.14554043 -0.87890625 17.1328125 C-1.71752701 17.13777237 -2.55614777 17.14273224 -3.42018127 17.14784241 C-9.23032333 17.03053927 -9.23032333 17.03053927 -12.36865234 14.65600586 C-13.95685393 12.40618505 -14.41157725 11.29396017 -14.40625 8.56640625 C-14.42816406 7.90640625 -14.45007813 7.24640625 -14.47265625 6.56640625 C-12.36378203 -0.14007574 -5.83634335 -0.03566783 0 0 Z " fill="#4d1300" transform="translate(111.84375,163.43359375)"/>
</svg>
