<?xml version="1.0" encoding="UTF-8"?>
<svg version="1.1" xmlns="http://www.w3.org/2000/svg" width="512" height="512">
<path d="M0 0 C1.39798828 0.72896484 1.39798828 0.72896484 2.82421875 1.47265625 C13.3763407 7.56207996 20.05789124 16.52510203 24 28 C24.73320379 30.98696517 25.38499597 33.98664581 26 37 C26.64735107 37.15968262 27.29470215 37.31936523 27.96166992 37.48388672 C53.34463415 43.86264063 73.82750874 52.91940941 93 71 C93.67675781 71.61230469 94.35351562 72.22460938 95.05078125 72.85546875 C105.40398874 82.58623892 117.86693982 98.79476028 120.25 113.1875 C120 117 120 117 118.375 119.5 C114.96997864 121.65053981 112.65009936 122.28973317 108.6640625 121.58984375 C104.42342877 119.05914298 102.97842335 115.01030563 100.8125 110.6875 C96.25333259 102.01394314 91.41783863 94.4189793 85 87 C84.30777344 86.195625 83.61554688 85.39125 82.90234375 84.5625 C58.55030142 58.34422639 20.68800259 51.68652307 -13.33642578 50.11816406 C-47.92790924 49.00245848 -87.55137579 53.85869836 -115 77 C-115.98226562 77.80953125 -116.96453125 78.6190625 -117.9765625 79.453125 C-130.48067664 90.10213519 -138.22067838 103.21413381 -145 118 C-145.47179687 118.99386719 -145.94359375 119.98773438 -146.4296875 121.01171875 C-152.15541488 133.76124215 -154.92849501 147.52748368 -157.1875 161.25 C-157.34226807 162.17514404 -157.49703613 163.10028809 -157.65649414 164.0534668 C-158.16898542 167.36334116 -158.5973075 170.67487351 -159 174 C-159.08461487 174.68980957 -159.16922974 175.37961914 -159.25640869 176.09033203 C-161.79862131 197.77421953 -161.6217558 219.69869544 -162 241.5 C-163.38463309 321.30772181 -163.38463309 321.30772181 -177 344 C-73.71 344 29.58 344 136 344 C133.69 339.38 131.38 334.76 129 330 C127.51171875 325.6953125 127.51171875 325.6953125 126.6875 322.125 C126.53563232 321.46773926 126.38376465 320.81047852 126.22729492 320.13330078 C122.62419904 303.81761431 121.91125469 286.92409367 121.71875 270.2734375 C121.70034058 269.00569489 121.68193115 267.73795227 121.66296387 266.43179321 C121.60488751 262.41290308 121.55189143 258.39397304 121.5 254.375 C121.30839083 217.18958468 121.30839083 217.18958468 118.6875 180.125 C118.49945801 178.34875244 118.49945801 178.34875244 118.30761719 176.53662109 C117.34674217 167.92926477 115.98766641 159.43271636 114.18237305 150.96142578 C113.16389656 146.00396348 112.80415627 142.02508803 114 137 C116 134 116 134 119.8125 133 C121.83203125 132.625 121.83203125 132.625 124 133 C128.6846523 136.57787709 130.07131484 140.27226751 131.125 145.875 C131.28403809 146.66471191 131.44307617 147.45442383 131.60693359 148.26806641 C132.1052267 150.84049833 132.56048798 153.41690305 133 156 C133.14179688 156.82757813 133.28359375 157.65515625 133.4296875 158.5078125 C137.30634438 182.13347614 137.91156472 206.22867562 138.2734375 230.12109375 C138.28364048 230.78939272 138.29384346 231.45769169 138.30435562 232.14624214 C138.41544221 239.53690307 138.5057096 246.92737729 138.57080078 254.31860352 C138.70066394 266.99636871 139.03255727 279.61936423 139.9140625 292.26953125 C139.99168823 293.40197266 140.06931396 294.53441406 140.14929199 295.70117188 C141.25514304 310.21730638 143.30171209 325.56987496 153 337 C153 337.66 153 338.32 153 339 C153.721875 339.28875 154.44375 339.5775 155.1875 339.875 C156.8579687 340.54318748 158.51629843 341.24590126 160.140625 342.01953125 C163.93212782 343.31962306 167.58558684 343.50434128 171.5625 343.8125 C186.39570162 345.23260454 197.53799667 351.17040374 207.17578125 362.53125 C214.37314983 372.27158607 217.07951551 384.28767946 215.375 396.25 C212.50781544 409.89634678 206.05646256 419.53842151 195 428 C184.19540866 434.76287384 172.25516464 435.15818395 159.88061523 435.11352539 C158.80640823 435.11367142 157.73220123 435.11381744 156.6254425 435.1139679 C153.10313847 435.11327569 149.58088846 435.10551587 146.05859375 435.09765625 C143.60522999 435.09578961 141.15186585 435.09436687 138.69850159 435.09336853 C132.26238972 435.08956272 125.82630065 435.07974906 119.39019775 435.06866455 C112.81417143 435.05840871 106.2381414 435.05386199 99.66210938 435.04882812 C86.77472989 435.03812497 73.88736616 435.02126598 61 435 C60.9087812 436.0154464 60.9087812 436.0154464 60.8157196 437.05140686 C60.7317543 437.94460129 60.647789 438.83779572 60.5612793 439.75805664 C60.47984177 440.6412709 60.39840424 441.52448517 60.3144989 442.4344635 C58.58439811 456.54782511 50.89974116 469.27939226 42 480 C41.55269531 480.59296875 41.10539062 481.1859375 40.64453125 481.796875 C30.13370215 495.23594095 11.13050385 505.07431983 -5.57373047 507.71875 C-28.72178293 510.40204205 -50.73026384 506.76634611 -69.75 492.75 C-71.192996 491.53048904 -72.60739896 490.27675635 -74 489 C-74.96550781 488.12601562 -75.93101562 487.25203125 -76.92578125 486.3515625 C-90.06145622 474.07363517 -99.99429678 457.15507223 -102 439 C-102 437.68 -102 436.36 -102 435 C-102.91289795 435.01047363 -103.8257959 435.02094727 -104.76635742 435.03173828 C-108.16758775 435.06591281 -111.56863442 435.09094384 -114.9699707 435.10986328 C-116.43940112 435.11989352 -117.90881171 435.13352101 -119.37817383 435.15087891 C-121.49565537 435.17525898 -123.61287199 435.18651286 -125.73046875 435.1953125 C-127.00301514 435.20578613 -128.27556152 435.21625977 -129.58666992 435.22705078 C-133.81993703 434.94545873 -136.7085332 434.16232012 -139.875 431.3125 C-141.53583755 427.89855615 -140.91952707 425.61242777 -140 422 C-138.10466125 419.41544715 -137.11173483 419.03724494 -134 418 C-132.2682848 417.90739623 -130.53318326 417.87341281 -128.79899406 417.87250805 C-127.71523518 417.8695004 -126.6314763 417.86649275 -125.51487625 417.86339396 C-123.72206527 417.86601952 -123.72206527 417.86601952 -121.89303589 417.86869812 C-120.62683792 417.86658241 -119.36063996 417.86446669 -118.05607235 417.86228687 C-115.27062693 417.85768492 -112.48520373 417.85626996 -109.69975471 417.85725212 C-105.16779327 417.85884312 -100.63585393 417.85364651 -96.10389709 417.84762573 C-89.52325319 417.83950757 -82.94261317 417.83456707 -76.36196518 417.83133507 C-65.95850746 417.82584032 -55.55508256 417.80894422 -45.15164185 417.78999329 C-41.59282499 417.78363626 -38.03400805 417.77732785 -34.47519112 417.77101612 C-33.14101843 417.76864048 -33.14101843 417.76864048 -31.77989276 417.76621684 C-21.65144129 417.74827443 -11.52298749 417.73205143 -1.39453125 417.71704102 C-0.46850735 417.71566514 0.45751654 417.71428927 1.41160177 417.71287171 C16.41090401 417.69095171 31.41019782 417.68018812 46.40951325 417.67267027 C61.80836853 417.66459641 77.2071515 417.6412963 92.6059655 417.6047166 C102.10384996 417.58270016 111.60158569 417.57302433 121.09949438 417.57921693 C127.6116624 417.58239397 134.12370352 417.57104525 140.63583227 417.54832252 C144.39190292 417.53566739 148.14769085 417.52946934 151.90377235 417.54073906 C155.97981173 417.55281137 160.05513479 417.53396818 164.13113403 417.51225281 C165.31295702 417.52069534 166.49478001 417.52913788 167.71241581 417.53783625 C176.30552043 417.45318051 182.15365369 415.58888694 189.25 410.8125 C196.23972737 403.66391519 198.37533679 396.15867914 198.27734375 386.359375 C197.64331534 378.67959422 193.77164918 372.06169689 188 367 C182.28156632 363.43004804 177.24384381 361.8759011 170.48713493 361.86577892 C169.48562578 361.86225058 169.48562578 361.86225058 168.46388412 361.85865095 C166.21059693 361.85195614 163.95736735 361.85241932 161.70407104 361.85282898 C160.07859907 361.84953065 158.45312792 361.84580515 156.82765782 361.8416875 C152.3481885 361.83165579 147.86873258 361.82794882 143.38925362 361.82529819 C138.56290745 361.82139859 133.73657193 361.81181999 128.91023254 361.80308533 C117.24801041 361.78331079 105.5857874 361.77325328 93.92355269 361.76435754 C88.43367531 361.7599761 82.94379889 361.75460891 77.45392227 361.74936867 C59.20765063 361.73235512 40.9613796 361.71786063 22.71510124 361.71061993 C17.97868728 361.70870998 13.24227332 361.70678966 8.50585938 361.70483398 C6.74000607 361.70410837 6.74000607 361.70410837 4.93847896 361.7033681 C-14.13476656 361.69506665 -33.20794938 361.66972834 -52.28116752 361.63725331 C-71.85651204 361.60419467 -91.43182468 361.58617223 -111.00719726 361.58297569 C-122.00074962 361.58080944 -132.99421057 361.57204408 -143.98773575 361.54651451 C-153.34988585 361.52482383 -162.71192235 361.51674906 -172.07409473 361.52648129 C-176.85089792 361.53103076 -181.62746661 361.52910216 -186.40423775 361.50971985 C-190.77912276 361.49212157 -195.15360164 361.49305875 -199.52849077 361.50861714 C-201.10930939 361.51099829 -202.69015589 361.50664336 -204.27093185 361.49478849 C-214.46254607 361.42310537 -223.69729368 362.03700932 -231.58203125 369.28125 C-237.29785259 376.20951829 -240.05129957 383.79585133 -239.578125 392.75390625 C-238.2498206 400.21215595 -235.06503631 406.81195469 -229.0625 411.5625 C-227.20338643 412.87834742 -227.20338643 412.87834742 -225 414 C-224.0622876 414.51103271 -223.1245752 415.02206543 -222.15844727 415.54858398 C-216.73973604 417.83676803 -211.02862791 417.42115237 -205.2421875 417.40625 C-203.41036423 417.42250427 -203.41036423 417.42250427 -201.54153442 417.43908691 C-196.33388011 417.4848641 -191.12627658 417.49644831 -185.91845703 417.51123047 C-182.1095195 417.52690902 -178.30099981 417.55990032 -174.4921875 417.59375 C-173.31502167 417.59072876 -172.13785583 417.58770752 -170.92501831 417.58459473 C-169.27773239 417.59976135 -169.27773239 417.59976135 -167.59716797 417.61523438 C-166.63455048 417.61728882 -165.67193298 417.61934326 -164.68014526 417.62145996 C-160.80511214 418.16876432 -157.99930676 419.682732 -155.625 422.8125 C-154.75144757 425.86993351 -155.15795947 427.95569962 -156 431 C-158.00657439 433.77098368 -159.72176209 434.34968745 -163 435 C-164.58520714 435.09376802 -166.17375769 435.1379303 -167.76171875 435.14526367 C-169.17469238 435.15483345 -169.17469238 435.15483345 -170.61621094 435.16459656 C-171.62973633 435.16570938 -172.64326172 435.1668222 -173.6875 435.16796875 C-174.74098633 435.17129715 -175.79447266 435.17462555 -176.87988281 435.17805481 C-179.11246301 435.18311779 -181.34505078 435.18546333 -183.57763672 435.18530273 C-186.95944084 435.18747396 -190.3409105 435.20559415 -193.72265625 435.22460938 C-195.89843639 435.22754664 -198.07421808 435.2295292 -200.25 435.23046875 C-201.74599731 435.24124702 -201.74599731 435.24124702 -203.2722168 435.25224304 C-219.673806 435.20007014 -233.11654212 431.74673021 -244.9765625 420.05078125 C-254.56980981 409.66149853 -256.60206662 398.43277352 -256.3125 384.6796875 C-255.85381894 375.10472027 -251.82420084 367.45384341 -246 360 C-245.52175781 359.38382812 -245.04351562 358.76765625 -244.55078125 358.1328125 C-235.68599204 348.08456277 -224.16159768 345.5346622 -211.49560547 344.05273438 C-203.56932931 343.08353202 -196.56663852 341.46295777 -191.1875 335.125 C-183.86325043 323.2555601 -181.90776926 307.84865761 -180.91015625 294.2421875 C-180.78448021 292.56079178 -180.78448021 292.56079178 -180.65626526 290.84542847 C-179.71575941 277.28384474 -179.57743966 263.713923 -179.4375 250.125 C-178.79224777 195.15515136 -178.79224777 195.15515136 -176.25 173.625 C-176.16352203 172.8710495 -176.07704407 172.117099 -175.98794556 171.34030151 C-171.67099479 134.06420032 -160.65649081 98.31063782 -134 71 C-133.40703125 70.34515625 -132.8140625 69.6903125 -132.203125 69.015625 C-121.338945 57.29091589 -105.41127 49.06264736 -90.5 43.75 C-89.44232422 43.37137817 -89.44232422 43.37137817 -88.36328125 42.98510742 C-84.84049745 41.78162429 -81.45099857 40.85047866 -77.765625 40.3046875 C-73.84281388 39.67833266 -70.5151786 38.9668797 -67 37 C-64.59822045 32.42688883 -63.58901676 27.91051775 -62.49804688 22.89697266 C-61.37250261 18.60997316 -58.81752121 15.33161868 -56 12 C-55.41476563 11.30519531 -54.82953125 10.61039063 -54.2265625 9.89453125 C-40.91566035 -4.58447048 -17.63248828 -9.35771425 0 0 Z M-44 23 C-47.82289348 28.55211319 -47.82289348 28.55211319 -49 35 C-47.94425781 34.9278125 -46.88851562 34.855625 -45.80078125 34.78125 C-27.81735308 33.62434906 -9.97464464 33.77096447 8 35 C6.69181613 27.04073394 2.25758167 21.50106091 -3.9140625 16.4765625 C-17.14308166 7.11220062 -33.74044745 11.55836857 -44 23 Z M-86 435 C-80.48904038 457.04383849 -72.43843282 472.11020467 -53 484 C-37.56122667 492.48577182 -20.21912971 494.53867693 -3.125 490.4375 C8.8165136 486.76121056 18.24565164 480.84747972 27 472 C27.62390625 471.40960938 28.2478125 470.81921875 28.890625 470.2109375 C36.96955594 461.95004865 45 446.73726887 45 435 C1.77 435 -41.46 435 -86 435 Z " fill="#4d1300" transform="translate(276,4)"/>
<path d="M0 0 C3.20907572 2.1682944 3.91479011 3.72432093 5.0625 7.4375 C5 11 5 11 3.1875 13.4375 C2.14961517 14.3214129 1.08251674 15.17134781 0 16 C-28.87419444 38.44599787 -45.10144254 67.91470985 -50.62695312 104.01513672 C-51.47460829 110.7974875 -51.85794707 117.64343282 -52.14160156 124.47070312 C-52.19799805 125.52322266 -52.25439453 126.57574219 -52.3125 127.66015625 C-52.34988281 128.59480713 -52.38726562 129.52945801 -52.42578125 130.49243164 C-53.16529266 133.72182009 -54.44806203 134.94372243 -57 137 C-60.68451718 138.17590974 -62.28254275 138.33481338 -65.8125 136.6875 C-68 135 -68 135 -69 133 C-71.21658155 93.95406346 -59.06491369 54.10967445 -34 24 C-33.25878906 23.10539062 -32.51757812 22.21078125 -31.75390625 21.2890625 C-11.37218045 -2.32612782 -11.37218045 -2.32612782 0 0 Z " fill="#4d1300" transform="translate(133,33)"/>
<path d="M0 0 C24.02769222 10.12894791 41.56865836 38.92947563 51.19140625 61.96191406 C58.81528073 81.17812909 63.13369404 102.07661551 63.25 122.75 C63.270625 123.68199219 63.29125 124.61398438 63.3125 125.57421875 C63.32023437 126.92193359 63.32023437 126.92193359 63.328125 128.296875 C63.3374707 129.10479492 63.34681641 129.91271484 63.35644531 130.74511719 C62.90652375 133.59133329 61.98766486 134.93443242 60 137 C56.57109774 137.87281149 54.10740423 138.32922829 50.6875 137.3125 C47.95112222 135.18420617 47.12043737 132.87541538 46.65283203 129.4765625 C46.60497559 128.53554687 46.55711914 127.59453125 46.5078125 126.625 C46.4135498 125.03848633 46.4135498 125.03848633 46.31738281 123.41992188 C46.25389648 122.29134766 46.19041016 121.16277344 46.125 120 C43.96865118 88.19165452 34.96307594 56.36122973 12.46875 32.7421875 C11 31 11 31 11 29 C10.44054687 28.76023437 9.88109375 28.52046875 9.3046875 28.2734375 C6.50500886 26.72649642 4.45728916 24.81197519 2.125 22.625 C-0.6456111 20.07097059 -3.28477621 17.65939833 -6.5 15.6875 C-9.14812249 13.90001732 -10.18659396 13.07286726 -11 10 C-10.8524997 6.45999272 -10.37096501 4.5220989 -8.3125 1.625 C-5.28954469 -0.49923886 -3.64703679 -0.30617099 0 0 Z " fill="#4d1300" transform="translate(384,33)"/>
<path d="M0 0 C16.7473246 9.3771177 28.09721003 29.37086217 34 47 C36.64513784 56.44063338 38.26129279 66.03583942 38.9375 75.8125 C39.02402832 76.91392334 39.02402832 76.91392334 39.11230469 78.03759766 C39.34528655 82.82482031 38.57863435 85.96199465 36 90 C32.90826248 91.54586876 30.40570448 91.29359521 27 91 C24.09282927 88.78136971 23.16018357 87.48055071 22 84 C21.82174222 82.51550688 21.68285173 81.02607228 21.5703125 79.53515625 C19.60910687 55.42229918 13.58234204 35.51852228 -4 18 C-5.15117622 17.08434626 -6.31546413 16.18456837 -7.5 15.3125 C-10 13 -10 13 -11.0625 9.5 C-10.99345516 5.63348882 -10.38145413 3.99886817 -8 1 C-5.02536663 -0.48731668 -3.32721157 -0.4313052 0 0 Z " fill="#4d1300" transform="translate(442,36)"/>
<path d="M0 0 C3.28860314 2.43070667 4.76756415 3.9075515 5.625 7.9375 C4.45954849 13.64821239 0.41415183 16.68683301 -3.875 20.25 C-17.86288827 32.26591154 -24.96410019 52.11948863 -27 70 C-27.23021427 73.59134255 -27.43044367 77.17696741 -27.55859375 80.7734375 C-28.05466218 84.399566 -29.12280897 86.87288571 -31 90 C-34.09173752 91.54586876 -36.59429552 91.29359521 -40 91 C-42.83288609 89.06170952 -43.7968845 87.79645894 -44.64453125 84.47265625 C-45.11113976 79.91425005 -44.7638088 75.61213621 -44.3125 71.0625 C-44.17485229 69.66849976 -44.17485229 69.66849976 -44.03442383 68.24633789 C-41.22895965 42.43651239 -29.8275729 18.71335944 -9.625 2.1875 C-6.33316927 -0.0615769 -4.01932829 -0.98250247 0 0 Z " fill="#4d1300" transform="translate(75,36)"/>
</svg>
