<?xml version="1.0" encoding="UTF-8"?>
<svg version="1.1" xmlns="http://www.w3.org/2000/svg" width="512" height="512">
<path d="M0 0 C0.57105469 0.52335938 1.14210938 1.04671875 1.73046875 1.5859375 C1.73046875 2.2459375 1.73046875 2.9059375 1.73046875 3.5859375 C2.72046875 3.9159375 3.71046875 4.2459375 4.73046875 4.5859375 C4.73046875 5.2459375 4.73046875 5.9059375 4.73046875 6.5859375 C5.39046875 6.5859375 6.05046875 6.5859375 6.73046875 6.5859375 C12.29683072 14.46286482 15.88046347 21.86961308 15.73046875 31.5859375 C16.51808594 31.67230469 17.30570312 31.75867187 18.1171875 31.84765625 C25.42677475 32.79054975 31.78560487 34.48820717 38.59375 37.296875 C41.5485228 38.51116519 44.51881879 39.55981213 47.54296875 40.5859375 C51.72670923 42.08622928 55.30197787 43.94544909 58.9765625 46.4375 C60.83148639 47.65208268 62.73247959 48.62865918 64.73046875 49.5859375 C64.73046875 50.2459375 64.73046875 50.9059375 64.73046875 51.5859375 C65.3028125 51.69035156 65.87515625 51.79476562 66.46484375 51.90234375 C69.10032643 52.69753249 70.79078183 53.86495241 72.98046875 55.5234375 C73.686875 56.04808594 74.39328125 56.57273437 75.12109375 57.11328125 C75.6521875 57.59925781 76.18328125 58.08523437 76.73046875 58.5859375 C76.73046875 59.2459375 76.73046875 59.9059375 76.73046875 60.5859375 C77.72046875 60.5859375 78.71046875 60.5859375 79.73046875 60.5859375 C81.09686217 62.2256096 82.42541065 63.89703878 83.73046875 65.5859375 C84.63796875 66.2871875 85.54546875 66.9884375 86.48046875 67.7109375 C87.59421875 68.6390625 87.59421875 68.6390625 88.73046875 69.5859375 C88.73046875 70.5759375 88.73046875 71.5659375 88.73046875 72.5859375 C89.72046875 72.9159375 90.71046875 73.2459375 91.73046875 73.5859375 C93.3359375 75.328125 93.3359375 75.328125 94.91796875 77.4609375 C95.44777344 78.15960938 95.97757812 78.85828125 96.5234375 79.578125 C97.73046875 81.5859375 97.73046875 81.5859375 97.73046875 84.5859375 C98.39046875 84.5859375 99.05046875 84.5859375 99.73046875 84.5859375 C110.57559473 100.50083322 110.57559473 100.50083322 109.73046875 109.5859375 C109.40046875 110.2459375 109.07046875 110.9059375 108.73046875 111.5859375 C108.07046875 111.5859375 107.41046875 111.5859375 106.73046875 111.5859375 C106.40046875 112.5759375 106.07046875 113.5659375 105.73046875 114.5859375 C98.35131132 115.07788133 98.35131132 115.07788133 95.6796875 112.9609375 C93.44027311 110.23235243 91.90408538 107.47631264 90.29296875 104.3359375 C88.25088322 100.42340725 86.18765783 96.60612371 83.79296875 92.8984375 C81.73046875 89.5859375 81.73046875 89.5859375 81.73046875 87.5859375 C81.07046875 87.5859375 80.41046875 87.5859375 79.73046875 87.5859375 C76.73046875 84.12439904 76.73046875 84.12439904 76.73046875 81.5859375 C76.07046875 81.5859375 75.41046875 81.5859375 74.73046875 81.5859375 C73.109375 79.90625 73.109375 79.90625 71.29296875 77.7109375 C69.14645991 75.12400028 67.56270313 73.47409376 64.73046875 71.5859375 C64.73046875 70.9259375 64.73046875 70.2659375 64.73046875 69.5859375 C63.74046875 69.5859375 62.75046875 69.5859375 61.73046875 69.5859375 C61.73046875 68.9259375 61.73046875 68.2659375 61.73046875 67.5859375 C61.02921875 67.3384375 60.32796875 67.0909375 59.60546875 66.8359375 C56.34887115 65.4200255 53.65402071 63.59587947 50.73046875 61.5859375 C16.93369385 40.00624001 -35.65774435 40.22736829 -73.51953125 48.3359375 C-94.12662924 53.12491098 -116.70858014 61.60131431 -130.26953125 78.5859375 C-131.08035156 79.215 -131.89117187 79.8440625 -132.7265625 80.4921875 C-135.75519197 82.98580562 -137.80475596 85.85202472 -139.95703125 89.0859375 C-140.34697266 89.65441406 -140.73691406 90.22289063 -141.13867188 90.80859375 C-143.06451234 93.64632791 -144.83948476 96.46583608 -146.26953125 99.5859375 C-146.92953125 99.5859375 -147.58953125 99.5859375 -148.26953125 99.5859375 C-148.35203125 100.2459375 -148.43453125 100.9059375 -148.51953125 101.5859375 C-149.16917754 104.18452265 -149.88699292 105.90243278 -151.125 108.2265625 C-153.2899102 112.48062561 -154.86590674 116.80022209 -156.33203125 121.3359375 C-156.59024658 122.12669678 -156.84846191 122.91745605 -157.11450195 123.73217773 C-162.56573534 140.65116545 -165.45305946 157.98112684 -166.92578125 175.6640625 C-166.98867844 176.39927376 -167.05157562 177.13448502 -167.11637878 177.8919754 C-168.76282198 197.5302557 -168.73367221 217.18253776 -168.77484131 236.8760376 C-168.81665786 254.82654848 -168.87972517 272.71582928 -170.55078125 290.6015625 C-170.65821655 291.80335144 -170.76565186 293.00514038 -170.87634277 294.24334717 C-172.12230421 306.14643765 -174.82738934 317.86171667 -180.26953125 328.5859375 C-180.92953125 329.9059375 -181.58953125 331.2259375 -182.26953125 332.5859375 C-80.95953125 332.9159375 20.35046875 333.2459375 124.73046875 333.5859375 C121.84429138 328.51559125 121.84429138 328.51559125 118.73046875 323.5859375 C117.99967219 321.0452776 117.33841046 318.53044114 116.73046875 315.9609375 C116.56546875 315.28675781 116.40046875 314.61257813 116.23046875 313.91796875 C115.89173079 312.52332106 115.55981926 311.12700076 115.23413086 309.72924805 C114.90319164 308.32095166 114.55804369 306.91590463 114.19750977 305.51489258 C112.57001195 298.90134014 112.07864509 292.30956498 111.66796875 285.5234375 C111.62688995 284.86853333 111.58581116 284.21362915 111.54348755 283.53887939 C110.62325258 268.5268429 110.40832654 253.49625307 110.16796875 238.4609375 C110.13855698 236.62263367 110.13855698 236.62263367 110.10855103 234.74719238 C110.03222402 229.92581009 109.95727339 225.10440777 109.883255 220.2829895 C109.47495686 193.8243709 108.93236471 167.45692045 103.3046875 141.4921875 C102.4043315 136.93528366 101.59153949 132.63233621 103.94140625 128.41015625 C105.73046875 126.5859375 105.73046875 126.5859375 108.10546875 126.0546875 C108.97171875 126.065 109.83796875 126.0753125 110.73046875 126.0859375 C112.02984375 126.07046875 112.02984375 126.07046875 113.35546875 126.0546875 C115.73046875 126.5859375 115.73046875 126.5859375 117.44921875 128.2421875 C120.18066646 133.2387382 120.7410758 139.03285814 121.73046875 144.5859375 C121.85953613 145.29250488 121.98860352 145.99907227 122.12158203 146.72705078 C124.88962724 162.22741794 125.94129421 177.87571053 126.73046875 193.5859375 C126.79462479 194.85368011 126.79462479 194.85368011 126.8600769 196.14703369 C127.48728955 208.95886353 127.80924374 221.75989199 127.90625 234.5859375 C127.91820101 235.98484935 127.93030719 237.38375988 127.94256592 238.78266907 C128.04127887 250.34447325 128.04127887 250.34447325 128.05639648 255.875 C128.10152038 270.18656083 128.28961267 284.34716174 130.5234375 298.5234375 C130.67774734 299.50505859 130.83205719 300.48667969 130.99104309 301.49804688 C132.68632404 311.03961894 135.9218774 322.1379905 143.23046875 328.8984375 C148.35817699 332.35964056 152.33406256 333.00609431 158.41796875 333.5234375 C167.39715099 334.40471435 174.75247266 336.23430327 182.73046875 340.5859375 C183.67921875 341.1015625 184.62796875 341.6171875 185.60546875 342.1484375 C186.30671875 342.6228125 187.00796875 343.0971875 187.73046875 343.5859375 C187.73046875 344.2459375 187.73046875 344.9059375 187.73046875 345.5859375 C188.72046875 345.9159375 189.71046875 346.2459375 190.73046875 346.5859375 C190.73046875 347.2459375 190.73046875 347.9059375 190.73046875 348.5859375 C191.72046875 348.9159375 192.71046875 349.2459375 193.73046875 349.5859375 C202.53200746 360.06068539 204.30259167 371.34991219 203.55078125 384.80078125 C202.55505457 392.53290372 199.53456584 398.83904831 195.73046875 405.5859375 C195.07046875 405.5859375 194.41046875 405.5859375 193.73046875 405.5859375 C193.73046875 406.5759375 193.73046875 407.5659375 193.73046875 408.5859375 C187.66874977 414.84356755 180.98231954 418.97937907 172.73046875 421.5859375 C171.92302216 421.92491058 171.11557556 422.26388367 170.28366089 422.61312866 C165.33051729 423.96922247 160.60657461 423.8943018 155.49267578 423.90478516 C154.37013901 423.91483078 153.24760223 423.9248764 152.09104919 423.93522644 C148.39013163 423.96605412 144.6892864 423.98309272 140.98828125 424 C138.41852191 424.01871195 135.84876871 424.03828538 133.27902222 424.0586853 C127.21249311 424.10476702 121.14596762 424.14217626 115.07935607 424.17535818 C108.16998022 424.21363556 101.26069769 424.26303092 94.35140061 424.31334233 C80.14449377 424.41654457 65.93752372 424.50584288 51.73046875 424.5859375 C51.60639648 425.38765381 51.48232422 426.18937012 51.35449219 427.01538086 C51.1846582 428.07893799 51.01482422 429.14249512 50.83984375 430.23828125 C50.67452148 431.28749756 50.50919922 432.33671387 50.33886719 433.41772461 C48.75132165 441.68481065 45.23218274 448.90287066 41.09765625 456.17578125 C39.90174906 458.28399479 38.79180318 460.40767493 37.73046875 462.5859375 C37.07046875 462.5859375 36.41046875 462.5859375 35.73046875 462.5859375 C35.46105469 463.16988281 35.19164062 463.75382812 34.9140625 464.35546875 C26.81831707 479.61180749 8.9999673 488.53206049 -6.64453125 494.0234375 C-30.31140172 500.65133431 -53.27444656 495.06115509 -74.26953125 483.5859375 C-80.0876097 480.22721095 -80.0876097 480.22721095 -82.26953125 477.5859375 C-82.26953125 476.9259375 -82.26953125 476.2659375 -82.26953125 475.5859375 C-82.86507812 475.32941406 -83.460625 475.07289063 -84.07421875 474.80859375 C-86.46649496 473.47624063 -87.69681324 472.15225145 -89.39453125 470.0234375 C-91.47856759 467.37568084 -91.47856759 467.37568084 -94.26953125 465.5859375 C-95.29089344 463.87268479 -96.30629455 462.1549926 -97.265625 460.40625 C-98.05210807 458.98017563 -98.89988571 457.58787626 -99.76953125 456.2109375 C-102.97356236 450.60388306 -105.33212071 444.65348971 -107.51953125 438.5859375 C-107.8546875 437.6578125 -108.18984375 436.7296875 -108.53515625 435.7734375 C-109.48174209 431.66485216 -109.41636797 427.78127249 -109.26953125 423.5859375 C-110.79876221 423.59379272 -110.79876221 423.59379272 -112.35888672 423.60180664 C-116.13459396 423.61988126 -119.91029737 423.63137855 -123.68603516 423.64086914 C-125.32145836 423.64590371 -126.95687705 423.65273177 -128.59228516 423.66137695 C-130.940441 423.67348085 -133.28853744 423.6791745 -135.63671875 423.68359375 C-136.73679764 423.69133568 -136.73679764 423.69133568 -137.85910034 423.69923401 C-143.04178784 423.69980921 -143.04178784 423.69980921 -145.26953125 422.5859375 C-145.26953125 421.9259375 -145.26953125 421.2659375 -145.26953125 420.5859375 C-145.92953125 420.5859375 -146.58953125 420.5859375 -147.26953125 420.5859375 C-148.83383373 417.45733255 -148.62580409 415.02990825 -148.26953125 411.5859375 C-146.09389092 408.88615609 -144.27014898 407.73418573 -140.82251239 407.22339523 C-137.60885861 407.07092412 -134.41849962 407.05996234 -131.20126343 407.08714294 C-129.96335261 407.08175839 -128.72544179 407.07637384 -127.45001853 407.07082611 C-124.0161602 407.05984385 -120.58317424 407.06674463 -117.14938378 407.08110917 C-113.44504421 407.09222186 -109.74077242 407.08023073 -106.03643799 407.07092285 C-99.61676231 407.05782757 -93.19721683 407.05900009 -86.7775383 407.06951714 C-77.48379422 407.08445877 -68.1902028 407.07453987 -58.8964674 407.05799795 C-43.80223068 407.03152928 -28.70802819 407.0206782 -13.61376953 407.02172852 C-12.71033556 407.02178684 -11.80690159 407.02184516 -10.87609084 407.02190525 C-7.21599087 407.02217107 -3.55589091 407.02248835 0.10420904 407.02286851 C10.16696665 407.02383383 20.22972321 407.02250832 30.29248047 407.01977539 C31.19299407 407.0195355 32.09350768 407.01929561 33.02130957 407.01904844 C48.05183273 407.0146374 63.08232416 406.9983847 78.11282861 406.9745546 C87.37898101 406.96050196 96.64501258 406.95758786 105.9111691 406.96917749 C112.26584695 406.97651655 118.62046408 406.97341764 124.97513612 406.96221905 C128.63827603 406.95616312 132.30124583 406.95501068 135.96437454 406.96709633 C139.94309537 406.98014371 143.92157154 406.96994857 147.90029907 406.95774841 C149.0476955 406.96532447 150.19509193 406.97290052 151.37725794 406.98070616 C158.62444902 406.9337054 164.8356224 405.76340817 171.73046875 403.5859375 C173.06120147 403.24236901 174.39369542 402.90519593 175.73046875 402.5859375 C175.73046875 401.9259375 175.73046875 401.2659375 175.73046875 400.5859375 C177.3883566 399.24170411 179.05623192 397.90975267 180.73046875 396.5859375 C185.11121148 392.03670466 186.86079955 385.33570273 187.16796875 379.1484375 C187.02546259 374.63574233 185.53840271 370.93262921 183.703125 366.84765625 C182.73046875 364.5859375 182.73046875 364.5859375 182.2890625 362.35546875 C182.01255859 361.47955078 182.01255859 361.47955078 181.73046875 360.5859375 C180.74046875 360.2559375 179.75046875 359.9259375 178.73046875 359.5859375 C178.73046875 358.9259375 178.73046875 358.2659375 178.73046875 357.5859375 C178.19421875 357.3178125 177.65796875 357.0496875 177.10546875 356.7734375 C175.35497279 355.89818952 173.62879418 354.97389607 171.91796875 354.0234375 C166.45287502 351.55878739 160.85615715 351.46092493 154.92843819 351.45730305 C154.2780989 351.45555001 153.62775961 351.45379697 152.95771307 351.45199081 C150.78747106 351.44735412 148.61729673 351.44979026 146.447052 351.45222473 C144.87175056 351.45035559 143.29644957 351.44805447 141.72114933 351.44535941 C137.39893379 351.43924787 133.07673762 351.43937424 128.75451875 351.44055378 C124.09048302 351.44075795 119.42645349 351.43523754 114.76242065 351.43049622 C105.62760448 351.4221929 96.49279477 351.41944153 87.35797514 351.41888384 C79.93306521 351.41840857 72.5081574 351.41635331 65.08324814 351.41318321 C44.03125922 351.4043779 22.97927539 351.3997637 1.92728461 351.40051369 C0.22521965 351.40057362 0.22521965 351.40057362 -1.51123047 351.40063477 C-3.21537378 351.40069609 -3.21537378 351.40069609 -4.95394422 351.40075865 C-23.37056176 351.4011652 -41.78715887 351.39159311 -60.2037705 351.3774964 C-79.11479455 351.36313546 -98.02580863 351.35622604 -116.93683827 351.35709018 C-127.55359264 351.35742222 -138.17032558 351.35467187 -148.78707504 351.34391212 C-157.82521671 351.3348109 -166.86332722 351.33262881 -175.90147148 351.33942155 C-180.51216359 351.34268851 -185.12279592 351.34273703 -189.73348236 351.3340683 C-193.95637572 351.32621034 -198.17916182 351.32762754 -202.40205254 351.33635243 C-203.92756582 351.33788895 -205.45308708 351.33606551 -206.97859095 351.33049235 C-223.22383721 351.21468135 -223.22383721 351.21468135 -237.26953125 358.5859375 C-243.23135908 364.91790098 -244.96877309 372.02988639 -245.26953125 380.5859375 C-244.82859723 386.09387608 -243.76619443 391.18273202 -240.26953125 395.5859375 C-238.64326721 396.96826193 -236.97703105 398.30531265 -235.26953125 399.5859375 C-234.26953125 400.5859375 -233.26953125 401.5859375 -232.26953125 402.5859375 C-224.81477667 407.55577389 -214.62189575 406.86745939 -205.9609375 406.859375 C-203.64517722 406.87963678 -201.32942203 406.90048697 -199.01367188 406.921875 C-195.4036828 406.94458089 -191.79389546 406.96099875 -188.18383789 406.96679688 C-184.67167899 406.97628343 -181.16040009 407.00997679 -177.6484375 407.046875 C-176.02501183 407.03930679 -176.02501183 407.03930679 -174.36878967 407.03158569 C-173.3635173 407.04484894 -172.35824493 407.05811218 -171.32250977 407.07177734 C-170.44079605 407.07462738 -169.55908234 407.07747742 -168.65065002 407.08041382 C-165.49155773 407.75110525 -164.27010863 409.10657858 -162.26953125 411.5859375 C-161.9921875 413.83984375 -161.9921875 413.83984375 -162.33203125 416.1484375 C-162.42613281 416.91285156 -162.52023438 417.67726563 -162.6171875 418.46484375 C-163.4111086 421.04627582 -164.12876565 421.94223825 -166.26953125 423.5859375 C-168.83410645 423.97361755 -168.83410645 423.97361755 -171.94335938 423.98999023 C-173.10887329 424.00267441 -174.27438721 424.01535858 -175.47521973 424.02842712 C-176.73765503 424.02549149 -178.00009033 424.02255585 -179.30078125 424.01953125 C-180.60221069 424.0247731 -181.90364014 424.03001495 -183.24450684 424.03541565 C-186.0052252 424.04435738 -188.76565459 424.04191743 -191.52636719 424.03198242 C-195.03544129 424.02057556 -198.54349658 424.04056841 -202.05243683 424.06989956 C-205.4269346 424.09287542 -208.80120757 424.08578256 -212.17578125 424.08203125 C-213.42202271 424.09326523 -214.66826416 424.10449921 -215.95227051 424.11607361 C-227.92244838 424.02176882 -236.71882545 420.67804577 -246.26953125 413.5859375 C-247.38521484 412.81443359 -247.38521484 412.81443359 -248.5234375 412.02734375 C-249.09964844 411.55167969 -249.67585938 411.07601563 -250.26953125 410.5859375 C-250.26953125 409.9259375 -250.26953125 409.2659375 -250.26953125 408.5859375 C-250.92953125 408.5859375 -251.58953125 408.5859375 -252.26953125 408.5859375 C-260.84526645 396.37326399 -263.59371584 385.30882734 -262.26953125 370.5859375 C-260.95702432 363.47875711 -258.47918362 356.70532362 -253.26953125 351.5859375 C-252.34626637 350.46634618 -251.42980872 349.34111346 -250.51953125 348.2109375 C-244.29026925 340.90234793 -236.49682628 336.76651463 -227.08203125 334.9609375 C-226.43073242 334.83468994 -225.77943359 334.70844238 -225.10839844 334.57836914 C-220.23096704 333.6687844 -215.39321305 333.14212159 -210.44140625 332.89453125 C-207.97879153 332.7042099 -207.97879153 332.7042099 -205.26953125 330.5859375 C-204.27953125 330.5859375 -203.28953125 330.5859375 -202.26953125 330.5859375 C-202.26953125 329.9259375 -202.26953125 329.2659375 -202.26953125 328.5859375 C-200.39453125 326.4609375 -200.39453125 326.4609375 -198.26953125 324.5859375 C-197.60953125 324.5859375 -196.94953125 324.5859375 -196.26953125 324.5859375 C-196.14320313 324.02519531 -196.016875 323.46445312 -195.88671875 322.88671875 C-195.22596763 320.42353894 -194.33403411 318.14404355 -193.39453125 315.7734375 C-188.29247848 301.64887099 -187.63951728 287.5096792 -187.14453125 272.6484375 C-187.06578348 270.54685251 -186.98642566 268.4452903 -186.90649414 266.34375 C-186.23973499 248.22811675 -185.87839566 230.10622404 -185.53201294 211.98220825 C-184.69492766 168.20085118 -180.63800545 127.06298028 -160.26953125 87.5859375 C-159.60953125 87.5859375 -158.94953125 87.5859375 -158.26953125 87.5859375 C-157.60953125 85.6059375 -156.94953125 83.6259375 -156.26953125 81.5859375 C-155.60953125 81.5859375 -154.94953125 81.5859375 -154.26953125 81.5859375 C-154.26953125 80.5959375 -154.26953125 79.6059375 -154.26953125 78.5859375 C-153.60953125 78.5859375 -152.94953125 78.5859375 -152.26953125 78.5859375 C-152.06328125 77.9053125 -151.85703125 77.2246875 -151.64453125 76.5234375 C-149.84058098 72.66954375 -147.36849675 69.50805986 -144.26953125 66.5859375 C-143.60953125 66.5859375 -142.94953125 66.5859375 -142.26953125 66.5859375 C-141.77453125 65.1009375 -141.77453125 65.1009375 -141.26953125 63.5859375 C-139.18154189 61.7390962 -137.10305722 60.0265246 -134.89453125 58.3359375 C-134.26111816 57.84649658 -133.62770508 57.35705566 -132.97509766 56.8527832 C-117.11657701 44.74035408 -94.92506847 31.5859375 -74.26953125 31.5859375 C-74.24375 30.96847656 -74.21796875 30.35101563 -74.19140625 29.71484375 C-73.76004151 23.27378386 -72.23885233 18.30360692 -69.26953125 12.5859375 C-68.60953125 12.5859375 -67.94953125 12.5859375 -67.26953125 12.5859375 C-67.11484375 11.71582031 -67.11484375 11.71582031 -66.95703125 10.828125 C-64.66150798 3.34158889 -56.73845704 -1.73723079 -50.26953125 -5.4140625 C-34.20045043 -13.79223906 -14.14003592 -10.29592441 0 0 Z M-44.26953125 10.5859375 C-45.78546875 11.3903125 -45.78546875 11.3903125 -47.33203125 12.2109375 C-47.97140625 12.6646875 -48.61078125 13.1184375 -49.26953125 13.5859375 C-49.26953125 14.2459375 -49.26953125 14.9059375 -49.26953125 15.5859375 C-50.25953125 15.9159375 -51.24953125 16.2459375 -52.26953125 16.5859375 C-53.73537737 18.83405524 -53.73537737 18.83405524 -54.95703125 21.5234375 C-55.61251953 22.86728516 -55.61251953 22.86728516 -56.28125 24.23828125 C-57.39886073 26.46862683 -57.39886073 26.46862683 -57.26953125 28.5859375 C-38.78953125 28.5859375 -20.30953125 28.5859375 -1.26953125 28.5859375 C-2.20365118 24.8494578 -3.4969609 21.97694165 -5.26953125 18.5859375 C-5.92953125 18.5859375 -6.58953125 18.5859375 -7.26953125 18.5859375 C-7.26953125 17.5959375 -7.26953125 16.6059375 -7.26953125 15.5859375 C-8.51953125 13.8359375 -8.51953125 13.8359375 -10.26953125 12.5859375 C-11.25953125 12.5859375 -12.24953125 12.5859375 -13.26953125 12.5859375 C-13.26953125 11.9259375 -13.26953125 11.2659375 -13.26953125 10.5859375 C-23.44363816 4.69704875 -34.11443788 4.73778602 -44.26953125 10.5859375 Z M-93.26953125 423.5859375 C-91.88310056 431.90452164 -90.93136618 437.47271792 -87.26953125 444.5859375 C-86.69203125 445.7615625 -86.11453125 446.9371875 -85.51953125 448.1484375 C-84.90078125 449.355 -84.90078125 449.355 -84.26953125 450.5859375 C-83.60953125 450.5859375 -82.94953125 450.5859375 -82.26953125 450.5859375 C-82.16898438 451.16601562 -82.0684375 451.74609375 -81.96484375 452.34375 C-80.01518177 458.63086221 -72.70244542 465.03571636 -67.26953125 468.5859375 C-66.27953125 468.5859375 -65.28953125 468.5859375 -64.26953125 468.5859375 C-64.26953125 469.2459375 -64.26953125 469.9059375 -64.26953125 470.5859375 C-46.75704106 481.16640032 -28.74973684 482.23075528 -9.26953125 477.5859375 C-0.81727431 474.88920559 6.41344655 469.4639523 13.73046875 464.5859375 C13.73046875 463.9259375 13.73046875 463.2659375 13.73046875 462.5859375 C14.72046875 462.2559375 15.71046875 461.9259375 16.73046875 461.5859375 C16.73046875 460.9259375 16.73046875 460.2659375 16.73046875 459.5859375 C17.72046875 459.2559375 18.71046875 458.9259375 19.73046875 458.5859375 C28.32032125 449.8035953 34.73046875 435.85631853 34.73046875 423.5859375 C-7.50953125 423.5859375 -49.74953125 423.5859375 -93.26953125 423.5859375 Z " fill="#FFFFFF" transform="translate(286.26953125,11.4140625)"/>
<path d="M0 0 C1.640625 1.046875 1.640625 1.046875 4.078125 3.109375 C4.078125 3.769375 4.078125 4.429375 4.078125 5.109375 C5.068125 5.109375 6.058125 5.109375 7.078125 5.109375 C8.765625 6.484375 8.765625 6.484375 10.078125 8.109375 C10.078125 8.769375 10.078125 9.429375 10.078125 10.109375 C10.67753906 10.37105469 11.27695312 10.63273437 11.89453125 10.90234375 C14.20874264 12.18157688 15.37471945 13.37187942 17.015625 15.421875 C18.89992735 17.72331299 20.79861219 19.87112059 22.953125 21.921875 C25.078125 24.109375 25.078125 24.109375 25.078125 26.109375 C25.738125 26.109375 26.398125 26.109375 27.078125 26.109375 C48.15652296 51.95162142 56.79168394 87.20158939 57.515625 119.859375 C57.55002686 120.70516113 57.58442871 121.55094727 57.61987305 122.42236328 C57.65039862 126.81008282 57.50046553 128.56082586 54.73828125 132.1484375 C52.078125 134.109375 52.078125 134.109375 49.078125 134.734375 C44.97727186 133.8800306 43.56572157 132.44986182 41.078125 129.109375 C40.16667688 124.52329109 39.96396668 120.00350228 39.83837891 115.34716797 C39.41638671 100.91730055 36.84682466 86.76006028 32.078125 73.109375 C31.75457031 72.14515625 31.43101562 71.1809375 31.09765625 70.1875 C27.99960378 61.5171825 23.75074753 53.70791185 19.08105469 45.80859375 C18.18066973 44.28311194 17.30362717 42.74390963 16.4296875 41.203125 C15.24750519 38.98201583 15.24750519 38.98201583 13.078125 38.109375 C13.078125 37.119375 13.078125 36.129375 13.078125 35.109375 C11.593125 34.614375 11.593125 34.614375 10.078125 34.109375 C8.53515625 32.5078125 8.53515625 32.5078125 6.890625 30.484375 C3.74604238 26.74850334 0.36080755 23.63793951 -3.41796875 20.5546875 C-3.91425781 20.07773437 -4.41054688 19.60078125 -4.921875 19.109375 C-4.921875 18.449375 -4.921875 17.789375 -4.921875 17.109375 C-5.47875 16.84125 -6.035625 16.573125 -6.609375 16.296875 C-13.48351884 12.76690925 -13.48351884 12.76690925 -15.921875 9.109375 C-16.00092564 6.77738112 -16.00986269 4.44104878 -15.921875 2.109375 C-15.261875 2.109375 -14.601875 2.109375 -13.921875 2.109375 C-13.921875 1.119375 -13.921875 0.129375 -13.921875 -0.890625 C-9.30139858 -2.43078381 -4.45586728 -2.06491411 0 0 Z " fill="#FFFFFF" transform="translate(388.921875,36.890625)"/>
<path d="M0 0 C2.9375 1.5625 2.9375 1.5625 5 4 C5.35627284 7.44397075 5.56430248 9.87139505 4 13 C3.34 13 2.68 13 2 13 C1.67 13.99 1.34 14.98 1 16 C-0.59375 17.09765625 -0.59375 17.09765625 -2.5 18.0625 C-5.33019068 19.42445528 -5.33019068 19.42445528 -7 22 C-7.99 22 -8.98 22 -10 22 C-10.495 23.485 -10.495 23.485 -11 25 C-11.66 25 -12.32 25 -13 25 C-13.495 26.485 -13.495 26.485 -14 28 C-14.66 28 -15.32 28 -16 28 C-16.495 29.485 -16.495 29.485 -17 31 C-17.66 31 -18.32 31 -19 31 C-19.309375 31.61875 -19.61875 32.2375 -19.9375 32.875 C-20.625 34.25 -21.3125 35.625 -22 37 C-22.66 37 -23.32 37 -24 37 C-24.26683594 37.73992187 -24.53367188 38.47984375 -24.80859375 39.2421875 C-25.97518351 41.94255593 -27.26132359 43.81710966 -29.0625 46.125 C-32.56938183 51.01404909 -35.18497128 56.14188319 -37.75 61.5625 C-38.12648682 62.35350098 -38.50297363 63.14450195 -38.89086914 63.95947266 C-47.75860013 83.07290757 -50.99092174 104.16525927 -51.70947266 125.08422852 C-51.91087598 130.82175195 -51.91087598 130.82175195 -53 133 C-53.66 133 -54.32 133 -55 133 C-55 133.66 -55 134.32 -55 135 C-57.95664519 136.4783226 -60.74229737 136.06032783 -64 136 C-64 135.34 -64 134.68 -64 134 C-64.99 133.67 -65.98 133.34 -67 133 C-68.16926288 129.49221136 -68.15078078 126.33590969 -68.125 122.6875 C-68.12016602 121.97182861 -68.11533203 121.25615723 -68.11035156 120.51879883 C-67.89060475 100.66027921 -64.43208255 81.47044989 -57 63 C-56.60167969 61.98292969 -56.20335938 60.96585938 -55.79296875 59.91796875 C-50.25636826 46.32813117 -42.74186903 33.06000776 -33 22 C-32.34 22 -31.68 22 -31 22 C-30.505 20.515 -30.505 20.515 -30 19 C-29.34 19 -28.68 19 -28 19 C-27.505 17.515 -27.505 17.515 -27 16 C-26.34 16 -25.68 16 -25 16 C-24.67 15.01 -24.34 14.02 -24 13 C-23.34 13 -22.68 13 -22 13 C-21.67 12.01 -21.34 11.02 -21 10 C-20.34 10 -19.68 10 -19 10 C-19 9.34 -19 8.68 -19 8 C-16.62109375 6.0546875 -16.62109375 6.0546875 -13.4375 3.875 C-12.40496094 3.15054688 -11.37242188 2.42609375 -10.30859375 1.6796875 C-6.51262443 -0.24742798 -4.2023577 -0.43524419 0 0 Z " fill="#FFFFFF" transform="translate(136,35)"/>
<path d="M0 0 C18.51479785 12.45099943 29.29510855 36.04728524 33.6328125 57.06640625 C34.75113889 63.35896111 35.27118985 69.61930239 35.4375 76 C35.47190186 76.71824951 35.50630371 77.43649902 35.54174805 78.17651367 C35.57371948 82.11178048 35.11991828 83.84410624 32.6953125 86.99609375 C30 89 30 89 26.4375 89.0625 C22.7111187 87.91070942 21.22845003 87.17125582 19 84 C18.02158159 79.50190193 17.84816735 75.09049579 17.6875 70.5 C17.28184152 62.59514151 15.60951249 55.49125355 13 48 C12.66226562 46.99453125 12.32453125 45.9890625 11.9765625 44.953125 C7.17561893 32.08251032 -1.56048468 21.3315024 -11.9375 12.5 C-14 10 -14 10 -14.3125 6.1875 C-14.209375 5.135625 -14.10625 4.08375 -14 3 C-13.34 3 -12.68 3 -12 3 C-12 2.01 -12 1.02 -12 0 C-7.63218916 -1.45593695 -4.39284388 -1.470907 0 0 Z " fill="#FFFFFF" transform="translate(444,39)"/>
<path d="M0 0 C2.9375 1.5625 2.9375 1.5625 5 4 C5.35627284 7.44397075 5.56430248 9.87139505 4 13 C3.34 13 2.68 13 2 13 C1.67 13.99 1.34 14.98 1 16 C-0.56640625 17.4375 -0.56640625 17.4375 -2.5625 19 C-11.1267641 26.30796776 -16.42322752 35.85338177 -21 46 C-21.46019531 46.97646484 -21.46019531 46.97646484 -21.9296875 47.97265625 C-26.41096035 58.48285805 -27.31432289 70.59659538 -27.49609375 81.890625 C-28.09732338 85.60053806 -29.0466887 86.75011375 -32 89 C-35.68451718 90.17590974 -37.28254275 90.33481338 -40.8125 88.6875 C-43 87 -43 87 -44 85 C-45.02965634 61.045348 -40.01567584 34.80293435 -24 16 C-23.34 16 -22.68 16 -22 16 C-22 15.01 -22 14.02 -22 13 C-20.3603279 11.63360658 -18.68889872 10.3050581 -17 9 C-16.360625 8.175 -15.72125 7.35 -15.0625 6.5 C-10.77442263 1.30233046 -6.78897267 -0.98748693 0 0 Z " fill="#FFFFFF" transform="translate(79,38)"/>
</svg>
