<?xml version="1.0" encoding="UTF-8"?>
<svg version="1.1" xmlns="http://www.w3.org/2000/svg" width="700" height="700">
<path d="M0 0 C231 0 462 0 700 0 C700 231 700 462 700 700 C469 700 238 700 0 700 C0 469 0 238 0 0 Z " fill="#E1E2E4" transform="translate(0,0)"/>
<path d="M0 0 C231 0 462 0 700 0 C700 231 700 462 700 700 C469 700 238 700 0 700 C0 469 0 238 0 0 Z M189.98828125 79.12890625 C187.14968468 80.90627587 184.27403066 82.50096565 181.3125 84.0625 C175.89124783 86.97318676 170.96460492 90.37614487 166 94 C165.1028125 94.64066406 164.205625 95.28132813 163.28125 95.94140625 C157.87070185 99.82453842 152.60610114 103.84348032 147.4375 108.04296875 C144.22222209 110.62446592 140.92529286 113.09364026 137.6171875 115.5546875 C137.08351563 116.03164062 136.54984375 116.50859375 136 117 C136 117.66 136 118.32 136 119 C135.41089844 119.26167969 134.82179688 119.52335937 134.21484375 119.79296875 C131.88214566 121.0642275 130.39645632 122.40230531 128.5625 124.3125 C128.00691406 124.88613281 127.45132813 125.45976563 126.87890625 126.05078125 C126.25886719 126.69402344 125.63882813 127.33726563 125 128 C122.40892613 130.6082333 119.80013357 133.19490423 117.16796875 135.76171875 C110.94148765 141.85135411 105.30144867 148.07584704 100 155 C98.93034677 156.34401123 97.85854053 157.68631041 96.78515625 159.02734375 C89.37819978 168.33045656 82.51050165 177.80279477 76.27490234 187.93066406 C75.44141862 189.28351891 74.60086719 190.63205141 73.75244141 191.97558594 C65.5241905 205.01695629 59.19285467 218.90000562 53 233 C52.66983887 233.75055664 52.33967773 234.50111328 51.99951172 235.27441406 C47.45899565 245.73722861 44.0672019 256.60147857 40.7578125 267.50390625 C40.13099168 269.56853772 39.48932032 271.62865411 38.84375 273.6875 C20.76910869 335.49111222 26.66901502 403.80264702 47 464 C47.28375488 464.84433594 47.56750977 465.68867188 47.85986328 466.55859375 C51.11950423 476.11192874 55.3282932 485.05500031 59.97216797 493.99560547 C60.99844522 495.996968 61.99057253 498.01177997 62.97265625 500.03515625 C73.90659824 522.51259797 87.96459458 542.84516684 104 562 C104.44182617 562.53351074 104.88365234 563.06702148 105.33886719 563.61669922 C111.04423331 570.49529825 116.93315757 577.11213397 123.25 583.4375 C123.80389404 583.99219971 124.35778809 584.54689941 124.9284668 585.1184082 C138.03893803 598.05425425 152.6108237 609.90025416 168 620 C169.02480469 620.68964844 170.04960937 621.37929688 171.10546875 622.08984375 C238.33149633 666.5056063 322.83174749 685.55354027 402.49731445 670.56323242 C405.62949079 669.92050169 408.74460283 669.21774521 411.85693359 668.48535156 C413.92554951 668.0168612 415.99496812 667.6189137 418.08203125 667.2421875 C467.5317219 657.96086095 518.94788115 631.48341706 555.59375 597.23046875 C557.6111926 595.36040426 559.6626077 593.56056934 561.74609375 591.765625 C566.2037003 587.87781504 570.39271762 583.75492373 574.5625 579.5625 C575.27857422 578.85029297 575.99464844 578.13808594 576.73242188 577.40429688 C588.69475212 565.42019715 599.65256052 552.12642317 609 538 C609.38349609 537.42266113 609.76699219 536.84532227 610.16210938 536.25048828 C611.42799321 534.33841491 612.68455049 532.42057063 613.9375 530.5 C614.5411438 529.58142212 614.5411438 529.58142212 615.15698242 528.64428711 C617.3087473 525.57253845 617.3087473 525.57253845 618 522 C618.66 522 619.32 522 620 522 C620.27972656 521.41734375 620.55945313 520.8346875 620.84765625 520.234375 C623.08546431 515.65802154 625.43364032 511.2631311 628.125 506.9375 C636.03642965 493.56093803 642.10268741 478.59738554 647 463.8671875 C648 461 648 461 649.3828125 457.98046875 C651.83183384 452.34188134 653.28632383 446.36166088 654.875 440.4375 C655.04919464 439.78837646 655.22338928 439.13925293 655.40286255 438.47045898 C658.08391735 428.39044214 660.22600427 418.2878464 661.9375 408 C662.23599854 406.20647095 662.23599854 406.20647095 662.54052734 404.37670898 C664.8608229 389.58559824 665.18649023 374.95441348 665.18530273 360.0168457 C665.18747862 356.96746627 665.20566953 353.91845597 665.22460938 350.86914062 C665.27962345 332.38506526 663.8164006 314.3412195 660.3125 296.1875 C660.18372467 295.51299805 660.05494934 294.83849609 659.92227173 294.14355469 C657.42911491 281.17315127 654.19945941 268.52752847 650 256 C649.68224609 255.04818848 649.36449219 254.09637695 649.03710938 253.11572266 C635.27745575 212.69843634 612.74056232 170.06436153 581.41015625 140.4375 C580 139 580 139 578 136 C577.34 136 576.68 136 576 136 C575.7525 135.4225 575.505 134.845 575.25 134.25 C573.81700012 131.67060021 572.21575324 129.93878408 570 128 C569.34 128 568.68 128 568 128 C568 127.34 568 126.68 568 126 C566.55316948 124.49726114 566.55316948 124.49726114 564.625 122.9375 C561.45515833 120.25062895 558.36589155 117.50601528 555.3125 114.6875 C546.07216338 106.39489021 536.09227329 99.27416045 525.875 92.25 C524.96911133 91.62399902 524.06322266 90.99799805 523.12988281 90.35302734 C513.25470053 82.76365371 513.25470053 82.76365371 502 79 C502 78.34 502 77.68 502 77 C490.24637968 71.39282726 490.24637968 71.39282726 478.375 66.04296875 C476.48948284 65.21495381 474.61720562 64.35680117 472.75 63.48828125 C461.67021159 58.39657962 450.25583526 54.52929855 438.64208984 50.83984375 C436.52415447 50.16661351 434.41153713 49.47666271 432.30078125 48.78125 C420.16995306 45.00653809 407.49806139 43.14310356 395 41 C394.23526367 40.86819336 393.47052734 40.73638672 392.68261719 40.60058594 C325.87744509 29.33750962 247.29566483 42.51783804 189.98828125 79.12890625 Z " fill="#FEFEFE" transform="translate(0,0)"/>
<path d="M0 0 C2.47349022 1.6720463 4.49545585 3.65416325 6.63745117 5.73364258 C32.4419788 29.81258596 64.74738218 37.46514824 99.21020508 36.42016602 C114.55717973 35.62825134 128.06679881 30.82115102 141.82495117 24.23364258 C143.59999023 23.39833008 143.59999023 23.39833008 145.41088867 22.54614258 C156.89614347 16.76180118 167.06593626 8.61830141 175.82495117 -0.76635742 C177.5806543 -0.14374023 177.5806543 -0.14374023 179.37182617 0.49145508 C186.16741564 2.75399911 193.12525002 4.39897719 200.07495117 6.10864258 C201.50631694 6.46350013 202.93763162 6.81856383 204.36889648 7.17382812 C212.42829613 9.17018532 220.49614125 11.12972462 228.57495117 13.04614258 C229.8351709 13.34560791 229.8351709 13.34560791 231.12084961 13.65112305 C234.51433201 14.45578449 237.90866314 15.25269362 241.30932617 16.02661133 C265.72080666 21.75002839 287.04389464 34.97497242 300.82495117 56.23364258 C306.26896085 65.38602417 310.19177173 74.91157915 312.82495117 85.23364258 C313.10363037 86.29760254 313.10363037 86.29760254 313.38793945 87.38305664 C313.98638366 89.68386177 314.56587747 91.98852406 315.13745117 94.29614258 C315.32146484 95.02309326 315.50547852 95.75004395 315.69506836 96.49902344 C316.55084516 100.11235034 317.11129714 102.72676186 315.82495117 106.23364258 C314.5090332 107.921875 314.5090332 107.921875 312.83276367 109.58911133 C311.90741821 110.51578613 311.90741821 110.51578613 310.96337891 111.46118164 C309.96673218 112.4313623 309.96673218 112.4313623 308.94995117 113.42114258 C307.92720093 114.42806152 307.92720093 114.42806152 306.88378906 115.45532227 C301.45930518 120.73898494 295.80425643 125.58682001 289.82495117 130.23364258 C288.81819336 131.05735352 287.81143555 131.88106445 286.77416992 132.72973633 C246.59763882 165.46505328 197.18648798 187.9644867 146.15405273 196.79663086 C143.96894698 197.2066245 141.83085163 197.7102495 139.67260742 198.24145508 C133.02493175 199.74500098 126.22640095 200.25434484 119.44995117 200.85864258 C118.72430969 200.92367981 117.99866821 200.98871704 117.2510376 201.0557251 C92.50541465 203.22831677 68.44344714 202.14084311 43.82495117 199.23364258 C42.87539551 199.12681152 41.92583984 199.01998047 40.94750977 198.90991211 C-26.98036924 191.07949789 -88.25489211 155.5392199 -137.17504883 109.23364258 C-137.97813477 108.60329102 -138.7812207 107.97293945 -139.60864258 107.32348633 C-141.17504883 105.23364258 -141.17504883 105.23364258 -141.05786133 102.07348633 C-140.62086914 100.17276367 -140.62086914 100.17276367 -140.17504883 98.23364258 C-140.02519531 97.51450684 -139.8753418 96.79537109 -139.72094727 96.05444336 C-135.21712236 74.81125331 -127.32481529 57.09312783 -112.17504883 41.23364258 C-111.63493164 40.61875977 -111.09481445 40.00387695 -110.53833008 39.37036133 C-96.90147138 24.42821137 -76.33479856 17.99519364 -57.23754883 13.67114258 C-55.61169568 13.29029126 -53.98621077 12.90786476 -52.36108398 12.52392578 C-48.36954746 11.58385977 -44.37465754 10.65923515 -40.37811279 9.74072266 C-35.98358082 8.72923155 -31.5927276 7.7023572 -27.20410156 6.66552734 C-25.18843102 6.189811 -23.17114168 5.72086932 -21.15185547 5.26074219 C-15.38913611 3.91125439 -10.04640518 2.12386895 -4.58959961 -0.18115234 C-2.17504883 -0.76635742 -2.17504883 -0.76635742 0 0 Z " fill="#6D7275" transform="translate(259.175048828125,472.766357421875)"/>
<path d="M0 0 C1.16008827 -0.005476 1.16008827 -0.005476 2.34361267 -0.01106262 C4.88262382 -0.01912153 7.42098704 -0.00559214 9.95996094 0.0090332 C11.73964436 0.00955258 13.51932837 0.00903187 15.29901123 0.00752258 C19.02446082 0.00761211 22.74969317 0.01799817 26.47509766 0.03613281 C31.22359514 0.05875292 35.97177375 0.05937385 40.72031021 0.05261517 C44.39573949 0.04925373 48.07109764 0.05594707 51.74651337 0.0657444 C53.49580258 0.06956428 55.24509975 0.07075812 56.9943924 0.06915855 C81.5705438 0.06540261 101.41903876 5.34762321 119.69433594 22.55981445 C136.1550462 39.76437606 141.14538584 59.48480634 141.52636719 82.8840332 C141.53826269 83.60097666 141.5501582 84.31792011 141.56241417 85.05658913 C141.62116434 88.8405618 141.66517412 92.62442374 141.69946289 96.40869141 C141.73075223 99.51622116 141.79370259 102.62068592 141.8840332 105.72705078 C141.99400114 109.5149648 142.04909765 113.30005007 142.06586266 117.08948708 C142.08102867 118.51978692 142.11481732 119.95002762 142.16849709 121.37940025 C142.56303216 132.48347686 142.56303216 132.48347686 138.48812866 137.23843384 C135.73439358 139.49777979 132.94492323 141.4595672 129.94433594 143.37231445 C129.28433594 144.03231445 128.62433594 144.69231445 127.94433594 145.37231445 C121.51072918 146.05270928 115.77396243 144.21461343 109.63183594 142.43481445 C107.99118164 141.96446777 107.99118164 141.96446777 106.31738281 141.48461914 C60.84685967 128.21697933 7.20407964 108.12934596 -18.46191406 65.31762695 C-19.87355579 62.70885769 -21.03007274 60.15166692 -22.05566406 57.37231445 C-22.09433594 58.54020508 -22.09433594 58.54020508 -22.13378906 59.73168945 C-23.55343575 87.73744678 -32.87100655 124.51169803 -54.05566406 144.37231445 C-58.94749041 144.37231445 -60.93229333 142.54730307 -64.55566406 139.62231445 C-65.12414062 139.17887695 -65.69261719 138.73543945 -66.27832031 138.27856445 C-67.89781832 137.00100222 -69.49640338 135.72296874 -71.05566406 134.37231445 C-71.73765869 133.84379379 -72.41965332 133.31527313 -73.12231445 132.77073669 C-75.75686584 129.50243664 -75.61790594 126.64614232 -75.57324219 122.62548828 C-75.5837561 121.46123825 -75.5837561 121.46123825 -75.59448242 120.27346802 C-75.61208035 117.70839598 -75.60042816 115.14442895 -75.58691406 112.5793457 C-75.58960984 110.79058115 -75.59349298 109.00181802 -75.59851074 107.21305847 C-75.60440935 103.46123321 -75.59583637 99.70978879 -75.57714844 95.95800781 C-75.55444092 91.16753182 -75.5674272 86.37795633 -75.59143829 81.58751392 C-75.60595708 77.89067419 -75.60126114 74.19404449 -75.59092712 70.4971981 C-75.58827231 68.73229553 -75.59148546 66.96737342 -75.60084534 65.20249367 C-75.67359503 47.61762397 -75.67359503 47.61762397 -71.05566406 40.37231445 C-70.36923828 39.17541992 -70.36923828 39.17541992 -69.66894531 37.9543457 C-64.48582536 30.90343477 -57.2388098 25.5500565 -48.51269531 23.88793945 C-41.54137487 23.1877182 -34.46890597 23.1656935 -28.05566406 26.37231445 C-28.04148437 25.81543945 -28.02730469 25.25856445 -28.01269531 24.68481445 C-27.5138895 16.70392149 -24.55648513 11.43274993 -18.68066406 6.05981445 C-13.08848881 1.25274755 -7.20067029 -0.07698323 0 0 Z " fill="#525A5D" transform="translate(312.0556640625,154.627685546875)"/>
<path d="M0 0 C0.66 0.33 1.32 0.66 2 1 C2.4921875 2.71484375 2.4921875 2.71484375 2.875 4.9375 C5.85734337 19.52555168 14.56169026 36.39083933 27 45 C37.61122833 51.56798443 47.02411131 53.91106124 59.44921875 51.265625 C73.53943836 46.57455068 82.39811453 35.86600005 89 23 C90.83334288 19.05495328 92.47094338 15.07169244 94 11 C94.3196875 10.16597656 94.639375 9.33195312 94.96875 8.47265625 C95.65932521 6.65350211 96.33220825 4.82764057 97 3 C97.66 3 98.32 3 99 3 C99.13986328 3.61294922 99.27972656 4.22589844 99.42382812 4.85742188 C105.1388342 29.42643513 112.92704852 48.07940533 135 61.875 C135.66 62.24625 136.32 62.6175 137 63 C129.3088034 79.71842267 105.80140755 89.70975272 89.69433594 95.88378906 C76.37603639 100.67070824 63.38891907 102.37630622 49.25 102.3125 C48.58914398 102.31001251 47.92828796 102.30752502 47.24740601 102.30496216 C19.14756794 102.14152931 -6.20586227 92.7019241 -28 75 C-28.91652344 74.29488281 -29.83304687 73.58976562 -30.77734375 72.86328125 C-36.80206801 67.98965993 -36.80206801 67.98965993 -37.625 63.875 C-35.1303637 59.4614127 -31.26925327 57.55862782 -27 55 C-9.26574971 42.10236342 -4.74916993 20.08797834 0 0 Z " fill="#F3F3F3" transform="translate(298,408)"/>
<path d="M0 0 C3.68336866 1.32506624 6.04074379 3.8091399 8.8125 6.5 C34.61702763 30.57894338 66.92243101 38.23150566 101.38525391 37.18652344 C116.73222856 36.39460877 130.24184763 31.58750845 144 25 C145.18335938 24.443125 146.36671875 23.88625 147.5859375 23.3125 C159.0711923 17.5281586 169.24098509 9.38465884 178 0 C179.19625 0.4125 180.3925 0.825 181.625 1.25 C188.0182437 3.38790069 194.51042602 5.18144228 201 7 C201 7.99 201 8.98 201 10 C200.34 10 199.68 10 199 10 C198.7421875 10.58265625 198.484375 11.1653125 198.21875 11.765625 C196.90165983 14.1802903 195.44911616 15.81740177 193.5 17.75 C192.8915625 18.36359375 192.283125 18.9771875 191.65625 19.609375 C190 21 190 21 188 21 C188 21.66 188 22.32 188 23 C185.525 23.99 185.525 23.99 183 25 C183 25.66 183 26.32 183 27 C181.05859375 28.55078125 181.05859375 28.55078125 178.4375 30.3125 C175.45874687 32.33007252 172.50556218 34.35992136 169.60546875 36.48828125 C166.18813515 38.93201553 162.62873418 40.99278848 158.875 42.875 C158.20484863 43.21160645 157.53469727 43.54821289 156.84423828 43.89501953 C148.59789512 47.88096987 139.90350983 50.60300225 131.17236328 53.3137207 C129.40980074 53.87053834 127.6629134 54.47680372 125.921875 55.09765625 C122.1159824 56.27300544 118.30330624 56.93255914 114.375 57.5625 C113.1698877 57.75646362 113.1698877 57.75646362 111.94042969 57.9543457 C78.45777693 63.20659242 45.78969462 59.65445825 16 43 C14.86949219 42.37222656 13.73898437 41.74445312 12.57421875 41.09765625 C-1.12921556 33.07253124 -15.2244195 22.05585707 -23 8 C-17.00118607 5.64752395 -10.93060931 3.71472993 -4.7578125 1.8671875 C-2.07544014 1.10368692 -2.07544014 1.10368692 0 0 Z " fill="#535A5E" transform="translate(257,472)"/>
<path d="M0 0 C0.50789063 0.38671875 1.01578125 0.7734375 1.5390625 1.171875 C4.8008845 3.63962049 8.04047774 6.06503857 11.5 8.25 C12.325 8.8275 13.15 9.405 14 10 C14 10.66 14 11.32 14 12 C14.8559375 12.27714844 15.711875 12.55429687 16.59375 12.83984375 C21.05556435 14.35952134 25.40749915 16.12419906 29.78125 17.87890625 C43.19638438 22.55141058 60.95055036 21.12041034 73.88671875 15.81640625 C79.95833902 12.75894269 85.0483191 8.72818172 90.11767578 4.25170898 C93.81203556 1 93.81203556 1 96 1 C93.35036202 14.02738675 87.1273568 27.25032341 78 37 C77.27296875 37.77988281 76.5459375 38.55976563 75.796875 39.36328125 C67.56870522 47.47200985 58.8098875 51.19221331 47.25 51.5625 C40.96329156 51.32368253 36.34274161 50.28313511 31 47 C30.24203125 46.56429687 29.4840625 46.12859375 28.703125 45.6796875 C14.91219304 37.21075949 5.08612857 20.84258219 1.1875 5.375 C0.77968522 3.58602248 0.37940175 1.79521803 0 0 Z " fill="#D2D5DA" transform="translate(299,410)"/>
<path d="M0 0 C2.94887797 0.50842724 5.37371875 1.59306362 8 3 C7.67 3.99 7.34 4.98 7 6 C3.75791433 5.64950425 2.38472296 5.43778819 0.1875 2.9375 C-0.4003125 1.9784375 -0.4003125 1.9784375 -1 1 C-0.67 0.67 -0.34 0.34 0 0 Z " fill="#D8D9DB" transform="translate(542,507)"/>
<path d="M0 0 C2.475 0.99 2.475 0.99 5 2 C4.01 2.495 4.01 2.495 3 3 C2.67 3.66 2.34 4.32 2 5 C-0.0625 6.125 -0.0625 6.125 -2 7 C-1.125 1.125 -1.125 1.125 0 0 Z " fill="#F0F1F1" transform="translate(282,255)"/>
<path d="M0 0 C0.598125 0.20625 1.19625 0.4125 1.8125 0.625 C1.8125 1.285 1.8125 1.945 1.8125 2.625 C-0.1675 3.615 -2.1475 4.605 -4.1875 5.625 C-4.5175 4.305 -4.8475 2.985 -5.1875 1.625 C-2.1875 -0.375 -2.1875 -0.375 0 0 Z " fill="#73787A" transform="translate(514.1875,624.375)"/>
<path d="M0 0 C0.66 0.33 1.32 0.66 2 1 C1.67 1.66 1.34 2.32 1 3 C1.66 3.33 2.32 3.66 3 4 C-2.75 5.125 -2.75 5.125 -5 4 C-3.35 2.68 -1.7 1.36 0 0 Z " fill="#F0F1F3" transform="translate(451,290)"/>
</svg>
