<?xml version="1.0" encoding="UTF-8"?>
<svg version="1.1" xmlns="http://www.w3.org/2000/svg" width="700" height="700">
<path d="M0 0 C231 0 462 0 700 0 C700 231 700 462 700 700 C469 700 238 700 0 700 C0 469 0 238 0 0 Z " fill="#DEDFE1" transform="translate(0,0)"/>
<path d="M0 0 C231 0 462 0 700 0 C700 231 700 462 700 700 C469 700 238 700 0 700 C0 469 0 238 0 0 Z M134.703125 121.26171875 C132.96917197 123.03146438 131.1508193 124.59962046 129.25 126.1875 C121.44207166 132.91528015 114.16328465 140.85155511 108.28125 149.31640625 C107 151 107 151 105.15234375 152.80859375 C102.50224 155.50679376 100.28473596 158.45102727 98.0625 161.5 C97.35504639 162.46981812 97.35504639 162.46981812 96.63330078 163.45922852 C67.03073431 204.52132031 45.55876514 251.69393969 38 302 C37.81673157 303.20256691 37.81673157 303.20256691 37.62976074 304.4294281 C35.387886 319.51377848 34.52427172 334.31975882 34.60888672 349.56347656 C34.62499273 352.99845046 34.60891045 356.43224836 34.58984375 359.8671875 C34.57032071 379.57710521 36.54364834 398.89780444 40.625 418.1875 C40.8729834 419.37456543 41.1209668 420.56163086 41.37646484 421.78466797 C45.69163599 441.57314394 51.56369797 461.86614937 60.25 480.1875 C60.54302002 480.8069751 60.83604004 481.4264502 61.13793945 482.06469727 C64.33666058 488.78596482 67.67643667 495.43791493 71.03271484 502.08154297 C72.69742094 505.38322406 74.34784394 508.69202457 76 512 C76.66 512 77.32 512 78 512 C78.24105469 512.84820313 78.48210937 513.69640625 78.73046875 514.5703125 C80.13587634 518.36707515 82.07316109 521.53598162 84.3125 524.875 C85.12297749 526.10378322 85.93287665 527.33294809 86.7421875 528.5625 C87.13116211 529.1503125 87.52013672 529.738125 87.92089844 530.34375 C89.3172836 532.48698008 90.62731942 534.67829005 91.9375 536.875 C92.9584375 538.421875 92.9584375 538.421875 94 540 C94.66 540 95.32 540 96 540 C96.23332031 540.70511719 96.46664062 541.41023438 96.70703125 542.13671875 C98.25187443 545.5577763 100.24786471 547.96190011 102.6875 550.8125 C103.35906128 551.60188965 103.35906128 551.60188965 104.04418945 552.40722656 C105.35549409 553.94440747 106.6775431 555.47240295 108 557 C108.6496875 557.75152344 109.299375 558.50304687 109.96875 559.27734375 C111.08577653 560.55938556 112.20790956 561.83700225 113.3359375 563.109375 C114.54375609 564.48163837 115.73429817 565.86916926 116.9140625 567.265625 C117.54054688 568.00296875 118.16703125 568.7403125 118.8125 569.5 C119.65748047 570.50546875 119.65748047 570.50546875 120.51953125 571.53125 C121.88906545 573.23476384 121.88906545 573.23476384 124 573 C124.27094482 572.02728149 124.27094482 572.02728149 124.54736328 571.03491211 C132.91520779 541.18184714 142.62413784 514.12991909 170.9375 497.75 C179.91283743 492.73552333 188.86841542 488.85745717 199 487 C200.3375569 489.67511379 200.12286028 491.71067519 200.12025452 494.70730591 C200.12231651 496.52888718 200.12231651 496.52888718 200.12442017 498.38726807 C200.1208808 499.74011255 200.11724599 501.09295678 200.11352539 502.44580078 C200.11324344 503.86479694 200.11340141 505.28379324 200.1139679 506.70278931 C200.11425555 510.56206463 200.10836391 514.42130906 200.10139394 518.28057718 C200.09515516 522.31114452 200.09455618 526.34171252 200.09336853 530.37228394 C200.09025677 538.00790673 200.08204546 545.64351526 200.07201904 553.27913177 C200.06085311 561.97066741 200.05534624 570.66220372 200.05032361 579.35374475 C200.03986272 597.23583793 200.02226626 615.11791782 200 633 C202.7248808 634.45260835 205.45140325 635.90210873 208.17822266 637.35107422 C209.32974571 637.96501289 209.32974571 637.96501289 210.50453186 638.59135437 C215.70182797 641.35051613 220.91580225 643.92017702 226.375 646.125 C227.15842773 646.44645996 227.94185547 646.76791992 228.74902344 647.09912109 C231.16080756 648.07972075 233.5790417 649.04230174 236 650 C236.76538086 650.30679688 237.53076172 650.61359375 238.31933594 650.9296875 C250.3462534 655.71387566 262.54298772 659.2547211 275.11669922 662.30029297 C277.90623994 662.97724671 280.68920698 663.67740282 283.47265625 664.37890625 C306.19278774 669.96303654 328.84599873 671.56198205 352.1875 671.4375 C353.38623749 671.43479095 354.58497498 671.43208191 355.82003784 671.42929077 C374.18045044 671.36650734 391.95202325 670.61838495 410 667 C410.99 666.80744629 411.98 666.61489258 413 666.41650391 C419.3892783 665.14523294 425.69719086 663.64342588 432 662 C432.84224121 661.78649902 433.68448242 661.57299805 434.55224609 661.35302734 C458.86892563 655.12620885 481.60797404 645.21415467 504 634 C504.66 633.67 505.32 633.34 506 633 C506.33 585.15 506.66 537.3 507 488 C519.89321959 489.43257995 529.05306719 494.37819203 539.84765625 501.109375 C542.87078794 503.07734739 542.87078794 503.07734739 546 504 C546 504.66 546 505.32 546 506 C547.42561618 507.40613375 547.42561618 507.40613375 549.25 508.8125 C552.26731409 511.30875181 554.60605539 513.88787201 557 517 C557.77085937 517.72316406 558.54171875 518.44632813 559.3359375 519.19140625 C573.06872315 533.66922572 576.78457057 555.23795045 581 574 C581.99 573.67 582.98 573.34 584 573 C584 572.34 584 571.68 584 571 C584.66 571 585.32 571 586 571 C587.58394129 569.4801558 587.58394129 569.4801558 589.2109375 567.48828125 C589.83452148 566.75432129 590.45810547 566.02036133 591.10058594 565.26416016 C591.72739258 564.5169873 592.35419922 563.76981445 593 563 C593.82806152 562.03586182 593.82806152 562.03586182 594.67285156 561.05224609 C603.95148955 550.23464367 612.19839798 538.91861072 620 527 C620.4429541 526.33178223 620.8859082 525.66356445 621.34228516 524.97509766 C632.93899314 507.41742337 642.32373848 488.57029739 650 469 C650.27537598 468.3085791 650.55075195 467.6171582 650.83447266 466.90478516 C661.04274352 441.17797355 666.82676564 414.15934238 669.70629883 386.66699219 C669.94071037 384.5383873 670.22200351 382.41496174 670.51904297 380.29418945 C671.10608283 375.61148525 671.19710044 370.96120007 671.23828125 366.24609375 C671.24798447 365.31993256 671.25768768 364.39377136 671.26768494 363.43954468 C671.29260781 360.43881874 671.30521972 357.43831918 671.3125 354.4375 C671.31642761 352.89925064 671.31642761 352.89925064 671.32043457 351.32992554 C671.3268368 327.87879977 669.00646749 305.15500773 663.53979492 282.29736328 C663.13408536 280.57066631 662.74982367 278.83890766 662.3762207 277.10498047 C660.52875262 268.67386615 658.07046583 260.55017246 655.3125 252.375 C655.09279541 251.72147552 654.87309082 251.06795105 654.64672852 250.3946228 C644.67927148 220.82926983 630.65502348 192.978792 612.05859375 167.84765625 C610 165 610 165 608.34765625 162.12109375 C607.90292969 161.42113281 607.45820312 160.72117187 607 160 C606.34 160 605.68 160 605 160 C604.773125 159.484375 604.54625 158.96875 604.3125 158.4375 C602.51782382 155.10452995 600.50034985 151.85296329 598 149 C597.34 149 596.68 149 596 149 C595.7525 148.443125 595.505 147.88625 595.25 147.3125 C593.77075182 144.57589087 592.06532561 142.32349131 590 140 C589.34 140 588.68 140 588 140 C587.7628125 139.43829102 587.525625 138.87658203 587.28125 138.29785156 C585.70680643 135.47417342 583.78315455 133.52385158 581.5 131.234375 C580.613125 130.34492188 579.72625 129.45546875 578.8125 128.5390625 C577.884375 127.61867188 576.95625 126.69828125 576 125.75 C574.6078125 124.34621094 574.6078125 124.34621094 573.1875 122.9140625 C572.300625 122.02976562 571.41375 121.14546875 570.5 120.234375 C569.27796875 119.01572754 569.27796875 119.01572754 568.03125 117.77246094 C566.19815007 115.78084061 566.19815007 115.78084061 564 116 C564 115.34 564 114.68 564 114 C560.88758474 111.08211069 557.39212199 108.58470834 554 106 C553.39462402 105.53706543 552.78924805 105.07413086 552.16552734 104.59716797 C539.20761107 94.71279227 526.05358081 85.38669926 511.96704102 77.16845703 C510.57087411 76.33910928 509.18702679 75.48886385 507.81225586 74.62451172 C500.80527558 70.26330879 493.47650632 66.83432336 485.9375 63.5 C485.299263 63.21553009 484.661026 62.93106018 484.00344849 62.63796997 C474.15527673 58.25434476 464.25936851 54.31580942 454 51 C453.0615625 50.66097656 452.123125 50.32195313 451.15625 49.97265625 C425.04110275 40.62973719 395.73834078 35.28451896 368 35 C366.03981934 34.96350342 366.03981934 34.96350342 364.04003906 34.92626953 C281.87241843 33.42009423 192.89359014 60.16173035 134.703125 121.26171875 Z " fill="#FEFEFE" transform="translate(0,0)"/>
<path d="M0 0 C1.65713916 2.48570875 2.49580445 4.13582326 3.41015625 6.88671875 C14.02505487 37.82296163 32.88926928 61.41217117 62.3515625 76.25390625 C79.18781072 84.44176079 96.45082472 87.87096877 115 89 C115.83805176 89.08515869 116.67610352 89.17031738 117.53955078 89.25805664 C123.48898468 89.64873348 126.6209589 88.58912246 131.16235352 84.73144531 C131.81002686 84.13944336 132.4577002 83.54744141 133.125 82.9375 C134.1612854 82.04756348 134.1612854 82.04756348 135.21850586 81.13964844 C138.05607282 78.6899214 140.81745143 76.17028577 143.55859375 73.61328125 C146.75464518 70.64151413 148.53548645 69.13706957 152.8125 67.875 C156 68 156 68 157.875 69.0625 C163.04390232 77.96449844 159.45406238 91.65243085 157 101 C154.11908597 110.16392363 149.84908944 118.72903539 145 127 C144.34 127 143.68 127 143 127 C142.62875 127.8971875 142.62875 127.8971875 142.25 128.8125 C140.72595895 131.47957184 139.73254065 132.56182071 137 134 C132.5166774 134.75988519 130.366565 134.85171958 126.48046875 132.4296875 C124.24446513 130.69018232 122.09756664 128.90334751 120 127 C118.26676373 130.99100457 117.23408475 134.95334588 116.25 139.1875 C107.99245805 173.21713973 107.99245805 173.21713973 96.796875 183.34765625 C94.15497073 185.77705953 91.89232283 188.4974846 89.5859375 191.2421875 C88 193 88 193 85.4375 194.8125 C83.63128536 197.5610875 83.93208764 198.42243517 84.4375 201.625 C84.92780372 203.75725107 85.45358262 205.88143435 86 208 C86.16177734 208.67998047 86.32355469 209.35996094 86.49023438 210.06054688 C90.96443051 228.83886449 98.69600803 243.89827526 114.38671875 255.796875 C130.27879663 265.48674735 144.02434909 267.25608727 163 272 C163 301.7 163 331.4 163 362 C133.875 362.3125 133.875 362.3125 124.76904297 362.38793945 C122.34340939 362.42027386 119.91778943 362.45365375 117.4921875 362.48828125 C115.65636108 362.49764709 115.65636108 362.49764709 113.78344727 362.50720215 C90.85542981 362.88303395 71.23501077 370.79200256 55 387 C52.94439833 389.31575803 50.93339151 391.64860074 48.984375 394.0546875 C44.52637398 398.4249326 40.11048537 399.43079991 34 399.4375 C24.42625884 399.19639844 20.28230907 394.56516185 14 388 C12.3545622 386.31237149 10.68711423 384.6459651 9 383 C8.49726563 382.47792969 7.99453125 381.95585938 7.4765625 381.41796875 C-8.23848197 366.21760914 -30.46143911 362.97406479 -51.34765625 362.68359375 C-52.45911011 362.66494263 -53.57056396 362.6462915 -54.71569824 362.6270752 C-58.83122505 362.55924842 -62.94687081 362.49880075 -67.0625 362.4375 C-76.281875 362.293125 -85.50125 362.14875 -95 362 C-95 332.3 -95 302.6 -95 272 C-79 268 -79 268 -73.9921875 266.76171875 C-53.66415418 261.56439935 -38.1880071 252.23136612 -27 234 C-23.05853365 227.07517078 -21.10355163 219.94161946 -19.125 212.25 C-18.79242188 211.03183594 -18.45984375 209.81367188 -18.1171875 208.55859375 C-17.81296875 207.38941406 -17.50875 206.22023438 -17.1953125 205.015625 C-16.91703613 203.95633789 -16.63875977 202.89705078 -16.35205078 201.80566406 C-15.95642228 198.65270789 -16.21562883 197.57560716 -18 195 C-19.30901943 193.46625089 -19.30901943 193.46625089 -20.828125 192.08203125 C-21.37782959 191.55488525 -21.92753418 191.02773926 -22.49389648 190.48461914 C-23.07341064 189.93281982 -23.6529248 189.38102051 -24.25 188.8125 C-41.15047256 172.2256397 -46.78506387 149.50656646 -52 127 C-52.55429687 127.42152344 -53.10859375 127.84304688 -53.6796875 128.27734375 C-54.40414062 128.82519531 -55.12859375 129.37304688 -55.875 129.9375 C-56.59429687 130.48277344 -57.31359375 131.02804687 -58.0546875 131.58984375 C-61.82508794 134.32300551 -64.32932638 134.60266756 -69 134 C-79.3812719 128.50890808 -84.35054159 114.70641583 -87.875 104.125 C-88.60333912 101.75605862 -89.31437233 99.38165401 -90 97 C-90.24621094 96.20335937 -90.49242187 95.40671875 -90.74609375 94.5859375 C-92.6660355 87.51525547 -93.59403675 77.59324333 -91.17578125 70.625 C-90 69 -90 69 -86.9375 67.8125 C-81.0669853 68.09204832 -78.24434537 71.16869495 -74 75 C-73.23171875 75.67289062 -72.4634375 76.34578125 -71.671875 77.0390625 C-65.42307692 82.54395604 -65.42307692 82.54395604 -63.1953125 84.9453125 C-61.51600492 86.67105255 -60.16017686 87.93399968 -58 89 C-50.42027781 88.92767441 -43.56593975 82.52574773 -38 78 C-37.44054687 77.4225 -36.88109375 76.845 -36.3046875 76.25 C-35 75 -35 75 -33 75 C-32.73316406 74.40703125 -32.46632813 73.8140625 -32.19140625 73.203125 C-30.97934963 70.96181375 -29.72064083 69.55421814 -27.9375 67.75 C-15.86871966 54.24505999 -10.04201952 36.03671858 -5 19 C-4.64421875 17.80761719 -4.2884375 16.61523438 -3.921875 15.38671875 C-3.08182207 12.3005921 -2.45722934 9.27831581 -1.9375 6.125 C-1.11092985 1.11092985 -1.11092985 1.11092985 0 0 Z " fill="#F3F3F3" transform="translate(319,208)"/>
<path d="M0 0 C11.31044493 -0.11657527 22.62074364 -0.20505763 33.93167019 -0.25906086 C39.1855405 -0.28499824 44.43899554 -0.32010152 49.69262695 -0.37719727 C54.77608805 -0.43208898 59.85915333 -0.46153929 64.94288826 -0.47438622 C66.86870607 -0.48352468 68.7945057 -0.50136531 70.7201519 -0.52865028 C95.00071961 -0.85856173 114.18651851 6.17749916 132 23 C133.34020569 24.45411106 134.6577415 25.92991635 135.9375 27.4375 C139.62921286 31.78016706 142.26637628 34.65038917 148.20703125 35.41015625 C154.56850078 35.67437064 159.93407353 35.66062072 165.14453125 31.75 C168.22823988 28.84157586 171.0082484 25.69156509 173.78515625 22.4921875 C181.73605764 13.5456706 191.0887478 7.91979351 202.1875 3.6875 C202.85265625 3.43282959 203.5178125 3.17815918 204.203125 2.91577148 C204.85152344 2.67930908 205.49992188 2.44284668 206.16796875 2.19921875 C206.73797607 1.99127686 207.3079834 1.78333496 207.89526367 1.5690918 C213.80393219 -0.02853102 219.71283513 -0.14119942 225.78100586 -0.11352539 C227.0553801 -0.11374443 227.0553801 -0.11374443 228.35549927 -0.1139679 C231.14197411 -0.11327554 233.9283807 -0.10551507 236.71484375 -0.09765625 C238.65540022 -0.09578966 240.59595717 -0.09436689 242.53651428 -0.09336853 C247.62787187 -0.08956233 252.71920063 -0.07974832 257.81054688 -0.06866455 C263.92799535 -0.05660447 270.04545349 -0.05203916 276.16291046 -0.04621124 C285.44196031 -0.03653549 294.72094701 -0.01736566 304 0 C304 20.46 304 40.92 304 62 C281.9546395 73.60282132 281.9546395 73.60282132 272.625 77.1875 C271.57248047 77.59838867 270.51996094 78.00927734 269.43554688 78.43261719 C236.79428311 91.03462408 202.21872941 99.98576623 167.046875 100.23828125 C165.35826607 100.25304001 165.35826607 100.25304001 163.63554382 100.26809692 C116.50092042 100.59528133 116.50092042 100.59528133 94 96 C92.76685059 95.75330566 91.53370117 95.50661133 90.26318359 95.25244141 C18.53445424 80.53445424 18.53445424 80.53445424 0 62 C-0.09396057 60.06693502 -0.11743517 58.13041162 -0.11352539 56.19506836 C-0.11344986 54.95385727 -0.11337433 53.71264618 -0.11329651 52.43382263 C-0.10818911 51.0691626 -0.1029731 49.70450298 -0.09765625 48.33984375 C-0.095792 46.95121817 -0.09436813 45.56259193 -0.09336853 44.17396545 C-0.08954387 40.51278885 -0.07971403 36.8516517 -0.06866455 33.19049072 C-0.05844932 29.45707737 -0.05387067 25.72365766 -0.04882812 21.99023438 C-0.03809171 14.66013823 -0.02101591 7.33007464 0 0 Z " fill="#6D7275" transform="translate(201,571)"/>
<path d="M0 0 C24.15847819 18.22245005 40.37258505 43.3254053 44.8269043 73.53320312 C45.58086819 80.10867453 45.82718893 86.66649271 45.91088867 93.28149414 C45.9392126 94.88449725 45.98730202 96.4872645 46.05444336 98.08911133 C46.60781451 111.41737349 46.60781451 111.41737349 43.36938477 116.10302734 C41.09998671 118.12572628 38.82331423 119.72576261 36.265625 121.359375 C34.76463454 122.66809172 33.28204219 123.99855297 31.828125 125.359375 C28.03847312 128.78920134 24.78490778 128.65719265 19.90405273 128.50097656 C18.59803101 128.43088379 18.59803101 128.43088379 17.265625 128.359375 C16.49742432 128.32553711 15.72922363 128.29169922 14.93774414 128.25683594 C-18.7973711 126.3975066 -48.59890328 112.89070442 -71.734375 88.234375 C-84.05074357 73.85700121 -91.75781257 57.2104233 -97.734375 39.359375 C-97.96511719 40.473125 -98.19585937 41.586875 -98.43359375 42.734375 C-103.69395009 67.57509891 -111.26239813 93.03284677 -129.734375 111.359375 C-130.971875 112.6896875 -130.971875 112.6896875 -132.234375 114.046875 C-138.40314907 119.75299101 -145.51089614 125.98749077 -153.734375 128.359375 C-157.86530061 127.1705579 -161.02690654 123.74818002 -164.234375 120.984375 C-164.80285156 120.50226563 -165.37132812 120.02015625 -165.95703125 119.5234375 C-167.56528775 118.15026258 -169.16568593 116.77767495 -170.734375 115.359375 C-171.80365234 114.52116211 -171.80365234 114.52116211 -172.89453125 113.66601562 C-175.43304543 110.48344106 -175.30912235 107.62911403 -175.265625 103.7265625 C-175.27112869 102.98133835 -175.27663239 102.2361142 -175.28230286 101.4683075 C-175.29049769 99.05625369 -175.26534706 96.64622369 -175.234375 94.234375 C-175.2291684 93.41669647 -175.22396179 92.59901794 -175.21859741 91.75656128 C-175.12921129 79.87054738 -174.54640902 68.70798776 -170.734375 57.359375 C-170.37214844 56.23015625 -170.00992188 55.1009375 -169.63671875 53.9375 C-165.13944531 41.19268442 -158.67598349 29.49319796 -149.734375 19.359375 C-149.04730469 18.54082031 -148.36023438 17.72226563 -147.65234375 16.87890625 C-129.43774513 -4.28941106 -105.97469309 -15.68821977 -78.734375 -19.640625 C-77.27451172 -19.91519531 -77.27451172 -19.91519531 -75.78515625 -20.1953125 C-49.7707659 -23.99254746 -21.1276061 -15.33134139 0 0 Z " fill="#525A5D" transform="translate(416.734375,169.640625)"/>
<path d="M0 0 C0.48210937 0.42152344 0.96421875 0.84304688 1.4609375 1.27734375 C2.09257812 1.82519531 2.72421875 2.37304688 3.375 2.9375 C4.00148437 3.48277344 4.62796875 4.02804687 5.2734375 4.58984375 C7.66578671 6.54377603 8.94730782 6.99247255 12.0625 7.4375 C17.50911548 6.8323205 20.67643214 4.17883502 25 1 C25.66 0.67 26.32 0.34 27 0 C27.29390625 1.423125 27.29390625 1.423125 27.59375 2.875 C29.53671391 11.86936942 32.01257006 20.62959499 34.875 29.375 C35.19017578 30.35984375 35.50535156 31.3446875 35.83007812 32.359375 C39.08023586 42.07728149 43.29249431 50.82500135 50.4375 58.25 C50.90687988 58.75611816 51.37625977 59.26223633 51.85986328 59.78369141 C53.91906772 61.98116377 55.98067812 63.9851664 58.37109375 65.8203125 C60.50207523 67.47358858 61.8058887 68.57401893 63 71 C62.82802609 75.90444106 61.41339032 80.32530701 60 85 C59.7009375 86.27230469 59.401875 87.54460937 59.09375 88.85546875 C54.95342039 106.36263835 44.85965646 121.51463205 29.875 131.6875 C18.4137499 138.5095748 5.23895127 141.43218689 -7.59667969 144.59472656 C-10.26253059 145.2530946 -12.9242417 145.92661505 -15.5859375 146.6015625 C-17.31227424 147.03215615 -19.03882957 147.46187455 -20.765625 147.890625 C-21.54504456 148.08851624 -22.32446411 148.28640747 -23.12750244 148.49029541 C-28.72489282 149.85458371 -34.25876319 150.55437273 -40 151 C-40.07681806 143.17535784 -40.12891827 135.35081488 -40.16479492 127.52587891 C-40.17805814 124.87042218 -40.20015588 122.21546797 -40.22631836 119.56005859 C-40.48471749 92.63588264 -38.48377514 71.1154402 -20.63110352 49.70019531 C-8.69978462 35.34175832 -0.87257845 18.93495231 0 0 Z " fill="#525A5D" transform="translate(241,334)"/>
<path d="M0 0 C1.48009643 0.97776067 2.95905144 1.9572494 4.4375 2.9375 C5.26121094 3.48277344 6.08492188 4.02804687 6.93359375 4.58984375 C9 6 9 6 10 7 C16.8869423 7.71244231 19.63946643 6.20519702 25 2 C25.12375 3.01835937 25.2475 4.03671875 25.375 5.0859375 C27.81749225 22.69881014 34.6807901 36.47301851 46 50 C51.8608638 57.33073123 56.55230301 64.25129854 60 73 C60.29519531 73.66257812 60.59039062 74.32515625 60.89453125 75.0078125 C65.2539758 85.27290853 65.29128683 96.76991383 65.1953125 107.73828125 C65.1924826 108.98506149 65.18965271 110.23184174 65.18673706 111.5164032 C65.17565658 115.44853847 65.15057519 119.38043507 65.125 123.3125 C65.11380887 125.99934316 65.10569356 128.68619267 65.09765625 131.37304688 C65.07575714 137.91544425 65.04240283 144.45770507 65 151 C55.83189625 150.01798773 47.00296094 147.81442109 38.04931641 145.66430664 C36.03279986 145.18366855 34.01424061 144.71151342 31.99365234 144.24829102 C9.62955984 139.11960073 -10.37831787 131.47261195 -23.109375 111.18359375 C-28.09022962 102.79641087 -30.85356122 94.45894093 -33.375 85.0625 C-33.65045654 84.04236816 -33.92591309 83.02223633 -34.2097168 81.97119141 C-34.45761963 81.0022998 -34.70552246 80.0334082 -34.9609375 79.03515625 C-35.18571777 78.1625415 -35.41049805 77.28992676 -35.64208984 76.39086914 C-36.02088556 73.86048275 -35.89088991 72.38264981 -35 70 C-33.1796875 67.921875 -33.1796875 67.921875 -30.875 65.75 C-27.91449866 62.87878362 -25.00178623 60.01053 -22.25 56.9375 C-21.73953125 56.36902344 -21.2290625 55.80054688 -20.703125 55.21484375 C-16.0743539 49.19531803 -12.95286435 43.01972073 -10.4375 35.875 C-10.1394043 35.04605225 -9.84130859 34.21710449 -9.53417969 33.36303711 C-5.65699982 22.42867267 -2.72508759 11.27195322 0 0 Z " fill="#525A5D" transform="translate(438,334)"/>
<path d="M0 0 C0.66 0 1.32 0 2 0 C3.34185361 1.65981458 4.67356148 3.3278408 6 5 C20.44028575 18.22159921 37.51978749 21.93131969 56.64257812 21.19238281 C69.91495642 20.10925998 83.31845414 12.3182233 93 3.5 C93.99 2.675 94.98 1.85 96 1 C96.99 1.33 97.98 1.66 99 2 C99 2.66 99 3.32 99 4 C98.54625 4.41378906 98.0925 4.82757813 97.625 5.25390625 C95.43966381 7.60209201 94.90822139 9.87603705 94 12.9375 C92.81123667 16.93471669 91.63230504 19.77039091 89 23 C88.443125 24.03125 87.88625 25.0625 87.3125 26.125 C80.80196585 37.61707922 70.97928519 47.48945602 58.1796875 51.58203125 C46.34153261 53.8520717 35.98818908 51.34613454 25.9375 45.0625 C15.03226402 36.90953786 9.11219572 25.27198176 4 13 C3.56558594 11.98808594 3.13117188 10.97617187 2.68359375 9.93359375 C0 3.50979965 0 3.50979965 0 0 Z " fill="#D2D5DA" transform="translate(304,406)"/>
<path d="M0 0 C0.33 0 0.66 0 1 0 C2.49626571 65.98964801 3.24318128 131.99365188 3 198 C2.67 198 2.34 198 2 198 C2 177.54 2 157.08 2 136 C-25.39 136 -52.78 136 -81 136 C-81 135.67 -81 135.34 -81 135 C-61.2 135 -41.4 135 -21 135 C-21 105.3 -21 75.6 -21 45 C-14.07 46.65 -7.14 48.3 0 50 C0 33.5 0 17 0 0 Z " fill="#CED1D6" transform="translate(503,435)"/>
<path d="M0 0 C0 29.7 0 59.4 0 90 C18.81 90 37.62 90 57 90 C57 90.33 57 90.66 57 91 C30.6 91 4.2 91 -23 91 C-23 111.46 -23 131.92 -23 153 C-23.33 153 -23.66 153 -24 153 C-24.03227894 144.27085318 -24.05152063 135.54169875 -24.0625 126.8125 C-24.06335602 126.13699474 -24.06421204 125.46148949 -24.06509399 124.76551437 C-24.0952 97.69524409 -23.83641746 70.63046666 -23.5 43.5625 C-23.48804218 42.60001469 -23.47608437 41.63752937 -23.46376419 40.64587784 C-23.3155586 28.76383309 -23.16092868 16.88187902 -23 5 C-19.54253984 4.16301505 -16.08389511 3.33103324 -12.625 2.5 C-11.64015625 2.26152344 -10.6553125 2.02304687 -9.640625 1.77734375 C-8.69960937 1.55175781 -7.75859375 1.32617188 -6.7890625 1.09375 C-5.48509521 0.77954102 -5.48509521 0.77954102 -4.15478516 0.45898438 C-2 0 -2 0 0 0 Z " fill="#D0D3D8" transform="translate(224,480)"/>
<path d="M0 0 C1.5 1.375 1.5 1.375 3 3 C3 3.66 3 4.32 3 5 C4.423125 5.4640625 4.423125 5.4640625 5.875 5.9375 C9 7 9 7 11 8 C17.98474104 8.7352359 22.24598945 6.93946781 28 3 C28.66 2.34 29.32 1.68 30 1 C30.3125 3.1875 30.3125 3.1875 30 6 C26.77816731 9.74429205 23.91745322 12.74947847 18.890625 13.40625 C7.84297056 13.69073896 7.84297056 13.69073896 3.6875 10.4375 C0.69562035 7.28775736 0.08694939 4.34746926 0 0 Z " fill="#E0E0E1" transform="translate(338,347)"/>
<path d="M0 0 C0.99 0.33 1.98 0.66 3 1 C2.67 2.65 2.34 4.3 2 6 C-0.31 5.34 -2.62 4.68 -5 4 C-2.6875 1.9375 -2.6875 1.9375 0 0 Z " fill="#596063" transform="translate(293,166)"/>
<path d="M0 0 C0.66 0 1.32 0 2 0 C1.38545304 3.99455527 -0.70646737 6.74466336 -3 10 C-3.66 9.67 -4.32 9.34 -5 9 C-3.35 6.03 -1.7 3.06 0 0 Z " fill="#5F6569" transform="translate(234,363)"/>
<path d="M0 0 C1.65 1.65 3.3 3.3 5 5 C4.01 5.66 3.02 6.32 2 7 C1.34 6.67 0.68 6.34 0 6 C0 4.02 0 2.04 0 0 Z " fill="#676C6F" transform="translate(241,334)"/>
<path d="M0 0 C2.86724686 0.57344937 3.8614515 0.8614515 6 3 C5.01 3 4.02 3 3 3 C2.67 3.66 2.34 4.32 2 5 C1.01 4.67 0.02 4.34 -1 4 C-0.67 2.68 -0.34 1.36 0 0 Z " fill="#596063" transform="translate(410,167)"/>
<path d="M0 0 C0.66 0.33 1.32 0.66 2 1 C1.67 1.99 1.34 2.98 1 4 C0.34 4 -0.32 4 -1 4 C-1.66 5.65 -2.32 7.3 -3 9 C-3.66 8.67 -4.32 8.34 -5 8 C-3.35 5.36 -1.7 2.72 0 0 Z " fill="#5E6468" transform="translate(260,198)"/>
</svg>
