<?xml version="1.0" encoding="UTF-8"?>
<svg version="1.1" xmlns="http://www.w3.org/2000/svg" width="512" height="512">
<path d="M0 0 C1.09205508 -0.00453111 2.18411015 -0.00906223 3.30925781 -0.01373065 C6.95774621 -0.02636086 10.60608508 -0.02475513 14.2545929 -0.02310181 C16.87504264 -0.02908794 19.49549062 -0.03589369 22.11593628 -0.04345703 C28.4893426 -0.0600341 34.86271192 -0.0655651 41.23613801 -0.06668179 C46.4203377 -0.06763393 51.60452524 -0.07175251 56.78872108 -0.07808304 C71.50606606 -0.0956873 86.22338193 -0.10492331 100.94073751 -0.10342209 C102.12960178 -0.10330222 102.12960178 -0.10330222 103.34248352 -0.10317993 C104.53280959 -0.10305729 104.53280959 -0.10305729 105.74718264 -0.10293217 C118.59986323 -0.10211974 131.4524265 -0.12124863 144.30507316 -0.14945666 C157.52089257 -0.17823146 170.73665485 -0.1919944 183.95250636 -0.19026911 C191.36460472 -0.18960674 198.7765801 -0.19503147 206.18865013 -0.21662521 C213.16301224 -0.23681444 220.13711132 -0.23611644 227.11148643 -0.22159195 C229.66516499 -0.21950548 232.21885987 -0.22419494 234.77251053 -0.23631287 C253.03206291 -0.31731931 267.9431697 -0.03556277 281.94721985 13.14633179 C290.49235521 22.2427662 294.27614384 33.1787813 294.21118832 45.54397774 C294.21499399 46.3415698 294.21879966 47.13916186 294.22272065 47.96092337 C294.23300416 50.62607451 294.2291363 53.29101138 294.22528076 55.95617676 C294.22973487 57.88921372 294.23504948 59.82224886 294.24114949 61.75528133 C294.25531815 67.06157349 294.256993 72.36780705 294.25655258 77.67411542 C294.25820169 83.3987634 294.27126961 89.12338731 294.28274536 94.84802246 C294.30558295 107.35994892 294.31351397 119.87185841 294.31857181 132.38380289 C294.32182889 140.19386835 294.32835125 148.00392888 294.3355732 155.81399155 C294.35513395 177.43348411 294.37162373 199.05297033 294.37444973 220.672472 C294.37454379 221.36357116 294.37463785 222.05467033 294.37473476 222.76671189 C294.37511324 225.56738462 294.37547724 228.36805734 294.37583774 231.16873007 C294.37610946 233.27666111 294.37638614 235.38459215 294.37666321 237.49252319 C294.37675123 238.18906193 294.37683925 238.88560066 294.37692994 239.60324663 C294.37983728 261.50322743 294.4019536 283.40312007 294.43818665 305.30307007 C294.4788957 329.90900136 294.50258854 354.51486665 294.50290924 379.12083423 C294.5034946 392.14922885 294.51203794 405.17750993 294.54090691 418.2058754 C294.56536367 429.29395709 294.572742 440.3818838 294.55765938 451.46998514 C294.55046831 457.12949219 294.55144271 462.7886928 294.57406998 468.44816589 C294.59457329 473.62582732 294.59214079 478.80294501 294.57119513 483.98059998 C294.56768373 485.85663688 294.57267951 487.73271233 294.58689957 489.60869862 C294.60495431 492.15398254 294.59234867 494.69733172 294.57195187 497.24255562 C294.58451524 497.97534042 294.59707861 498.70812523 294.61002269 499.46311563 C294.5125342 505.12438534 292.82234105 507.4340108 288.9511261 511.26742554 C285.78463097 512.8506731 282.37654416 512.9111679 278.9511261 512.26742554 C273.91328979 509.32987028 269.54136153 505.5618551 265.0761261 501.82992554 C263.5595793 500.57165455 262.04264316 499.3138527 260.52534485 498.05648804 C259.76141418 497.42259155 258.99748352 496.78869507 258.21040344 496.1355896 C254.78666279 493.30454751 251.33947867 490.5028101 247.8886261 487.70492554 C247.23329895 487.17326782 246.5779718 486.64161011 245.90278625 486.09384155 C244.58033576 485.02115837 243.25774503 483.94864803 241.93501282 482.87631226 C238.60506163 480.17579807 235.2782614 477.47140758 231.9511261 474.76742554 C230.6178077 473.68407382 229.28447437 472.60074049 227.9511261 471.51742554 C155.9511261 413.01742554 155.9511261 413.01742554 153.94819641 411.38998413 C152.62470847 410.31469063 151.30114171 409.23949413 149.97749329 408.16439819 C146.49284821 405.33387619 143.0098864 402.50131484 139.5292511 399.66586304 C138.80479797 399.07611694 138.08034485 398.48637085 137.3339386 397.87875366 C135.94801505 396.75046975 134.56257109 395.6215964 133.1776886 394.49203491 C131.95791937 393.49940378 130.73365518 392.51225688 129.50386047 391.53207397 C128.23116841 390.49551031 127.01206151 389.39347857 125.8105011 388.27523804 C123.91965837 386.98360663 123.91965837 386.98360663 121.46284485 387.85336304 C118.86927691 389.31350549 116.92794761 390.85398389 114.7636261 392.89242554 C110.91375348 396.42042356 106.95501608 399.71537117 102.86128235 402.95492554 C99.32825689 405.76237664 95.82632681 408.60672712 92.3261261 411.45492554 C91.64348694 412.01010864 90.96084778 412.56529175 90.25752258 413.13729858 C88.85418916 414.2787026 87.45095107 415.42022384 86.04780579 416.56185913 C82.68349896 419.29859033 79.31724281 422.03292104 75.9511261 424.76742554 C74.6177828 425.85074661 73.28444948 426.93407996 71.9511261 428.01742554 C47.9511261 447.51742554 23.9511261 467.01742554 -0.0488739 486.51742554 C-0.70976013 487.0544812 -1.37064636 487.59153687 -2.05155945 488.14486694 C-3.37560204 489.22047959 -4.69997982 490.29567977 -6.02470398 491.37045288 C-9.50314668 494.19349954 -12.97427037 497.02496677 -16.43559265 499.86898804 C-17.15553406 500.45873413 -17.87547546 501.04848022 -18.61723328 501.65609741 C-19.99180198 502.78235693 -21.36432755 503.91111647 -22.73442078 505.04281616 C-32.37016634 512.92479625 -32.37016634 512.92479625 -39.0488739 512.69711304 C-42.65955575 511.92138061 -44.50152615 509.87690372 -47.0488739 507.26742554 C-48.56710442 504.2309645 -48.18975658 501.07974651 -48.18309498 497.74871349 C-48.18544721 496.96014167 -48.18779944 496.17156986 -48.19022295 495.35910192 C-48.19693633 492.6884895 -48.19645402 490.01792547 -48.19604492 487.3473053 C-48.19934212 485.42443686 -48.20306739 483.50156912 -48.2071864 481.57870227 C-48.21723143 476.27238137 -48.22092723 470.96607178 -48.22357571 465.65974271 C-48.22747153 459.94508784 -48.23705056 454.23044198 -48.24578857 448.51579285 C-48.26557663 434.70109142 -48.27562356 420.88638924 -48.28451636 407.07167718 C-48.28889668 400.56868184 -48.29426427 394.06568733 -48.29950523 387.56269264 C-48.31652219 365.94774743 -48.33104056 344.33280338 -48.33825397 322.71785259 C-48.33872873 321.31936621 -48.33920462 319.92087983 -48.33968164 318.52239345 C-48.33991801 317.82886619 -48.34015439 317.13533893 -48.34039793 316.42079569 C-48.34159913 312.90702582 -48.34281458 309.39325595 -48.34403992 305.87948608 C-48.34428007 305.18216534 -48.34452022 304.4848446 -48.34476764 303.76639293 C-48.35265566 281.17175418 -48.37607486 258.577168 -48.40859586 235.9825522 C-48.44291653 212.09391799 -48.46260622 188.20531807 -48.46589822 164.31665832 C-48.46806357 151.29523137 -48.47681573 138.27388163 -48.50235939 125.25247765 C-48.52406759 114.16044431 -48.53211628 103.06850693 -48.52239261 91.97645476 C-48.5178479 86.31818581 -48.51974427 80.66011482 -48.53915405 75.00187302 C-48.55678642 69.81689145 -48.55578712 64.63225225 -48.54025676 59.44726703 C-48.53788079 57.57630966 -48.54220365 55.70532857 -48.55408541 53.83440741 C-48.64988145 37.74739394 -46.64225045 24.45914158 -35.16996765 12.27133179 C-25.05449396 2.76891711 -13.5020419 -0.04137979 0 0 Z M-21.0488739 30.26742554 C-25.75905716 36.73446172 -26.17417266 42.98192289 -26.17192173 50.78365135 C-26.17307557 51.5233286 -26.17422942 52.26300584 -26.17541823 53.02509755 C-26.1780664 55.50517809 -26.17357755 57.98519379 -26.16912842 60.465271 C-26.16956449 62.26061284 -26.17044005 64.05595462 -26.17171758 65.85129607 C-26.17395552 70.78603112 -26.16995081 75.72074451 -26.16493952 80.65547681 C-26.16062518 85.97648445 -26.16208215 91.29749085 -26.1628418 96.61849976 C-26.16336641 105.83794825 -26.16022617 115.05738968 -26.15460396 124.2768364 C-26.14648045 137.60664582 -26.14387286 150.93645181 -26.14261597 164.26626344 C-26.14042679 185.89246655 -26.13377033 207.51866588 -26.12431335 229.14486694 C-26.11513578 250.15398133 -26.10805663 271.1630947 -26.10380554 292.17221069 C-26.10354282 293.46699043 -26.1032801 294.76177017 -26.10300941 296.09578566 C-26.10170438 302.59124877 -26.10044067 309.08671189 -26.09919751 315.58217502 C-26.08882907 369.47726113 -26.07121439 423.37234315 -26.0488739 477.26742554 C-22.66054014 475.02462622 -19.35250943 472.81095251 -16.2363739 470.20101929 C-15.56058289 469.63874634 -14.88479187 469.07647339 -14.18852234 468.49716187 C-13.12939636 467.61000488 -13.12939636 467.61000488 -12.0488739 466.70492554 C-6.69086308 462.25054289 -1.30221898 457.85353394 4.2011261 453.57992554 C9.35900117 449.56808147 14.37574614 445.41847184 19.34541321 441.17636108 C23.23115953 437.86272739 27.1810475 434.6477504 31.18159485 431.47445679 C34.66481068 428.69869241 38.12098438 425.89050989 41.5761261 423.07992554 C42.25908752 422.52450073 42.94204895 421.96907593 43.64570618 421.39682007 C45.04870389 420.25564766 46.45161651 419.11437063 47.85444641 417.97299194 C51.21875324 415.23626075 54.58500938 412.50193004 57.9511261 409.76742554 C59.2844694 408.68410447 60.61780272 407.60077112 61.9511261 406.51742554 C69.9511261 400.01742554 77.9511261 393.51742554 85.9511261 387.01742554 C86.61201233 386.48036987 87.27289856 385.94331421 87.95381165 385.38998413 C89.27785424 384.31437148 90.60223202 383.23917131 91.92695618 382.16439819 C95.40539888 379.34135153 98.87652257 376.50988431 102.33784485 373.66586304 C103.05778625 373.07611694 103.77772766 372.48637085 104.51948547 371.87875366 C105.89405418 370.75249414 107.26657974 369.6237346 108.63667297 368.49203491 C117.8124885 360.98627474 117.8124885 360.98627474 124.79096985 360.77133179 C130.88791377 362.1715341 136.14026041 367.78859885 140.8261261 371.70492554 C142.34267289 372.96319652 143.85960904 374.22099837 145.37690735 375.47836304 C146.14083801 376.11225952 146.90476868 376.74615601 147.69184875 377.39926147 C151.11558941 380.23030356 154.56277353 383.03204098 158.0136261 385.82992554 C158.66895325 386.36158325 159.3242804 386.89324097 159.99946594 387.44100952 C161.32191644 388.51369271 162.64450716 389.58620304 163.96723938 390.65853882 C167.29719057 393.35905301 170.6239908 396.06344349 173.9511261 398.76742554 C175.2844445 399.85077725 176.61777783 400.93411059 177.9511261 402.01742554 C233.9511261 447.51742554 233.9511261 447.51742554 235.95283508 449.14389038 C237.28037215 450.22246356 238.60800818 451.30091496 239.93574524 452.37924194 C243.35860113 455.15939286 246.77948435 457.94191903 250.19721985 460.72836304 C260.50685275 470.92624693 260.50685275 470.92624693 271.9511261 477.26742554 C272.01978316 422.14861821 272.07265029 367.0298152 272.10432209 311.91097353 C272.10807424 305.40462803 272.1119572 298.89828262 272.11592102 292.39193726 C272.11670795 291.09663355 272.11749488 289.80132984 272.11830566 288.46677451 C272.13136183 267.48963872 272.15501686 246.51252759 272.18258449 225.53540643 C272.21063277 204.0131435 272.22730114 182.49089348 272.23339158 160.96861303 C272.23750921 147.68676794 272.25051749 134.40499252 272.2748755 121.12316887 C272.29072554 112.01702147 272.2955281 102.91091012 272.29163023 93.80474992 C272.28970756 88.54992184 272.29266826 83.29521555 272.30874252 78.04040909 C272.32335752 73.22748792 272.32406799 68.41477031 272.31382278 63.60183971 C272.31255681 61.86277283 272.31634874 60.12369317 272.32577565 58.38465138 C272.63458206 43.35314329 272.63458206 43.35314329 266.7011261 29.89242554 C258.89535639 22.44146355 250.88457172 22.11779401 240.57814026 22.12698364 C239.53467996 22.12401252 238.49121967 22.1210414 237.41613936 22.11798024 C233.92030649 22.10930991 230.42450793 22.1077864 226.92866516 22.10629272 C224.42186917 22.10166341 221.91507389 22.0966386 219.40827942 22.09124756 C212.59826284 22.07813332 205.78825753 22.07164366 198.97823048 22.0672369 C194.72303709 22.06447043 190.46784597 22.06023237 186.21265411 22.05573273 C174.42233549 22.04354395 162.63201867 22.03324351 150.84169388 22.02985764 C149.71072068 22.02952829 149.71072068 22.02952829 148.55689953 22.02919228 C147.80115604 22.02897401 147.04541255 22.02875573 146.26676774 22.02853084 C144.73544709 22.02808738 143.20412644 22.02764081 141.67280579 22.02719116 C140.91322452 22.02696973 140.15364325 22.0267483 139.37104437 22.02652016 C127.06588772 22.02257297 114.76079032 22.00511959 102.45565656 21.98183164 C89.8105772 21.95809421 77.16552755 21.94565472 64.52042556 21.94448972 C57.42531463 21.94357436 50.33028094 21.9378571 43.23519135 21.9196701 C36.56048253 21.90262042 29.88594506 21.90103432 23.21121216 21.90980911 C20.76431638 21.91057942 18.31741273 21.90623761 15.8705368 21.89635086 C12.52419951 21.88362491 9.17838053 21.88951214 5.83204651 21.89993286 C4.86918488 21.89187646 3.90632325 21.88382005 2.91428399 21.87551951 C-6.24484347 21.94199519 -14.56151729 23.47114718 -21.0488739 30.26742554 Z " fill="#FFFFFF" transform="translate(133.0488739013672,-0.267425537109375)"/>
<path d="M0 0 C4.77009244 2.67481819 7.47934812 5.60444939 10.1875 10.25 C10.58404785 10.90532715 10.9805957 11.5606543 11.38916016 12.23583984 C12.94188931 14.81473022 14.4703582 17.40734379 16 20 C17.57534015 22.65452701 19.15309469 25.30761868 20.73046875 27.9609375 C23.29268978 32.27155212 25.85216941 36.58369095 28.39916992 40.90332031 C28.80367874 41.58818512 29.20818756 42.27304993 29.62495422 42.97866821 C30.38650132 44.26835854 31.14675841 45.55881187 31.90544128 46.85018921 C32.92440855 48.57427339 33.96188754 50.28737539 35 52 C35.61770264 53.0928833 36.23540527 54.1857666 36.87182617 55.31176758 C39.52114964 58.65829743 41.11598693 59.11090149 45.24609375 60.03515625 C45.88719589 60.1859816 46.52829803 60.33680695 47.18882751 60.49220276 C49.45443602 61.01858513 51.72658987 61.5084534 54 62 C55.84437724 62.41705927 57.68826544 62.83628535 59.53173828 63.25732422 C63.5976129 64.18198301 67.66441987 65.10232245 71.73242188 66.01757812 C72.77197021 66.25162354 73.81151855 66.48566895 74.88256836 66.72680664 C77.01749459 67.20394831 79.1535903 67.67588462 81.29077148 68.14282227 C84.41768123 68.82809083 87.53900285 69.53512985 90.66015625 70.24609375 C91.61020035 70.44835068 92.56024445 70.6506076 93.53907776 70.85899353 C99.30472839 72.19643755 102.82191556 73.75859206 107 78 C108.58324757 81.16649513 108.64374236 84.57458194 108 88 C105.54273472 92.18624606 102.62745894 95.65901714 99.3125 99.1875 C95.92997824 102.84695336 92.68365267 106.55289992 89.5625 110.4375 C86.76285256 113.90985424 83.89236102 117.26517273 80.8581543 120.53125 C79.91234645 121.5506875 78.97364153 122.57676199 78.04223633 123.609375 C75.93946213 125.9403949 73.8316937 128.15024544 71.48828125 130.2421875 C67.81099751 133.84887766 65.84512255 136.91898364 65.62890625 142.09765625 C65.70192587 146.60440868 66.14483533 151.06381153 66.63085938 155.54248047 C67.13624482 160.2761238 67.54851486 165.01650635 67.96244812 169.75888062 C68.28775258 173.48078389 68.62106401 177.20125784 68.98168945 180.91992188 C71.06436034 202.7135963 71.06436034 202.7135963 68.3125 208.625 C65.78663375 211.2191329 64.53825976 212.27626505 61 213 C55.15372998 212.56982542 50.55266436 211.28752518 45.23046875 208.90234375 C44.51556274 208.59196671 43.80065674 208.28158966 43.06408691 207.96180725 C41.54752166 207.30192371 40.03297272 206.63738909 38.52035522 205.96850586 C36.16810064 204.92892645 33.81025874 203.90313922 31.45043945 202.88085938 C24.84822558 200.01689994 18.26164407 197.11922944 11.6875 194.19140625 C10.81843018 193.81056885 9.94936035 193.42973145 9.05395508 193.03735352 C7.53220832 192.37028429 6.01583426 191.69074654 4.5065918 190.99584961 C-0.55119113 188.78790545 -3.79830969 188.84340953 -8.97233582 190.7124939 C-11.26807022 191.64075397 -13.53909643 192.61479979 -15.80859375 193.60546875 C-16.65237076 193.96715652 -17.49614777 194.3288443 -18.36549377 194.70149231 C-21.05888149 195.85729118 -23.74831771 197.02195426 -26.4375 198.1875 C-32.49237736 200.79842024 -38.55242104 203.39674814 -44.61981201 205.97845459 C-46.87008841 206.94424365 -49.10939868 207.93216622 -51.34814453 208.92431641 C-52.66011174 209.48816646 -53.97242578 210.05121047 -55.28515625 210.61328125 C-56.39898682 211.10223877 -57.51281738 211.59119629 -58.66040039 212.0949707 C-62.99118522 213.26861054 -65.61373323 212.93404124 -70 212 C-72.64233769 209.80742191 -74.46669809 208.06660382 -76 205 C-76.97451223 193.36676024 -75.07783305 181.38021663 -74 169.8125 C-73.71192364 166.70480374 -73.42552936 163.59699369 -73.14404297 160.48869324 C-72.96993171 158.56719894 -72.79211654 156.64603515 -72.60986328 154.72529602 C-71.01389512 144.16629831 -71.01389512 144.16629831 -74.16796875 134.5859375 C-75.15266834 133.49552529 -76.16070917 132.42587233 -77.1875 131.375 C-78.29728479 130.16313556 -79.40664556 128.95088271 -80.515625 127.73828125 C-81.09248047 127.12291504 -81.66933594 126.50754883 -82.26367188 125.87353516 C-85.07260671 122.84263443 -87.74719703 119.69845358 -90.4375 116.5625 C-93.80194113 112.67328749 -97.17780915 108.79444798 -100.5703125 104.9296875 C-101.15498291 104.26122803 -101.73965332 103.59276855 -102.34204102 102.90405273 C-103.45421471 101.63279417 -104.56910552 100.36390532 -105.68725586 99.09790039 C-114.85294116 88.60305227 -114.85294116 88.60305227 -114.43359375 81.95703125 C-113.64013052 78.37572422 -111.90848228 76.07580592 -109 74 C-101.98839908 71.22867933 -94.33923821 69.83093624 -87.0078125 68.15234375 C-84.7343536 67.62444113 -82.46091673 67.09644359 -80.1875 66.56835938 C-76.63939471 65.7481807 -73.09091814 64.92965764 -69.54199219 64.11303711 C-66.09208576 63.31794519 -62.64364466 62.51673129 -59.1953125 61.71484375 C-58.13176544 61.47209213 -57.06821838 61.22934052 -55.97244263 60.97923279 C-54.98396332 60.7488179 -53.99548401 60.51840302 -52.97705078 60.28100586 C-52.11008575 60.08131699 -51.24312073 59.88162811 -50.34988403 59.67588806 C-45.20439174 58.19591 -43.3421807 56.47099681 -40.671875 51.8125 C-40.04458496 50.73299072 -39.41729492 49.65348145 -38.77099609 48.54125977 C-38.27729523 47.67562912 -38.27729523 47.67562912 -37.77362061 46.79251099 C-36.38510113 44.36100814 -34.97036936 41.94514222 -33.55709839 39.52796936 C-32.44817543 37.63050675 -31.34266638 35.73108193 -30.23730469 33.83154297 C-27.00291102 28.28397049 -23.7310134 22.76003487 -20.40344238 17.26782227 C-19.39403103 15.59405649 -18.39949535 13.91134834 -17.40527344 12.22851562 C-9.0639421 -1.51065702 -9.0639421 -1.51065702 0 0 Z M-4 34 C-5.46569288 36.17708968 -6.79766403 38.3428979 -8.10546875 40.61328125 C-8.50776199 41.29746628 -8.91005524 41.98165131 -9.32453918 42.68656921 C-10.6191947 44.89119735 -11.90371657 47.10152629 -13.1875 49.3125 C-16.07171297 54.25079772 -18.96863578 59.18129046 -21.88421631 64.10113525 C-22.91503138 65.85539856 -23.92270552 67.62320467 -24.92822266 69.39208984 C-25.50491699 70.37000488 -26.08161133 71.34791992 -26.67578125 72.35546875 C-27.39568237 73.60880005 -27.39568237 73.60880005 -28.13012695 74.88745117 C-32.7443986 80.10057201 -40.57770117 81.01700686 -47.08984375 82.48046875 C-48.03436905 82.69818436 -48.97889435 82.91589996 -49.95204163 83.14021301 C-52.94581984 83.8288085 -55.94158147 84.50828388 -58.9375 85.1875 C-60.97735173 85.65499638 -63.01706688 86.12308918 -65.05664062 86.59179688 C-70.03620656 87.73477131 -75.01757076 88.86957549 -80 90 C-80 94.90815949 -78.29839822 96.28401016 -75.0625 99.5625 C-74.04313632 100.63179706 -73.02624805 101.70345884 -72.01171875 102.77734375 C-71.24674072 103.58534424 -71.24674072 103.58534424 -70.46630859 104.40966797 C-67.54685491 107.57605513 -64.90256582 110.96815679 -62.20703125 114.32421875 C-59.22090643 117.94456476 -56.05049205 121.37980834 -52.84765625 124.80859375 C-44.66557244 134.51292571 -49.52328101 153.48830799 -50.5 165.375 C-50.64503639 167.19006387 -50.78957094 169.00516792 -50.93359375 170.8203125 C-51.28329208 175.21402519 -51.63973071 179.60714199 -52 184 C-49.47637262 182.95024358 -46.9529118 181.90009026 -44.4296875 180.84936523 C-42.2544039 179.94403448 -40.07861571 179.03991521 -37.90234375 178.13696289 C-32.73755224 175.99064952 -27.58176254 173.83033242 -22.45703125 171.58984375 C-21.19499878 171.04263672 -21.19499878 171.04263672 -19.9074707 170.484375 C-18.34891115 169.80664421 -16.79378296 169.12094365 -15.24291992 168.42578125 C-7.84205207 165.2243153 -2.75612323 164.09782705 4.91796875 166.98046875 C6.64966362 167.70361332 8.38097026 168.42801259 10.10198975 169.1762085 C12.10562064 170.04584242 14.11885765 170.88941767 16.13525391 171.72900391 C20.53750107 173.5673302 24.92546143 175.43823432 29.3125 177.3125 C30.84301097 177.96439933 32.37360944 178.61609326 33.90429688 179.26757812 C37.60387429 180.84269384 41.30226802 182.4205571 45 184 C46.35510352 180.12951264 45.84455976 176.43807238 45.44140625 172.4453125 C45.37340317 171.70731415 45.30540009 170.9693158 45.2353363 170.20895386 C45.01745872 167.84698358 44.79101921 165.48596294 44.5625 163.125 C41.73260495 133.86541489 41.73260495 133.86541489 44.4375 127.75 C45.283125 126.8425 46.12875 125.935 47 125 C48.39680671 123.4383701 49.79251685 121.87575908 51.1875 120.3125 C52.37279297 119.01892578 52.37279297 119.01892578 53.58203125 117.69921875 C55.93694629 115.07038791 58.16422274 112.37557206 60.375 109.625 C65.32241831 103.50421169 70.63167924 97.74962205 76 92 C75.21496261 89.84638861 75.21496261 89.84638861 73.25643921 89.40003967 C72.11895737 89.15380104 72.11895737 89.15380104 70.95849609 88.90258789 C70.10025238 88.71221451 69.24200867 88.52184113 68.35775757 88.32569885 C67.42243195 88.12669479 66.48710632 87.92769073 65.5234375 87.72265625 C64.56482819 87.51064072 63.60621887 87.29862518 62.61856079 87.08018494 C59.53906904 86.39961466 56.45734972 85.72999841 53.375 85.0625 C50.31419461 84.39808127 47.25407431 83.73109455 44.19570923 83.05552673 C42.29056949 82.63478525 40.38401608 82.22037957 38.47592163 81.81324768 C25.60154159 78.97279574 25.60154159 78.97279574 21.69140625 74.15625 C20.96243051 72.94896861 20.25409177 71.72907885 19.5625 70.5 C19.16417969 69.83162109 18.76585937 69.16324219 18.35546875 68.47460938 C16.88348311 65.99444422 15.44247529 63.49744591 14 61 C11.53871452 56.78238682 9.06795568 52.57050374 6.59103394 48.36206055 C5.5055208 46.50942232 4.43101348 44.65072257 3.35766602 42.79101562 C2.69307373 41.65341797 2.02848145 40.51582031 1.34375 39.34375 C0.74755859 38.31443359 0.15136719 37.28511719 -0.46289062 36.22460938 C-1.22375977 35.12342773 -1.22375977 35.12342773 -2 34 C-2.66 34 -3.32 34 -4 34 Z " fill="#FFFFFF" transform="translate(259,99)"/>
</svg>
