<?xml version="1.0" encoding="UTF-8"?>
<svg version="1.1" xmlns="http://www.w3.org/2000/svg" width="512" height="512">
<path d="M0 0 C0.97759277 0.00563965 1.95518555 0.0112793 2.96240234 0.01708984 C9.77378626 0.13195873 15.85628416 0.62529585 22.1875 3.3125 C23.15429688 3.7146875 24.12109375 4.116875 25.1171875 4.53125 C39.78174773 11.24784247 51.80379678 23.57567673 62.14550781 35.77709961 C66.69973533 40.99829815 71.61444202 45.85184446 76.52903748 50.72920227 C78.25622676 52.44344586 79.9801132 54.16095302 81.70324707 55.87927246 C85.36183971 59.52652441 89.02436281 63.16981315 92.6875 66.8125 C96.93763369 71.0389063 101.18607062 75.26699022 105.43028259 79.49934387 C107.1158829 81.17853635 108.80450141 82.85465076 110.49328613 84.53063965 C118.98693481 92.98417703 118.98693481 92.98417703 122.67382812 97.29882812 C127.07103376 102.44186125 131.91527694 107.15109481 136.7142334 111.91439819 C138.475025 113.66224922 140.23251864 115.41335972 141.98925781 117.1652832 C145.71918125 120.88386351 149.45303437 124.59848204 153.1875 128.3125 C157.52023773 132.62151429 161.85128153 136.93220377 166.17810059 141.24716187 C167.89694044 142.9595917 169.61879812 144.66894512 171.34082031 146.37817383 C176.8363981 151.8483939 182.18403602 157.38189184 187.1875 163.3125 C192.05405568 159.31891697 196.41099317 155.08519475 200.63891602 150.42749023 C207.52820045 142.94797092 214.65032925 135.73065262 221.86189079 128.56294441 C224.03076306 126.40713393 226.19623364 124.24795332 228.36097717 122.08799744 C232.94612264 117.51412165 237.53525862 112.9442633 242.125 108.375 C247.47664629 103.04709164 252.82656972 97.71747508 258.17230415 92.38363457 C260.29224208 90.27011383 262.41519562 88.15965591 264.53831482 86.04933167 C269.99864099 80.60976895 275.41946257 75.20893695 280.41062927 69.32981873 C288.16262419 60.52881578 296.75420059 52.3942347 305.01782227 44.07714844 C307.50173601 41.57544778 309.9768537 39.06551934 312.44458008 36.54785156 C315.45412697 33.47752226 318.47868753 30.42273122 321.51395988 27.37783813 C322.65478749 26.22855781 323.79055728 25.07422979 324.9206562 23.91439819 C334.63047278 13.96299236 345.34809309 5.6416615 359.1875 2.3125 C359.91066406 2.13203125 360.63382812 1.9515625 361.37890625 1.765625 C377.32021445 -0.80626895 393.51591655 1.56432317 407.27734375 10.1953125 C412.67733514 14.12389684 417.41912528 18.65234371 422.1875 23.3125 C422.94160156 24.00472656 423.69570313 24.69695312 424.47265625 25.41015625 C434.10327129 34.44697614 442.4055532 48.15554085 443.34863281 61.61157227 C443.72214485 84.00275004 443.72214485 84.00275004 440.1875 92.3125 C439.77371094 93.29089844 439.35992187 94.26929688 438.93359375 95.27734375 C431.51437454 111.30851769 417.73730216 124.11919787 404.49267578 135.49633789 C399.71835408 139.6524806 395.30125562 144.12725868 390.8671875 148.640625 C389.09794495 150.42736925 387.3284049 152.21381896 385.55859375 154 C382.79924918 156.79038166 380.04231445 159.58302334 377.29052734 162.38085938 C374.61449638 165.09921605 371.92911007 167.80803936 369.2421875 170.515625 C368.42330048 171.35313293 367.60441345 172.19064087 366.76071167 173.05352783 C360.60394029 179.23775657 355.55265905 182.73775881 346.7109375 183.375 C339.91305529 183.2066314 334.88224395 180.00724395 330.1875 175.3125 C326.90698623 170.22204759 325.55139999 164.93862659 326.59856415 158.96920395 C328.3733924 152.4188945 330.9406572 148.58100541 335.81445312 143.93847656 C336.81737648 142.94124825 336.81737648 142.94124825 337.84056091 141.9238739 C340.03418008 139.75027487 342.25117443 137.60225247 344.46875 135.453125 C346.00601669 133.93656012 347.54151295 132.41819874 349.07531738 130.89813232 C353.10357334 126.91345242 357.1510927 122.94897659 361.20440674 118.98980713 C367.69577026 112.64428109 374.16091939 106.27218201 380.61912537 99.89293671 C382.87348318 97.67289307 385.13821109 95.46385809 387.40441895 93.25592041 C388.79010924 91.89391509 390.17550127 90.53160622 391.56054688 89.16894531 C392.19024887 88.56102646 392.81995087 87.9531076 393.46873474 87.32676697 C397.57351609 83.26436647 400.73893249 79.44367714 401.5859375 73.53125 C401.57820313 72.6340625 401.57046875 71.736875 401.5625 70.8125 C401.57023437 69.9153125 401.57796875 69.018125 401.5859375 68.09375 C400.57841943 61.06087878 396.16389912 56.8231245 391.3125 52.0625 C390.70019531 51.43859375 390.08789062 50.8146875 389.45703125 50.171875 C384.81015027 45.55484551 381.10914555 43.04629072 374.375 42.9375 C373.58480469 42.90914062 372.79460937 42.88078125 371.98046875 42.8515625 C363.06213918 44.32339871 357.64005182 50.33142477 351.625 56.5625 C350.81353516 57.38363281 350.00207031 58.20476562 349.16601562 59.05078125 C345.66159888 62.62025173 342.25061371 66.22744139 338.98683167 70.01812744 C335.46956055 74.04382627 331.78077683 77.84810795 327.98632812 81.61132812 C327.30404648 82.29214951 326.62176483 82.97297089 325.91880798 83.67442322 C324.4511378 85.13831604 322.98231458 86.60105359 321.51243591 88.06272888 C319.18039308 90.38189513 316.85158732 92.70426959 314.52355957 95.02746582 C308.74362674 100.79409768 302.95824443 106.55525234 297.17303467 112.31658936 C292.27438544 117.1954451 287.37783173 122.07638608 282.48399353 126.96006775 C280.20008482 129.23753874 277.91316354 131.51195406 275.62609863 133.78625488 C274.21347368 135.19524414 272.80099071 136.60437578 271.38867188 138.01367188 C270.76093369 138.63624374 270.1331955 139.25881561 269.48643494 139.9002533 C265.78012462 143.60612589 262.28834433 147.44049849 258.86114693 151.40517998 C256.41091254 154.19751392 253.83420072 156.85192861 251.22729492 159.49731445 C250.67662857 160.05937088 250.12596222 160.62142731 249.55860901 161.20051575 C243.87003945 166.99865822 238.15053003 172.76643464 232.4284668 178.53149414 C229.72203391 181.2602747 227.02572355 183.99849911 224.33764648 186.74536133 C221.07075192 190.08350815 217.78682855 193.40398356 214.49025917 196.71282005 C213.2447801 197.96865445 212.00528975 199.23045983 210.77220726 200.4984684 C203.35333294 208.11668366 197.24218878 214.04874445 186.0859375 214.4140625 C185.25320312 214.25679687 184.42046875 214.09953125 183.5625 213.9375 C182.72460938 213.80601562 181.88671875 213.67453125 181.0234375 213.5390625 C172.53277643 209.86679311 165.80301265 201.07595789 159.37109375 194.62890625 C158.34569076 193.60417892 157.32013954 192.57959989 156.29444885 191.55516052 C154.15731937 189.4194957 152.02198391 187.28205792 149.88793945 185.14331055 C147.17274125 182.42241584 144.45307667 179.7060369 141.73203945 176.99098301 C139.61707925 174.87966186 137.50453793 172.76593325 135.39268684 170.65150261 C134.39163337 169.64978909 133.38985615 168.64879823 132.38729668 167.648592 C123.6404709 158.91780305 123.6404709 158.91780305 119.77172852 154.39233398 C115.3993028 149.29971753 110.60677844 144.62054118 105.84596252 139.89579773 C104.11877324 138.18155414 102.3948868 136.46404698 100.67175293 134.74572754 C97.01316029 131.09847559 93.35063719 127.45518685 89.6875 123.8125 C85.43736631 119.5860937 81.18892938 115.35800978 76.94471741 111.12565613 C75.2591171 109.44646365 73.57049859 107.77034924 71.88171387 106.09436035 C67.06947352 101.30504557 62.36599379 96.4827464 57.95144653 91.31912231 C51.32317685 83.77896529 44.0461928 76.78041502 36.98266602 69.64770508 C34.90672122 67.54940848 32.84100753 65.4417639 30.78344727 63.32543945 C28.275235 60.7458049 25.74993194 58.18409721 23.21189308 55.63381386 C21.79681567 54.20344494 20.39908837 52.75597693 19.00187683 51.30815125 C13.59495386 45.91785704 8.93413964 42.24571262 1.1875 41.3125 C-6.46705488 41.60585735 -10.48805777 45.14598614 -15.8125 50.3125 C-16.86803654 51.13402608 -17.92995327 51.94746495 -19 52.75 C-23.3638448 56.72594748 -26.34940183 60.28424065 -27.26171875 66.25 C-27.53026654 73.65821482 -25.98674637 78.64205209 -21.11463928 84.27577209 C-19.05553361 86.4318017 -16.95386742 88.53464332 -14.828125 90.625 C-14.05370056 91.39755127 -13.27927612 92.17010254 -12.48138428 92.96606445 C-10.84754113 94.59320933 -9.21011607 96.21676456 -7.56933594 97.83691406 C-5.07752893 100.29765842 -2.59645971 102.76882066 -0.1171875 105.2421875 C1.47854811 106.82874738 3.07488304 108.41470474 4.671875 110 C5.40549255 110.72936768 6.13911011 111.45873535 6.8949585 112.21020508 C10.18804539 115.45855634 13.50500029 118.62535325 17.01855469 121.63476562 C21.86669088 125.82325612 26.35469336 130.36710873 30.86341858 134.91325378 C32.44323133 136.50603491 34.02632586 138.09549157 35.61022949 139.6842041 C39.54042659 143.62764616 43.46510772 147.57656286 47.38995361 151.52532959 C50.71865714 154.87389027 54.04948931 158.22030693 57.3830719 161.56401062 C58.92931555 163.11665238 60.4724738 164.67231403 62.01550293 166.22814941 C66.58192939 170.81808313 71.20370348 175.25830186 76.12097168 179.4708252 C80.13799369 183.0507656 83.89083186 186.90853458 87.67822266 190.72805786 C89.2244274 192.28723727 90.77391896 193.84308621 92.32421875 195.39819336 C96.17094225 199.25815803 100.01214716 203.12359902 103.85351562 206.9888916 C107.11175696 210.26699442 110.3721299 213.54294992 113.63525391 216.81619263 C115.14826052 218.33559466 116.6581797 219.85801703 118.16796875 221.38061523 C122.71486842 225.95136923 127.32247337 230.36826546 132.21847534 234.56387329 C136.15132414 238.0565083 139.78822055 241.8548865 143.47265625 245.60546875 C145.23733997 247.38765722 147.00232287 249.1695495 148.76757812 250.95117188 C151.51806792 253.73266835 154.26614974 256.51642126 157.0090332 259.30541992 C159.67762136 262.01640821 162.3556273 264.71779965 165.03515625 267.41796875 C165.84888199 268.2503154 166.66260773 269.08266205 167.50099182 269.94023132 C173.18958506 275.65419645 178.60957609 280.84283654 187.10546875 281.37890625 C195.9034972 281.09829371 200.54127589 276.52203185 206.3190918 270.39990234 C206.83383057 269.85027832 207.34856934 269.3006543 207.87890625 268.734375 C210.08904518 266.38779107 212.37506939 264.24681151 214.83203125 262.16137695 C219.51159406 258.09586685 223.84280936 253.7301076 228.18359375 249.30859375 C229.89358688 247.5810898 231.60388257 245.85388531 233.31445312 244.12695312 C235.97480767 241.43565565 238.63275473 238.74211006 241.28540039 236.04321289 C243.86959707 233.41645241 246.46334704 230.79943131 249.05859375 228.18359375 C249.84012314 227.38344345 250.62165253 226.58329315 251.42686462 225.75889587 C258.04148304 219.11398642 265.08398912 212.25767884 274.8125 211.9375 C281.81465932 212.00458656 285.85880734 213.98380734 290.75 218.875 C294.63303799 223.28754317 295.38738168 226.7547721 295.5625 232.5 C295.61148437 233.58667969 295.66046875 234.67335938 295.7109375 235.79296875 C294.36695274 244.82976179 287.10849324 250.80597535 280.8503418 256.9309082 C279.38134864 258.36878583 277.92325218 259.81701245 276.46679688 261.26757812 C272.50407761 265.19214746 268.51694667 269.04712722 264.29296875 272.69165039 C260.36291483 276.10754136 256.70801964 279.72720948 253.08203125 283.4609375 C251.75501721 284.81034827 250.42752803 286.15929192 249.09960938 287.5078125 C247.0526269 289.59167534 245.00888742 291.67835242 242.97338867 293.7734375 C227.24974894 309.93347445 212.22291088 321.92824553 188.90625 323.2734375 C171.79139465 323.45321539 155.97679481 317.05627581 143.66661072 305.14265442 C141.07925729 302.56282305 138.53435555 299.9442845 136 297.3125 C134.44725808 295.71672766 132.8914796 294.1240374 131.33293152 292.53393555 C129.92446451 291.09446774 128.52407318 289.64711072 127.12426758 288.19921875 C125.0094641 286.06695801 122.80269386 284.0941908 120.5222168 282.140625 C115.68728677 277.95439907 111.19707075 273.43541634 106.69677734 268.89694214 C105.1505726 267.33776273 103.60108104 265.78191379 102.05078125 264.22680664 C98.20405775 260.36684197 94.36285284 256.50140098 90.52148438 252.6361084 C87.26324304 249.35800558 84.0028701 246.08205008 80.73974609 242.80880737 C79.22673948 241.28940534 77.7168203 239.76698297 76.20703125 238.24438477 C72.29928629 234.31608586 68.39678997 230.4203866 64.1875 226.8125 C59.4506181 222.7524013 55.0865467 218.3239546 50.69677734 213.89694214 C49.1505726 212.33776273 47.60108104 210.78191379 46.05078125 209.22680664 C42.20405775 205.36684197 38.36285284 201.50140098 34.52148438 197.6361084 C31.26324304 194.35800558 28.0028701 191.08205008 24.73974609 187.80880737 C23.22673948 186.28940534 21.7168203 184.76698297 20.20703125 183.24438477 C16.30382644 179.32064914 12.40651264 175.4288015 8.20117188 171.82617188 C3.39345305 167.70527002 -1.03255597 163.20458994 -5.48841858 158.71174622 C-7.06823133 157.11896509 -8.65132586 155.52950843 -10.23522949 153.9407959 C-14.16542659 149.99735384 -18.09010772 146.04843714 -22.01495361 142.09967041 C-25.34365714 138.75110973 -28.67448931 135.40469307 -32.0080719 132.06098938 C-33.55431555 130.50834762 -35.0974738 128.95268597 -36.64050293 127.39685059 C-41.35062766 122.66280697 -46.09745885 118.04051196 -51.20552063 113.73344421 C-61.14133646 104.94786783 -67.86167074 91.00749456 -69.03393555 77.82177734 C-69.52328241 66.51358704 -69.48063609 55.81946461 -64.8125 45.3125 C-64.41160156 44.38695312 -64.01070313 43.46140625 -63.59765625 42.5078125 C-59.7183645 34.56931981 -53.92103264 28.55211703 -47.8125 22.3125 C-46.75482422 21.17941406 -46.75482422 21.17941406 -45.67578125 20.0234375 C-33.21197956 6.92759718 -18.04326721 -0.10837727 0 0 Z " fill="#ffffff" transform="translate(68.8125,94.6875)"/>
</svg>
