<?xml version="1.0" encoding="UTF-8"?>
<svg version="1.1" xmlns="http://www.w3.org/2000/svg" width="512" height="512">
<path d="M0 0 C0.92220337 0.00182281 1.84440674 0.00364563 2.79455566 0.00552368 C16.841657 0.05219735 30.55997339 0.56067231 44.375 3.3125 C45.27976074 3.48942383 46.18452148 3.66634766 47.11669922 3.84863281 C53.58657431 5.14731809 59.98813627 6.65502172 66.375 8.3125 C67.62095947 8.63492676 67.62095947 8.63492676 68.89208984 8.96386719 C103.17583645 18.0563653 134.94322134 34.94908514 162.375 57.3125 C162.92575195 57.76028809 163.47650391 58.20807617 164.04394531 58.66943359 C177.40993434 69.62497503 189.7986461 81.61848954 200.375 95.3125 C201.53515625 96.74722656 201.53515625 96.74722656 202.71875 98.2109375 C238.24029381 142.83768716 256.92122501 199.14424287 256.6875 255.9375 C256.68476578 257.32080505 256.68476578 257.32080505 256.68197632 258.73205566 C256.63530265 272.779157 256.12682769 286.49747339 253.375 300.3125 C253.19807617 301.21726074 253.02115234 302.12202148 252.83886719 303.05419922 C251.54018191 309.52407431 250.03247828 315.92563627 248.375 322.3125 C248.16004883 323.14313965 247.94509766 323.9737793 247.72363281 324.82958984 C238.6311347 359.11333645 221.73841486 390.88072134 199.375 418.3125 C198.92721191 418.86325195 198.47942383 419.41400391 198.01806641 419.98144531 C187.06252497 433.34743434 175.06901046 445.7361461 161.375 456.3125 C159.94027344 457.47265625 159.94027344 457.47265625 158.4765625 458.65625 C113.84981284 494.17779381 57.54325713 512.85872501 0.75 512.625 C-0.17220337 512.62317719 -1.09440674 512.62135437 -2.04455566 512.61947632 C-16.091657 512.57280265 -29.80997339 512.06432769 -43.625 509.3125 C-44.52976074 509.13557617 -45.43452148 508.95865234 -46.36669922 508.77636719 C-52.83657431 507.47768191 -59.23813627 505.96997828 -65.625 504.3125 C-66.45563965 504.09754883 -67.2862793 503.88259766 -68.14208984 503.66113281 C-102.42583645 494.5686347 -134.19322134 477.67591486 -161.625 455.3125 C-162.17575195 454.86471191 -162.72650391 454.41692383 -163.29394531 453.95556641 C-176.65993434 443.00002497 -189.0486461 431.00651046 -199.625 417.3125 C-200.78515625 415.87777344 -200.78515625 415.87777344 -201.96875 414.4140625 C-237.49029381 369.78731284 -256.17122501 313.48075713 -255.9375 256.6875 C-255.93567719 255.76529663 -255.93385437 254.84309326 -255.93197632 253.89294434 C-255.88530265 239.845843 -255.37682769 226.12752661 -252.625 212.3125 C-252.44807617 211.40773926 -252.27115234 210.50297852 -252.08886719 209.57080078 C-250.79018191 203.10092569 -249.28247828 196.69936373 -247.625 190.3125 C-247.41004883 189.48186035 -247.19509766 188.6512207 -246.97363281 187.79541016 C-237.8811347 153.51166355 -220.98841486 121.74427866 -198.625 94.3125 C-198.17721191 93.76174805 -197.72942383 93.21099609 -197.26806641 92.64355469 C-186.31252497 79.27756566 -174.31901046 66.8888539 -160.625 56.3125 C-159.19027344 55.15234375 -159.19027344 55.15234375 -157.7265625 53.96875 C-113.09981284 18.44720619 -56.79325713 -0.23372501 0 0 Z M67.68600464 146.62823486 C66.7246611 147.60575714 66.7246611 147.60575714 65.74389648 148.60302734 C65.04032516 149.30616058 64.33675385 150.00929382 63.61186218 150.73373413 C61.31607817 153.03158795 59.03107067 155.3398413 56.74609375 157.6484375 C55.14535744 159.25477619 53.54395218 160.86044851 51.94190979 162.46548462 C47.74810165 166.67069092 43.56338545 170.884831 39.3805542 175.10095215 C35.10229919 179.41001669 30.81543004 183.7104929 26.52929688 188.01171875 C18.13612032 196.43697067 9.75253213 204.8716941 1.375 213.3125 C-1.47356044 212.01911855 -3.5163344 210.66550434 -5.70965576 208.44143677 C-6.584048 207.56249756 -6.584048 207.56249756 -7.47610474 206.665802 C-8.41750809 205.70418655 -8.41750809 205.70418655 -9.37792969 204.72314453 C-10.04841339 204.04652771 -10.71889709 203.36991089 -11.40969849 202.67279053 C-12.86433071 201.2038591 -14.31671574 199.73269971 -15.76711273 198.25958633 C-18.06614607 195.9257497 -20.37221991 193.59909182 -22.68048096 191.27438354 C-29.24215235 184.66383314 -35.79267336 178.04231808 -42.33398438 171.41162109 C-46.33708928 167.35481853 -50.34998816 163.30791806 -54.36899567 159.26687241 C-55.89575329 157.72772998 -57.41870952 156.18480679 -58.93770599 154.6380043 C-61.06748675 152.46959867 -63.20948463 150.31397411 -65.35449219 148.16064453 C-65.9739975 147.52361603 -66.59350281 146.88658752 -67.23178101 146.23025513 C-73.64516797 139.84502041 -80.5367914 136.20722701 -89.6875 136 C-99.12450385 136.1048556 -106.04533423 138.91812643 -112.93359375 145.375 C-118.95469436 152.27214989 -119.98989822 159.84439285 -119.8984375 168.734375 C-118.99124861 180.60558957 -109.76492651 188.33464388 -101.77172852 196.27929688 C-101.12697067 196.92420074 -100.48221283 197.56910461 -99.81791687 198.23355103 C-97.71561182 200.33516713 -95.60980223 202.4332327 -93.50390625 204.53125 C-92.03395544 205.999333 -90.56422728 207.46763897 -89.0947113 208.93615723 C-85.24844055 212.77863136 -81.39917494 216.6180914 -77.54925537 220.45690918 C-73.6123866 224.38350211 -69.67838869 228.31296906 -65.74414062 232.2421875 C-58.04055078 239.93509043 -50.33379065 247.62480887 -42.625 255.3125 C-43.93058117 258.19692 -45.31230511 260.24261165 -47.56526184 262.45962524 C-48.16660446 263.05649139 -48.76794708 263.65335754 -49.38751221 264.26831055 C-50.0457196 264.91147217 -50.703927 265.55463379 -51.38208008 266.21728516 C-52.07659775 266.90406342 -52.77111542 267.59084167 -53.48667908 268.2984314 C-54.9949347 269.78903822 -56.50537874 271.27743321 -58.01774025 272.76387405 C-60.41521564 275.12190659 -62.80507637 277.4874067 -65.1927948 279.85531616 C-71.9825417 286.58705845 -78.78162935 293.30924104 -85.59594727 300.01611328 C-89.76523074 304.12072027 -93.92203723 308.2376241 -98.07138634 312.36237717 C-99.65067866 313.92746329 -101.23462237 315.48787093 -102.82337379 317.04335403 C-105.05390086 319.22783632 -107.26820351 321.42766026 -109.47973633 323.63134766 C-110.13187103 324.26236389 -110.78400574 324.89338013 -111.4559021 325.54351807 C-117.92320803 332.05306604 -122.21147735 339.57792503 -122.69140625 348.87109375 C-122.45981833 357.38535554 -119.64835875 364.09473526 -113.765625 370.26171875 C-106.89666978 376.61150875 -99.95752049 379.28382866 -90.625 379.3125 C-79.87467725 378.48138261 -72.248265 371.39842713 -64.99389648 364.02197266 C-64.29032516 363.31883942 -63.58675385 362.61570618 -62.86186218 361.89126587 C-60.56607817 359.59341205 -58.28107067 357.2851587 -55.99609375 354.9765625 C-54.39535744 353.37022381 -52.79395218 351.76455149 -51.19190979 350.15951538 C-46.99810165 345.95430908 -42.81338545 341.740169 -38.6305542 337.52404785 C-34.35229919 333.21498331 -30.06543004 328.9145071 -25.77929688 324.61328125 C-17.38612032 316.18802933 -9.00253213 307.7533059 -0.625 299.3125 C2.25942 300.61808117 4.30511165 301.99980511 6.52212524 304.25276184 C7.11899139 304.85410446 7.71585754 305.45544708 8.33081055 306.07501221 C8.97397217 306.7332196 9.61713379 307.391427 10.27978516 308.06958008 C10.96656342 308.76409775 11.65334167 309.45861542 12.3609314 310.17417908 C13.85153822 311.6824347 15.33993321 313.19287874 16.82637405 314.70524025 C19.18440659 317.10271564 21.5499067 319.49257637 23.91781616 321.8802948 C30.64955845 328.6700417 37.37174104 335.46912935 44.07861328 342.28344727 C48.18322027 346.45273074 52.3001241 350.60953723 56.42487717 354.75888634 C57.98996329 356.33817866 59.55037093 357.92212237 61.10585403 359.51087379 C63.29033632 361.74140086 65.49016026 363.95570351 67.69384766 366.16723633 C68.32486389 366.81937103 68.95588013 367.47150574 69.60601807 368.1434021 C76.11556604 374.61070803 83.64042503 378.89897735 92.93359375 379.37890625 C101.44785554 379.14731833 108.15723526 376.33585875 114.32421875 370.453125 C120.67400875 363.58416978 123.34632866 356.64502049 123.375 347.3125 C122.54388261 336.56217725 115.46092713 328.935765 108.08447266 321.68139648 C107.38133942 320.97782516 106.67820618 320.27425385 105.95376587 319.54936218 C103.65591205 317.25357817 101.3476587 314.96857067 99.0390625 312.68359375 C97.43272381 311.08285744 95.82705149 309.48145218 94.22201538 307.87940979 C90.01680908 303.68560165 85.802669 299.50088545 81.58654785 295.3180542 C77.27748331 291.03979919 72.9770071 286.75293004 68.67578125 282.46679688 C60.25052933 274.07362032 51.8158059 265.69003213 43.375 257.3125 C44.68058117 254.42808 46.06230511 252.38238835 48.31526184 250.16537476 C48.91660446 249.56850861 49.51794708 248.97164246 50.13751221 248.35668945 C50.7957196 247.71352783 51.453927 247.07036621 52.13208008 246.40771484 C52.82659775 245.72093658 53.52111542 245.03415833 54.23667908 244.3265686 C55.7449347 242.83596178 57.25537874 241.34756679 58.76774025 239.86112595 C61.16521564 237.50309341 63.55507637 235.1375933 65.9427948 232.76968384 C72.7325417 226.03794155 79.53162935 219.31575896 86.34594727 212.60888672 C90.51523074 208.50427973 94.67203723 204.3873759 98.82138634 200.26262283 C100.40067866 198.69753671 101.98462237 197.13712907 103.57337379 195.58164597 C105.80390086 193.39716368 108.01820351 191.19733974 110.22973633 188.99365234 C110.88187103 188.36263611 111.53400574 187.73161987 112.2059021 187.08148193 C118.67320803 180.57193396 122.96147735 173.04707497 123.44140625 163.75390625 C123.20981833 155.23964446 120.39835875 148.53026474 114.515625 142.36328125 C98.79716263 127.8328422 81.55149725 132.85523985 67.68600464 146.62823486 Z " fill="#4d1300" transform="translate(255.625,-0.3125)"/>
</svg>
