<?xml version="1.0" encoding="UTF-8"?>
<svg version="1.1" xmlns="http://www.w3.org/2000/svg" width="512" height="512">
<path d="M0 0 C21.25423697 16.43572983 34.46756261 38.57536865 38.515625 65.1953125 C40.63100745 91.37143451 35.05890338 115.80095195 18.3203125 136.4921875 C17.60601074 137.37745117 16.89170898 138.26271484 16.15576172 139.17480469 C15.6145166 139.84157227 15.07327148 140.50833984 14.515625 141.1953125 C16.1402063 141.20933105 16.1402063 141.20933105 17.79760742 141.22363281 C21.87775412 141.26398984 25.95718237 141.32986637 30.03686523 141.40283203 C31.79100198 141.43078 33.54525853 141.45212242 35.29956055 141.46630859 C53.17062681 141.61935798 69.1644057 144.66675413 82.74609375 157.36328125 C88.75169473 163.58100059 96.515625 173.29117969 96.515625 182.1953125 C105.425625 182.1953125 114.335625 182.1953125 123.515625 182.1953125 C122.278125 180.1121875 121.040625 178.0290625 119.765625 175.8828125 C109.6086734 158.34233386 106.23472882 138.20545592 111.015625 118.3203125 C117.66615293 97.17863425 130.37245367 80.52436634 150.01953125 69.953125 C167.46411296 61.18210626 188.16243274 58.90498712 206.9296875 64.80859375 C228.08546948 72.98975127 243.25439495 85.78686607 253.515625 106.1953125 C261.27485565 123.98644786 262.64296227 144.963505 255.515625 163.1953125 C252.62607449 169.7439622 249.49003801 176.23369299 245.515625 182.1953125 C246.65 182.17210937 247.784375 182.14890625 248.953125 182.125 C250.47395168 182.10622436 251.99478557 182.0880261 253.515625 182.0703125 C254.25941406 182.05355469 255.00320313 182.03679687 255.76953125 182.01953125 C267.91320393 181.9139341 278.90121119 186.4341807 287.828125 194.6953125 C296.31538911 203.7164529 300.66607883 214.35695669 300.66279602 226.70359802 C300.66647271 227.45092683 300.6701494 228.19825565 300.6739375 228.96823078 C300.68493411 231.46767847 300.68881125 233.96708452 300.69262695 236.46655273 C300.69889441 238.26048921 300.70554147 240.05442438 300.71253967 241.84835815 C300.7335407 247.73353172 300.74393517 253.61870545 300.75390625 259.50390625 C300.75795463 261.53106258 300.76207158 263.55821878 300.76625633 265.58537483 C300.78529562 275.10544599 300.79953193 284.62550944 300.8078683 294.14559597 C300.81765042 305.13476506 300.84400064 316.12373326 300.88436919 327.11283153 C300.91450945 335.60892358 300.92933501 344.10495793 300.93264931 352.60110241 C300.93500126 357.67512723 300.9439813 362.7489371 300.96911049 367.82290459 C300.99236103 372.59426447 300.99663663 377.36526735 300.98634911 382.13666916 C300.98585298 383.88701501 300.9921961 385.63737828 301.00590515 387.38767052 C301.02358575 389.77889012 301.01653788 392.16882298 301.00337219 394.56004333 C301.01982606 395.59677717 301.01982606 395.59677717 301.03661233 396.65445513 C300.97060969 401.62586149 299.70591369 404.42224401 296.515625 408.1953125 C291.98553444 412.05906935 288.28932139 412.76870476 282.5050354 412.67633057 C281.7158668 412.67974827 280.9266982 412.68316597 280.11361539 412.68668723 C277.47852748 412.69325748 274.84446617 412.6713049 272.20947266 412.64941406 C270.31698633 412.6482854 268.42449825 412.64891982 266.53201294 412.65118408 C261.40014678 412.65233141 256.26865485 412.62881889 251.13687563 412.60088825 C245.77172017 412.57587784 240.40655608 412.57353288 235.04135132 412.56878662 C224.88416901 412.55635581 214.72715897 412.52353268 204.5700525 412.48338866 C193.00546606 412.43867431 181.44087137 412.41668474 169.87621999 412.39660692 C146.08925949 412.35480023 122.3024519 412.28444602 98.515625 412.1953125 C98.53657227 413.07268066 98.55751953 413.95004883 98.57910156 414.85400391 C98.647551 418.13047933 98.69755551 421.40618762 98.73535156 424.68310547 C98.75538343 426.09729045 98.78261748 427.51139347 98.81738281 428.92529297 C98.86627989 430.96602669 98.88867623 433.0056594 98.90625 435.046875 C98.92719727 436.27229004 98.94814453 437.49770508 98.96972656 438.76025391 C98.27881387 443.98667409 95.78357807 447.01888205 91.99072266 450.53796387 C86.95615873 452.93905542 82.42628085 452.75379649 76.9140625 452.71289062 C75.75239563 452.7198999 74.59072876 452.72690918 73.39385986 452.73413086 C69.5592041 452.75171609 65.72528809 452.74008528 61.890625 452.7265625 C59.22313522 452.72925724 56.55566778 452.73313355 53.88818359 452.73815918 C48.29972337 452.74542707 42.71147491 452.73587066 37.12304688 452.71679688 C30.67110154 452.6950295 24.21966189 452.7020815 17.76772881 452.7241025 C12.21847151 452.7422812 6.66936604 452.74480285 1.12008858 452.73434782 C-2.1899978 452.72812631 -5.49979572 452.72882092 -8.80987549 452.74049377 C-12.50120204 452.75065438 -16.1915582 452.73516295 -19.8828125 452.71289062 C-21.51944855 452.72503601 -21.51944855 452.72503601 -23.18914795 452.73742676 C-29.27658856 452.66939573 -32.86199275 452.27831438 -37.484375 448.1953125 C-41.39158704 443.62909678 -42.05354938 439.84959146 -41.98828125 434.015625 C-42.0024131 432.85823318 -42.0024131 432.85823318 -42.01683044 431.67745972 C-42.04535114 429.22480421 -42.04856459 426.77311985 -42.046875 424.3203125 C-42.05050051 421.87478824 -42.06023742 419.42996808 -42.08763123 416.98458862 C-42.10421999 415.46866604 -42.10745512 413.95251296 -42.09461975 412.43655396 C-42.15626644 406.16049716 -43.35055212 400.50695395 -47.734375 395.7578125 C-51.69837949 393.50553722 -55.03604047 392.67721924 -59.5703125 393.63671875 C-64.18595302 395.13808881 -66.93491564 396.91222078 -69.484375 401.1953125 C-70.66707519 405.53877034 -70.63510446 409.87889605 -70.66015625 414.34765625 C-70.6833479 415.94467473 -70.70746497 417.54168 -70.73242188 419.13867188 C-70.7675342 421.6380307 -70.79689692 424.13689897 -70.81030273 426.63647461 C-70.82582867 429.06162618 -70.86604998 431.48537759 -70.91015625 433.91015625 C-70.90824783 434.65095932 -70.90633942 435.39176239 -70.90437317 436.15501404 C-71.02539012 441.32238234 -72.13086615 444.27827696 -75.484375 448.1953125 C-80.95838605 453.03018466 -85.99533657 452.76550958 -93.0859375 452.71289062 C-94.24760437 452.7198999 -95.40927124 452.72690918 -96.60614014 452.73413086 C-100.4407959 452.75171609 -104.27471191 452.74008528 -108.109375 452.7265625 C-110.77686478 452.72925724 -113.44433222 452.73313355 -116.11181641 452.73815918 C-121.70027663 452.74542707 -127.28852509 452.73587066 -132.87695312 452.71679688 C-139.32889846 452.6950295 -145.78033811 452.7020815 -152.23227119 452.7241025 C-157.78152849 452.7422812 -163.33063396 452.74480285 -168.87991142 452.73434782 C-172.1899978 452.72812631 -175.49979572 452.72882092 -178.80987549 452.74049377 C-182.50120204 452.75065438 -186.1915582 452.73516295 -189.8828125 452.71289062 C-191.51944855 452.72503601 -191.51944855 452.72503601 -193.18914795 452.73742676 C-199.09718537 452.67140068 -202.95824886 452.39473653 -207.484375 448.1953125 C-212.45198836 442.8412343 -212.05329146 437.51178171 -212.00195312 430.59375 C-212.0089624 429.43208313 -212.01597168 428.27041626 -212.02319336 427.07354736 C-212.04077859 423.2388916 -212.02914778 419.40497559 -212.015625 415.5703125 C-212.01831974 412.90282272 -212.02219605 410.23535528 -212.02722168 407.56787109 C-212.03448957 401.97941087 -212.02493316 396.39116241 -212.00585938 390.80273438 C-211.984092 384.35078904 -211.991144 377.89934939 -212.013165 371.44741631 C-212.0313437 365.89815901 -212.03386535 360.34905354 -212.02341032 354.79977608 C-212.01718881 351.4896897 -212.01788342 348.17989178 -212.02955627 344.86981201 C-212.03971688 341.17848546 -212.02422545 337.4881293 -212.00195312 333.796875 C-212.01005005 332.7057843 -212.01814697 331.6146936 -212.02648926 330.49053955 C-211.95845823 324.40309894 -211.56737688 320.81769475 -207.484375 316.1953125 C-202.91815928 312.28810046 -199.13865396 311.62613812 -193.3046875 311.69140625 C-192.53309296 311.68198502 -191.76149841 311.67256378 -190.96652222 311.66285706 C-188.51386671 311.63433636 -186.06218235 311.63112291 -183.609375 311.6328125 C-181.16385074 311.62918699 -178.71903058 311.61945008 -176.27365112 311.59205627 C-174.75772854 311.57546751 -173.24157546 311.57223238 -171.72561646 311.58506775 C-165.44955966 311.52342106 -159.79601645 310.32913538 -155.046875 305.9453125 C-152.79459972 301.98130801 -151.96628174 298.64364703 -152.92578125 294.109375 C-154.42715131 289.49373448 -156.20128328 286.74477186 -160.484375 284.1953125 C-164.82783284 283.01261231 -169.16795855 283.04458304 -173.63671875 283.01953125 C-175.23373723 282.9963396 -176.8307425 282.97222253 -178.42773438 282.94726562 C-180.9270932 282.9121533 -183.42596147 282.88279058 -185.92553711 282.86938477 C-188.35068868 282.85385883 -190.77444009 282.81363752 -193.19921875 282.76953125 C-193.94002182 282.77143967 -194.68082489 282.77334808 -195.44407654 282.77531433 C-200.61144484 282.65429738 -203.56733946 281.54882135 -207.484375 278.1953125 C-211.26867729 273.53294882 -212.06566855 269.85992897 -212.00195312 264.00952148 C-212.0089624 263.2102272 -212.01597168 262.41093292 -212.02319336 261.5874176 C-212.0407397 258.95505597 -212.02915513 256.32377816 -212.015625 253.69140625 C-212.01832274 251.84782202 -212.02220752 250.00423918 -212.02722168 248.16065979 C-212.03311376 244.29634049 -212.02457009 240.4323914 -212.00585938 236.56811523 C-211.98318212 231.64806222 -211.99612305 226.72888755 -212.02014923 221.80886745 C-212.03471127 217.99863766 -212.02995205 214.18861053 -212.01963806 210.3783741 C-212.01699355 208.56653804 -212.02015921 206.7546828 -212.02955627 204.94286919 C-212.1010529 187.2692242 -208.81386728 171.33358747 -196.31640625 157.96484375 C-185.10433205 147.13527101 -171.70416159 142.00809605 -156.29296875 141.78125 C-155.04689598 141.75220078 -155.04689598 141.75220078 -153.77565002 141.7225647 C-151.15782498 141.66343635 -148.53995434 141.61665446 -145.921875 141.5703125 C-144.13214373 141.53207107 -142.34242964 141.4930159 -140.55273438 141.453125 C-136.19675648 141.35779107 -131.84069269 141.27351831 -127.484375 141.1953125 C-128.08403076 140.48826172 -128.68368652 139.78121094 -129.30151367 139.05273438 C-147.26452748 117.55163378 -153.50441646 92.94872272 -151.484375 65.1953125 C-148.48970631 39.88965239 -134.66117821 17.42167843 -115.1875 1.29296875 C-81.16313425 -23.88277839 -34.3438166 -24.94786677 0 0 Z M-103.9375 32.48046875 C-107.85585645 36.65724441 -110.72826685 41.19656292 -113.484375 46.1953125 C-113.88269531 46.88367188 -114.28101562 47.57203125 -114.69140625 48.28125 C-122.14258085 61.95569028 -122.90483599 78.24349539 -119.484375 93.1953125 C-114.07752463 110.98100452 -103.90016154 125.14431237 -87.484375 134.1953125 C-86.79601562 134.59363281 -86.10765625 134.99195313 -85.3984375 135.40234375 C-71.72399722 142.85351835 -55.43619211 143.61577349 -40.484375 140.1953125 C-22.69868298 134.78846213 -8.53537513 124.61109904 0.515625 108.1953125 C0.91394531 107.50695312 1.31226563 106.81859375 1.72265625 106.109375 C9.17383085 92.43493472 9.93608599 76.14712961 6.515625 61.1953125 C1.10877463 43.40962048 -9.06858846 29.24631263 -25.484375 20.1953125 C-26.17273438 19.79699219 -26.86109375 19.39867187 -27.5703125 18.98828125 C-53.10119497 5.0765555 -83.73250905 13.50261708 -103.9375 32.48046875 Z M153.1015625 104.44921875 C144.36771725 114.06505329 139.39131588 125.10733843 139.515625 138.1953125 C140.21436976 150.22264259 144.42427465 161.9378444 153.515625 170.1953125 C163.91965195 178.81946183 175.17213527 182.79623218 188.67578125 182.01171875 C200.80469443 180.60944869 211.52913455 175.41731268 219.3515625 165.98046875 C227.58876148 154.98015872 230.52500498 143.35376406 228.953125 129.7578125 C226.7976362 117.59159718 220.61963856 107.83984635 210.828125 100.5078125 C193.00208536 88.6326813 169.08322092 89.4420517 153.1015625 104.44921875 Z M-177.1875 183.4140625 C-182.68203021 190.96076665 -181.62078222 200.2033664 -181.58203125 209.12890625 C-181.5806163 210.36198013 -181.57920135 211.59505402 -181.57774353 212.86549377 C-181.57216441 216.78795845 -181.55961568 220.71036519 -181.546875 224.6328125 C-181.54129198 227.29882729 -181.53729487 229.96484154 -181.53320312 232.63085938 C-181.52220181 239.15236338 -181.50548445 245.6738338 -181.484375 252.1953125 C-180.54754883 252.2250415 -180.54754883 252.2250415 -179.59179688 252.25537109 C-176.72228119 252.35148182 -173.85340953 252.46080737 -170.984375 252.5703125 C-170.00210938 252.60125 -169.01984375 252.6321875 -168.0078125 252.6640625 C-154.36192825 253.20989787 -142.06626067 257.2756426 -132.52734375 267.4921875 C-123.52503043 279.40347014 -121.22564268 291.85560876 -122.72265625 306.53125 C-124.91563774 317.03097955 -130.97320458 326.76273717 -139.484375 333.1953125 C-153.52288177 341.85401088 -163.80946624 341.42683821 -181.484375 342.1953125 C-181.484375 368.5953125 -181.484375 394.9953125 -181.484375 422.1953125 C-155.084375 422.1953125 -128.684375 422.1953125 -101.484375 422.1953125 C-101.154375 414.9353125 -100.824375 407.6753125 -100.484375 400.1953125 C-97.45314601 388.07039656 -92.86123939 376.97879374 -81.79101562 370.15087891 C-70.33239374 363.67546799 -58.41196033 361.08108582 -45.296875 363.8203125 C-33.10323175 367.66396092 -23.44914829 374.17885461 -17.4230957 385.578125 C-11.06643469 398.22201146 -12.17049289 406.41460092 -11.484375 422.1953125 C14.915625 422.1953125 41.315625 422.1953125 68.515625 422.1953125 C68.54140625 415.04617188 68.5671875 407.89703125 68.59375 400.53125 C68.61891742 396.00126623 68.64524958 391.47134928 68.67578125 386.94140625 C68.72412799 379.75178779 68.76816825 372.56232402 68.78662109 365.37255859 C68.80176861 359.57576967 68.83618097 353.77938547 68.88393402 347.98277664 C68.89876736 345.77164859 68.90666713 343.56046277 68.90750885 341.34928513 C68.9098743 338.25113562 68.93692122 335.15410842 68.96972656 332.05615234 C68.96218102 330.68589905 68.96218102 330.68589905 68.95448303 329.28796387 C69.04486927 323.76802403 69.82809816 320.57110323 73.515625 316.1953125 C77.59257066 312.83621078 81.51245293 312.76820369 86.59765625 312.7890625 C87.37066574 312.77822632 88.14367523 312.76739014 88.94010925 312.75622559 C91.40286641 312.72208034 93.86516279 312.70640367 96.328125 312.6953125 C99.56423862 312.68064492 102.79934044 312.64675493 106.03515625 312.6015625 C106.76563675 312.60458374 107.49611725 312.60760498 108.24873352 312.61071777 C113.91208503 312.52937932 119.57254597 311.58773652 124.08381653 307.92053223 C127.46663297 304.27606668 128.515625 301.09560294 128.515625 296.1953125 C127.61977656 291.72460221 126.05986175 288.32363977 122.640625 285.2578125 C117.45750505 281.83695333 112.42600212 282.05351875 106.36328125 282.01953125 C104.76626277 281.9963396 103.1692575 281.97222253 101.57226562 281.94726562 C99.0729068 281.9121533 96.57403853 281.88279058 94.07446289 281.86938477 C91.64931132 281.85385883 89.22555991 281.81363752 86.80078125 281.76953125 C86.05997818 281.77143967 85.31917511 281.77334808 84.55592346 281.77531433 C79.4057628 281.65470038 76.42734678 280.53109719 72.515625 277.1953125 C69.39745257 273.05557186 69.13479276 269.91727338 69.11499023 264.79394531 C69.10801117 264.06640045 69.1010321 263.33885559 69.09384155 262.58926392 C69.07390367 260.19220296 69.07436508 257.79557393 69.07421875 255.3984375 C69.06243818 253.72319386 69.04907229 252.0479607 69.03419495 250.3727417 C68.9980269 245.963794 68.97781918 241.55493896 68.96264648 237.14587402 C68.9378183 230.10390038 68.89784082 223.06213184 68.84074593 216.0203476 C68.82453727 213.57155964 68.82064957 211.12296805 68.81773376 208.6741333 C68.9435169 194.01094916 68.9435169 194.01094916 62.515625 181.1953125 C54.36579526 173.27345002 47.40396528 172.03847955 36.06570435 172.06159973 C35.24119589 172.05933417 34.41668743 172.05706862 33.56719387 172.05473441 C30.81838172 172.04842991 28.06961933 172.04922148 25.32080078 172.05004883 C23.34424781 172.04705515 21.36769542 172.04365214 19.3911438 172.03987122 C14.03161768 172.03104894 8.67210754 172.02869387 3.31257486 172.02805543 C-0.03789657 172.027344 -3.38836396 172.02520792 -6.73883438 172.02255821 C-18.43315132 172.01331113 -30.12745687 172.00922259 -41.82177734 172.01000977 C-52.71387893 172.01061061 -63.605931 172.00005588 -74.49802005 171.9842661 C-83.85788705 171.97118214 -93.21773788 171.96582622 -102.57761395 171.96646518 C-108.16415532 171.96671988 -113.75065266 171.96388366 -119.33718491 171.95328712 C-124.59194023 171.94359161 -129.84660955 171.94353697 -135.10136795 171.95080376 C-137.02621334 171.95184774 -138.95106412 171.9494978 -140.87590027 171.9434433 C-143.51086285 171.93569405 -146.14553055 171.94038746 -148.78048706 171.94807434 C-149.53546821 171.94293078 -150.29044935 171.93778721 -151.06830871 171.93248779 C-162.21498844 172.00395717 -169.87572168 174.76572255 -177.1875 183.4140625 Z M98.515625 212.1953125 C98.515625 225.3953125 98.515625 238.5953125 98.515625 252.1953125 C105.39519101 252.44373791 105.39519101 252.44373791 112.27539062 252.67333984 C125.81642344 253.22547421 138.01870084 257.36663963 147.47265625 267.4921875 C156.47496957 279.40347014 158.77435732 291.85560876 157.27734375 306.53125 C155.08436226 317.03097955 149.02679542 326.76273717 140.515625 333.1953125 C132.72099805 338.00289815 125.21130134 341.1513475 115.99609375 341.51171875 C115.07465576 341.54982666 114.15321777 341.58793457 113.20385742 341.62719727 C112.04861572 341.67030029 110.89337402 341.71340332 109.703125 341.7578125 C106.01125 341.9021875 102.319375 342.0465625 98.515625 342.1953125 C98.515625 355.3953125 98.515625 368.5953125 98.515625 382.1953125 C155.275625 382.1953125 212.035625 382.1953125 270.515625 382.1953125 C270.5775 356.6203125 270.639375 331.0453125 270.703125 304.6953125 C270.73043701 296.62384766 270.75774902 288.55238281 270.78588867 280.23632812 C270.79592279 272.99286081 270.79592279 272.99286081 270.80195618 265.74938965 C270.80474794 262.52634469 270.81597763 259.30344839 270.83235168 256.08044434 C270.85298388 251.96453434 270.85908835 247.84883941 270.85484183 243.7328825 C270.85572933 242.22531778 270.86164582 240.71774527 270.87327039 239.21022511 C271.29020745 227.16877131 271.29020745 227.16877131 266.16978741 216.65348053 C261.18199363 212.10111625 256.38648734 212.06991865 249.9160614 212.07505798 C248.94185131 212.07377635 248.94185131 212.07377635 247.9479602 212.07246882 C245.77997566 212.07082669 243.61206916 212.07631455 241.4440918 212.08178711 C239.88672385 212.08206928 238.32935578 212.08191066 236.77198792 212.0813446 C232.5492665 212.0810578 228.32657352 212.0869357 224.10385871 212.09391856 C219.68893563 212.1001715 215.2740119 212.10075744 210.85908508 212.10194397 C202.50107703 212.10505156 194.14308207 212.11325724 185.78507978 212.12329346 C176.26882262 212.13447236 166.75256483 212.13996953 157.23630273 212.14498889 C137.66273456 212.15544032 118.08918433 212.1737787 98.515625 212.1953125 Z " fill="#e7364d" transform="translate(211.484375,38.8046875)"/>
</svg>
