<?xml version="1.0" encoding="UTF-8"?>
<svg version="1.1" xmlns="http://www.w3.org/2000/svg" width="512" height="512">
<path d="M0 0 C0.67664615 -0.00453111 1.3532923 -0.00906223 2.05044287 -0.01373065 C4.30491394 -0.02633338 6.55914214 -0.02475698 8.81364441 -0.02310181 C10.43537708 -0.02908966 12.05710691 -0.0358958 13.67883301 -0.04345703 C18.07565129 -0.06109848 22.47239169 -0.06581164 26.86924195 -0.0670886 C29.61885716 -0.06851186 32.36845267 -0.07278476 35.11806297 -0.07808304 C44.71810027 -0.09657745 54.31808208 -0.10475442 63.9181366 -0.10317993 C72.85454537 -0.10197882 81.7907125 -0.12307676 90.72706014 -0.15466726 C98.40964763 -0.18085394 106.09215632 -0.19154622 113.77478808 -0.19026911 C118.35872217 -0.18976017 122.94244147 -0.195406 127.52633095 -0.21662521 C131.83975006 -0.23604788 136.15275037 -0.23610472 140.46618462 -0.22159195 C142.04433431 -0.21950771 143.62251049 -0.22418176 145.20061493 -0.23631287 C157.0288657 -0.32130975 165.41413981 1.12371805 174.24797058 9.34164429 C181.13414068 16.7540501 183.35705358 24.45262473 183.23234558 34.38461304 C183.22810074 35.67034714 183.22810074 35.67034714 183.22377014 36.98205566 C183.21263307 39.70232485 183.18754068 42.42225694 183.16203308 45.14242554 C183.15199491 46.99398326 183.14287052 48.84554618 183.13468933 50.69711304 C183.11271496 55.22067914 183.07823008 59.74399531 183.03703308 64.26742554 C184.07527222 64.25854309 185.11351135 64.24966064 186.18321228 64.24050903 C196.00979681 64.15911184 205.83631215 64.09931149 215.66315842 64.06017685 C220.71419676 64.03938032 225.76496102 64.01120904 230.81584167 63.96566772 C235.69826671 63.9219252 240.58042958 63.89822889 245.46303558 63.88791656 C247.3176053 63.88057585 249.1721621 63.86624234 251.02661896 63.84450531 C269.05072417 63.641807 283.27058944 67.28678089 296.86515808 79.86898804 C305.66331966 89.58494345 311.05190819 101.66958132 311.22990417 114.78866577 C311.25399857 116.4107621 311.25399857 116.4107621 311.27857971 118.06562805 C311.32323986 122.98159961 311.36405472 127.89744123 311.38713074 132.81356812 C311.40372143 135.40610715 311.43105173 137.99859987 311.46916199 140.59091187 C311.52389313 144.33618806 311.54579598 148.08039723 311.56047058 151.82601929 C311.58313995 152.98242416 311.60580933 154.13882904 311.62916565 155.33027649 C311.60560827 164.29477516 311.60560827 164.29477516 308.62931824 167.98251343 C304.43986387 171.67521482 301.33468522 171.4007328 295.96672058 171.36508179 C295.17049286 171.36366684 294.37426514 171.36225189 293.5539093 171.36079407 C291.00657928 171.35518899 288.45933661 171.34263568 285.91203308 171.32992554 C284.18677393 171.32491119 282.46151341 171.32034817 280.73625183 171.31625366 C276.50314517 171.30521791 272.27010394 171.2879499 268.03703308 171.26742554 C268.03874182 172.20756817 268.03874182 172.20756817 268.04048508 173.16670358 C268.10764252 210.32681889 268.15910449 247.48692521 268.19022907 284.64708879 C268.19398112 289.11054098 268.19786409 293.57399306 268.201828 298.03744507 C268.20261493 298.92602517 268.20340187 299.81460526 268.20421264 300.73011203 C268.21726089 315.11139687 268.24091154 329.49264568 268.26849147 343.87390916 C268.29656182 358.63417718 268.31321279 373.39442634 268.31929857 388.15471995 C268.32341162 397.26009179 268.336395 406.36536177 268.36078248 415.47070225 C268.37665979 421.71748262 268.38142892 427.96421046 268.37753721 434.21100955 C268.37561877 437.81324222 268.37852667 441.41529709 268.39464951 445.01749802 C268.41202799 448.92894646 268.40597833 452.84016518 268.39779663 456.75164795 C268.40653516 457.88202213 268.41527368 459.0123963 268.42427701 460.17702425 C268.3855602 467.03453775 267.40476863 472.82987783 265.03703308 479.26742554 C264.70703308 480.17234741 264.37703308 481.07726929 264.03703308 482.00961304 C258.0096938 494.8647976 247.13461487 504.67500172 234.04638672 509.88912964 C222.58521407 513.88577104 210.21972451 512.96145741 198.24882829 512.89173079 C194.62307307 512.87615442 190.99740257 512.88974348 187.37164307 512.8994751 C180.28956253 512.91392666 173.20777083 512.90184534 166.12571778 512.88036186 C157.86715184 512.8562371 149.60865046 512.85807311 141.3500571 512.86066777 C126.61178566 512.86434948 111.87364956 512.84360249 97.13542175 512.80941772 C82.85250939 512.77630165 68.56973892 512.76216552 54.28678894 512.7684021 C38.70439785 512.77517268 23.122066 512.77268922 7.53968364 512.7530427 C6.71510863 512.75200321 5.89053362 512.75096373 5.04097149 512.74989274 C3.38516861 512.74780196 1.72936575 512.74569099 0.07356292 512.74355957 C-5.6762165 512.73667884 -11.4259776 512.73599214 -17.17576027 512.73744202 C-24.18364097 512.7388846 -31.19140638 512.7291378 -38.19924889 512.70549566 C-41.77118422 512.69367236 -45.34295926 512.68648604 -48.91491318 512.69233322 C-52.79276375 512.69849348 -56.67031513 512.68127742 -60.54812622 512.66183472 C-61.6682686 512.66716264 -62.78841098 512.67249057 -63.94249707 512.67797995 C-78.78306394 512.54981732 -90.93716906 506.87286541 -101.67390442 496.68148804 C-110.0806832 487.81563601 -116.09123945 476.55605223 -116.08601475 464.12125778 C-116.0880058 463.07524171 -116.08999684 462.02922563 -116.09204823 460.9515121 C-116.08767897 459.22973526 -116.08767897 459.22973526 -116.08322144 457.47317505 C-116.08407586 456.25285875 -116.08493029 455.03254244 -116.0858106 453.77524686 C-116.08717445 450.38659377 -116.08404335 446.99799825 -116.07903254 443.60935211 C-116.07471871 439.95567322 -116.07617513 436.30199615 -116.07693481 432.64831543 C-116.07745946 426.31757942 -116.07431888 419.98685372 -116.06869698 413.6561203 C-116.06057391 404.50291492 -116.05796593 395.34971453 -116.05670898 386.19650593 C-116.05451974 371.34644506 -116.04786309 356.49638968 -116.03840637 341.64633179 C-116.02922897 327.21989978 -116.02214974 312.79346925 -116.01789856 298.36703491 C-116.01763584 297.47796112 -116.01737311 296.58888734 -116.01710243 295.67287192 C-116.0157974 291.21270123 -116.01453369 286.75253053 -116.01329052 282.29235983 C-116.00292187 245.28404452 -115.985307 208.27573546 -115.96296692 171.26742554 C-117.0220929 171.29360962 -118.08121887 171.3197937 -119.17243958 171.34677124 C-123.11948847 171.43759105 -127.06644592 171.49478895 -131.01423645 171.54208374 C-132.71947281 171.56715599 -134.42460246 171.60122318 -136.12947083 171.6446228 C-138.58725866 171.70560119 -141.04362053 171.73370666 -143.50202942 171.75570679 C-144.63676193 171.79441643 -144.63676193 171.79441643 -145.79441833 171.83390808 C-149.82651514 171.83602214 -152.2444338 171.43987926 -155.42927551 168.86190796 C-158.83415401 165.375336 -159.08970236 163.89876381 -159.12409973 159.16610718 C-159.13370728 158.10062149 -159.14331482 157.0351358 -159.1532135 155.93736267 C-159.15746338 154.77913498 -159.16171326 153.62090729 -159.16609192 152.42758179 C-159.17179199 151.23571762 -159.17749207 150.04385345 -159.18336487 148.81587219 C-159.19282971 146.28467703 -159.19935471 143.75346946 -159.20320129 141.22225952 C-159.21284865 137.37706394 -159.2438345 133.53241611 -159.27546692 129.68734741 C-159.28200278 127.22576204 -159.28725096 124.76417284 -159.29109192 122.30258179 C-159.30343872 121.16257217 -159.31578552 120.02256256 -159.32850647 118.8480072 C-159.28632371 103.47302934 -154.15465951 89.71371243 -143.44734192 78.52133179 C-133.34482446 69.35599755 -121.2846326 64.091347 -107.70613098 64.15390015 C-106.46167458 64.15368111 -106.46167458 64.15368111 -105.19207764 64.15345764 C-102.45422232 64.15415342 -99.71643533 64.16193015 -96.97859192 64.16976929 C-95.07858823 64.17163466 -93.17858406 64.173058 -91.27857971 64.17405701 C-86.28088551 64.17787281 -81.28322043 64.18769512 -76.28553772 64.19876099 C-71.18452854 64.20899523 -66.08351466 64.21355894 -60.98249817 64.21859741 C-50.97597497 64.22931821 -40.96947337 64.24638342 -30.96296692 64.26742554 C-30.99438782 62.57383911 -30.99438782 62.57383911 -31.02644348 60.84603882 C-31.0994116 56.61553878 -31.14497104 52.38509317 -31.18269348 48.15414429 C-31.20268056 46.33080661 -31.22987978 44.50753198 -31.26472473 42.68441772 C-31.50989123 29.51753433 -31.32574733 19.07301059 -21.82234192 9.02133179 C-15.23631232 2.8088795 -9.23124886 0.0256357 0 0 Z M-7.96296692 27.26742554 C-11.86453356 38.97212545 -8.96296692 51.92958852 -8.96296692 64.26742554 C47.13703308 64.26742554 103.23703308 64.26742554 161.03703308 64.26742554 C162.89113505 43.83839308 162.89113505 43.83839308 158.03703308 25.26742554 C154.76897809 22.00295421 152.20545052 21.88785183 147.67402649 21.87301636 C146.36459076 21.86166656 145.05515503 21.85031677 143.70603943 21.83862305 C142.25663696 21.84126635 140.80723506 21.84423757 139.35783386 21.84750366 C137.83004637 21.84016352 136.30226444 21.83157745 134.77449036 21.82183838 C130.6256473 21.79960637 126.47700276 21.79669257 122.32810831 21.79858589 C118.86390762 21.79870553 115.39974908 21.79014407 111.93556011 21.78180838 C103.76183634 21.76256779 95.5882147 21.75969267 87.41447449 21.76644897 C78.98466241 21.77308881 70.555288 21.75022941 62.12556469 21.71313524 C54.88635871 21.68243668 47.64729349 21.67107842 40.40802372 21.67497206 C36.08512054 21.67703961 31.76255784 21.67155983 27.43971634 21.64707947 C23.37328521 21.62481238 19.30756525 21.62668924 15.24113083 21.64700699 C13.750414 21.6504173 12.2596493 21.64532686 10.76899719 21.63102341 C0.09786281 21.25404102 0.09786281 21.25404102 -7.96296692 27.26742554 Z M-120.96296692 90.26742554 C-121.76089661 90.71344116 -122.55882629 91.15945679 -123.38093567 91.61898804 C-131.15202474 97.21142741 -134.37147072 104.19718883 -136.96296692 113.26742554 C-136.96296692 125.14742554 -136.96296692 137.02742554 -136.96296692 149.26742554 C3.61703308 149.26742554 144.19703308 149.26742554 289.03703308 149.26742554 C291.38720668 119.51022706 291.38720668 119.51022706 279.03703308 94.26742554 C272.35684583 88.88249901 266.14059606 86.0209415 257.45175457 86.01015663 C256.13560183 86.00370774 254.81944909 85.99725885 253.46341294 85.99061453 C252.00949292 85.99355659 250.55557328 85.99669201 249.10165405 86 C247.55196277 85.99626263 246.00227336 85.99166076 244.45258695 85.98626935 C240.19650518 85.97403474 235.94050198 85.97430036 231.68440664 85.97665811 C227.09328269 85.97706615 222.50218398 85.96602829 217.91107178 85.95654297 C208.91715414 85.93992959 199.92326272 85.93443327 190.92933103 85.93331821 C183.61881081 85.93236792 176.30829924 85.92825858 168.99778175 85.92191696 C148.27190654 85.90430383 127.54605204 85.89507823 106.82016929 85.89657791 C105.70281589 85.89665782 104.58546248 85.89673773 103.43424988 85.89682007 C102.31553253 85.89690183 101.19681518 85.89698359 100.0441973 85.89706783 C81.91201643 85.89788081 63.77991862 85.87874035 45.64776178 85.85054334 C27.03056815 85.82182044 8.41341503 85.80800271 -10.20380133 85.80973089 C-20.65627689 85.81039498 -31.10866538 85.80489413 -41.56112099 85.78337479 C-50.46024439 85.76517085 -59.35924125 85.76080921 -68.25837521 85.77439363 C-72.79824285 85.78092718 -77.33786765 85.78102654 -81.87771225 85.76368713 C-86.03599285 85.74796849 -90.19383783 85.75080756 -94.35210773 85.7682554 C-95.85409935 85.77132796 -97.35612339 85.7676832 -98.85807679 85.75653525 C-106.98820285 85.70020125 -113.81393294 86.02195445 -120.96296692 90.26742554 Z M-93.96296692 171.26742554 C-94.04546692 219.57117554 -94.12796692 267.87492554 -94.21296692 317.64242554 C-94.24938293 332.90025269 -94.28579895 348.15807983 -94.32331848 363.87826538 C-94.33669537 377.54301272 -94.33669537 377.54301272 -94.34474182 391.20776367 C-94.34847175 397.29905368 -94.36314341 403.39019692 -94.38526917 409.48144531 C-94.41075773 416.50888525 -94.42230436 423.53618442 -94.41674672 430.56367091 C-94.41434033 434.15742708 -94.41811571 437.75086878 -94.43982744 441.34456706 C-94.46296434 445.19766388 -94.45492296 449.0503448 -94.44398499 452.90350342 C-94.45563564 454.01799173 -94.4672863 455.13248005 -94.47929001 456.28074074 C-94.39957095 466.73529189 -91.45116875 474.65973973 -84.25593567 482.28695679 C-78.60411441 487.1685128 -71.5790979 490.3863332 -64.09271908 490.40164661 C-63.0827282 490.40610446 -62.07273733 490.4105623 -61.03214067 490.41515523 C-59.91932539 490.41497087 -58.8065101 490.41478651 -57.65997314 490.41459656 C-55.89036644 490.42011159 -55.89036644 490.42011159 -54.08501011 490.42573804 C-50.80463162 490.43486669 -47.52428253 490.43947498 -44.2438935 490.44212735 C-40.7079267 490.44603023 -37.1719744 490.4556087 -33.63601685 490.46434021 C-25.09283942 490.48410689 -16.54966081 490.49417188 -8.00646624 490.503068 C-3.98262285 490.50745127 0.04121922 490.51281805 4.06506157 490.51805687 C17.4431115 490.53507068 30.82116061 490.549564 44.1992197 490.55680561 C47.67128055 490.55871549 51.1433414 490.56063582 54.61540222 490.56259155 C55.4783609 490.56307529 56.34131957 490.56355903 57.23042851 490.56405743 C71.20415336 490.5723545 85.17779252 490.59768527 99.15147997 490.63017223 C113.50052242 490.66325957 127.84952135 490.68125595 142.19860214 490.68444985 C150.25399235 490.68661359 158.30925766 490.69534203 166.36461067 490.72091103 C173.22638147 490.74264107 180.08799705 490.75065722 186.94979835 490.74094424 C190.44881485 490.73640592 193.94751123 490.73825787 197.44648361 490.75770569 C201.24630981 490.77539495 205.04532701 490.76833159 208.84515381 490.75517273 C210.49095416 490.7716266 210.49095416 490.7716266 212.170003 490.78841287 C222.56533627 490.70166192 230.47650189 487.71114346 238.05656433 480.56039429 C242.97057704 474.87099496 246.16328684 467.83750909 246.16008091 460.30677509 C246.16207178 459.27636034 246.16406265 458.24594559 246.16611385 457.18430614 C246.16320119 456.04942918 246.16028852 454.91455221 246.1572876 453.74528503 C246.15814362 452.54506714 246.15899963 451.34484924 246.15988159 450.10826111 C246.16125196 446.76434272 246.15810362 443.42048241 246.15310581 440.076571 C246.14874907 436.41991946 246.15019977 432.76326945 246.15092373 429.10661602 C246.1514561 422.00362858 246.14683185 414.90065374 246.1404224 407.79766954 C246.1332323 399.5842585 246.13242819 391.37085507 246.13163757 383.15744019 C246.12638374 361.4649333 246.11242268 339.77242923 246.09953308 318.07992554 C246.07890808 269.63180054 246.05828308 221.18367554 246.03703308 171.26742554 C133.83703308 171.26742554 21.63703308 171.26742554 -93.96296692 171.26742554 Z " fill="#4d1300" transform="translate(179.9629669189453,-0.267425537109375)"/>
<path d="M0 0 C3.6578218 2.03993908 5.66946174 3.50419262 8 7 C8.26006222 10.14789295 8.26006222 10.14789295 8.27415466 14.11592102 C8.28200968 15.20984965 8.28200968 15.20984965 8.29002339 16.32587785 C8.30505799 18.7763076 8.30572929 21.22652919 8.30639648 23.67700195 C8.3140157 25.43123733 8.32244279 27.18546935 8.33161926 28.93969727 C8.35359581 33.7104379 8.3623675 38.48111442 8.36744571 43.25189996 C8.37108583 46.23180101 8.37732412 49.21168519 8.3844471 52.19157982 C8.40895344 62.58565384 8.42199586 72.97967787 8.42553711 83.3737793 C8.42917236 93.06514356 8.45906398 102.75619111 8.50094169 112.44745857 C8.53562502 120.76517713 8.55108522 129.08279066 8.55178314 137.40058106 C8.55257669 142.36960147 8.56135064 147.33829949 8.58978081 152.30724525 C8.6159276 156.98180565 8.61818568 161.65577562 8.60212517 166.33037567 C8.60030791 168.04524458 8.60702635 169.76014717 8.62294388 171.47494316 C8.64336882 173.81837117 8.6328763 176.15972643 8.61473083 178.50312805 C8.61674216 179.81370839 8.61875349 181.12428873 8.62082577 182.47458363 C7.80673886 187.0974512 6.28422696 188.70642007 3 192 C-0.22859847 193.61429923 -3.50993653 193.59570657 -7 193 C-10.02508145 191.26397895 -12.41790069 189.16419863 -14 186 C-14.10339788 183.66764345 -14.13956467 181.33223932 -14.14717102 178.99760437 C-14.15084771 178.26846748 -14.1545244 177.53933058 -14.1583125 176.78809863 C-14.16937093 174.33227683 -14.17319681 171.8764973 -14.17700195 169.4206543 C-14.18326494 167.66494613 -14.18991159 165.9092393 -14.19691467 164.15353394 C-14.21433886 159.37454806 -14.22488013 154.5955722 -14.2331202 149.81656241 C-14.23826698 146.8324928 -14.24434283 143.84842631 -14.25063133 140.8643589 C-14.26968671 131.53275898 -14.28391754 122.201167 -14.2922433 112.86955136 C-14.30202031 102.08862217 -14.32835049 91.30789805 -14.36874419 80.52704114 C-14.39887601 72.20002588 -14.41370935 63.87306951 -14.41702431 55.54600078 C-14.41937801 50.56977139 -14.42837995 45.59376099 -14.45348549 40.61758995 C-14.47672018 35.93655623 -14.48101806 31.2558864 -14.47072411 26.57481003 C-14.47022752 24.8562976 -14.47658395 23.13776754 -14.49028015 21.41930962 C-14.50793058 19.07355009 -14.50092785 16.72910622 -14.48774719 14.38334656 C-14.49013555 13.07054561 -14.4925239 11.75774466 -14.49498463 10.40516186 C-13.91894191 6.44237478 -12.77781397 4.82290002 -10 2 C-6.73065722 -0.28853994 -3.9301848 -0.47162218 0 0 Z " fill="#4d1300" transform="translate(355,234)"/>
<path d="M0 0 C3.6578218 2.03993908 5.66946174 3.50419262 8 7 C8.26006222 10.14789295 8.26006222 10.14789295 8.27415466 14.11592102 C8.28200968 15.20984965 8.28200968 15.20984965 8.29002339 16.32587785 C8.30505799 18.7763076 8.30572929 21.22652919 8.30639648 23.67700195 C8.3140157 25.43123733 8.32244279 27.18546935 8.33161926 28.93969727 C8.35359581 33.7104379 8.3623675 38.48111442 8.36744571 43.25189996 C8.37108583 46.23180101 8.37732412 49.21168519 8.3844471 52.19157982 C8.40895344 62.58565384 8.42199586 72.97967787 8.42553711 83.3737793 C8.42917236 93.06514356 8.45906398 102.75619111 8.50094169 112.44745857 C8.53562502 120.76517713 8.55108522 129.08279066 8.55178314 137.40058106 C8.55257669 142.36960147 8.56135064 147.33829949 8.58978081 152.30724525 C8.6159276 156.98180565 8.61818568 161.65577562 8.60212517 166.33037567 C8.60030791 168.04524458 8.60702635 169.76014717 8.62294388 171.47494316 C8.64336882 173.81837117 8.6328763 176.15972643 8.61473083 178.50312805 C8.61674216 179.81370839 8.61875349 181.12428873 8.62082577 182.47458363 C7.80673886 187.0974512 6.28422696 188.70642007 3 192 C-0.22859847 193.61429923 -3.50993653 193.59570657 -7 193 C-10.02508145 191.26397895 -12.41790069 189.16419863 -14 186 C-14.10339788 183.66764345 -14.13956467 181.33223932 -14.14717102 178.99760437 C-14.15084771 178.26846748 -14.1545244 177.53933058 -14.1583125 176.78809863 C-14.16937093 174.33227683 -14.17319681 171.8764973 -14.17700195 169.4206543 C-14.18326494 167.66494613 -14.18991159 165.9092393 -14.19691467 164.15353394 C-14.21433886 159.37454806 -14.22488013 154.5955722 -14.2331202 149.81656241 C-14.23826698 146.8324928 -14.24434283 143.84842631 -14.25063133 140.8643589 C-14.26968671 131.53275898 -14.28391754 122.201167 -14.2922433 112.86955136 C-14.30202031 102.08862217 -14.32835049 91.30789805 -14.36874419 80.52704114 C-14.39887601 72.20002588 -14.41370935 63.87306951 -14.41702431 55.54600078 C-14.41937801 50.56977139 -14.42837995 45.59376099 -14.45348549 40.61758995 C-14.47672018 35.93655623 -14.48101806 31.2558864 -14.47072411 26.57481003 C-14.47022752 24.8562976 -14.47658395 23.13776754 -14.49028015 21.41930962 C-14.50793058 19.07355009 -14.50092785 16.72910622 -14.48774719 14.38334656 C-14.49013555 13.07054561 -14.4925239 11.75774466 -14.49498463 10.40516186 C-13.91894191 6.44237478 -12.77781397 4.82290002 -10 2 C-6.73065722 -0.28853994 -3.9301848 -0.47162218 0 0 Z " fill="#4d1300" transform="translate(259,234)"/>
<path d="M0 0 C3.6578218 2.03993908 5.66946174 3.50419262 8 7 C8.26006222 10.14789295 8.26006222 10.14789295 8.27415466 14.11592102 C8.28200968 15.20984965 8.28200968 15.20984965 8.29002339 16.32587785 C8.30505799 18.7763076 8.30572929 21.22652919 8.30639648 23.67700195 C8.3140157 25.43123733 8.32244279 27.18546935 8.33161926 28.93969727 C8.35359581 33.7104379 8.3623675 38.48111442 8.36744571 43.25189996 C8.37108583 46.23180101 8.37732412 49.21168519 8.3844471 52.19157982 C8.40895344 62.58565384 8.42199586 72.97967787 8.42553711 83.3737793 C8.42917236 93.06514356 8.45906398 102.75619111 8.50094169 112.44745857 C8.53562502 120.76517713 8.55108522 129.08279066 8.55178314 137.40058106 C8.55257669 142.36960147 8.56135064 147.33829949 8.58978081 152.30724525 C8.6159276 156.98180565 8.61818568 161.65577562 8.60212517 166.33037567 C8.60030791 168.04524458 8.60702635 169.76014717 8.62294388 171.47494316 C8.64336882 173.81837117 8.6328763 176.15972643 8.61473083 178.50312805 C8.61674216 179.81370839 8.61875349 181.12428873 8.62082577 182.47458363 C7.80673886 187.0974512 6.28422696 188.70642007 3 192 C-0.22859847 193.61429923 -3.50993653 193.59570657 -7 193 C-10.02508145 191.26397895 -12.41790069 189.16419863 -14 186 C-14.10339788 183.66764345 -14.13956467 181.33223932 -14.14717102 178.99760437 C-14.15084771 178.26846748 -14.1545244 177.53933058 -14.1583125 176.78809863 C-14.16937093 174.33227683 -14.17319681 171.8764973 -14.17700195 169.4206543 C-14.18326494 167.66494613 -14.18991159 165.9092393 -14.19691467 164.15353394 C-14.21433886 159.37454806 -14.22488013 154.5955722 -14.2331202 149.81656241 C-14.23826698 146.8324928 -14.24434283 143.84842631 -14.25063133 140.8643589 C-14.26968671 131.53275898 -14.28391754 122.201167 -14.2922433 112.86955136 C-14.30202031 102.08862217 -14.32835049 91.30789805 -14.36874419 80.52704114 C-14.39887601 72.20002588 -14.41370935 63.87306951 -14.41702431 55.54600078 C-14.41937801 50.56977139 -14.42837995 45.59376099 -14.45348549 40.61758995 C-14.47672018 35.93655623 -14.48101806 31.2558864 -14.47072411 26.57481003 C-14.47022752 24.8562976 -14.47658395 23.13776754 -14.49028015 21.41930962 C-14.50793058 19.07355009 -14.50092785 16.72910622 -14.48774719 14.38334656 C-14.49013555 13.07054561 -14.4925239 11.75774466 -14.49498463 10.40516186 C-13.91894191 6.44237478 -12.77781397 4.82290002 -10 2 C-6.73065722 -0.28853994 -3.9301848 -0.47162218 0 0 Z " fill="#4d1300" transform="translate(163,234)"/>
</svg>
