<?xml version="1.0" encoding="UTF-8"?>
<svg version="1.1" xmlns="http://www.w3.org/2000/svg" width="512" height="512">
<path d="M0 0 C6.2107934 1.81182146 10.67478748 6.94818572 15.28271484 11.30273438 C17.66645634 13.50946877 20.1840718 15.52956497 22.72265625 17.5546875 C27.1041742 21.10986654 31.28976306 24.83488287 35.4609375 28.6328125 C37.97416857 30.86853283 40.54577104 33.00096432 43.16015625 35.1171875 C49.59977618 40.33237265 55.82721028 45.78050502 62.07617188 51.22070312 C65.05120784 53.80356133 68.04206708 56.36779182 71.03515625 58.9296875 C71.60782227 59.41985352 72.18048828 59.91001953 72.77050781 60.41503906 C73.92506063 61.4030761 75.07968291 62.39103198 76.234375 63.37890625 C77.99218543 64.88390799 79.74830071 66.39086453 81.50390625 67.8984375 C88.2569812 73.69610848 95.03158213 79.4664136 101.83984375 85.19921875 C104.30487656 87.28586753 106.73937209 89.40556328 109.16845703 91.53393555 C109.88268829 92.1595488 110.59691956 92.78516205 111.33279419 93.42973328 C111.87394867 93.90409317 112.41510315 94.37845306 112.97265625 94.8671875 C112.97479378 93.77510735 112.97479378 93.77510735 112.97697449 92.66096497 C112.99482584 85.78980206 113.03650237 78.91914911 113.10474682 72.04831409 C113.13899541 68.51609163 113.16412329 64.98430064 113.16821289 61.4519043 C113.17332157 57.38798912 113.21844801 53.32536489 113.265625 49.26171875 C113.26169235 47.9969722 113.2577597 46.73222565 113.25370789 45.42915344 C113.27335098 44.24830673 113.29299408 43.06746002 113.31323242 41.85083008 C113.31989426 40.81380447 113.32655609 39.77677887 113.3334198 38.70832825 C114.22384817 34.75074367 115.75043439 33.2819278 118.97265625 30.8671875 C122.19775391 30.23226929 122.19775391 30.23226929 125.88671875 30.22021484 C126.56216736 30.21145325 127.23761597 30.20269165 127.93353271 30.19366455 C130.15557007 30.17174381 132.37560041 30.18619403 134.59765625 30.203125 C136.14795309 30.19975468 137.69824734 30.19490026 139.24853516 30.18862915 C142.49342065 30.18126787 145.7376167 30.19193824 148.98242188 30.21533203 C153.13565955 30.24382068 157.28728176 30.22741252 161.44046021 30.19746971 C164.64050402 30.17937582 167.84016668 30.18516405 171.04022217 30.19810867 C172.5711893 30.20143697 174.10219137 30.19737581 175.63311768 30.18571091 C177.77587115 30.17296603 179.91603274 30.19242257 182.05859375 30.22021484 C183.27595215 30.22419281 184.49331055 30.22817078 185.74755859 30.23226929 C188.97265625 30.8671875 188.97265625 30.8671875 191.8744812 32.64096069 C195.11961481 37.63079081 194.58606233 42.30813966 194.45751953 48.13378906 C194.44674126 50.00051521 194.44674126 50.00051521 194.43574524 51.904953 C194.41782852 54.60767437 194.39109093 57.30870723 194.35028458 60.01102448 C194.28762911 64.29016619 194.2696342 68.56878064 194.25973511 72.84832764 C194.22508758 85.01550022 194.13585958 97.18179719 193.99023438 109.34814453 C193.91014654 116.0717358 193.86985581 122.79441225 193.87200153 129.51849151 C193.87104801 133.76692498 193.82139752 138.01103622 193.73488164 142.25854445 C193.68261812 145.53335038 193.70271545 148.80788326 193.71142578 152.08300781 C193.67337326 153.24904037 193.63532074 154.41507294 193.59611511 155.61643982 C193.67144658 160.65360114 193.89205812 163.66107431 197.33041 167.49880219 C200.12302067 169.78981497 202.99735365 171.82244684 205.97265625 173.8671875 C207.66251863 175.34100665 209.33296712 176.83774402 210.97265625 178.3671875 C215.16860465 182.18767427 219.50667014 185.77987791 223.91796875 189.34765625 C228.17211287 192.85650914 232.31460648 196.48874173 236.46630859 200.11767578 C240.90769474 203.98516853 245.44337045 207.69564161 250.1171875 211.28125 C252.50532434 213.32247854 253.83861052 215.03469298 254.34375 218.171875 C254.4571358 222.56057232 254.39755083 225.15902986 252.09765625 228.9921875 C248.44861831 231.18161026 246.15664849 232.00690142 241.91015625 231.8046875 C235.74755233 229.83789901 231.27940491 224.79458089 226.66259766 220.43164062 C224.27885616 218.22490623 221.7612407 216.20481003 219.22265625 214.1796875 C214.88940406 210.66606805 210.73956999 206.99944546 206.65234375 203.203125 C202.89529611 199.928031 198.9068979 196.92715323 194.97265625 193.8671875 C194.64265625 272.7371875 194.31265625 351.6071875 193.97265625 432.8671875 C196.61265625 432.8671875 199.25265625 432.8671875 201.97265625 432.8671875 C209.54251302 435.39355779 215.58880851 439.1991506 219.97265625 445.8671875 C220.33907227 446.40875488 220.70548828 446.95032227 221.08300781 447.50830078 C225.62256325 455.73328678 224.40026396 465.34237213 224.22265625 474.4296875 C224.20256372 476.21938109 224.18431781 478.00909642 224.16796875 479.79882812 C224.12418346 484.15549028 224.05530849 488.51109644 223.97265625 492.8671875 C224.70379639 492.84100342 225.43493652 492.81481934 226.18823242 492.7878418 C229.51198707 492.68368606 232.83539819 492.61880129 236.16015625 492.5546875 C237.31064453 492.51279297 238.46113281 492.47089844 239.64648438 492.42773438 C248.14125381 492.30462177 248.14125381 492.30462177 252.234375 495.07421875 C254.04736255 497.98722122 254.65072556 499.47075167 254.59765625 502.8671875 C254.61054687 503.6921875 254.6234375 504.5171875 254.63671875 505.3671875 C253.65154498 509.07607699 251.9616982 510.48819572 248.97265625 512.8671875 C245.9248323 513.35934447 243.43823155 513.54437998 240.39465332 513.50210571 C239.53227948 513.50990567 238.66990563 513.51770562 237.78139925 513.52574193 C234.89224282 513.54568285 232.00440053 513.52988927 229.11523438 513.51416016 C227.04381033 513.52093534 224.97239231 513.52983791 222.90098572 513.54071045 C217.27494248 513.56352197 211.64935723 513.55465958 206.02330589 513.53881502 C200.13861217 513.52616575 194.25395794 513.53789344 188.3692627 513.54574585 C178.48650056 513.55484522 168.60392519 513.54284683 158.72119141 513.51904297 C147.29155718 513.49183129 135.86236888 513.50064524 124.43274546 513.528175 C114.62369164 513.55085675 104.81477215 513.55407067 95.00570059 513.54098165 C89.14533267 513.53318206 83.28517443 513.53215967 77.42481995 513.54866409 C71.91547814 513.56309585 66.40671188 513.5531103 60.89743233 513.52419281 C58.87416604 513.51757514 56.85085142 513.51949123 54.82760429 513.53050613 C52.0679663 513.54414617 49.31017885 513.52706487 46.55065918 513.50210571 C45.7476439 513.51325932 44.94462861 513.52441293 44.11727953 513.53590453 C40.05503396 513.46450836 38.19763213 513.0462468 34.97803497 510.48375511 C32.7994586 507.64120357 32.29248741 506.39799347 32.34765625 502.8671875 C32.33476562 502.0421875 32.321875 501.2171875 32.30859375 500.3671875 C33.27796571 496.71778718 35.0822235 495.2489142 37.97265625 492.8671875 C41.18037891 492.25194836 41.18037891 492.25194836 44.87593079 492.26591492 C45.5580726 492.26164279 46.24021442 492.25737067 46.9430272 492.25296909 C49.22221384 492.2447518 51.49954826 492.27219918 53.77856445 492.29956055 C55.4147487 492.30097131 57.05093612 492.30017849 58.68711853 492.29734802 C63.12497508 492.29591355 67.56215579 492.32530813 71.99985528 492.36021781 C76.63896269 492.39147619 81.27808563 492.39441164 85.9172821 492.40034485 C94.70042489 492.41588482 103.48325648 492.45691536 112.26626223 492.5070923 C122.26614393 492.56298097 132.26604049 492.59047106 142.26603949 492.61556947 C162.83508544 492.66783108 183.40385124 492.75577638 203.97265625 492.8671875 C203.90335185 488.72232517 203.81518515 484.57840253 203.71020508 480.43432617 C203.67713631 479.0272097 203.64904921 477.61996634 203.6262207 476.21264648 C203.59233826 474.17897926 203.54001407 472.14645615 203.484375 470.11328125 C203.44509888 468.28301392 203.44509888 468.28301392 203.4050293 466.41577148 C202.90591852 462.31945577 202.04933289 459.44147013 199.97265625 455.8671875 C195.63474295 453.95884431 191.83524419 453.61615298 187.13191319 453.61271191 C186.46524481 453.60950543 185.79857644 453.60629895 185.11170599 453.60299531 C182.87984825 453.59470002 180.64825919 453.60061784 178.41639709 453.60649109 C176.79928407 453.60347019 175.18217248 453.59958102 173.56506342 453.59489852 C169.12269227 453.58460189 164.68040168 453.58680458 160.23802388 453.59107912 C155.44653075 453.5935433 150.65505717 453.58453603 145.86357117 453.57704163 C136.47728496 453.56428428 127.09102734 453.56250221 117.70473392 453.56484189 C110.07669129 453.56662396 102.44865735 453.56487779 94.82061577 453.56061745 C93.73550816 453.56002226 92.65040056 453.55942707 91.5324109 453.55881384 C89.32811622 453.55760211 87.12382154 453.55638798 84.91952687 453.55517147 C64.24215626 453.54429205 43.56480195 453.54646039 22.88743042 453.55255631 C3.96499734 453.55772648 -14.95738427 453.54646811 -33.87980717 453.52745809 C-53.30381895 453.50809356 -72.72780637 453.49982122 -92.15182787 453.50358135 C-103.05917686 453.50549541 -113.96648204 453.5029858 -124.87382317 453.48886681 C-134.15872921 453.47696972 -143.44356446 453.47552935 -152.72847145 453.48765697 C-157.46652482 453.49355726 -162.2044486 453.49461335 -166.94249344 453.48265457 C-171.27947805 453.47183517 -175.61622427 453.47485197 -179.95319755 453.48891626 C-181.52244583 453.49157407 -183.09171256 453.48916275 -184.66094279 453.48118039 C-186.79450265 453.47108038 -188.92723284 453.47949019 -191.06075954 453.49245739 C-192.24565202 453.49240237 -193.4305445 453.49234736 -194.65134281 453.49229068 C-198.74667314 453.94706731 -201.37819473 454.95989509 -205.02734375 456.8671875 C-207.21861161 461.12162765 -207.32007763 465.28380871 -207.44140625 470.015625 C-207.4607724 470.67301666 -207.48013855 471.33040833 -207.50009155 472.00772095 C-207.55936836 474.08574885 -207.60606169 476.16383374 -207.65234375 478.2421875 C-207.69057153 479.660179 -207.72962598 481.07814847 -207.76953125 482.49609375 C-207.86502546 485.95292211 -207.94924564 489.40991733 -208.02734375 492.8671875 C-207.17643315 492.86257854 -206.32552256 492.85796957 -205.44882679 492.85322094 C-184.75103425 492.74283313 -164.0532924 492.66007539 -143.35526752 492.60812664 C-133.34586839 492.58233729 -123.33666566 492.54717278 -113.32739258 492.48999023 C-104.60401266 492.44017767 -95.88077497 492.4079018 -87.15725678 492.39674503 C-82.53749785 492.39022262 -77.91814583 492.37487806 -73.29851723 492.33853722 C-68.95070043 492.30461156 -64.60345836 492.29412751 -60.25552177 492.30164909 C-58.65954592 492.300273 -57.06355095 492.29031969 -55.46768951 492.27116013 C-53.28795975 492.24627338 -51.1103984 492.25226337 -48.93061829 492.26591492 C-47.71108617 492.26130595 -46.49155405 492.25669699 -45.23506641 492.25194836 C-41.1103487 493.04306656 -39.62664207 494.6413359 -37.02734375 497.8671875 C-36.36328125 500.3671875 -36.36328125 500.3671875 -36.40234375 502.8671875 C-36.38945312 503.6921875 -36.3765625 504.5171875 -36.36328125 505.3671875 C-37.34845502 509.07607699 -39.0383018 510.48819572 -42.02734375 512.8671875 C-45.0751677 513.35934447 -47.56176845 513.54437998 -50.60534668 513.50210571 C-51.46772052 513.50990567 -52.33009437 513.51770562 -53.21860075 513.52574193 C-56.10775718 513.54568285 -58.99559947 513.52988927 -61.88476562 513.51416016 C-63.95618967 513.52093534 -66.02760769 513.52983791 -68.09901428 513.54071045 C-73.72505752 513.56352197 -79.35064277 513.55465958 -84.97669411 513.53881502 C-90.86138783 513.52616575 -96.74604206 513.53789344 -102.6307373 513.54574585 C-112.51349944 513.55484522 -122.39607481 513.54284683 -132.27880859 513.51904297 C-143.70844282 513.49183129 -155.13763112 513.50064524 -166.56725454 513.528175 C-176.37630836 513.55085675 -186.18522785 513.55407067 -195.99429941 513.54098165 C-201.85466733 513.53318206 -207.71482557 513.53215967 -213.57518005 513.54866409 C-219.08452186 513.56309585 -224.59328812 513.5531103 -230.10256767 513.52419281 C-232.12583396 513.51757514 -234.14914858 513.51949123 -236.17239571 513.53050613 C-238.9320337 513.54414617 -241.68982115 513.52706487 -244.44934082 513.50210571 C-245.2523561 513.51325932 -246.05537139 513.52441293 -246.88272047 513.53590453 C-250.94496604 513.46450836 -252.80236787 513.0462468 -256.02196503 510.48375511 C-258.2005414 507.64120357 -258.70751259 506.39799347 -258.65234375 502.8671875 C-258.66523438 502.0421875 -258.678125 501.2171875 -258.69140625 500.3671875 C-257.64446933 496.42577793 -256.43390376 495.17222511 -253.02734375 492.8671875 C-248.74023467 492.25528629 -244.53398031 492.39740802 -240.21484375 492.5546875 C-239.04501953 492.57724609 -237.87519531 492.59980469 -236.66992188 492.62304688 C-233.78775606 492.68186659 -230.90820694 492.76401609 -228.02734375 492.8671875 C-228.05876465 491.77889648 -228.09018555 490.69060547 -228.12255859 489.56933594 C-228.23232189 485.47687155 -228.3004557 481.38453305 -228.35693359 477.29101562 C-228.38684595 475.52972434 -228.42759241 473.7685786 -228.47998047 472.0078125 C-228.82244159 460.1895463 -228.54636973 450.26302019 -220.28295898 440.88818359 C-213.7095946 434.5123374 -207.01714431 432.8671875 -198.02734375 432.8671875 C-198.35734375 353.9971875 -198.68734375 275.1271875 -199.02734375 193.8671875 C-205.36743076 199.05453141 -211.47463406 204.13388546 -217.50390625 209.62109375 C-220.9674488 212.70396831 -224.54856385 215.62310862 -228.171875 218.515625 C-230.20255679 220.18795118 -232.1235635 221.86335773 -234.0390625 223.65625 C-242.56841694 231.50724164 -242.56841694 231.50724164 -248.46484375 231.8046875 C-251.74831839 231.40813259 -253.23845902 230.74051834 -256.15234375 228.9921875 C-258.40600738 225.23608145 -258.62415471 222.67128603 -258.69140625 218.3671875 C-257.74309685 214.79708151 -255.75598079 213.30456553 -253.02734375 210.8671875 C-252.19976562 210.08859375 -251.3721875 209.31 -250.51953125 208.5078125 C-245.15305163 203.60589381 -239.68404993 198.90320686 -234.03125 194.3359375 C-228.56431905 189.84295914 -223.26058584 185.15972687 -217.92382812 180.51367188 C-213.22638852 176.4354622 -208.49250872 172.39946182 -203.765625 168.35546875 C-202.00781457 166.85046701 -200.25169929 165.34351047 -198.49609375 163.8359375 C-192.32367362 158.53664324 -186.13473304 153.2582138 -179.91943359 148.00927734 C-173.5931001 142.66240643 -167.31124796 137.26378918 -161.02734375 131.8671875 C-153.67883307 125.55630436 -146.31994058 119.2591437 -138.91943359 113.00927734 C-132.5931001 107.66240643 -126.31124796 102.26378918 -120.02734375 96.8671875 C-112.67883307 90.55630436 -105.31994058 84.2591437 -97.91943359 78.00927734 C-91.5931001 72.66240643 -85.31124796 67.26378918 -79.02734375 61.8671875 C-71.67883307 55.55630436 -64.31994058 49.2591437 -56.91943359 43.00927734 C-50.5931001 37.66240643 -44.31124796 32.26378918 -38.02734375 26.8671875 C-30.99872313 20.83102517 -23.96607194 14.79976692 -16.90234375 8.8046875 C-16.36988037 8.35150146 -15.83741699 7.89831543 -15.28881836 7.43139648 C-13.87575336 6.23450341 -12.45195955 5.0503086 -11.02734375 3.8671875 C-10.33640625 3.2896875 -9.64546875 2.7121875 -8.93359375 2.1171875 C-5.91085734 0.13506526 -3.57626424 -0.09480524 0 0 Z M-3.02734375 24.8671875 C-3.76597656 25.55683594 -4.50460938 26.24648438 -5.265625 26.95703125 C-11.04599629 32.32307691 -16.91523518 37.48183491 -23.05859375 42.43359375 C-28.51839396 46.90919313 -33.80660684 51.58553484 -39.13085938 56.22070312 C-43.82518896 60.29621275 -48.55633116 64.32902597 -53.28027344 68.37011719 C-55.06569999 69.90005509 -56.8477052 71.43389551 -58.62890625 72.96875 C-63.96284439 77.56095885 -69.30776588 82.12363707 -74.77734375 86.5546875 C-79.1588617 90.10986654 -83.34445056 93.83488287 -87.515625 97.6328125 C-90.02885607 99.86853283 -92.60045854 102.00096432 -95.21484375 104.1171875 C-101.65446368 109.33237265 -107.88189778 114.78050502 -114.13085938 120.22070312 C-118.82829898 124.2989128 -123.56217878 128.33491318 -128.2890625 132.37890625 C-130.04687293 133.88390799 -131.80298821 135.39086453 -133.55859375 136.8984375 C-139.72588822 142.19333115 -145.90935978 147.46777684 -152.11987305 152.71191406 C-160.7432755 159.98532987 -160.7432755 159.98532987 -169.25716394 167.38575971 C-171.02734375 168.8671875 -171.02734375 168.8671875 -172.85019737 170.08577979 C-175.69086465 172.10465055 -177.68892702 173.68364635 -178.66842353 177.10922885 C-178.91089248 179.88946943 -178.92680645 182.59299422 -178.86912537 185.38339233 C-178.87510634 186.44207539 -178.88108731 187.50075845 -178.88724953 188.59152281 C-178.8987804 192.13916996 -178.86028055 195.68449998 -178.82202148 199.23193359 C-178.82004701 201.77465765 -178.82115521 204.31738569 -178.82511902 206.86010742 C-178.82671305 212.33441014 -178.80686104 217.80796665 -178.76745415 223.28211594 C-178.71051712 231.19659835 -178.69232931 239.11079851 -178.68353821 247.02546354 C-178.66822513 259.86690808 -178.62166081 272.70804102 -178.55541992 285.54931641 C-178.49114759 298.02195707 -178.44168841 310.49451261 -178.41186523 322.96728516 C-178.40998925 323.74419295 -178.40811327 324.52110075 -178.40618044 325.3215512 C-178.39162413 331.39765687 -178.37792578 337.47376439 -178.3644985 343.54987264 C-178.29848564 373.32259695 -178.15765337 403.09454106 -178.02734375 432.8671875 C-123.24734375 432.8671875 -68.46734375 432.8671875 -12.02734375 432.8671875 C-12.02734375 416.3671875 -12.02734375 399.8671875 -12.02734375 382.8671875 C-21.05221588 376.28262272 -21.05221588 376.28262272 -30.27734375 370.02734375 C-31.55872413 369.18314057 -32.83997009 368.33873334 -34.12109375 367.49414062 C-36.07389408 366.21078099 -38.02788237 364.92933575 -39.984375 363.65161133 C-65.71215833 346.82736824 -85.35238928 326.32252151 -95.40234375 296.7421875 C-95.62897705 296.07533936 -95.85561035 295.40849121 -96.08911133 294.72143555 C-100.18536522 281.78873476 -101.57784061 269.26624462 -101.46484375 255.8046875 C-101.46078018 254.66356506 -101.46078018 254.66356506 -101.45663452 253.49938965 C-101.38748605 240.64080204 -100.33866341 228.34220057 -97.02734375 215.8671875 C-96.85074219 215.18930176 -96.67414063 214.51141602 -96.4921875 213.81298828 C-86.17581846 175.8239145 -58.08594365 147.72837814 -31.05151367 120.76098633 C-28.43485043 118.14975646 -25.82366965 115.53312735 -23.21289062 112.91601562 C-21.54589406 111.24967867 -19.87858797 109.58365129 -18.2109375 107.91796875 C-17.4328624 107.13786942 -16.65478729 106.35777008 -15.85313416 105.55403137 C-15.13130447 104.83535385 -14.40947479 104.11667633 -13.66577148 103.3762207 C-13.03356186 102.74480667 -12.40135223 102.11339264 -11.74998474 101.46284485 C-7.8814904 97.87951468 -5.02507875 97.09602912 0.10816956 97.26376343 C3.67790424 98.0157529 5.11127722 99.34097673 7.73803711 101.84619141 C8.60572723 102.66541077 9.47341736 103.48463013 10.36740112 104.32867432 C11.22713531 105.16638367 12.08686951 106.00409302 12.97265625 106.8671875 C13.73981964 107.6064447 14.50698303 108.3457019 15.2973938 109.10736084 C17.60377092 111.35145592 19.8869822 113.61682184 22.1640625 115.890625 C22.99421371 116.71744781 23.82436493 117.54427063 24.67967224 118.39614868 C26.41950419 120.13095892 28.15802171 121.86708833 29.89526367 123.60449219 C32.52697437 126.23401243 35.16659466 128.85541433 37.80664062 131.4765625 C45.9915991 139.6345662 53.88954089 147.72426383 60.97265625 156.8671875 C62.42466591 158.56013177 63.88246319 160.2481401 65.34765625 161.9296875 C91.80060165 194.34841953 100.71825576 235.01446225 96.65917969 276.03515625 C95.90203568 281.4649051 94.65152685 286.65297829 92.97265625 291.8671875 C92.65119629 292.89416748 92.65119629 292.89416748 92.32324219 293.94189453 C86.0680594 313.38577057 75.3837927 330.36709342 60.97265625 344.8671875 C60.44768555 345.39860352 59.92271484 345.93001953 59.38183594 346.47753906 C51.25176035 354.20171972 41.56683211 359.99543443 32.22265625 366.1171875 C29.55125356 367.87465119 26.88122728 369.6341563 24.21282959 371.3961792 C22.56202648 372.48550195 20.90932935 373.57196165 19.25445557 374.65509033 C18.1273819 375.39671417 18.1273819 375.39671417 16.97753906 376.15332031 C16.32295715 376.58219543 15.66837524 377.01107056 14.99395752 377.45294189 C12.57237546 379.14725231 10.28048326 381.02092589 7.97265625 382.8671875 C7.97265625 399.3671875 7.97265625 415.8671875 7.97265625 432.8671875 C62.75265625 432.8671875 117.53265625 432.8671875 173.97265625 432.8671875 C174.29317937 387.25597087 174.29317937 387.25597087 174.50976562 341.64453125 C174.53130136 335.49202148 174.55352641 329.33951478 174.5769043 323.18701172 C174.58125615 322.03038011 174.58125615 322.03038011 174.58569592 320.85038221 C174.6335042 308.4109305 174.720206 295.97203964 174.82133701 283.5329202 C174.92430153 270.76150675 174.98532306 257.99038634 175.00762969 245.21857488 C175.02270383 237.34093521 175.07026077 229.46488012 175.15973739 221.58772843 C175.22490743 215.5414433 175.23163994 209.49651328 175.21684074 203.44983673 C175.21986343 200.97382489 175.24169927 198.49775229 175.28391647 196.02209854 C176.12376323 182.98850439 176.12376323 182.98850439 171.62439919 171.27143478 C168.8606671 168.71321829 166.18805179 166.80881562 162.97265625 164.8671875 C161.20414706 163.45252094 159.4514216 162.01765593 157.72265625 160.5546875 C156.81644531 159.8225 155.91023438 159.0903125 154.9765625 158.3359375 C149.50963155 153.84295914 144.20589834 149.15972687 138.86914062 144.51367188 C135.89410466 141.93081367 132.90324542 139.36658318 129.91015625 136.8046875 C129.33749023 136.31452148 128.76482422 135.82435547 128.17480469 135.31933594 C127.02025187 134.3312989 125.86562959 133.34334302 124.7109375 132.35546875 C122.95312707 130.85046701 121.19701179 129.34351047 119.44140625 127.8359375 C113.80133207 122.99368567 108.15192658 118.16343736 102.47265625 113.3671875 C95.01387027 107.06810344 87.60850391 100.70723979 80.20214844 94.34667969 C73.97562386 89.00032645 67.74276235 83.6624092 61.47265625 78.3671875 C54.01387027 72.06810344 46.60850391 65.70723979 39.20214844 59.34667969 C32.45195961 53.55068652 25.69432634 47.7645952 18.88891602 42.03344727 C15.95657745 39.5604501 13.04469396 37.06658221 10.15234375 34.546875 C9.51748047 33.99580078 8.88261719 33.44472656 8.22851562 32.87695312 C6.99994755 31.80913227 5.77453539 30.73766653 4.55273438 29.66210938 C2.03586284 27.47848215 0.16749709 25.93213445 -3.02734375 24.8671875 Z M133.97265625 50.8671875 C133.74130297 58.92248797 133.52114809 66.9656432 133.40340424 75.02138519 C133.34551416 78.77295735 133.26831465 82.52175717 133.14282227 86.27172852 C133.02250617 89.89003553 132.95737765 93.50567187 132.92900658 97.12582588 C132.90881657 98.500403 132.86938165 99.8748478 132.80962563 101.24827385 C132.45321758 109.59516787 132.45321758 109.59516787 136.35766602 116.65936279 C139.13370651 118.94141985 141.95822081 120.91640669 144.97265625 122.8671875 C146.29222236 123.95525416 147.59720736 125.06191633 148.87109375 126.203125 C149.73420166 126.95589722 149.73420166 126.95589722 150.61474609 127.72387695 C151.18660645 128.22491943 151.7584668 128.72596191 152.34765625 129.2421875 C157.3278554 133.57809515 162.31891017 137.90011334 167.34765625 142.1796875 C167.90114746 142.65390137 168.45463867 143.12811523 169.02490234 143.61669922 C171.21830892 145.87840235 171.21830892 145.87840235 173.97265625 146.8671875 C173.97265625 115.1871875 173.97265625 83.5071875 173.97265625 50.8671875 C160.77265625 50.8671875 147.57265625 50.8671875 133.97265625 50.8671875 Z M-6.50805664 125.08911133 C-7.21962418 125.79437454 -7.93119171 126.49963776 -8.6643219 127.22627258 C-9.43509567 128.00109482 -10.20586945 128.77591705 -11 129.57421875 C-11.7970787 130.369384 -12.59415741 131.16454926 -13.41539001 131.98381042 C-15.11003794 133.67709338 -16.80214693 135.37292043 -18.49194336 137.07104492 C-21.0478378 139.63750786 -23.61402968 142.19331236 -26.18164062 144.74804688 C-34.2560399 152.81592426 -42.02253277 160.84445704 -49.02734375 169.8671875 C-50.52145519 171.6222177 -52.02096148 173.37267827 -53.52734375 175.1171875 C-72.09454104 197.88949916 -81.44183717 225.84391744 -81.40234375 255.0546875 C-81.40179993 255.7362793 -81.4012561 256.41787109 -81.4006958 257.12011719 C-81.36123909 267.89274681 -80.54234143 277.66270987 -77.02734375 287.8671875 C-76.61484375 289.11628906 -76.20234375 290.36539063 -75.77734375 291.65234375 C-67.19835039 316.00237612 -50.01521576 332.75646493 -29.02734375 346.8671875 C-27.55662653 347.87663578 -26.08655861 348.88703081 -24.6171875 349.8984375 C-23.25507169 350.82723231 -21.89184524 351.75440108 -20.52734375 352.6796875 C-19.89836182 353.10677002 -19.26937988 353.53385254 -18.62133789 353.97387695 C-15.58659213 356.16774875 -15.58659213 356.16774875 -12.02734375 356.8671875 C-6.85355593 317.48184659 -6.85355593 317.48184659 -17.96875 281.64453125 C-23.23450413 275.70099829 -29.5764652 270.81249259 -36.32177734 266.65478516 C-39.02734375 264.8671875 -39.02734375 264.8671875 -41.02734375 261.8671875 C-41.2578125 259.4921875 -41.2578125 259.4921875 -41.21484375 256.8671875 C-41.20839844 256.0009375 -41.20195312 255.1346875 -41.1953125 254.2421875 C-41.02734375 251.8671875 -41.02734375 251.8671875 -40.02734375 248.8671875 C-35.54672562 247.37364812 -31.6833285 246.82814006 -27.02734375 247.8671875 C-23.26120824 250.46865105 -20.22933834 253.61675937 -17.02734375 256.8671875 C-15.37026908 258.2124232 -13.70481461 259.54747274 -12.02734375 260.8671875 C-12.01703629 260.00941208 -12.00672882 259.15163666 -11.99610901 258.26786804 C-11.89818722 250.1895712 -11.7956803 242.11134842 -11.68800449 234.03317547 C-11.63280776 229.8799727 -11.57939293 225.72676285 -11.5300293 221.57348633 C-11.48233784 217.5663876 -11.42999326 213.55937436 -11.374403 209.5523777 C-11.35400112 208.0225722 -11.33528446 206.49274327 -11.31826973 204.96289635 C-11.2941777 202.82242738 -11.26412983 200.68211957 -11.23266602 198.54174805 C-11.21712173 197.32263229 -11.20157745 196.10351654 -11.18556213 194.84745789 C-11.02734375 191.8671875 -11.02734375 191.8671875 -10.02734375 188.8671875 C-7.07907612 187.88443162 -5.10081871 187.73304025 -2.02734375 187.7421875 C-1.16109375 187.73960937 -0.29484375 187.73703125 0.59765625 187.734375 C2.97265625 187.8671875 2.97265625 187.8671875 5.97265625 188.8671875 C7.1086881 192.27528304 7.13214578 194.94715201 7.17797852 198.54174805 C7.18787811 199.2151825 7.19777771 199.88861694 7.20797729 200.5824585 C7.23954014 202.80623877 7.264329 205.0300404 7.2890625 207.25390625 C7.30963654 208.79662122 7.33063313 210.3393306 7.35203552 211.8820343 C7.40720975 215.94096352 7.4566395 219.99994323 7.50488281 224.05895996 C7.55513179 228.20146168 7.61080012 232.34389016 7.66601562 236.48632812 C7.77354034 244.61321931 7.87499791 252.7401718 7.97265625 260.8671875 C9.09697371 259.91250308 10.22002071 258.95632233 11.3425293 257.99951172 C11.96806198 257.4671994 12.59359467 256.93488708 13.23808289 256.38644409 C14.55995238 255.22866145 15.82259567 254.00289638 17.0546875 252.75 C20.65818975 249.08955753 23.04631448 247.41287507 28.28515625 247.3671875 C31.14133406 247.54653932 33.23531677 247.95474101 35.97265625 248.8671875 C37.48209239 253.39549591 37.90677186 257.15548548 36.97265625 261.8671875 C33.14737576 267.43778648 28.07214742 271.9105292 22.76269531 276.03222656 C14.64996841 282.5252299 7.60630711 288.77845385 6.35742188 299.57226562 C5.69456511 307.49849012 6.11679294 315.4476071 6.59936523 323.37200928 C6.80729276 327.15845184 6.89598114 330.9477279 6.99609375 334.73828125 C7.20802385 342.12209399 7.54723508 349.49225586 7.97265625 356.8671875 C11.31913361 355.56564549 14.19458456 354.2105199 17.16015625 352.1796875 C17.93520508 351.65068848 18.71025391 351.12168945 19.50878906 350.57666016 C20.32186523 350.01253418 21.13494141 349.4484082 21.97265625 348.8671875 C22.8140918 348.28630371 23.65552734 347.70541992 24.52246094 347.10693359 C51.13289533 328.61364621 70.42552097 306.33784687 76.59326172 273.7109375 C77.37842076 267.82578146 77.35563998 261.9208338 77.34765625 255.9921875 C77.34711243 255.31010223 77.3465686 254.62801697 77.3460083 253.92526245 C77.21784886 218.85725042 62.98137604 188.7128438 39.203125 163.2734375 C37.35318778 161.27770838 35.57146065 159.25006597 33.79541016 157.18945312 C30.20065605 153.07590664 26.43664151 149.1699587 22.578125 145.3046875 C21.90469559 144.62792969 21.23126617 143.95117188 20.53742981 143.25390625 C19.12952762 141.84098566 17.72030907 140.42937559 16.30981445 139.01904297 C14.14310857 136.8501224 11.98455973 134.67328843 9.82617188 132.49609375 C8.45231144 131.11930401 7.07797969 129.74298438 5.703125 128.3671875 C5.05731979 127.71419678 4.41151459 127.06120605 3.74613953 126.38842773 C3.14824112 125.79360596 2.55034271 125.19878418 1.93432617 124.5859375 C1.40916916 124.05935547 0.88401215 123.53277344 0.34294128 122.99023438 C-2.69325057 120.50185737 -4.19790856 122.78483794 -6.50805664 125.08911133 Z " fill="#4d1300" transform="translate(258.02734375,-0.8671875)"/>
<path d="M0 0 C3.125 1.875 3.125 1.875 5 5 C5.98876625 10.02622846 5.7769173 13.70513784 3.125 18.125 C-1.29486216 20.7769173 -4.97377154 20.98876625 -10 20 C-13.125 18.125 -13.125 18.125 -15 15 C-15.98876625 9.97377154 -15.7769173 6.29486216 -13.125 1.875 C-8.70513784 -0.7769173 -5.02622846 -0.98876625 0 0 Z " fill="#4d1300" transform="translate(261,492)"/>
</svg>
