<?xml version="1.0" encoding="UTF-8"?>
<svg version="1.1" xmlns="http://www.w3.org/2000/svg" width="512" height="512">
<path d="M0 0 C4.87464888 1.50057498 8.42314671 5.32018785 12.14453125 8.66015625 C13.22759693 9.59059298 14.31367435 10.51753251 15.40234375 11.44140625 C18.39065955 13.97863955 21.36244254 16.53433209 24.33007812 19.09570312 C27.26239399 21.623997 30.20371772 24.14175723 33.14453125 26.66015625 C36.68327427 29.69116873 40.22022865 32.72416571 43.75 35.765625 C49.08288447 40.35622178 54.4263907 44.91777023 59.89453125 49.34765625 C64.2760492 52.90283529 68.46163806 56.62785162 72.6328125 60.42578125 C76.03045978 63.44826063 79.56342634 66.28810736 83.09765625 69.1484375 C87.23746644 72.56112718 91.28007753 76.08073103 95.31518555 79.61621094 C101.17292568 84.73331726 107.15825205 89.69482169 113.14453125 94.66015625 C113.14817688 93.94463089 113.15182251 93.22910553 113.15557861 92.49189758 C113.19349414 85.73847875 113.25038663 78.98551506 113.32843399 72.23243427 C113.36789153 68.76081301 113.40008795 65.28944471 113.41552734 61.81762695 C113.43361186 57.82331847 113.48356967 53.82995482 113.53515625 49.8359375 C113.53638489 48.59306473 113.53761353 47.35019196 113.53887939 46.06965637 C113.55859802 44.90883041 113.57831665 43.74800446 113.59863281 42.55200195 C113.60751526 41.53274124 113.61639771 40.51348053 113.62554932 39.46333313 C114.27959096 35.9306583 115.69026424 34.23576823 118.14453125 31.66015625 C120.97402561 30.24540907 123.37023722 30.5093631 126.53442383 30.4831543 C127.18992722 30.4765831 127.8454306 30.4700119 128.52079773 30.46324158 C130.69355379 30.44350569 132.86624071 30.43184508 135.0390625 30.421875 C135.78120184 30.41779947 136.52334118 30.41372395 137.28796959 30.40952492 C141.21647234 30.38866234 145.14494015 30.37436181 149.07348633 30.36499023 C153.12897247 30.3539288 157.18390946 30.31953323 161.23920155 30.27981853 C164.35935986 30.2536575 167.47938727 30.24529887 170.59964561 30.24170876 C172.09436436 30.23684095 173.58907718 30.22522127 175.08368874 30.20667076 C177.17838502 30.18228962 179.27165999 30.18324137 181.36645508 30.19018555 C183.15277092 30.18138618 183.15277092 30.18138618 184.97517395 30.17240906 C188.77995932 30.75794524 190.42225713 31.99292073 193.14453125 34.66015625 C194.40519075 37.18147524 194.25528318 38.87730927 194.23545837 41.69947815 C194.23079559 42.76623276 194.22613281 43.83298737 194.22132874 44.93206787 C194.20639626 46.69541473 194.20639626 46.69541473 194.19116211 48.49438477 C194.17838375 51.0534296 194.16594357 53.61247615 194.15379333 56.17152405 C194.14790988 57.18441992 194.14790988 57.18441992 194.14190757 58.21777833 C194.11314325 63.17027894 194.10155895 68.1225994 194.10047913 73.07518005 C194.10029736 73.79395075 194.10011559 74.51272144 194.09992832 75.25327307 C194.09947832 78.21975562 194.09956078 81.186238 194.09976375 84.15272057 C194.0994993 92.56999297 194.08287024 100.98652164 194.01782227 109.40356445 C193.96627332 116.0888027 193.95023553 122.77307755 193.97528368 129.45848221 C193.98719795 132.99464413 193.98146387 136.52875074 193.93260002 140.06463814 C193.87844273 144.01722694 193.90288372 147.96728102 193.93334961 151.92016602 C193.90517654 153.08156097 193.87700348 154.24295593 193.84797668 155.43954468 C193.9408092 160.30842299 194.15333389 163.42968893 197.26935005 167.29789543 C199.79878599 169.60220845 202.38240346 171.64349502 205.14453125 173.66015625 C206.87957255 175.06962193 208.60947219 176.48546257 210.33203125 177.91015625 C211.24726563 178.65136719 212.1625 179.39257812 213.10546875 180.15625 C217.91340321 184.11754304 222.59512717 188.22187055 227.29296875 192.3125 C231.03873513 195.57368749 234.80763533 198.80718899 238.58203125 202.03515625 C240.26752669 203.47949835 241.9526704 204.92424964 243.63769531 206.36914062 C245.01105978 207.54580156 246.38628968 208.72028434 247.76171875 209.89453125 C248.48617188 210.5184375 249.210625 211.14234375 249.95703125 211.78515625 C250.86388672 212.56246094 250.86388672 212.56246094 251.7890625 213.35546875 C254.22004557 215.69537753 254.17131496 216.98691749 254.45703125 220.47265625 C254.42685149 223.79242952 254.15063005 224.65060146 252.26953125 227.59765625 C249.51452254 230.2716353 248.49970146 230.60307532 244.64453125 231.22265625 C238.36521423 231.09887043 234.58749025 226.64774272 230.14453125 222.66015625 C229.06146557 221.72971952 227.97538815 220.80277999 226.88671875 219.87890625 C223.90870823 217.35039881 220.94714291 214.80354354 217.98974609 212.25097656 C214.90160609 209.58858965 211.80385679 206.93742939 208.70703125 204.28515625 C207.60412143 203.33989653 206.50125538 202.39458573 205.3984375 201.44921875 C204.32464844 200.52882812 203.25085938 199.6084375 202.14453125 198.66015625 C199.83453125 196.68015625 197.52453125 194.70015625 195.14453125 192.66015625 C194.81453125 271.86015625 194.48453125 351.06015625 194.14453125 432.66015625 C197.44453125 432.99015625 200.74453125 433.32015625 204.14453125 433.66015625 C211.37068237 436.16718827 218.19051681 442.14026273 221.64453125 448.97265625 C223.79930204 454.26980111 224.27893462 458.39488152 224.2421875 464.046875 C224.24006508 465.27238823 224.24006508 465.27238823 224.23789978 466.5226593 C224.23230419 469.13102893 224.21975254 471.73931259 224.20703125 474.34765625 C224.20201568 476.11653522 224.19745287 477.88541553 224.19335938 479.65429688 C224.18233621 483.98961644 224.16507463 488.32487177 224.14453125 492.66015625 C224.84537842 492.63920898 225.54622559 492.61826172 226.26831055 492.59667969 C229.45607044 492.51332577 232.64360077 492.46143486 235.83203125 492.41015625 C236.93482422 492.37664062 238.03761719 492.343125 239.17382812 492.30859375 C247.37996596 492.20942592 247.37996596 492.20942592 251.3515625 494.55078125 C254.17459259 497.87199312 254.4772802 500.24527143 254.4375 504.62109375 C253.98198158 507.79150192 252.39137468 509.47939645 250.14453125 511.66015625 C246.95639877 513.25422249 243.50504878 512.80813029 240.0032196 512.80732727 C239.15157614 512.81100396 238.29993268 512.81468065 237.42248183 512.81846875 C234.55207499 512.82953327 231.68170431 512.83335409 228.8112793 512.8371582 C226.76000859 512.84342071 224.70873902 512.85006732 222.6574707 512.85707092 C217.07272473 512.87449922 211.48798733 512.88503744 205.90322089 512.89327645 C202.41662238 512.89842219 198.93002656 512.90449808 195.44342995 512.91078758 C184.54205789 512.92984382 173.64069263 512.94407465 162.73930711 512.95239955 C150.14157494 512.96217787 137.54401821 512.98851118 124.94634789 513.02890044 C115.21807061 513.05902355 105.48984372 513.07386477 95.76152068 513.07718056 C89.94693435 513.07953519 84.13253534 513.08854936 78.31799889 513.11364174 C72.84903577 513.13686119 67.38038414 513.14118036 61.91138458 513.13088036 C59.90261361 513.13038341 57.89382763 513.13675041 55.88510323 513.1504364 C53.14529022 513.16806105 50.4066065 513.16109586 47.66679382 513.14790344 C46.4708742 513.16435731 46.4708742 513.16435731 45.25079459 513.18114358 C41.50226857 513.13748477 39.361334 512.79924532 36.17438984 510.75467205 C33.03782546 507.5181985 32.81060753 505.20426494 32.8515625 500.69921875 C33.30708092 497.52881058 34.89768782 495.84091605 37.14453125 493.66015625 C40.009264 492.22778987 42.44583425 492.53747135 45.64907837 492.53990173 C46.32457336 492.53904731 47.00006835 492.53819288 47.69603288 492.53731257 C49.97007064 492.53565932 52.24403539 492.54117659 54.51806641 492.54663086 C56.14395648 492.54691279 57.76984669 492.54675488 59.39573669 492.54618835 C63.81904199 492.54590061 68.24232035 492.55179362 72.66561937 492.55876231 C77.28475846 492.56499969 81.90389812 492.56559995 86.52304077 492.56678772 C95.27426566 492.5698999 104.02547811 492.57811177 112.77669752 492.58813721 C122.7378586 492.59930186 132.69902027 492.60480969 142.66018605 492.60983264 C163.15497474 492.62029447 183.64975221 492.63789173 204.14453125 492.66015625 C204.07535775 488.35458343 203.98725111 484.04992603 203.88208008 479.74511719 C203.8489599 478.28265917 203.8208882 476.8200773 203.7980957 475.35742188 C203.7643095 473.24686222 203.71198745 471.13742439 203.65625 469.02734375 C203.63006592 467.76003418 203.60388184 466.49272461 203.5769043 465.18701172 C203.10203087 461.31348179 202.31145751 458.90296898 200.14453125 455.66015625 C196.19627998 453.58507476 192.80906035 453.40889272 188.39280796 453.40568066 C187.72361709 453.40247418 187.05442621 453.3992677 186.36495683 453.39596406 C184.11850739 453.38765066 181.87232364 453.39359293 179.62586975 453.39945984 C178.0006575 453.39643977 176.37544667 453.39255101 174.75023836 453.38786727 C170.28087429 453.37755998 165.81159019 453.37977603 161.34221947 453.38404787 C156.52346114 453.38651013 151.70472231 453.37750717 146.88597107 453.37001038 C137.44440374 453.35724761 128.00286483 453.35547163 118.56129033 453.35781064 C110.88887882 453.35959213 103.21647595 453.3578478 95.54406548 453.3535862 C94.45298293 453.35299101 93.36190039 453.35239582 92.23775474 453.35178259 C90.0213788 453.35057087 87.80500286 453.34935674 85.58862691 453.34814022 C64.79397537 453.33725869 43.99934004 453.33943013 23.20468759 453.34552506 C4.17158454 453.35069529 -14.86146734 453.33943708 -33.89456027 453.32042684 C-53.42814674 453.30106595 -72.96170899 453.29278934 -92.49530512 453.2965501 C-103.46579424 453.29846473 -114.43623981 453.29594902 -125.40672112 453.28183556 C-134.74547863 453.26994309 -144.08416577 453.26849287 -153.42292421 453.28062572 C-158.18920019 453.28652931 -162.95534732 453.28757307 -167.72161484 453.27562332 C-172.08325893 453.26481493 -176.4446658 453.26780743 -180.80629856 453.28188501 C-182.38565308 453.28454589 -183.9650259 453.28212201 -185.54436254 453.27414914 C-187.68916402 453.2640717 -189.83313631 453.27243965 -191.97790432 453.28542614 C-193.16979412 453.28537112 -194.36168391 453.28531611 -195.58969158 453.28525943 C-199.28089765 453.70899361 -201.69386557 454.73524267 -204.85546875 456.66015625 C-207.20929694 460.55636806 -207.15895942 464.45152827 -207.26953125 468.9296875 C-207.2888974 469.61069016 -207.30826355 470.29169281 -207.32821655 470.99333191 C-207.38765007 473.15298218 -207.43425075 475.31268682 -207.48046875 477.47265625 C-207.51868203 478.94338169 -207.55773569 480.41408554 -207.59765625 481.88476562 C-207.69332058 485.47636414 -207.7774845 489.06812538 -207.85546875 492.66015625 C-207.00971189 492.65646908 -206.16395502 492.65278191 -205.29256916 492.648983 C-184.71993308 492.56067192 -164.14732964 492.49446608 -143.57454395 492.45290756 C-133.62571725 492.43227633 -123.67701702 492.404145 -113.72827148 492.35839844 C-105.05762975 492.31854787 -96.3870796 492.29272752 -87.71634883 492.28380227 C-83.12459934 492.2785845 -78.53311187 492.26630923 -73.9414463 492.23723602 C-69.61994833 492.21009502 -65.29882044 492.20170856 -60.97724533 492.20772552 C-59.39095613 492.20662469 -57.80465462 492.1986628 -56.2184391 492.18333435 C-54.05209789 492.16342594 -51.88715307 492.16821875 -49.72077942 492.17913818 C-48.50862164 492.17545101 -47.29646387 492.17176384 -46.04757404 492.16796494 C-42.22984844 492.75662076 -40.58436 493.98048761 -37.85546875 496.66015625 C-36.25460248 499.86188879 -36.35629786 503.18592684 -36.85546875 506.66015625 C-38.64910786 509.47019085 -39.8742781 511.16956093 -42.85546875 512.66015625 C-45.57746067 512.76465625 -48.27424437 512.80795159 -50.9967804 512.80732727 C-51.84842386 512.81100396 -52.70006732 512.81468065 -53.57751817 512.81846875 C-56.44792501 512.82953327 -59.31829569 512.83335409 -62.1887207 512.8371582 C-64.23999141 512.84342071 -66.29126098 512.85006732 -68.3425293 512.85707092 C-73.92727527 512.87449922 -79.51201267 512.88503744 -85.09677911 512.89327645 C-88.58337762 512.89842219 -92.06997344 512.90449808 -95.55657005 512.91078758 C-106.45794211 512.92984382 -117.35930737 512.94407465 -128.26069289 512.95239955 C-140.85842506 512.96217787 -153.45598179 512.98851118 -166.05365211 513.02890044 C-175.78192939 513.05902355 -185.51015628 513.07386477 -195.23847932 513.07718056 C-201.05306565 513.07953519 -206.86746466 513.08854936 -212.68200111 513.11364174 C-218.15096423 513.13686119 -223.61961586 513.14118036 -229.08861542 513.13088036 C-231.09738639 513.13038341 -233.10617237 513.13675041 -235.11489677 513.1504364 C-237.85470978 513.16806105 -240.5933935 513.16109586 -243.33320618 513.14790344 C-244.5291258 513.16435731 -244.5291258 513.16435731 -245.74920541 513.18114358 C-249.49773143 513.13748477 -251.638666 512.79924532 -254.82561016 510.75467205 C-257.96217454 507.5181985 -258.18939247 505.20426494 -258.1484375 500.69921875 C-257.69291908 497.52881058 -256.10231218 495.84091605 -253.85546875 493.66015625 C-251.24595639 492.35540007 -249.3284559 492.54714053 -246.41015625 492.5625 C-245.33378906 492.56572266 -244.25742188 492.56894531 -243.1484375 492.57226562 C-242.02050781 492.58064453 -240.89257812 492.58902344 -239.73046875 492.59765625 C-238.59480469 492.60216797 -237.45914063 492.60667969 -236.2890625 492.61132812 C-233.47781237 492.6231401 -230.66666645 492.63961118 -227.85546875 492.66015625 C-227.8711792 491.61674072 -227.88688965 490.5733252 -227.90307617 489.49829102 C-227.95778597 485.59016785 -227.99196657 481.68207786 -228.02026367 477.77368164 C-228.03525749 476.08905323 -228.05565948 474.40446322 -228.08178711 472.7199707 C-228.28608597 459.20019325 -228.02031341 450.07181605 -218.2734375 439.83203125 C-212.11724918 434.30240168 -206.08524758 432.66015625 -197.85546875 432.66015625 C-198.18546875 353.46015625 -198.51546875 274.26015625 -198.85546875 192.66015625 C-202.48546875 195.96015625 -206.11546875 199.26015625 -209.85546875 202.66015625 C-215.41796875 207.22265625 -215.41796875 207.22265625 -218.1796875 209.44921875 C-220.7739531 211.59280172 -223.25524473 213.8183708 -225.73046875 216.09765625 C-229.5756787 219.56324356 -233.46568697 222.95563484 -237.48046875 226.22265625 C-237.99464355 226.66472412 -238.50881836 227.10679199 -239.03857422 227.56225586 C-243.46902114 231.08376737 -246.43409541 231.22523232 -251.85546875 230.66015625 C-254.66550335 228.86651714 -256.36487343 227.6413469 -257.85546875 224.66015625 C-258.63360087 218.10161411 -258.63360087 218.10161411 -256.90234375 214.89453125 C-253.14119891 210.26875541 -248.35429161 206.67948799 -243.71484375 202.98046875 C-241.00988065 200.78545771 -238.42624846 198.50988165 -235.85546875 196.16015625 C-232.53557389 193.13733204 -229.15782763 190.23503464 -225.66796875 187.41015625 C-219.22834882 182.1949711 -213.00091472 176.74683873 -206.75195312 171.30664062 C-202.05451352 167.22843095 -197.32063372 163.19243057 -192.59375 159.1484375 C-190.83593957 157.64343576 -189.07982429 156.13647922 -187.32421875 154.62890625 C-181.15179862 149.32961199 -174.96285804 144.05118255 -168.74755859 138.80224609 C-162.4212251 133.45537518 -156.13937296 128.05675793 -149.85546875 122.66015625 C-142.50695807 116.34927311 -135.14806558 110.05211245 -127.74755859 103.80224609 C-121.4212251 98.45537518 -115.13937296 93.05675793 -108.85546875 87.66015625 C-101.50695807 81.34927311 -94.14806558 75.05211245 -86.74755859 68.80224609 C-80.4212251 63.45537518 -74.13937296 58.05675793 -67.85546875 52.66015625 C-60.50695807 46.34927311 -53.14806558 40.05211245 -45.74755859 33.80224609 C-41.7908095 30.45809317 -37.85044832 27.09530556 -33.91796875 23.72265625 C-33.34167725 23.22886475 -32.76538574 22.73507324 -32.17163086 22.22631836 C-29.14249729 19.62901449 -26.11998993 17.02440905 -23.10546875 14.41015625 C-22.48792725 13.87640381 -21.87038574 13.34265137 -21.23413086 12.79272461 C-20.06613328 11.78299314 -18.9001115 10.77096923 -17.73657227 9.75610352 C-5.922244 -0.44162049 -5.922244 -0.44162049 0 0 Z M-9.60546875 30.41015625 C-10.97232532 31.61105385 -12.3395204 32.81156625 -13.70703125 34.01171875 C-14.40086914 34.62305664 -15.09470703 35.23439453 -15.80957031 35.86425781 C-18.84550924 38.52921805 -21.91054302 41.15949337 -24.98046875 43.78515625 C-25.55571289 44.27790039 -26.13095703 44.77064453 -26.72363281 45.27832031 C-31.12220438 49.04250635 -35.54061745 52.78289532 -39.96362305 56.51831055 C-46.28994164 61.86502076 -52.57165212 67.26362978 -58.85546875 72.66015625 C-66.20397943 78.97103939 -73.56287192 85.26820005 -80.96337891 91.51806641 C-87.2897124 96.86493732 -93.57156454 102.26355457 -99.85546875 107.66015625 C-107.20397943 113.97103939 -114.56287192 120.26820005 -121.96337891 126.51806641 C-128.2897124 131.86493732 -134.57156454 137.26355457 -140.85546875 142.66015625 C-147.76062638 148.59028886 -154.66846459 154.51727636 -161.60546875 160.41015625 C-163.10062624 161.6814399 -164.59450439 162.95500447 -166.05295753 164.26823425 C-167.85546875 165.66015625 -167.85546875 165.66015625 -170.32806969 166.81245422 C-173.80683038 168.74193558 -175.59251504 170.35179711 -177.85546875 173.66015625 C-179.86793672 181.60327779 -179.11572978 190.22342916 -178.99072266 198.34375 C-178.98790104 200.89662057 -178.98948697 203.44949926 -178.99514771 206.00236511 C-178.99742259 211.49276849 -178.96912494 216.9816503 -178.91276932 222.47174072 C-178.83134645 230.40903422 -178.80543992 238.34575376 -178.7928894 246.28341961 C-178.77102642 259.16274295 -178.70454192 272.04143137 -178.60986328 284.92041016 C-178.51801173 297.42786543 -178.44737277 309.93514711 -178.40478516 322.44287109 C-178.40210518 323.2222604 -178.39942521 324.0016497 -178.39666402 324.80465686 C-178.37586865 330.90038824 -178.35629981 336.9961234 -178.33711839 343.09186006 C-178.24285471 372.94854163 -178.04165827 402.80363303 -177.85546875 432.66015625 C-123.07546875 432.66015625 -68.29546875 432.66015625 -11.85546875 432.66015625 C-11.85546875 415.83015625 -11.85546875 399.00015625 -11.85546875 381.66015625 C-24.6212996 371.05014451 -32.32669293 364.66441306 -46.3996582 357.91186523 C-51.88183941 355.23951907 -56.40742665 351.81612676 -60.85546875 347.66015625 C-61.45617187 347.12253662 -62.056875 346.58491699 -62.67578125 346.03100586 C-73.84645861 335.82091604 -82.06751601 324.19624968 -88.85546875 310.66015625 C-89.28472656 309.82484375 -89.71398437 308.98953125 -90.15625 308.12890625 C-92.82416924 302.64439116 -94.7935069 297.05160108 -96.54296875 291.22265625 C-96.74543213 290.55540527 -96.94789551 289.8881543 -97.15649414 289.20068359 C-100.36467525 278.04493252 -101.21649552 267.11235847 -101.16796875 255.53515625 C-101.16647827 254.85550812 -101.16498779 254.17585999 -101.16345215 253.47561646 C-101.1206562 242.59762215 -100.39822936 232.24589784 -97.85546875 221.66015625 C-97.56542969 220.45101562 -97.27539062 219.241875 -96.9765625 217.99609375 C-89.10400401 188.28459684 -72.36766366 165.06163227 -51.85546875 142.66015625 C-50.98921875 141.70109375 -50.12296875 140.74203125 -49.23046875 139.75390625 C-41.29348363 130.98615779 -33.19509212 122.42472141 -24.171875 114.7578125 C-20.15873007 111.12364922 -16.39221304 107.2346732 -12.60229492 103.36987305 C-12.01810791 102.77730713 -11.4339209 102.18474121 -10.83203125 101.57421875 C-10.30689941 101.03748535 -9.78176758 100.50075195 -9.24072266 99.94775391 C-6.57620262 97.47107455 -3.79182736 97.01186395 -0.1875 97.0703125 C4.99497584 98.38112297 8.52249057 102.95251343 12.14453125 106.66015625 C13.06878906 107.58441406 13.99304688 108.50867188 14.9453125 109.4609375 C16.82552805 111.34115305 18.70055688 113.22656989 20.5703125 115.1171875 C22.64442648 117.16612255 24.73422997 119.09109525 26.95703125 120.97265625 C35.39104738 128.18687666 43.36808003 136.29239311 50.52734375 144.76953125 C51.69974741 146.14016741 52.9079414 147.48044794 54.13671875 148.80078125 C85.21297531 182.19946268 98.6315396 221.42492471 97.328125 266.89648438 C96.9442281 274.76637077 95.36523191 282.12668661 93.14453125 289.66015625 C92.96792969 290.30758789 92.79132813 290.95501953 92.609375 291.62207031 C87.19590973 311.34111882 76.04011005 327.89610377 62.14453125 342.66015625 C61.56703125 343.31371094 60.98953125 343.96726562 60.39453125 344.640625 C56.3400667 349.02994488 51.79525172 352.51147223 46.95703125 355.97265625 C46.26488525 356.4931958 45.57273926 357.01373535 44.85961914 357.55004883 C39.97458661 361.09184092 35.17179816 363.55742059 29.58984375 365.86328125 C19.99101245 370.03929398 19.99101245 370.03929398 8.14453125 381.66015625 C8.14453125 398.49015625 8.14453125 415.32015625 8.14453125 432.66015625 C62.92453125 432.66015625 117.70453125 432.66015625 174.14453125 432.66015625 C174.46503245 386.84679071 174.46503245 386.84679071 174.68164062 341.03320312 C174.70317663 334.85473308 174.72540177 328.6762661 174.7487793 322.49780273 C174.75313115 321.3362771 174.75313115 321.3362771 174.75757092 320.1512863 C174.8053903 307.65620497 174.89209825 295.16168149 174.99321201 282.66693074 C175.09614556 269.84015133 175.15719153 257.01366357 175.17950469 244.18648809 C175.19458523 236.27353334 175.24217718 228.3621547 175.33161239 220.44968527 C175.39673568 214.3781696 175.40352272 208.30800425 175.38871574 202.23609924 C175.39174065 199.74837993 175.41360603 197.26060067 175.45579147 194.77323723 C176.36908172 181.81949946 176.36908172 181.81949946 171.78748512 170.29565239 C169.0055811 167.99622822 166.31179308 166.36724422 163.14453125 164.66015625 C161.44008099 163.20323241 159.76757066 161.70725704 158.14453125 160.16015625 C154.82463639 157.13733204 151.44689013 154.23503464 147.95703125 151.41015625 C141.51904219 146.19629187 135.29289559 140.74974372 129.04541016 135.31103516 C121.09847443 128.4092654 113.07775226 121.59328339 105.03637695 114.80200195 C98.11591594 108.9531502 91.24798578 103.04299062 84.37402344 97.13964844 C78.14749886 91.7932952 71.91463735 86.45537795 65.64453125 81.16015625 C58.18574527 74.86107219 50.78037891 68.50020854 43.37402344 62.13964844 C36.62186447 56.34196363 29.8576602 50.55986078 23.05639648 44.81982422 C18.31403295 40.81368167 13.60192883 36.77270792 8.90039062 32.71875 C-0.05367115 24.2679213 -0.05367115 24.2679213 -9.60546875 30.41015625 Z M134.14453125 50.66015625 C133.82831241 58.64995223 133.52839157 66.616722 133.3682785 74.60735321 C133.28953283 78.32864347 133.18470843 82.04468278 133.01293945 85.76293945 C131.46528991 103.01991071 131.46528991 103.01991071 137.29321289 118.35864258 C140.29716059 121.23829686 143.54805768 123.41491302 147.16339111 125.45265198 C150.60073769 127.5477136 153.478911 130.28361932 156.45703125 132.97265625 C164.77122631 141.58943441 164.77122631 141.58943441 174.14453125 146.66015625 C174.14453125 114.98015625 174.14453125 83.30015625 174.14453125 50.66015625 C160.94453125 50.66015625 147.74453125 50.66015625 134.14453125 50.66015625 Z M-6.61157227 125.1574707 C-7.38320206 125.92279617 -8.15483185 126.68812164 -8.94984436 127.47663879 C-10.20443703 128.73730415 -10.20443703 128.73730415 -11.484375 130.0234375 C-12.34804184 130.88519089 -13.21170868 131.74694427 -14.10154724 132.6348114 C-15.93743047 134.46932963 -17.77077449 136.30639184 -19.60180664 138.14575195 C-22.3749764 140.9294999 -25.15847037 143.7025916 -27.94335938 146.47460938 C-29.72850511 148.26107893 -31.51302916 150.04816996 -33.296875 151.8359375 C-34.53021324 153.06320305 -34.53021324 153.06320305 -35.78846741 154.31526184 C-41.55210979 160.12468485 -46.76785914 166.25378451 -51.85546875 172.66015625 C-52.31627335 173.22992188 -52.77707794 173.7996875 -53.25184631 174.38671875 C-74.07986097 200.26694467 -84.56717448 233.30493188 -81.3828125 266.5234375 C-77.91818127 295.78109802 -63.67877787 320.12275098 -40.85546875 338.66015625 C-36.75139763 341.69868519 -32.51339931 344.54451164 -28.26855469 347.38134766 C-26.32654948 348.67948743 -24.39138588 349.98736846 -22.45703125 351.296875 C-21.22563716 352.12686131 -19.99388014 352.95630948 -18.76171875 353.78515625 C-17.89311218 354.37091431 -17.89311218 354.37091431 -17.00695801 354.96850586 C-14.62702748 356.85401025 -14.62702748 356.85401025 -11.85546875 357.66015625 C-11.00944207 347.08495976 -10.43150564 336.51359305 -10.10546875 325.91015625 C-10.06973692 324.75200346 -10.06973692 324.75200346 -10.03328323 323.57045364 C-9.03451536 299.07935565 -9.03451536 299.07935565 -19.90646362 277.95895386 C-25.08193388 272.75131477 -30.93361146 268.25414044 -37.17163086 264.39428711 C-39.85546875 262.66015625 -39.85546875 262.66015625 -40.85546875 260.66015625 C-41.54118304 253.68872768 -41.54118304 253.68872768 -38.85546875 249.66015625 C-35.85378608 247.65903447 -33.75287269 246.69227908 -30.1015625 246.90625 C-26.05151957 248.26565572 -23.33735146 251.24773777 -20.34765625 254.203125 C-18.50421068 256.02056585 -16.68892959 257.67265478 -14.69970703 259.3137207 C-13.29180908 260.4752063 -13.29180908 260.4752063 -11.85546875 261.66015625 C-11.85404373 260.80682205 -11.85261871 259.95348785 -11.85115051 259.07429504 C-11.83330874 251.02584862 -11.79166071 242.97795137 -11.72337818 234.92976856 C-11.68911112 230.79221687 -11.66399873 226.65503429 -11.65991211 222.51733398 C-11.65562841 218.52289214 -11.62716118 214.52928288 -11.58203697 210.53510094 C-11.56906401 209.01255839 -11.56475363 207.48991619 -11.56931496 205.96732521 C-11.57422308 203.83122905 -11.54812722 201.69756444 -11.51489258 199.56176758 C-11.50823074 198.34709305 -11.50156891 197.13241852 -11.4947052 195.88093567 C-10.67844737 191.76823773 -9.05975773 190.2731179 -5.85546875 187.66015625 C-3.79296875 186.99609375 -3.79296875 186.99609375 -1.85546875 187.03515625 C-0.89640625 187.01582031 -0.89640625 187.01582031 0.08203125 186.99609375 C3.38902896 188.0608468 4.94271422 190.02246877 7.14453125 192.66015625 C7.7837677 195.88093567 7.7837677 195.88093567 7.80395508 199.56176758 C7.81443878 200.23549408 7.82492249 200.90922058 7.83572388 201.60336304 C7.86438604 203.81677812 7.85819383 206.02862076 7.8515625 208.2421875 C7.8646831 209.78205823 7.87998846 211.32191175 7.89738464 212.86174011 C7.93720609 216.90433852 7.94742315 220.94648642 7.95141602 224.98925781 C7.96075297 229.11862835 7.99816994 233.24773479 8.03320312 237.37695312 C8.09774973 245.47135906 8.13101365 253.56550499 8.14453125 261.66015625 C9.2672741 260.70441685 10.38908353 259.74758085 11.51049805 258.7902832 C12.44770943 257.99120293 12.44770943 257.99120293 13.40385437 257.17597961 C15.34851982 255.48251809 17.16774602 253.70398729 18.95703125 251.84765625 C22.06138115 248.62964594 23.32172683 247.74108783 27.95703125 247.28515625 C31.34583395 247.34688308 32.16152939 247.67148834 35.14453125 249.66015625 C37.15304798 252.67293134 38.1242622 254.77375093 37.88043213 258.43804932 C35.6341742 265.22079066 28.42166404 270.58119313 22.93457031 274.79003906 C15.5000163 280.69544539 8.37136392 286.651455 6.76361847 296.47246552 C5.76701984 305.32010545 6.24848481 314.22763001 6.77124023 323.09210205 C6.97905178 326.99926778 7.06783367 330.90916888 7.16796875 334.8203125 C7.37998286 342.44086003 7.71927708 350.04820308 8.14453125 357.66015625 C9.89526561 356.54684325 11.6458966 355.4333677 13.39648438 354.31982422 C14.37137817 353.69977509 15.34627197 353.07972595 16.35070801 352.44088745 C44.25638668 334.6543246 67.48302505 313.86980236 75.3984375 280.51953125 C81.74670829 247.68135564 76.26468062 213.47404445 57.64355469 185.39697266 C55.96796424 182.95979577 54.25518267 180.5549005 52.51953125 178.16015625 C52.00068359 177.43787842 51.48183594 176.71560059 50.94726562 175.97143555 C40.88654723 162.48538106 28.39550844 150.7244576 16.52636719 138.85668945 C14.34934272 136.67742115 12.1805206 134.49018269 10.01171875 132.30273438 C8.62418422 130.91227496 7.23618208 129.52228199 5.84765625 128.1328125 C4.87907684 127.15345482 4.87907684 127.15345482 3.89093018 126.15431213 C-1.33392202 120.91862753 -1.33392202 120.91862753 -6.61157227 125.1574707 Z " fill="#FFFFFF" transform="translate(257.85546875,-0.66015625)"/>
<path d="M0 0 C2.8100346 1.79363911 4.50940468 3.01880935 6 6 C6.5811138 13.08958838 6.5811138 13.08958838 4.125 16.9375 C0.8698054 20.09695358 -1.42413238 20.33421243 -5.9609375 20.29296875 C-9.13134567 19.83745033 -10.8192402 18.24684343 -13 16 C-14.60086627 12.79826746 -14.49917089 9.47422941 -14 6 C-10.32759145 0.24655994 -6.71744997 -0.96515086 0 0 Z " fill="#FFFFFF" transform="translate(260,492)"/>
</svg>
