<?xml version="1.0" encoding="UTF-8"?>
<svg version="1.1" xmlns="http://www.w3.org/2000/svg" width="512" height="512">
<path d="M0 0 C1.48658831 -0.00461673 2.97317205 -0.0109748 4.45974636 -0.01890898 C8.51834931 -0.03551964 12.5765733 -0.02739391 16.63517714 -0.0149641 C21.0224453 -0.00588186 25.4096501 -0.01989903 29.79690552 -0.03088379 C38.38110241 -0.04863982 46.96515915 -0.04484204 55.54936147 -0.03323323 C62.52794495 -0.02418769 69.50648924 -0.02297975 76.4850769 -0.02732849 C77.47954061 -0.02794142 78.47400432 -0.02855436 79.49860328 -0.02918586 C81.51904338 -0.0304648 83.53948346 -0.03176166 85.55992353 -0.03307623 C104.49108022 -0.04447348 123.42215934 -0.03138173 142.35330331 -0.00987476 C158.58559065 0.00799544 174.81776355 0.00489109 191.05004883 -0.0135498 C209.91497334 -0.03497161 228.77982992 -0.04337493 247.6447649 -0.03110075 C249.65763663 -0.0298266 251.67050837 -0.02856911 253.68338013 -0.02732849 C255.16881062 -0.02640284 255.16881062 -0.02640284 256.68424982 -0.02545848 C263.65181103 -0.02200952 270.61932903 -0.02782415 277.58688354 -0.0372467 C286.08180504 -0.04848261 294.57657874 -0.04539318 303.07148337 -0.02412373 C307.4030252 -0.01363473 311.73432092 -0.00945465 316.06586075 -0.02272034 C320.03594317 -0.03469486 324.00555282 -0.02799911 327.97559273 -0.00681013 C329.40680481 -0.00236538 330.83805736 -0.00456219 332.26924312 -0.01431328 C346.65244489 -0.10474438 356.34720694 3.24856337 366.79907227 13.12902832 C373.41393456 20.14785167 376.40339853 29.18696831 378.08422852 38.50793457 C379.11547852 37.72418457 380.14672852 36.94043457 381.20922852 36.13293457 C386.61583181 32.02391607 392.17195663 31.1457961 398.83422852 31.13293457 C400.80649414 31.09039551 400.80649414 31.09039551 402.81860352 31.04699707 C412.23733146 31.61216499 420.18125623 37.16006739 427.83422852 42.19543457 C429.76779619 43.45068307 431.70138993 44.70589141 433.63500977 45.96105957 C434.56522949 46.56885254 435.49544922 47.17664551 436.45385742 47.80285645 C438.74635797 49.28891769 441.052785 50.74442221 443.37719727 52.17980957 C453.65083405 58.53550021 461.74951124 64.37246343 465.08422852 76.50793457 C467.02878115 89.53643724 463.88625124 98.51712249 457.08422852 109.50793457 C456.56957031 110.3448584 456.05491211 111.18178223 455.5246582 112.04406738 C452.03223397 117.68063959 448.4473456 123.2539737 444.83178711 128.81213379 C442.23696659 132.81492901 439.68939824 136.84688251 437.14672852 140.88293457 C436.66534424 141.64557617 436.18395996 142.40821777 435.68798828 143.19396973 C429.76416807 152.58608014 423.88756225 162.00778736 418.00756836 171.42736816 C414.86833627 176.45539946 411.72612038 181.48156506 408.58422852 186.50793457 C407.9707959 187.48955566 407.35736328 188.47117676 406.7253418 189.48254395 C403.51435285 194.62079925 400.30216516 199.75829985 397.08813477 204.89465332 C396.42813477 205.94975098 395.76813477 207.00484863 395.08813477 208.09191895 C393.84502858 210.079138 392.60157185 212.06613784 391.35766602 214.05285645 C390.22784053 215.85930776 389.10903661 217.67271597 388.00325298 219.49398327 C386.08422852 222.50793457 386.08422852 222.50793457 384.02248096 225.19807148 C376.92887072 235.01623734 376.97378627 243.83284694 377.13183594 255.64343262 C377.12913651 257.64881137 377.12287246 259.65418798 377.11334229 261.6595459 C377.10054405 265.95407116 377.11272819 270.24751501 377.14488792 274.54193687 C377.19571409 281.33831813 377.1904969 288.13397799 377.17829895 294.93049622 C377.16566548 305.68124949 377.19099845 316.43152685 377.23231918 327.18219548 C377.30531039 346.43606985 377.3181719 365.69001187 377.31016427 384.94400817 C377.30892185 391.6944137 377.32577287 398.44446123 377.35781229 405.19478834 C377.37531742 409.39731984 377.38082331 413.59981139 377.38360596 417.80237579 C377.38757305 419.74456137 377.39672158 421.68674465 377.41155434 423.62887764 C377.52175682 438.49714066 376.59192985 451.20161759 366.04516602 462.73840332 C358.25244929 470.07677437 349.76198436 474.62443405 339.00051022 474.64215565 C337.11770584 474.64884241 337.11770584 474.64884241 335.19686502 474.65566427 C333.80132289 474.65557497 332.40578076 474.65538512 331.01023865 474.65510559 C329.52969693 474.65840515 328.04915612 474.66213091 326.56861645 474.66624707 C322.49432266 474.67626488 318.4200436 474.67998352 314.34573925 474.68263638 C309.95359539 474.68654011 305.56146319 474.69611843 301.16932678 474.70484924 C290.55906004 474.72461222 279.94879234 474.73467988 269.33851179 474.74357703 C264.34151417 474.7479604 259.34451761 474.75332711 254.34752083 474.7585659 C237.73539036 474.77557839 221.12326055 474.79007229 204.5111227 474.79731464 C200.20012346 474.79922453 195.88912422 474.80114486 191.578125 474.80310059 C190.5066511 474.80358433 189.43517721 474.80406807 188.3312344 474.80456647 C170.97626337 474.81286576 153.62136129 474.83820089 136.26642036 474.87068126 C118.44707367 474.90375878 100.62776202 474.92176405 82.80838448 474.92495888 C72.80405627 474.92712339 62.7998286 474.93586332 52.79553032 474.96142006 C44.27484209 474.98313654 35.75427881 474.99117282 27.23356604 474.98145328 C22.88788098 474.97691127 18.54245368 474.97878897 14.19680405 474.99821472 C10.21351427 475.01586648 6.2306699 475.01483258 2.24737526 474.99931743 C0.81123319 474.99694439 -0.62493988 475.00124913 -2.06103463 475.01314608 C-15.16782942 475.1149448 -25.96929135 472.38508322 -35.91577148 463.50793457 C-45.75728923 452.29011261 -47.50932704 441.12107293 -47.43043518 426.74502563 C-47.43576578 425.04552352 -47.44283442 423.34602613 -47.45148224 421.64653766 C-47.47006854 416.99474809 -47.46381842 412.34327776 -47.45332921 407.69147515 C-47.44632577 402.66748823 -47.46234386 397.64356613 -47.47532654 392.61959839 C-47.49695296 382.78430859 -47.49684304 372.94913455 -47.48870099 363.11382879 C-47.48239727 355.1183537 -47.48354145 347.12291233 -47.48997307 339.12743759 C-47.49087472 337.98880833 -47.49177638 336.85017908 -47.49270536 335.6770459 C-47.49455659 333.36380601 -47.49641915 331.05056613 -47.49829292 328.73732625 C-47.51486682 307.05161678 -47.50615582 285.3659724 -47.48930734 263.68026684 C-47.47461254 243.84964919 -47.48923645 224.01918308 -47.5180775 204.18858494 C-47.54748519 183.81633032 -47.55843965 163.4441456 -47.5488953 143.07187068 C-47.54787277 140.7666015 -47.54687816 138.46133229 -47.54591179 136.15606308 C-47.5454354 135.02188807 -47.54495901 133.88771306 -47.54446818 132.71916912 C-47.54230578 124.73667335 -47.552099 116.75424391 -47.56668282 108.77176285 C-47.58421707 99.03873005 -47.58407306 89.30589039 -47.56133116 79.57286514 C-47.55019872 74.6092876 -47.54700397 69.64605022 -47.56563187 64.68248749 C-47.58248315 60.13369355 -47.57602284 55.58553524 -47.55141508 51.03678213 C-47.5465466 49.39623512 -47.55000688 47.75563638 -47.56290252 46.11513282 C-47.65757965 33.12788346 -45.3954289 21.13311304 -35.91577148 11.50793457 C-25.01481833 2.16151875 -14.07423224 -0.09589193 0 0 Z M-22.22827148 28.69543457 C-22.6987793 29.20461426 -23.16928711 29.71379395 -23.65405273 30.23840332 C-28.18322926 38.38531218 -27.19775373 48.39069967 -27.16973877 57.41149902 C-27.1720453 59.02977545 -27.17522311 60.64805084 -27.17919326 62.26632404 C-27.18752348 66.69805998 -27.18342404 71.12970951 -27.17722082 75.56144571 C-27.17269009 80.34678634 -27.17968318 85.13211226 -27.18518066 89.91744995 C-27.19406966 99.28595163 -27.19215484 108.65442125 -27.18635538 118.02292418 C-27.18183696 125.63752871 -27.18122677 133.25212426 -27.18340302 140.86672974 C-27.18370948 141.95085343 -27.18401595 143.03497712 -27.1843317 144.15195304 C-27.18497116 146.35439166 -27.18561958 148.55683027 -27.18627688 150.75926888 C-27.19197873 171.40714774 -27.18542456 192.05500884 -27.17467615 212.70288479 C-27.16574077 230.41623059 -27.16729286 248.12955018 -27.17651367 265.84289551 C-27.18721886 286.4173523 -27.19142942 306.99179352 -27.18528914 327.56625271 C-27.18465205 329.76054827 -27.18402331 331.95484384 -27.18340302 334.1491394 C-27.18309446 335.22874933 -27.18278591 336.30835926 -27.18246801 337.42068464 C-27.18074182 345.02534345 -27.18365455 352.62999238 -27.18836212 360.23464966 C-27.1939737 369.50331206 -27.19244864 378.77194058 -27.18180063 388.04059911 C-27.17654769 392.76876772 -27.1744808 397.49687988 -27.18109894 402.22504807 C-27.18706825 406.55518902 -27.18376705 410.88522129 -27.17314383 415.21535242 C-27.17091398 416.77983505 -27.17203678 418.3443269 -27.17689541 419.90880358 C-27.75320459 434.38275691 -27.75320459 434.38275691 -21.66577148 446.88293457 C-21.10374023 447.50941895 -20.54170898 448.13590332 -19.96264648 448.78137207 C-13.64126211 454.11353218 -7.7099916 453.92877533 0.19491577 453.86869812 C2.04020416 453.87254303 2.04020416 453.87254303 3.9227711 453.87646562 C7.32988083 453.8805488 10.73647218 453.87118838 14.14351916 453.85613143 C17.82033945 453.8431648 21.49714399 453.84756097 25.17398071 453.84983826 C31.54182088 453.8514106 37.90956876 453.84200553 44.27738571 453.82512474 C53.48414194 453.80073395 62.69085359 453.79292939 71.89763863 453.78916077 C86.83534883 453.78259641 101.77300986 453.76263566 116.71069336 453.73425293 C131.22045648 453.70671196 145.73020625 453.68547856 160.23999023 453.67272949 C161.13451257 453.67194132 162.0290349 453.67115315 162.95066397 453.6703411 C167.43826145 453.66642596 171.92585903 453.66263484 176.41345668 453.65890539 C213.63709097 453.62780995 250.86063429 453.57250713 288.08422852 453.50793457 C288.08422852 427.10793457 288.08422852 400.70793457 288.08422852 373.50793457 C278.75705342 377.37597485 278.75705342 377.37597485 269.51782227 381.41809082 C268.36991211 381.93436035 267.22200195 382.45062988 266.03930664 382.98254395 C264.87850586 383.50654785 263.71770508 384.03055176 262.52172852 384.57043457 C255.7402205 387.62627483 255.7402205 387.62627483 253.82854462 388.44701481 C249.67777488 390.25065411 245.72898344 392.24327372 241.78344727 394.46177673 C222.07905633 405.00987878 203.87337065 405.18766937 181.93879819 404.85638809 C177.09089292 404.79524469 172.24298631 404.80091862 167.39476013 404.79772949 C159.28646807 404.78308795 151.17955726 404.72382109 143.07177734 404.63293457 C132.66650621 404.51653052 122.26232843 404.47593662 111.85647678 404.45820618 C102.87230499 404.44231101 93.88836996 404.39238384 84.90436816 404.3368187 C82.02837396 404.32045016 79.15238797 404.30873626 76.27636909 404.29763794 C71.77371234 404.27808261 67.27172022 404.23730147 62.76939201 404.17988586 C61.11823905 404.16179971 59.46699683 404.1504405 57.81575012 404.14625549 C55.56489977 404.13926902 53.31570972 404.10774395 51.06520081 404.06970215 C49.80607156 404.0578035 48.54694231 404.04590485 47.24965763 404.03364563 C43.52470609 403.41500969 42.37069872 402.44638112 40.08422852 399.50793457 C38.86033932 397.06015618 39.06786452 395.77402916 39.33422852 393.07043457 C39.40125977 392.28797363 39.46829102 391.5055127 39.53735352 390.69934082 C40.18853241 388.08997395 40.97928939 387.14678003 43.08422852 385.50793457 C46.42870125 384.39311032 48.9559566 384.36916223 52.48124695 384.34971619 C53.13309505 384.34477821 53.78494315 384.33984023 54.45654422 384.33475262 C56.6445295 384.31937345 58.83248543 384.31101589 61.02050781 384.3026123 C62.58743549 384.29303411 64.15436059 384.28302406 65.72128296 384.27261353 C69.97921744 384.24555207 74.23716302 384.22454922 78.49513602 384.20461154 C82.94345868 384.18275965 87.39174708 384.15536706 91.84004211 384.1285553 C100.26538209 384.07861763 108.69074107 384.03368278 117.11611825 383.99053293 C126.70732177 383.94116974 136.29849091 383.88624821 145.88966119 383.83085334 C165.62115162 383.71701681 185.35267485 383.61018139 205.08422852 383.50793457 C205.08671349 380.93593792 205.08853141 378.36394369 205.08996582 375.79194641 C205.09073498 375.06689675 205.09150414 374.34184709 205.0922966 373.59482622 C205.09427916 368.85519256 205.03394679 364.13087964 204.86547852 359.39465332 C204.81919127 358.04000331 204.77305364 356.68534818 204.72705078 355.33068848 C204.70329376 354.65435364 204.67953674 353.9780188 204.65505981 353.28118896 C204.50920948 348.98636488 204.39290947 344.69059787 204.26951599 340.39508057 C204.15250851 336.43944627 203.99557353 332.48806595 203.80688477 328.53527832 C203.75226564 326.90120451 203.69875325 325.26709304 203.64672852 323.63293457 C203.60032227 322.94675049 203.55391602 322.26056641 203.50610352 321.55358887 C203.36187726 314.92327831 206.69857916 310.01232031 210.08422852 304.50793457 C210.60041748 303.66585449 211.11660645 302.82377441 211.6484375 301.95617676 C213.24909724 299.39492037 214.8805789 296.85591852 216.52172852 294.32043457 C217.75829374 292.39392102 218.99393816 290.46681618 220.22875977 288.53918457 C221.17936279 287.05611816 221.17936279 287.05611816 222.14916992 285.54309082 C225.37045365 280.49047925 228.53984977 275.40570786 231.70922852 270.32043457 C236.14770276 263.20354132 240.59809516 256.09488955 245.08422852 249.00793457 C252.13159278 237.87088968 259.1057021 226.68819155 266.08422852 215.50793457 C268.7503313 211.23674884 271.41710076 206.96598032 274.08422852 202.69543457 C274.68275635 201.73613037 275.28128418 200.77682617 275.89794922 199.78845215 C276.76359497 198.40242798 276.76359497 198.40242798 277.64672852 196.98840332 C278.17424713 196.12236984 278.70176575 195.25633636 279.24526978 194.36405945 C281.08422852 191.50793457 281.08422852 191.50793457 282.92713928 189.23486328 C289.63973336 180.4965473 288.99075756 171.99918369 288.76782227 161.49621582 C288.75474247 159.67349665 288.74478957 157.85075261 288.73780823 156.02799988 C288.71126954 151.26480385 288.64267344 146.50313736 288.56488037 141.74053955 C288.4928615 136.866991 288.46121473 131.99319169 288.42602539 127.1192627 C288.35128553 117.58148674 288.23204777 108.04483857 288.08422852 98.50793457 C287.21836624 98.50206833 286.35250397 98.49620209 285.46040344 98.49015808 C277.29431923 98.43221743 269.12850813 98.36013283 260.9626894 98.27221966 C256.76469663 98.2275214 252.56680079 98.1882642 248.36865234 98.16149902 C244.31601856 98.13546041 240.26375786 98.0950544 236.21135521 98.04474831 C234.66648187 98.02808329 233.121544 98.01656672 231.5765934 98.01032066 C229.40987811 98.00067525 227.24411647 97.97261288 225.07763672 97.94030762 C223.8451973 97.92920456 222.61275787 97.9181015 221.3429718 97.90666199 C217.76469939 97.4688382 215.90448266 96.72887954 213.08422852 94.50793457 C210.75937909 91.00357843 210.81067181 87.85642202 210.76538086 83.71984863 C210.75031242 82.70947792 210.75031242 82.70947792 210.73493958 81.67869568 C210.70413831 79.46032537 210.6870813 77.24207557 210.67016602 75.02355957 C210.65145187 73.48226893 210.63187827 71.94098851 210.61148071 70.39971924 C210.5601794 66.34903999 210.52054308 62.29832753 210.4833374 58.24749756 C210.44328515 54.11157021 210.39219839 49.97578078 210.34204102 45.83996582 C210.24530544 37.72938299 210.16089318 29.61873183 210.08422852 21.50793457 C181.25995063 21.414516 152.43569541 21.34396742 123.61129665 21.30068588 C120.94757007 21.29657988 118.28384357 21.29244119 115.62011719 21.28820801 C114.95803688 21.28715877 114.29595657 21.28610952 113.61381323 21.28502849 C103.56281373 21.26870975 93.51188995 21.2406264 83.4609375 21.20617676 C71.79667904 21.1663227 60.13248868 21.14050496 48.46816403 21.13158059 C42.29130154 21.12636348 36.11463387 21.11409182 29.93783379 21.08501434 C24.12418418 21.0578681 18.3108097 21.04948811 12.49710274 21.05550385 C10.36338939 21.05440327 8.22966685 21.04644488 6.0960083 21.03111267 C3.18166404 21.01119751 0.26835715 21.01600131 -2.64601135 21.0269165 C-3.48941198 21.01526514 -4.33281262 21.00361377 -5.20177084 20.99160933 C-12.19453278 21.06235132 -17.50051443 23.30179625 -22.22827148 28.69543457 Z M247.08422852 21.50793457 C250.7557589 25.88983555 254.52802939 30.06739982 258.59887695 34.08850098 C259.11347977 34.59843094 259.62808258 35.1083609 260.15827942 35.63374329 C261.26206048 36.72712094 262.36694895 37.81938163 263.47286224 38.91060257 C265.22452036 40.64002139 266.97199883 42.37356379 268.71832275 44.10836792 C273.67896721 49.03560773 278.64387172 53.95849327 283.61889648 58.87121582 C286.67319764 61.88785165 289.72012276 64.91177129 292.7624588 67.94047165 C293.9191088 69.08908229 295.07852684 70.23491261 296.24077606 71.37785721 C297.86320261 72.97377443 299.47608454 74.57879141 301.0871582 76.18615723 C302.00615906 77.09548004 302.92515991 78.00480286 303.87200928 78.94168091 C307.62042341 83.28997575 308.3304586 86.83950939 308.40307617 92.49157715 C308.42294586 93.67242386 308.44281555 94.85327057 308.46328735 96.06990051 C308.47483856 97.33464706 308.48638977 98.59939362 308.49829102 99.90246582 C308.51765717 101.20495773 308.53702332 102.50744965 308.55697632 103.84941101 C308.6081737 107.30000807 308.64786527 110.75064401 308.68511963 114.20141602 C308.7252374 117.72751383 308.77629414 121.25345165 308.82641602 124.77941895 C308.92302824 131.68880707 309.00747973 138.59829803 309.08422852 145.50793457 C311.86803683 142.14251461 314.28428289 138.73045484 316.55297852 135.00012207 C317.20041016 133.94059326 317.8478418 132.88106445 318.51489258 131.78942871 C319.19777344 130.66528564 319.8806543 129.54114258 320.58422852 128.38293457 C322.02505761 126.02371034 323.46862361 123.66616572 324.91235352 121.30871582 C325.27028992 120.72365768 325.62822632 120.13859955 325.99700928 119.53581238 C329.06809195 114.52092134 332.18618695 109.53728566 335.33422852 104.57043457 C335.80658936 103.82503418 336.2789502 103.07963379 336.765625 102.31164551 C337.71301693 100.81803738 338.66085044 99.32470924 339.60913086 97.83166504 C342.29392455 93.60229292 344.9701915 89.36753465 347.64672852 85.13293457 C348.14785156 84.34153076 348.64897461 83.55012695 349.1652832 82.73474121 C349.86959473 81.62087036 349.86959473 81.62087036 350.58813477 80.48449707 C351.20410522 79.51117432 351.20410522 79.51117432 351.83251953 78.51818848 C352.2455835 77.85480469 352.65864746 77.1914209 353.08422852 76.50793457 C353.89053711 75.39067993 353.89053711 75.39067993 354.71313477 74.25085449 C356.48585251 70.70447205 356.53375355 67.52311376 356.51782227 63.64465332 C356.52306412 62.89383987 356.52830597 62.14302643 356.53370667 61.36946106 C356.54011061 59.78517895 356.53881095 58.2008492 356.53027344 56.61657715 C356.52179032 54.21294748 356.55049946 51.81171879 356.58227539 49.4083252 C356.74318015 37.22865676 356.74318015 37.22865676 350.63671875 27.0111084 C346.76302154 23.57235691 343.21596042 21.25361782 337.99664307 21.26742554 C337.19179977 21.26467621 336.38695648 21.26192688 335.557724 21.25909424 C334.68378494 21.26628479 333.80984589 21.27347534 332.90942383 21.28088379 C331.98225052 21.28059174 331.05507721 21.28029968 330.09980774 21.27999878 C327.03722758 21.28139137 323.97489114 21.29694939 320.91235352 21.31262207 C318.78814832 21.31635245 316.66394141 21.3191993 314.53973389 21.32119751 C308.95016729 21.328832 303.36070471 21.348479 297.7711792 21.37060547 C292.06694953 21.3910678 286.36270306 21.40020006 280.65844727 21.41027832 C269.46699533 21.43172499 258.27562057 21.4658588 247.08422852 21.50793457 Z M231.08422852 36.50793457 C231.08422852 50.03793457 231.08422852 63.56793457 231.08422852 77.50793457 C244.61422852 77.50793457 258.14422852 77.50793457 272.08422852 77.50793457 C267.31134183 71.90168583 267.31134183 71.90168583 262.29785156 66.59216309 C261.62082687 65.91198624 260.94380219 65.23180939 260.2462616 64.53102112 C259.53665787 63.82344162 258.82705414 63.11586212 258.09594727 62.38684082 C257.3521431 61.64207993 256.60833893 60.89731903 255.84199524 60.12998962 C254.28261025 58.56992838 252.72197873 57.01111221 251.16015625 55.45349121 C248.7580255 53.05676237 246.36133601 50.65468395 243.96508789 48.2520752 C242.44652863 46.73417592 240.92765963 45.21658643 239.40844727 43.69934082 C238.68872238 42.97759171 237.9689975 42.25584259 237.22746277 41.51222229 C236.56619888 40.85411057 235.904935 40.19599884 235.22363281 39.51794434 C234.63994431 38.93505142 234.0562558 38.35215851 233.45487976 37.75160217 C232.26926226 36.39593978 232.26926226 36.39593978 231.08422852 36.50793457 Z M387.19750977 60.16784668 C385.14706001 63.35499177 383.16654959 66.57530243 381.20922852 69.82043457 C380.52086914 70.94256348 379.83250977 72.06469238 379.12329102 73.2208252 C377.43405757 75.97756034 375.75480546 78.73986813 374.08422852 81.50793457 C377.44964848 84.29174289 380.86170825 86.70798895 384.59204102 88.97668457 C385.65277832 89.62492187 386.71351563 90.27315918 387.80639648 90.94104004 C388.92933105 91.62311523 390.05226563 92.30519043 391.20922852 93.00793457 C393.54894104 94.43571028 395.88704651 95.86610389 398.22485352 97.29699707 C399.09779556 97.8308049 399.09779556 97.8308049 399.9883728 98.37539673 C406.13489879 102.13987879 412.22355287 105.99397585 418.2956543 109.8770752 C419.00705566 110.33018066 419.71845703 110.78328613 420.45141602 111.25012207 C421.06098145 111.64054687 421.67054688 112.03097168 422.29858398 112.43322754 C424.18194336 113.56674517 426.10663384 114.5499095 428.08422852 115.50793457 C430.38932097 111.98630811 432.66639888 108.44849113 434.92016602 104.8939209 C435.68891375 103.68968918 436.46484537 102.49000983 437.24829102 101.29528809 C443.28626918 92.58057364 443.28626918 92.58057364 444.64794922 82.40222168 C442.21265223 74.21882223 433.22125958 70.56478672 426.39672852 66.50793457 C425.25094807 65.81621606 424.10576094 65.12351379 422.96118164 64.42980957 C420.72813197 63.08097035 418.49106523 61.73875596 416.24975586 60.40368652 C414.21396926 59.1845069 412.18733591 57.94983965 410.17260742 56.69616699 C409.29652832 56.15322998 408.42044922 55.61029297 407.51782227 55.05090332 C406.75912842 54.57419189 406.00043457 54.09748047 405.21875 53.60632324 C397.46551775 49.61664099 391.74300956 53.75956248 387.19750977 60.16784668 Z M362.08422852 100.50793457 C360.53862212 102.29354703 360.53862212 102.29354703 359.16625977 104.66418457 C358.63452148 105.52141113 358.1027832 106.3786377 357.55493164 107.26184082 C357.00772461 108.16805176 356.46051758 109.0742627 355.89672852 110.00793457 C355.33791992 110.91414551 354.77911133 111.82035645 354.20336914 112.75402832 C352.82057274 114.99959512 351.44813857 117.25086405 350.08422852 119.50793457 C352.80843251 122.39760932 355.50273636 124.57289169 358.88110352 126.65246582 C359.82904785 127.24019775 360.77699219 127.82792969 361.75366211 128.43347168 C362.77024902 129.05616943 363.78683594 129.67886719 364.83422852 130.32043457 C366.98807928 131.65083202 369.1417186 132.98157184 371.29516602 134.31262207 C372.40730469 134.99808105 373.51944336 135.68354004 374.6652832 136.38977051 C378.10274686 138.5139739 381.52068402 140.66834179 384.93579102 142.82824707 C386.02923828 143.51813721 387.12268555 144.20802734 388.24926758 144.91882324 C390.36503987 146.25461772 392.47901888 147.59325743 394.59106445 148.93493652 C395.54529297 149.53523682 396.49952148 150.13553711 397.48266602 150.75402832 C398.32490723 151.2869751 399.16714844 151.81992188 400.03491211 152.36901855 C401.98483448 153.66985975 401.98483448 153.66985975 404.08422852 153.50793457 C405.50703954 151.73223007 405.50703954 151.73223007 406.90454102 149.42199707 C407.43950195 148.57379395 407.97446289 147.72559082 408.52563477 146.85168457 C409.0812207 145.95449707 409.63680664 145.05730957 410.20922852 144.13293457 C410.77254883 143.24348145 411.33586914 142.35402832 411.91625977 141.43762207 C414.89744289 137.2674141 414.89744289 137.2674141 416.08422852 132.50793457 C413.9032228 130.88957183 413.9032228 130.88957183 411.06469727 129.23449707 C409.44966309 128.25271484 409.44966309 128.25271484 407.80200195 127.25109863 C407.22575073 126.9053479 406.64949951 126.55959717 406.05578613 126.20336914 C403.66819167 124.77081246 401.28999947 123.32299222 398.91122437 121.87585449 C397.70796698 121.14407747 396.50420784 120.41312484 395.29995728 119.6829834 C389.94147927 116.43222151 384.62852837 113.11222001 379.33422852 109.75793457 C378.58036865 109.28178711 377.82650879 108.80563965 377.04980469 108.31506348 C373.90762479 106.32459749 370.80247995 104.31414202 367.75610352 102.17980957 C365.18567499 100.24271233 365.18567499 100.24271233 362.08422852 100.50793457 Z M338.08422852 138.50793457 C336.88929051 140.05383195 336.88929051 140.05383195 335.75610352 142.10949707 C335.29357178 142.89808105 334.83104004 143.68666504 334.35449219 144.49914551 C333.85280518 145.3682959 333.35111816 146.23744629 332.83422852 147.13293457 C328.44431494 154.59665615 323.9459833 161.96881831 319.27172852 169.25793457 C314.35377802 176.9399787 309.47548918 184.6444716 304.64672852 192.38293457 C304.02652832 193.37672119 303.40632813 194.37050781 302.76733398 195.39440918 C301.50746355 197.41401768 300.24786168 199.43379374 298.98852539 201.45373535 C295.79381266 206.57756308 292.59586146 211.69936571 289.39672852 216.82043457 C288.4571228 218.32452881 288.4571228 218.32452881 287.49853516 219.85900879 C283.23136891 226.68490947 278.93983268 233.49498279 274.63549805 240.29748535 C269.38682902 248.59872028 264.18550503 256.92939619 258.98657227 265.26184082 C256.29983228 269.56675423 253.60337866 273.86539539 250.90063477 278.16027832 C249.87933472 279.78606812 249.87933472 279.78606812 248.83740234 281.44470215 C247.53341321 283.52011886 246.22736629 285.59424455 244.91894531 287.66687012 C242.07848807 292.19306097 239.33719676 296.65915508 237.08422852 301.50793457 C238.40487305 301.42092285 238.40487305 301.42092285 239.75219727 301.33215332 C249.32914623 300.96012978 249.32914623 300.96012978 253.27172852 303.82043457 C254.54789529 305.71268185 255.81819882 307.60889002 257.08422852 309.50793457 C257.37442871 309.01728516 257.66462891 308.52663574 257.96362305 308.02111816 C265.54022539 295.23799984 273.38461848 282.65039605 281.40112305 270.13928223 C290.42950821 256.02440911 299.2885724 241.80169603 308.16088867 227.58850098 C311.30012075 222.5604697 314.44230003 217.53428116 317.58422852 212.50793457 C318.83424315 210.50794372 320.08424314 208.50794371 321.33422852 206.50793457 C328.83422852 194.50793457 328.83422852 194.50793457 330.71264648 191.50280762 C331.95166365 189.52015387 333.19027629 187.53724726 334.4284668 185.55407715 C337.36340689 180.85437949 340.30250651 176.15744735 343.25592041 171.46932983 C344.31230283 169.79206149 345.36722104 168.11387124 346.42211914 166.43566895 C347.75419212 164.3168683 349.08872759 162.19961329 350.42602539 160.08410645 C351.0222168 159.13471191 351.6184082 158.18531738 352.23266602 157.20715332 C352.76037598 156.37014893 353.28808594 155.53314453 353.83178711 154.67077637 C355.21661582 152.44701337 355.21661582 152.44701337 356.08422852 149.50793457 C352.75641932 147.16663008 349.42228241 144.83460795 346.08422852 142.50793457 C345.44743164 142.06062988 344.81063477 141.6133252 344.15454102 141.15246582 C341.37848428 139.10330199 341.37848428 139.10330199 338.08422852 138.50793457 Z M374.08422852 160.50793457 C372.98502402 162.15471682 371.93699279 163.8356513 370.90844727 165.52746582 C370.25158936 166.60270508 369.59473145 167.67794434 368.91796875 168.7857666 C368.56821991 169.36183655 368.21847107 169.93790649 367.85812378 170.53143311 C366.02958811 173.54254067 364.18908151 176.54631931 362.34985352 179.55090332 C361.98202255 180.15245239 361.61419159 180.75400146 361.23521423 181.3737793 C358.20709155 186.32118938 355.13062313 191.23599495 352.02172852 196.13293457 C347.57893008 203.13760554 343.16548841 210.15988561 338.77172852 217.19543457 C338.14347168 218.20130615 337.51521484 219.20717773 336.86791992 220.24353027 C334.93966425 223.33144137 333.01186345 226.41963594 331.08422852 229.50793457 C323.62837973 241.45308414 316.1690923 253.39539026 308.63769531 265.29309082 C304.0010405 272.62411184 299.41075426 279.98385769 294.82421875 287.34631348 C291.58592645 292.53610408 288.32397517 297.70871924 285.01782227 302.85559082 C284.36797363 303.86839111 283.718125 304.88119141 283.04858398 305.92468262 C281.80288927 307.86230558 280.55335368 309.79746588 279.29956055 311.7298584 C278.74510254 312.59248291 278.19064453 313.45510742 277.61938477 314.34387207 C276.8828064 315.48155029 276.8828064 315.48155029 276.13134766 316.64221191 C274.92108629 318.44203587 274.92108629 318.44203587 275.08422852 320.50793457 C276.00655273 320.6548877 276.00655273 320.6548877 276.94750977 320.80480957 C283.49867838 322.01682801 283.49867838 322.01682801 286.02172852 324.13293457 C287.53684946 327.51967549 288.29833337 330.88072621 289.08422852 334.50793457 C289.74422852 334.50793457 290.40422852 334.50793457 291.08422852 334.50793457 C292.32846548 332.87963407 292.32846548 332.87963407 293.51782227 330.73059082 C293.99582275 329.91622559 294.47382324 329.10186035 294.96630859 328.26281738 C295.47959717 327.37433105 295.99288574 326.48584473 296.52172852 325.57043457 C300.35915144 319.0479092 304.24541084 312.58575439 308.39672852 306.25793457 C314.79728885 296.47323701 320.96442895 286.54547307 327.14477539 276.62072754 C330.28567158 271.5796366 333.43529338 266.54400627 336.58422852 261.50793457 C337.83427243 259.50796202 339.08427238 257.50796199 340.33422852 255.50793457 C362.83422852 219.50793457 362.83422852 219.50793457 364.7121582 216.50354004 C365.95274426 214.51840821 367.19298293 212.53305924 368.43286133 210.54748535 C371.69896968 205.31810018 374.9723529 200.09345 378.25610352 194.87512207 C379.27994141 193.24510254 379.27994141 193.24510254 380.32446289 191.58215332 C381.63083103 189.50262852 382.93930935 187.42442732 384.25024414 185.34777832 C387.09048744 180.82201359 389.83146103 176.35628199 392.08422852 171.50793457 C389.27410463 169.67093877 386.46074661 167.83895833 383.64672852 166.00793457 C382.44306641 165.22096191 382.44306641 165.22096191 381.21508789 164.41809082 C380.45131836 163.92180176 379.68754883 163.4255127 378.90063477 162.91418457 C378.19366455 162.45334473 377.48669434 161.99250488 376.75830078 161.5177002 C375.26735202 160.42185189 375.26735202 160.42185189 374.08422852 160.50793457 Z M355.08422852 270.50793457 C354.09328858 271.9497232 353.15331508 273.42652812 352.23266602 274.91418457 C351.63623291 275.8736499 351.0397998 276.83311523 350.42529297 277.82165527 C349.7764917 278.87312744 349.12769043 279.92459961 348.45922852 281.00793457 C347.08561072 283.2202239 345.71191051 285.43246207 344.33813477 287.64465332 C343.62466623 288.79612774 342.91128759 289.94765786 342.19799805 291.09924316 C338.94504435 296.34845869 335.67069246 301.58430699 332.39672852 306.82043457 C331.47065796 308.30229248 331.47065796 308.30229248 330.52587891 309.81408691 C326.49489274 316.2613215 322.45335015 322.70179752 318.39672852 329.13293457 C317.9156665 329.8964624 317.43460449 330.65999023 316.93896484 331.44665527 C316.48803467 332.16039307 316.03710449 332.87413086 315.57250977 333.60949707 C314.99303589 334.527229 314.99303589 334.527229 314.40185547 335.46350098 C313.08422852 337.50793457 313.08422852 337.50793457 311.03025818 339.96203613 C308.09333934 344.40372963 308.55649034 349.13047877 308.63012695 354.28674316 C308.62954285 355.36051208 308.62895874 356.43428101 308.62835693 357.54058838 C308.6311372 361.07951508 308.66222795 364.61759302 308.69360352 368.15637207 C308.70106607 370.61401916 308.70675893 373.07167222 308.71075439 375.52932739 C308.72600937 381.99030047 308.76529072 388.4509125 308.80957031 394.91174316 C308.85052552 401.50755937 308.86876599 408.10343405 308.88891602 414.69934082 C308.93178451 427.63569256 308.99926327 440.57179434 309.08422852 453.50793457 C313.63735194 453.6324101 318.18946506 453.72267866 322.74389648 453.78259277 C324.28997063 453.80759189 325.83592834 453.84160359 327.3815918 453.88513184 C338.62701694 454.42903954 338.62701694 454.42903954 348.64501953 449.94470215 C352.77951165 445.81722359 355.96023394 441.52382371 356.20727634 435.51507282 C356.20635455 434.27894843 356.20543276 433.04282404 356.20448303 431.76924133 C356.20533746 431.08064126 356.20619188 430.39204119 356.2070722 429.68257445 C356.20872217 427.37018448 356.20321351 425.05786671 356.19775391 422.7454834 C356.1974719 421.08988954 356.19763002 419.43429556 356.19819641 417.77870178 C356.19848388 413.27901203 356.1925953 408.77934881 356.18562245 404.27966523 C356.17938052 399.57911961 356.17878445 394.87857342 356.17759705 390.17802429 C356.17448622 381.27454414 356.16627616 372.37107623 356.15624756 363.46760148 C356.14507873 353.33229715 356.13957403 343.19699224 356.13455212 333.0616833 C356.12409335 312.21042688 356.10649869 291.3591815 356.08422852 270.50793457 C355.75422852 270.50793457 355.42422852 270.50793457 355.08422852 270.50793457 Z M229.95922852 325.00793457 C228.31567383 325.42559082 228.31567383 325.42559082 226.63891602 325.85168457 C225.79586914 326.06824707 224.95282227 326.28480957 224.08422852 326.50793457 C223.12126295 339.35701849 223.12126295 339.35701849 226.81469727 351.17590332 C229.46881059 352.97643246 232.15821334 354.19175846 235.08422852 355.50793457 C236.43611507 356.36547708 237.77250856 357.24773417 239.09594727 358.14855957 C240.14480103 358.85577148 240.14480103 358.85577148 241.21484375 359.57727051 C242.60339606 360.5145953 243.9897184 361.45523403 245.37353516 362.39953613 C248.46096501 364.37518612 250.32217901 365.50692923 254.04516602 365.51184082 C257.96767514 364.21610194 261.70335818 362.66036632 265.45922852 360.94543457 C266.1952832 360.6160791 266.93133789 360.28672363 267.68969727 359.9473877 C269.49067409 359.14045652 271.28785033 358.32505197 273.08422852 357.50793457 C272.09422852 352.88793457 271.10422852 348.26793457 270.08422852 343.50793457 C267.79485352 344.02355957 265.50547852 344.53918457 263.14672852 345.07043457 C257.14519117 346.32424487 252.10082714 346.91180758 246.08422852 345.50793457 C243.32310586 343.36866796 242.52764988 341.40171249 241.69750977 338.05871582 C241.4815918 337.21115723 241.26567383 336.36359863 241.04321289 335.49035645 C240.72320312 334.16874512 240.72320312 334.16874512 240.39672852 332.82043457 C240.17178711 331.92775879 239.9468457 331.03508301 239.71508789 330.11535645 C239.16206799 327.91504323 238.61886018 325.71277461 238.08422852 323.50793457 C235.23935195 323.50793457 232.71259614 324.30494709 229.95922852 325.00793457 Z M226.08422852 374.50793457 C226.08422852 375.49793457 226.08422852 376.48793457 226.08422852 377.50793457 C227.07422852 377.17793457 228.06422852 376.84793457 229.08422852 376.50793457 C228.09422852 375.84793457 227.10422852 375.18793457 226.08422852 374.50793457 Z " fill="#000000" transform="translate(46.915771484375,18.4920654296875)"/>
<path d="M0 0 C1.0717673 -0.00679667 1.0717673 -0.00679667 2.16518646 -0.01373065 C4.55957663 -0.02639176 6.95373985 -0.0247532 9.34815979 -0.02310181 C11.06475619 -0.02908593 12.7813499 -0.03589121 14.49794006 -0.04345703 C19.16112771 -0.06113451 23.82424198 -0.0658131 28.4874599 -0.0670886 C32.37922125 -0.06898722 36.27096549 -0.0763442 40.16272026 -0.08343279 C49.3431946 -0.09972045 58.5236297 -0.10460134 67.70411682 -0.10317993 C77.17792082 -0.10197789 86.65149722 -0.12309131 96.1252436 -0.15466726 C104.25698083 -0.1808056 112.3886436 -0.19154828 120.52042252 -0.19026911 C125.3781214 -0.18975883 130.23561799 -0.19547894 135.09327507 -0.21662521 C139.66108859 -0.23596691 144.22850595 -0.23616008 148.79633331 -0.22159195 C150.47291453 -0.21949779 152.14952028 -0.22424082 153.82605934 -0.23631287 C156.11481315 -0.25172615 158.40219421 -0.2424848 160.69091797 -0.22705078 C162.61197688 -0.22868508 162.61197688 -0.22868508 164.57184505 -0.2303524 C168.48557415 0.35343731 170.12761866 1.5088535 172.90895081 4.26742554 C174.64660624 7.74273641 174.50480433 11.47622564 173.90895081 15.26742554 C171.37926606 18.54917872 169.83163749 19.95986331 165.90895081 21.26742554 C163.62496864 21.36612421 161.33815508 21.40246655 159.05204773 21.40786743 C157.99993805 21.41232412 157.99993805 21.41232412 156.92657363 21.41687083 C154.57058969 21.42555922 152.21465654 21.42706619 149.85865784 21.42855835 C148.17176708 21.43318638 146.48487738 21.43821102 144.79798889 21.44360352 C140.21120064 21.45672993 135.62442703 21.46317281 131.03762293 21.46761417 C128.17298211 21.47054418 125.30834531 21.47464882 122.44370651 21.47911835 C113.48372705 21.49279318 104.52375673 21.50246022 95.56376755 21.50632024 C85.21529735 21.51080276 74.86695912 21.52835973 64.51852906 21.55732083 C56.52270013 21.57892254 48.52690837 21.58902369 40.53105056 21.59036136 C35.75385014 21.59141036 30.97677378 21.59733854 26.19960403 21.61518097 C21.7065557 21.63163581 17.21372503 21.63382979 12.72065735 21.62504196 C11.07149041 21.62427023 9.42231188 21.62863223 7.77317429 21.63850021 C5.52179627 21.65118199 3.27119358 21.64536406 1.01982117 21.63491821 C-0.24006056 21.63638477 -1.49994228 21.63785133 -2.79800224 21.63936234 C-6.37646941 21.23518844 -8.22833003 20.40776507 -11.09104919 18.26742554 C-13.253378 15.50859223 -14.03047682 13.7520045 -14.46604919 10.26742554 C-14.03479689 6.81740711 -13.21953404 5.00404891 -11.09104919 2.26742554 C-7.51801714 -0.14273364 -4.22790196 0.01106794 0 0 Z " fill="#000000" transform="translate(99.09104919433594,134.73257446289063)"/>
<path d="M0 0 C0.71774066 -0.00453111 1.43548132 -0.00906223 2.1749717 -0.01373065 C4.58628674 -0.02641733 6.99737715 -0.02475155 9.40872192 -0.02310181 C11.13502291 -0.02908441 12.86132121 -0.03588933 14.58761597 -0.04345703 C19.28185346 -0.06115176 23.97601808 -0.06581387 28.6702857 -0.0670886 C32.58685012 -0.06898595 36.5033975 -0.07634161 40.41995537 -0.08343279 C49.65938371 -0.09972761 58.89877306 -0.10460076 68.13821411 -0.10317993 C77.67391274 -0.10197825 87.20938511 -0.12308276 96.74502647 -0.15466726 C104.92769846 -0.18080605 113.11029645 -0.19154823 121.29300988 -0.19026911 C126.18202227 -0.18975876 131.07083367 -0.19548201 135.95980453 -0.21662521 C140.55797266 -0.23596723 145.15574726 -0.23615984 149.75392914 -0.22159195 C151.44179737 -0.21949771 153.12968997 -0.22424129 154.81751633 -0.23631287 C157.12164729 -0.25172524 159.42441452 -0.24248527 161.72851562 -0.22705078 C163.66258428 -0.22868508 163.66258428 -0.22868508 165.63572502 -0.2303524 C169.5619754 0.35209172 171.20327333 1.49860872 173.99124146 4.26742554 C175.72889689 7.74273641 175.58709498 11.47622564 174.99124146 15.26742554 C172.46155671 18.54917872 170.91392814 19.95986331 166.99124146 21.26742554 C164.72216576 21.36607724 162.45024415 21.40246452 160.17903137 21.40786743 C159.48241404 21.41083855 158.78579671 21.41380968 158.06806976 21.41687083 C155.72823924 21.42555896 153.38845988 21.42706617 151.0486145 21.42855835 C149.37319835 21.43318644 147.69778325 21.43821109 146.02236938 21.44360352 C141.46650474 21.45673034 136.91065484 21.46317302 132.35477424 21.46761417 C129.5088867 21.47054443 126.6630032 21.47464915 123.81711769 21.47911835 C114.91426731 21.492794 106.01142614 21.50246033 97.10856599 21.50632024 C86.82915601 21.51080135 76.54987897 21.52835142 66.27050942 21.55732083 C58.32646909 21.57893219 50.38246617 21.58902423 42.43839675 21.59036136 C37.69302214 21.59140977 32.9477725 21.59732538 28.20242882 21.61518097 C23.73810413 21.63165222 19.27399847 21.63382177 14.80965424 21.62504196 C13.17219519 21.62427108 11.53472442 21.62862106 9.897295 21.63850021 C7.65940343 21.65120903 5.42228885 21.6453493 3.18440247 21.63491821 C1.93281688 21.63638477 0.68123129 21.63785133 -0.60828114 21.63936234 C-5.41268551 21.11386707 -8.81662295 19.73772611 -11.88375854 15.95492554 C-13.22763182 12.7445616 -13.44032455 10.71995358 -13.00875854 7.26742554 C-9.96320987 0.88627593 -6.81382456 0.01772262 0 0 Z " fill="#000000" transform="translate(98.00875854492188,259.7325744628906)"/>
<path d="M0 0 C0.69171907 -0.00311998 1.38343814 -0.00623996 2.09611839 -0.00945449 C4.4014015 -0.01739731 6.70641867 -0.01112553 9.01170349 -0.00482178 C10.66948093 -0.00753327 12.32725717 -0.01109509 13.98503113 -0.01544189 C18.47870002 -0.02454864 22.97227692 -0.02102889 27.46594739 -0.01468372 C32.17081272 -0.00961572 36.87567024 -0.01431733 41.58053589 -0.01745605 C49.4799694 -0.021093 57.3793655 -0.01630334 65.27879333 -0.0067749 C74.41061606 0.00411289 83.54234951 0.00058062 92.67417008 -0.01042771 C100.51719952 -0.01950382 108.36020209 -0.02078439 116.20323509 -0.01555037 C120.88645672 -0.01243295 125.56963637 -0.0120152 130.2528553 -0.01862335 C134.6548137 -0.024401 139.05665695 -0.02039222 143.45860291 -0.00883484 C145.07390082 -0.00619067 146.68920843 -0.00694921 148.30450249 -0.01136017 C150.5096103 -0.01682657 152.71434927 -0.00996846 154.91943359 0 C156.15329583 0.00075405 157.38715807 0.0015081 158.65841007 0.002285 C163.1628801 0.3524271 165.88487705 1.32462054 169.20872498 4.37896729 C171.40408756 8.11921465 171.77030434 11.01211156 170.89622498 15.25396729 C169.10258587 18.06400189 167.87741562 19.76337196 164.89622498 21.25396729 C162.60190648 21.35942759 160.30444051 21.39794301 158.00772095 21.40786743 C156.93239159 21.41444081 156.93239159 21.41444081 155.83533841 21.42114699 C153.42097964 21.43455567 151.00665738 21.44071845 148.5922699 21.44683838 C146.8661177 21.45473766 145.13996715 21.46300651 143.41381836 21.47161865 C137.7347929 21.49785696 132.05576 21.51314722 126.37669373 21.52740479 C124.42350573 21.53276356 122.47031779 21.53814106 120.5171299 21.54353714 C112.394217 21.56516774 104.27130611 21.58390562 96.1483717 21.59515953 C84.49735775 21.6114063 72.84667691 21.64459965 61.19578856 21.70156038 C53.00890124 21.74022478 44.82210314 21.75978802 36.63512689 21.76508009 C31.74267573 21.76873812 26.85057969 21.7808072 21.95822716 21.81318283 C17.35593026 21.84320226 12.75420452 21.84959732 8.15183067 21.83779907 C6.46233494 21.83757783 4.77281318 21.84592492 3.08340836 21.86345291 C0.7768081 21.88608251 -1.52771011 21.87788103 -3.83432007 21.86196899 C-5.12499799 21.86527914 -6.41567591 21.86858929 -7.74546528 21.87199974 C-11.97304266 21.09399526 -13.42739692 19.53824976 -16.10377502 16.25396729 C-17.53681567 13.387886 -17.41021658 11.44095946 -17.10377502 8.25396729 C-15.29499326 4.63640375 -14.16009103 2.7054834 -10.39932346 1.09796524 C-6.80200485 0.17668321 -3.7123732 0.00226805 0 0 Z " fill="#000000" transform="translate(102.10377502441406,175.74603271484375)"/>
<path d="M0 0 C1.53642151 -0.00430527 1.53642151 -0.00430527 3.10388184 -0.00869751 C5.26571202 -0.01073557 7.42756074 -0.00522378 9.58935547 0.00732422 C12.89462598 0.02338103 16.19867368 0.00746626 19.50390625 -0.01171875 C21.60677353 -0.00973627 23.70964004 -0.00589251 25.8125 0 C26.79907593 -0.00607269 27.78565186 -0.01214539 28.80212402 -0.0184021 C33.79435401 0.03266444 37.38561209 0.08028643 41.40625 3.3984375 C43.97257517 6.82020439 43.77060051 10.24484171 43.40625 14.3984375 C41.70416068 18.22813848 40.25182949 19.84781272 36.40625 21.3984375 C34.14334106 21.67259216 34.14334106 21.67259216 31.64111328 21.70483398 C30.22912155 21.72881508 30.22912155 21.72881508 28.78860474 21.75328064 C27.27289383 21.76132469 27.27289383 21.76132469 25.7265625 21.76953125 C24.68104218 21.77855972 23.63552185 21.7875882 22.55831909 21.79689026 C20.34766502 21.81139024 18.13696806 21.82027886 15.92626953 21.82397461 C12.55036874 21.83587013 9.17629633 21.88505945 5.80078125 21.93554688 C3.65105057 21.94501145 1.50130869 21.95224632 -0.6484375 21.95703125 C-2.15807571 21.98632973 -2.15807571 21.98632973 -3.69821167 22.01622009 C-8.21925884 21.98722393 -11.56549253 21.93983987 -15.21142578 19.07836914 C-18.19802728 15.71867201 -18.67222951 13.87176982 -18.59375 9.3984375 C-17.4268597 6.02742107 -16.36836534 4.05097935 -13.63867188 1.75146484 C-9.12366545 -0.25480244 -4.88801149 -0.03008729 0 0 Z " fill="#000000" transform="translate(234.59375,217.6015625)"/>
<path d="M0 0 C1.41199173 -0.0238678 1.41199173 -0.0238678 2.85250854 -0.04821777 C3.86298248 -0.04841919 4.87345642 -0.04862061 5.91455078 -0.04882812 C6.96007111 -0.05644165 8.00559143 -0.06405518 9.08279419 -0.07189941 C11.2934531 -0.08269971 13.50416304 -0.08555382 15.71484375 -0.08105469 C19.0908767 -0.08008359 22.46462792 -0.12168272 25.84033203 -0.16601562 C27.99006688 -0.17122366 30.13980962 -0.1739108 32.28955078 -0.17382812 C33.799189 -0.19842102 33.799189 -0.19842102 35.33932495 -0.22351074 C39.91711468 -0.17855843 43.2057102 -0.1173738 46.85644531 2.83203125 C49.61923215 5.83814298 50.14476059 6.63903186 50.60986328 10.66992188 C50.11559032 15.61265146 48.69658028 16.95820488 45.23486328 20.41992188 C42.85841239 21.60814732 41.34949857 21.57169918 38.69677734 21.61279297 C37.75529846 21.6288559 36.81381958 21.64491882 35.84381104 21.66146851 C31.53113505 21.7059304 27.21861339 21.74699276 22.90576172 21.77001953 C20.63222002 21.78656972 18.35873016 21.81384712 16.08544922 21.85205078 C12.80685438 21.90686881 9.52947995 21.92870281 6.25048828 21.94335938 C4.7314389 21.97736343 4.7314389 21.97736343 3.18170166 22.01205444 C-1.41392993 21.99832644 -4.72504496 21.97445808 -8.39672852 19.01611328 C-11.25384944 15.88420689 -11.72255391 14.41274225 -11.93701172 10.34570312 C-11.5933377 6.49499197 -9.75406584 4.29718939 -6.94967651 1.80944824 C-4.40108989 0.18836159 -2.99651751 0.03055247 0 0 Z " fill="#000000" transform="translate(96.76513671875,217.580078125)"/>
<path d="M0 0 C5.57894737 3.15789474 5.57894737 3.15789474 7 6 C7.42071592 9.05920574 7.48514117 11.9467746 7 15 C4.81840855 17.75569447 3.12822506 19.43588747 0 21 C-4.45827127 21.51441592 -6.50146391 21.30466095 -10.375 18.9375 C-13.51996441 15.41813506 -14.0822804 13.68998307 -14 9 C-12.75344487 5.39884074 -11.64648516 3.52417716 -8.6875 1.125 C-5.43064391 -0.23833511 -3.50329831 -0.50047119 0 0 Z " fill="#000000" transform="translate(185,218)"/>
</svg>
