<?xml version="1.0" encoding="UTF-8"?>
<svg version="1.1" xmlns="http://www.w3.org/2000/svg" width="512" height="512">
<path d="M0 0 C3.82499268 3.48882943 5.80381328 6.99889548 6.3125 12.1875 C5.81872666 18.2115347 3.76074269 22.23925731 -0.5 26.5 C-8.02624512 29.72553362 -15.64843093 28.18173082 -23.4375 26.5 C-46.83828264 21.51606049 -72.01865727 28.43523802 -92 41 C-108.47656683 52.17522615 -119.34454529 69.94886253 -123.33984375 89.37109375 C-125.91918698 104.94782734 -124.80214075 121.01102296 -120 136 C-119.63777344 137.1446875 -119.27554688 138.289375 -118.90234375 139.46875 C-110.72339605 162.75795701 -93.65609614 180.53686834 -71.6875 191.1875 C-48.15310392 201.67839885 -20.42445386 202.45129247 3.625 193.3125 C20.60636965 186.39569822 32.10076793 174.92558635 42 160 C46.31460519 153.57081108 46.31460519 153.57081108 50.19140625 152.2578125 C53.96992189 151.64777208 56.33719712 151.71182484 59.875 153.25 C60.57625 153.8275 61.2775 154.405 62 155 C62.86625 155.5878125 62.86625 155.5878125 63.75 156.1875 C65.82440125 159.19538181 66.09544686 162.44119579 66 166 C64.04464709 171.74384917 59.80605585 176.35344015 56 181 C55.46375 181.67289063 54.9275 182.34578125 54.375 183.0390625 C45.97699722 193.17319085 35.080231 200.15775517 24 207 C26.64163163 208.39846746 29.14323959 209.41639465 32.02734375 210.19140625 C70.07745036 220.78659573 104.05650387 241.35665998 129.0625 272.25 C129.77925903 273.11794189 129.77925903 273.11794189 130.51049805 274.00341797 C133.34794997 277.6101991 134.79668048 280.38923798 135 285 C133.69439223 288.11895189 132.34098512 289.71584574 129.75 291.875 C125.97630691 293.41878354 123.93640898 293.03106365 120 292 C117.80335416 289.91630753 116.12361558 288.06082578 114.3125 285.6875 C113.26415125 284.3979965 112.21198123 283.11159138 111.15625 281.828125 C110.62902344 281.18166016 110.10179687 280.53519531 109.55859375 279.86914062 C81.89774097 246.69691493 38.3432604 228.18294204 -4 224 C-6.85850192 223.85127768 -9.71218022 223.81375899 -12.57421875 223.796875 C-13.3719873 223.78986069 -14.16975586 223.78284637 -14.99169922 223.77561951 C-17.55702407 223.75818898 -20.12211808 223.75176578 -22.6875 223.75 C-23.56371002 223.74932526 -24.43992004 223.74865051 -25.34268188 223.74795532 C-38.44443803 223.76400055 -51.15657471 224.18164224 -64 227 C-64.82371094 227.17692383 -65.64742187 227.35384766 -66.49609375 227.53613281 C-72.38674933 228.8339599 -78.20111472 230.34164059 -84 232 C-84.73750488 232.20963379 -85.47500977 232.41926758 -86.23486328 232.63525391 C-111.53951915 240.01364851 -135.48166544 252.47290312 -156 269 C-156.77005371 269.6177832 -156.77005371 269.6177832 -157.55566406 270.24804688 C-170.46067744 280.66921737 -181.85773728 292.08056852 -191.78613281 305.38037109 C-192.90019334 306.86683078 -194.03880426 308.33480762 -195.1796875 309.80078125 C-211.41865838 331.12627803 -225.57641914 363.63118748 -223.8125 390.8984375 C-222.96049107 395.47798549 -221.28118205 398.71881795 -218 402 C-215.68416405 403.15791797 -214.02356144 403.26857857 -211.44335938 403.48022461 C-210.48490112 403.55922501 -209.52644287 403.6382254 -208.53894043 403.71961975 C-207.48452759 403.80054367 -206.43011475 403.88146759 -205.34375 403.96484375 C-204.23616333 404.05128647 -203.12857666 404.13772919 -201.98742676 404.22679138 C-188.5362102 405.237239 -175.06570422 405.86446403 -161.59130478 406.46851349 C-159.46053336 406.56427369 -157.3298245 406.66133353 -155.1991272 406.75872803 C-134.80373487 407.68974849 -114.41360364 408.5875496 -94 409 C-93.00107727 409.02084656 -92.00215454 409.04169312 -90.97296143 409.06317139 C-18.92753796 410.56375901 53.02621402 410.11817145 125.03399658 407.11621094 C127.97010513 407.00117131 130.90624591 406.90879143 133.84326172 406.8203125 C135.6442202 406.7556099 137.44516509 406.69052745 139.24609375 406.625 C140.05031265 406.60630859 140.85453156 406.58761719 141.68312073 406.56835938 C147.92403489 406.31573805 152.1104245 404.84563188 156.6875 400.375 C161.6166911 393.9034491 162.15701063 387.35284553 161.9140625 379.45703125 C162.06482779 375.14651457 164.0766151 372.9233849 167 370 C171.17642948 369.30661595 174.83537138 369.2534432 178.4375 371.5625 C183.60925269 379.63043419 183.07103684 390.47442356 181.3125 399.546875 C178.22898623 410.4933489 172.59005882 419.60206076 163 426 C154.91094729 430.21511182 146.23285059 431.35352254 137.3125 432.5625 C135.80222633 432.77500608 134.29197277 432.98765513 132.78173828 433.20043945 C90.29386115 439.09010689 47.26802505 441.17724629 4.40234375 441.1328125 C2.026657 441.13349018 -0.34902967 441.134464 -2.72471619 441.13571167 C-7.67008127 441.1371712 -12.61542809 441.13509402 -17.56079102 441.13037109 C-23.76564472 441.12472105 -29.97045511 441.12803449 -36.17530727 441.13380337 C-73.91248371 441.16371421 -111.63220468 440.95929201 -149.3125 438.6875 C-150.38825287 438.6244165 -151.46400574 438.56133301 -152.57235718 438.49633789 C-166.85378881 437.64995333 -181.09252295 436.57931374 -195.3125 435 C-196.02105133 434.9223642 -196.72960266 434.84472839 -197.45962524 434.76473999 C-230.91796552 431.02870439 -230.91796552 431.02870439 -241 420 C-250.79802039 406.70597233 -251.41979906 392.45556526 -249.27734375 376.60791016 C-243.63853225 340.59567292 -227.01276535 306.48410448 -202 280 C-200.93347854 278.73253971 -199.87087909 277.46176736 -198.8125 276.1875 C-189.79172238 265.87506369 -179.11140587 256.96513044 -168 249 C-167.44828125 248.60248535 -166.8965625 248.2049707 -166.328125 247.79541016 C-141.20453505 229.89629289 -112.82983731 217.57735417 -83 210 C-85.88599216 207.69988594 -88.9307648 205.83463017 -92.12597656 203.99462891 C-120.1158517 187.81187962 -138.89536784 162.70495595 -147.93359375 131.80859375 C-154.88181293 105.24578455 -150.63853652 77.48778573 -137.1875 53.625 C-119.66879811 24.7292101 -93.62945587 4.92435713 -60.89941406 -3.54345703 C-42.89066859 -7.86744527 -16.51234144 -9.76277121 0 0 Z " fill="#000000" transform="translate(253,71)"/>
<path d="M0 0 C2.00812669 -0.01718416 4.01596651 -0.06108822 6.02368164 -0.10522461 C7.29920898 -0.11360352 8.57473633 -0.12198242 9.88891602 -0.13061523 C11.05334229 -0.14519775 12.21776855 -0.15978027 13.41748047 -0.17480469 C17.91208964 0.46614076 21.17431432 2.42374749 24.06860352 5.94360352 C27.61409663 13.30091787 29.53267613 21.65995696 29.84985352 29.80688477 C30.03676403 33.38310586 30.29675074 35.99468237 31.71313477 39.29516602 C35.09429014 42.00691232 38.42142029 43.88889892 42.33032227 45.70922852 C45.71313477 47.29516602 45.71313477 47.29516602 47.92797852 49.03344727 C49.85673604 50.695301 49.85673604 50.695301 53.40063477 49.85766602 C56.56856006 49.03693289 59.60338876 47.9760826 62.65844727 46.81469727 C78.87688218 40.6727721 78.87688218 40.6727721 87.71313477 42.29516602 C93.26566881 44.95072577 95.8509904 51.06583458 98.71313477 56.29516602 C99.2790332 57.28645508 99.84493164 58.27774414 100.42797852 59.29907227 C103.66537938 65.26350726 106.26589244 70.43829805 104.71313477 77.29516602 C99.76072191 87.84595861 87.44306757 94.57976847 77.71313477 100.29516602 C76.72313477 100.62516602 75.73313477 100.95516602 74.71313477 101.29516602 C73.05458078 111.55444779 73.05458078 111.55444779 75.90991211 121.16430664 C79.12480197 124.61563061 82.94264441 127.29706204 86.8137207 129.96459961 C89.74804446 132.02013489 92.43558933 134.26795632 95.15063477 136.60766602 C96.0568457 137.34629883 96.96305664 138.08493164 97.89672852 138.84594727 C99.71313477 141.29516602 99.71313477 141.29516602 99.67016602 144.58032227 C98.62787656 148.62610705 97.42673175 152.50984883 95.96313477 156.42016602 C95.72336914 157.10981445 95.48360352 157.79946289 95.23657227 158.51000977 C93.52301723 163.12954214 91.48836584 165.98246325 87.71313477 169.29516602 C87.38313477 169.62516602 87.05313477 169.95516602 86.71313477 170.29516602 C79.31090081 171.08443407 72.9004582 169.53269057 65.90063477 167.29516602 C64.0835128 166.72659508 62.26454558 166.16388104 60.44360352 165.60766602 C59.6536499 165.35629883 58.86369629 165.10493164 58.04980469 164.84594727 C55.49332646 164.24335455 53.33079929 164.09850705 50.71313477 164.29516602 C48.40212214 165.7871252 48.40212214 165.7871252 46.21313477 167.85766602 C42.33635603 171.25787308 38.80488253 173.15169325 34.05688477 175.09985352 C29.95969488 177.26003718 28.11042376 178.36508122 26.27368164 182.66503906 C25.48790977 186.74494922 25.02098982 190.72068495 24.71313477 194.85766602 C23.11657975 211.76133796 23.11657975 211.76133796 17.71313477 216.29516602 C12.03531017 219.13407831 4.2893391 218.44755859 -1.97436523 218.54516602 C-2.69889893 218.56651611 -3.42343262 218.58786621 -4.16992188 218.60986328 C-8.92447806 218.63985532 -12.22882165 218.0282554 -16.28686523 215.29516602 C-19.03325523 211.51385589 -19.78535127 208.38322264 -20.32983398 203.77954102 C-21.64806971 189.19858646 -21.64806971 189.19858646 -29.09545898 177.49047852 C-32.95475595 175.14690818 -37.02240915 173.73475947 -41.28686523 172.29516602 C-42.00616211 171.72024414 -42.72545898 171.14532227 -43.46655273 170.55297852 C-45.21811984 169.07227086 -45.21811984 169.07227086 -47.47045898 169.38891602 C-51.50178019 170.68609565 -55.42099809 172.21620973 -59.34936523 173.79516602 C-60.94352091 174.43282829 -62.53854551 175.06832347 -64.13452148 175.70141602 C-64.83585205 175.98307617 -65.53718262 176.26473633 -66.25976562 176.55493164 C-71.18648865 178.35401922 -76.08327219 179.3084069 -81.28686523 178.29516602 C-88.71430157 174.04700132 -95.10414549 165.15484013 -98.28686523 157.29516602 C-99.25991248 150.21752762 -98.71721634 144.36899287 -94.83374023 138.31469727 C-90.64141616 132.84138527 -85.45284942 128.47042776 -80.18139648 124.06860352 C-76.05137248 120.20256043 -73.50945661 117.15452393 -73.22436523 111.35766602 C-73.62733594 107.13127086 -74.17168739 105.31455019 -77.31616211 102.44018555 C-81.74421014 99.16896077 -86.3985247 96.36787481 -91.14233398 93.58422852 C-96.50920253 90.34624533 -101.26865197 86.86152324 -103.04858398 80.62719727 C-102.82418168 73.00932972 -100.65978822 67.08527606 -97.28686523 60.29516602 C-96.80604492 59.29614258 -96.32522461 58.29711914 -95.82983398 57.26782227 C-90.11186515 46.02801545 -90.11186515 46.02801545 -83.47045898 43.64282227 C-74.58322674 41.87212134 -63.86942182 45.75581771 -55.66186523 49.04516602 C-52.04601812 50.38436865 -50.07897451 51.0061865 -46.28686523 50.29516602 C-44.20329653 48.94825654 -42.30679541 47.45989782 -40.38061523 45.89672852 C-37.00774643 43.31673559 -32.61769861 40.29516602 -28.28686523 40.29516602 C-28.18196777 39.23773193 -28.18196777 39.23773193 -28.07495117 38.15893555 C-27.74403319 34.91093836 -27.39059792 31.66575461 -27.03686523 28.42016602 C-26.92729492 27.31157227 -26.81772461 26.20297852 -26.70483398 25.06079102 C-25.78995392 16.87502198 -24.82593066 8.25642484 -18.22436523 2.73266602 C-12.16747716 -0.23134304 -6.64396843 0.03959072 0 0 Z M0.71313477 52.29516602 C0.48239258 52.91004883 0.25165039 53.52493164 0.01391602 54.15844727 C-2.63301908 60.71824294 -2.63301908 60.71824294 -5.41186523 63.17016602 C-7.93016564 64.15558791 -10.37293735 64.8870827 -12.97436523 65.60766602 C-21.61809697 68.08279988 -28.50507303 73.22773975 -35.37670898 78.87719727 C-39.17817075 81.69914128 -42.70465019 81.52429184 -47.28686523 81.29516602 C-50.46826172 80.46899414 -50.46826172 80.46899414 -53.65795898 79.32641602 C-55.38369141 78.71733398 -55.38369141 78.71733398 -57.14428711 78.09594727 C-58.32571289 77.66668945 -59.50713867 77.23743164 -60.72436523 76.79516602 C-61.93286133 76.3659082 -63.14135742 75.93665039 -64.38647461 75.49438477 C-67.35690752 74.43770903 -70.32335502 73.37107188 -73.28686523 72.29516602 C-73.28686523 73.28516602 -73.28686523 74.27516602 -73.28686523 75.29516602 C-71.68344776 76.86406371 -71.68344776 76.86406371 -69.52514648 78.29125977 C-68.7355957 78.85006836 -67.94604492 79.40887695 -67.13256836 79.98461914 C-65.87863281 80.84990234 -65.87863281 80.84990234 -64.59936523 81.73266602 C-62.18639417 83.42574516 -59.77629096 85.12038555 -57.38500977 86.84399414 C-55.18877617 88.423187 -55.18877617 88.423187 -52.23608398 89.91625977 C-48.72845942 94.19710819 -49.65688206 99.59676412 -49.78686523 104.92016602 C-49.78299805 106.6275293 -49.78299805 106.6275293 -49.77905273 108.36938477 C-49.92302274 120.90917189 -52.6359708 129.14993476 -61.28686523 138.29516602 C-63.80109092 140.69630809 -66.35820541 143.01597235 -68.98999023 145.28735352 C-71.1867919 147.20768695 -73.24783966 149.2093738 -75.28686523 151.29516602 C-74.62686523 152.61516602 -73.96686523 153.93516602 -73.28686523 155.29516602 C-69.8902007 154.17266507 -66.4946861 153.04672409 -63.09936523 151.92016602 C-62.1396582 151.60305664 -61.17995117 151.28594727 -60.19116211 150.95922852 C-59.25981445 150.64985352 -58.3284668 150.34047852 -57.36889648 150.02172852 C-56.51529541 149.73894043 -55.66169434 149.45615234 -54.78222656 149.16479492 C-53.06224002 148.56538272 -51.36012813 147.91296171 -49.67626953 147.21850586 C-46.23217653 145.88760163 -43.96332008 145.79666366 -40.28686523 146.29516602 C-37.37887974 147.99754919 -34.87806094 150.15072819 -32.28686523 152.29516602 C-26.11400471 157.05798226 -20.21053657 160.41901267 -12.85327148 163.05688477 C-9.80655726 164.52691279 -8.8521085 165.29352572 -7.28686523 168.29516602 C-6.39984783 171.46961432 -5.80462473 174.67739897 -5.22436523 177.92016602 C-5.06387695 178.77223633 -4.90338867 179.62430664 -4.73803711 180.50219727 C-4.4143826 182.22055577 -4.09454342 183.93963737 -3.77856445 185.65942383 C-2.99122159 189.87995688 -2.13957196 194.08742748 -1.28686523 198.29516602 C0.69313477 198.29516602 2.67313477 198.29516602 4.71313477 198.29516602 C4.93247681 196.96340332 4.93247681 196.96340332 5.15625 195.60473633 C5.70099786 192.30210787 6.24721933 188.9997301 6.79443359 185.69750977 C7.03069975 184.26987275 7.26638289 182.84213913 7.50146484 181.41430664 C7.84000855 179.35870934 8.18066657 177.3034718 8.52172852 175.24829102 C8.72596436 174.01240234 8.9302002 172.77651367 9.140625 171.50317383 C10.10179452 166.11734548 10.10179452 166.11734548 10.71313477 164.29516602 C12.57641602 163.49438477 12.57641602 163.49438477 15.02563477 162.98266602 C22.84516226 160.89152637 29.76759114 156.98800412 35.82641602 151.61547852 C36.34155762 151.15923096 36.85669922 150.7029834 37.38745117 150.23291016 C38.82537678 148.9260636 40.22936537 147.58216067 41.63110352 146.23657227 C46.75487873 143.00904846 51.00555604 143.69945123 56.77685547 144.96923828 C60.13251759 145.84513819 63.4528767 146.80198155 66.77563477 147.79516602 C67.92741211 148.1290332 69.07918945 148.46290039 70.26586914 148.80688477 C73.08492071 149.62569643 75.9002974 150.45530351 78.71313477 151.29516602 C79.70313477 149.64516602 80.69313477 147.99516602 81.71313477 146.29516602 C81.0122876 145.98812744 80.31144043 145.68108887 79.58935547 145.36474609 C76.39602624 143.95767302 73.21090016 142.5328939 70.02563477 141.10766602 C68.9228418 140.62491211 67.82004883 140.1421582 66.68383789 139.64477539 C59.50568404 136.41352185 55.1071505 133.88618962 50.71313477 127.29516602 C50.62009641 124.59705372 50.62404977 121.9869934 50.71313477 119.29516602 C50.81384615 114.13874337 50.73845477 109.36685663 49.65063477 104.29516602 C48.46828402 98.64044508 47.9827872 93.37450164 50.90063477 88.18188477 C52.09153045 86.4936548 53.39384452 84.8850799 54.71313477 83.29516602 C53.76051758 83.3299707 52.80790039 83.36477539 51.82641602 83.40063477 C50.5721582 83.42770508 49.31790039 83.45477539 48.02563477 83.48266602 C46.16358398 83.53487305 46.16358398 83.53487305 44.26391602 83.58813477 C38.76552095 83.13447181 35.79262894 80.53662472 31.90063477 76.85766602 C28.09864606 73.46862739 24.36072314 71.31319781 19.71313477 69.29516602 C18.94485352 68.94583008 18.17657227 68.59649414 17.38500977 68.23657227 C14.20218438 66.79797735 11.10622893 65.4206216 7.77563477 64.35766602 C5.71313477 63.29516602 5.71313477 63.29516602 4.52563477 61.04516602 C4.12344727 59.68391602 4.12344727 59.68391602 3.71313477 58.29516602 C3.34188477 57.20204102 2.97063477 56.10891602 2.58813477 54.98266602 C2.29938477 54.09579102 2.01063477 53.20891602 1.71313477 52.29516602 C1.38313477 52.29516602 1.05313477 52.29516602 0.71313477 52.29516602 Z " fill="#000000" transform="translate(404.286865234375,-0.295166015625)"/>
<path d="M0 0 C5.97552759 2.17380531 10.05438898 6.45461892 13 12 C15.70097824 19.07399064 16.08485508 26.02906417 13.1796875 33.04296875 C9.96712902 38.37241178 4.86522556 42.10425942 -1 44 C-7.60639047 44.9381272 -12.83903986 44.46369883 -18.28515625 40.4765625 C-23.67141744 35.83873396 -26.73512316 30.96241942 -28 24 C-28.23918585 17.74289814 -27.29533195 11.75969216 -23 7 C-15.37908321 1.00632523 -9.75751228 -1.06512367 0 0 Z " fill="#000000" transform="translate(408,90)"/>
</svg>
