<?xml version="1.0" encoding="UTF-8"?>
<svg version="1.1" xmlns="http://www.w3.org/2000/svg" width="512" height="512">
<path d="M0 0 C2.47018504 1.91277079 4.78832407 3.907786 7.08984375 6.01953125 C7.84523438 6.68339844 8.600625 7.34726562 9.37890625 8.03125 C18.69410978 16.69022785 25.65754801 28.14032687 30.08984375 40.01953125 C30.48171875 41.03144531 30.87359375 42.04335937 31.27734375 43.0859375 C38.26789531 64.42168339 35.05234414 87.34821902 25.43554688 107.12963867 C19.77338646 118.05592931 11.64894556 126.8997487 2.98713684 135.49645996 C1.87771439 136.60862894 0.76894789 137.72145257 -0.33922559 138.83486605 C-3.36043309 141.86658149 -6.39081907 144.88896908 -9.42290723 147.90979719 C-12.70098317 151.17898335 -15.97035255 154.45685753 -19.24085999 157.73361206 C-25.63739665 164.13960927 -32.04190897 170.53757424 -38.44926187 176.932751 C-45.91248974 184.38232599 -53.36804776 191.83955751 -60.82339517 199.29701763 C-74.12298776 212.59979579 -87.42998017 225.89514728 -100.7409668 239.18652344 C-113.65689542 252.08342864 -126.56682567 264.9863008 -139.47045898 277.89550781 C-153.53111457 291.96221892 -167.59487553 306.02581086 -181.66424447 320.08380747 C-183.16366376 321.58201947 -184.6630824 323.08023213 -186.16250038 324.57844543 C-187.26907752 325.68411726 -187.26907752 325.68411726 -188.39800974 326.81212589 C-193.59819018 332.00842595 -198.79623025 337.20686125 -203.99352074 342.40605164 C-210.32244365 348.7370948 -216.65501798 355.06445903 -222.99225899 361.38717633 C-226.22573946 364.61340622 -229.45760689 367.84120902 -232.68518448 371.07334518 C-235.63842957 374.03065998 -238.59623791 376.98332862 -241.5577896 379.93232423 C-242.6293583 381.00095989 -243.69924162 382.07128871 -244.7672775 383.14345521 C-246.21756631 384.59884377 -247.67385172 386.04795752 -249.13180828 387.49565887 C-249.93969349 388.3026773 -250.74757869 389.10969573 -251.57994527 389.94116926 C-255.16872637 393.14207522 -258.45751275 395.25393673 -263.24923706 395.88154602 C-264.07137758 395.9944633 -264.8935181 396.10738058 -265.74057198 396.2237196 C-267.0579073 396.38621936 -267.0579073 396.38621936 -268.40185547 396.55200195 C-269.32858503 396.67494534 -270.2553146 396.79788874 -271.21012688 396.92455769 C-274.10852126 397.30393362 -277.00865877 397.66472692 -279.91015625 398.01953125 C-280.78800026 398.12801266 -281.66584427 398.23649406 -282.57028961 398.34826279 C-288.72372032 399.10263146 -294.88240313 399.80668055 -301.04296875 400.5 C-302.98201526 400.71982254 -304.92105108 400.93973937 -306.8600769 401.15974426 C-310.87815256 401.6148022 -314.89650062 402.06735866 -318.91503906 402.51831055 C-324.0381961 403.09362739 -329.16033973 403.67749886 -334.28228951 404.26345348 C-338.2677238 404.71805969 -342.25377477 405.16706507 -346.24001694 405.61452675 C-348.12908975 405.82744954 -350.0179444 406.04231822 -351.90655899 406.25926781 C-377.18114792 409.15661805 -377.18114792 409.15661805 -382.91015625 406.76953125 C-385.59658312 404.41890774 -387.66636083 402.44488023 -388.28401184 398.83378601 C-388.10006781 387.64367076 -386.78831718 376.53392294 -385.609375 365.4140625 C-385.36968702 363.12109466 -385.13025553 360.8281 -384.8910675 358.53507996 C-384.39009918 353.74793834 -383.88425006 348.96134221 -383.37524414 344.17504883 C-382.72523922 338.05675018 -382.09023881 331.93699789 -381.45921612 325.81671619 C-380.96952276 321.08808172 -380.47048137 316.36046807 -379.96879005 311.63309288 C-379.73078659 309.37729968 -379.49597923 307.12116678 -379.26450157 304.8646946 C-378.93953044 301.70791639 -378.6016099 298.55277451 -378.26049805 295.39770508 C-378.1223896 294.0158049 -378.1223896 294.0158049 -377.98149109 292.60598755 C-377.8848114 291.73588547 -377.78813171 290.86578339 -377.68852234 289.96931458 C-377.61016994 289.22626477 -377.53181753 288.48321497 -377.45109081 287.71764851 C-377.27258241 286.82726981 -377.094074 285.93689112 -376.91015625 285.01953125 C-376.7962989 284.38842324 -376.68244156 283.75731522 -376.56513399 283.10708272 C-374.59795767 275.16083316 -368.94903455 270.2242607 -363.31742859 264.67163086 C-362.20159747 263.54959737 -361.08707844 262.42625779 -359.97375709 261.30173397 C-356.91972188 258.22463426 -353.84731731 255.16647737 -350.77149284 252.11117887 C-347.4536906 248.80902649 -344.15323036 245.48961777 -340.85050964 242.1723938 C-334.3797584 235.67882092 -327.89296806 229.20150281 -321.40038302 222.72976804 C-316.12049207 217.46617104 -310.84668393 212.19655003 -305.57715797 206.9225769 C-304.45148347 205.79595639 -304.45148347 205.79595639 -303.30306808 204.64657587 C-301.77843223 203.12059393 -300.25381313 201.59459525 -298.72921059 200.06858003 C-284.4313282 185.75876045 -270.11550433 171.46700036 -255.79322103 157.18160856 C-243.51988109 144.93912682 -231.26082684 132.68249549 -219.01245117 120.41503906 C-204.77886577 106.15930574 -190.537281 91.91164804 -176.28234798 77.67725849 C-174.75993441 76.15700776 -173.23752771 74.63675015 -171.71512794 73.1164856 C-170.96614489 72.3685689 -170.21716183 71.62065221 -169.44548231 70.85007137 C-164.18320274 65.59424481 -158.92653524 60.33284558 -153.67197227 55.06930542 C-147.25863001 48.64539046 -140.83625335 42.23066903 -134.40245273 35.82724166 C-131.1236245 32.56347008 -127.84878494 29.29596026 -124.5847702 26.01736832 C-121.58918975 23.00865208 -118.58206972 20.01196857 -115.56582055 17.0239774 C-114.48396407 15.94833552 -113.40616742 14.86858915 -112.33319684 13.78408325 C-102.1235961 3.4738562 -90.60964104 -4.86900117 -76.91015625 -9.98046875 C-75.39228516 -10.56828125 -75.39228516 -10.56828125 -73.84375 -11.16796875 C-49.18675907 -19.24670981 -21.20979704 -14.4340498 0 0 Z M-85.91015625 24.01953125 C-86.55726563 24.52613281 -87.204375 25.03273438 -87.87109375 25.5546875 C-92.04690396 28.97374608 -95.52376595 32.82685755 -98.91015625 37.01953125 C-97.55696288 40.03901024 -96.04717648 42.13054002 -93.70846558 44.46173096 C-92.71988556 45.45443497 -92.71988556 45.45443497 -91.71133423 46.4671936 C-90.98916718 47.1821701 -90.26700012 47.89714661 -89.52294922 48.63378906 C-88.76187866 49.39515167 -88.00080811 50.15651428 -87.2166748 50.94094849 C-84.69994269 53.45628729 -82.17620041 55.96446786 -79.65234375 58.47265625 C-77.90598753 60.21528236 -76.16007235 61.95835056 -74.4145813 63.70184326 C-69.81911929 68.28966873 -65.21768276 72.87145642 -60.61499023 77.45202637 C-55.91940161 82.12715711 -51.22947003 86.80795293 -46.5390625 91.48828125 C-37.33496448 100.67092897 -28.12473757 109.84740395 -18.91015625 119.01953125 C-5.61326401 112.57828015 2.420896 99.2632074 7.21484375 85.796875 C12.13207617 70.18905244 9.79314117 53.42612609 2.5859375 39.01171875 C-4.9644239 25.94868385 -17.62270384 16.74944548 -31.99804688 12.38574219 C-51.40783208 7.36471324 -70.2331768 11.58319949 -85.91015625 24.01953125 Z M-121.29296875 58.20703125 C-122.65035156 59.59921875 -122.65035156 59.59921875 -124.03515625 61.01953125 C-124.94523437 61.94765625 -125.8553125 62.87578125 -126.79296875 63.83203125 C-127.49164063 64.55390625 -128.1903125 65.27578125 -128.91015625 66.01953125 C-124.58007556 71.19609526 -120.03551126 76.03265714 -115.25244141 80.79077148 C-114.51029388 81.53306503 -113.76814636 82.27535858 -113.00350952 83.04014587 C-110.57111097 85.4718526 -108.13519892 87.90000664 -105.69921875 90.328125 C-104.00363673 92.02184025 -102.30827662 93.71577768 -100.61312866 95.40992737 C-96.16678225 99.85246904 -91.7174401 104.29199845 -87.26745605 108.730896 C-82.720753 113.26734089 -78.17690523 117.80664377 -73.6328125 122.34570312 C-64.7280443 131.23977007 -55.82020367 140.13075317 -46.91015625 149.01953125 C-42.85569067 144.99881947 -42.85569067 144.99881947 -39.09765625 140.70703125 C-38.37578125 139.82015625 -37.65390625 138.93328125 -36.91015625 138.01953125 C-38.26191132 135.00643012 -39.76941401 132.90938311 -42.09838867 130.57733154 C-42.7545517 129.91552887 -43.41071472 129.2537262 -44.08676147 128.5718689 C-44.80578644 127.8568924 -45.5248114 127.14191589 -46.265625 126.40527344 C-47.02348297 125.64391083 -47.78134094 124.88254822 -48.56216431 124.09811401 C-51.06898538 121.58248874 -53.58305339 119.07425117 -56.09765625 116.56640625 C-57.83907896 114.82363679 -59.58020466 113.0805705 -61.32104492 111.33721924 C-64.96957329 107.68574161 -68.62169704 104.03790829 -72.27636719 100.39257812 C-76.9710631 95.70929343 -81.65670221 91.01706619 -86.33970642 86.32209396 C-89.9321888 82.72240212 -93.52939939 79.12746583 -97.12808228 75.53397369 C-98.85839874 73.80499538 -100.58721979 72.07451922 -102.31454468 70.34255219 C-104.72313307 67.9289118 -107.13799228 65.52173039 -109.5546875 63.11621094 C-110.27371246 62.39313751 -110.99273743 61.67006409 -111.73355103 60.92507935 C-112.38971405 60.27455597 -113.04587708 59.62403259 -113.72192383 58.95379639 C-114.29268143 58.38379284 -114.86343903 57.81378929 -115.45149231 57.22651291 C-118.11341915 55.02388296 -118.81950625 55.93631158 -121.29296875 58.20703125 Z M-149.42172301 87.28270102 C-150.01940281 87.88114026 -150.61708261 88.4795795 -151.23287392 89.09615326 C-152.26819045 90.12549665 -152.26819045 90.12549665 -153.32442248 91.17563486 C-154.46545918 92.32541008 -154.46545918 92.32541008 -155.62954712 93.49841309 C-156.43571578 94.3028729 -157.24188445 95.10733272 -158.07248247 95.9361701 C-160.31772192 98.17867459 -162.558392 100.42563428 -164.79725647 102.67450023 C-167.2094545 105.09530475 -169.62739801 107.5103581 -172.04466248 109.92610168 C-176.23479045 114.11517902 -180.42122998 118.30791374 -184.60521317 122.50312805 C-190.65461479 128.56875763 -196.70950672 134.62888183 -202.76576929 140.68766016 C-212.59059918 150.51687142 -222.41095096 160.35054423 -232.22851562 170.18701172 C-241.76751858 179.74436208 -251.30861196 189.29961753 -260.85253906 198.85205078 C-261.44045174 199.44048891 -262.02836443 200.02892704 -262.63409264 200.63519663 C-265.58337903 203.58709302 -268.53270672 206.53894814 -271.48205495 209.49078274 C-295.96449604 233.99397006 -320.43968188 258.5043934 -344.91015625 283.01953125 C-340.27407906 288.49849228 -340.27407906 288.49849228 -335.34133911 293.70860291 C-334.70202957 294.34928711 -334.06272003 294.98997131 -333.40403748 295.65007019 C-332.38443687 296.66427788 -332.38443687 296.66427788 -331.34423828 297.69897461 C-330.24564735 298.79778458 -330.24564735 298.79778458 -329.12486267 299.91879272 C-326.72492968 302.318034 -324.3214837 304.71372254 -321.91796875 307.109375 C-320.24480695 308.78066998 -318.5718671 310.45218717 -316.8991394 312.12391663 C-312.51197686 316.50727476 -308.12181868 320.8876205 -303.73101807 325.26733398 C-299.24463775 329.74345543 -294.76111333 334.22243551 -290.27734375 338.70117188 C-281.49106526 347.47674968 -272.70161765 356.24914596 -263.91015625 365.01953125 C-258.6160104 360.59616457 -253.68414012 355.93338332 -248.817276 351.04690552 C-248.03133653 350.26182047 -247.24539705 349.47673542 -246.43564123 348.66785991 C-243.8154733 346.04933274 -241.19888407 343.42725923 -238.58227539 340.80517578 C-236.69970789 338.92232608 -234.81694291 337.03967583 -232.93392944 335.15727234 C-228.88685834 331.11072421 -224.84161435 327.06235708 -220.79762459 323.01272964 C-214.95077502 317.15773439 -209.1011484 311.30552009 -203.25085204 305.45396911 C-193.75796806 295.95889942 -184.26731689 286.46160124 -174.77807617 276.96289062 C-165.56310577 267.73873364 -156.34708003 258.51563317 -147.12963867 249.29394531 C-146.56096158 248.7250055 -145.99228449 248.15606568 -145.40637476 247.56988527 C-142.55332882 244.71553424 -139.70026218 241.86120391 -136.84718525 239.00688386 C-113.1982989 215.34763989 -89.55303894 191.68477473 -65.91015625 168.01953125 C-67.34312504 165.03465226 -68.75203238 162.9267877 -71.09838867 160.57733154 C-72.08263321 159.58462753 -72.08263321 159.58462753 -73.08676147 158.5718689 C-74.16529892 157.49940414 -74.16529892 157.49940414 -75.265625 156.40527344 C-76.02348297 155.64391083 -76.78134094 154.88254822 -77.56216431 154.09811401 C-80.06898538 151.58248874 -82.58305339 149.07425117 -85.09765625 146.56640625 C-86.83907896 144.82363679 -88.58020466 143.0805705 -90.32104492 141.33721924 C-93.96957329 137.68574161 -97.62169704 134.03790829 -101.27636719 130.39257812 C-105.9710631 125.70929343 -110.65670221 121.01706619 -115.33970642 116.32209396 C-118.9321888 112.72240212 -122.52939939 109.12746583 -126.12808228 105.53397369 C-127.85839874 103.80499538 -129.58721979 102.07451922 -131.31454468 100.34255219 C-133.72313307 97.9289118 -136.13799228 95.52173039 -138.5546875 93.11621094 C-139.63322495 92.0316008 -139.63322495 92.0316008 -140.73355103 90.92507935 C-141.38971405 90.27455597 -142.04587708 89.62403259 -142.72192383 88.95379639 C-143.57806023 88.09879107 -143.57806023 88.09879107 -144.45149231 87.22651291 C-146.51975337 85.51511586 -147.37067567 85.56870395 -149.42172301 87.28270102 Z M-353.91015625 311.01953125 C-354.82817128 318.96455702 -355.74126727 326.91012658 -356.64821625 334.85642242 C-357.06957205 338.5468132 -357.49257276 342.23699941 -357.91943359 345.92675781 C-358.33188068 349.49246913 -358.73987497 353.05866514 -359.1448822 356.62522888 C-359.29959552 357.98084924 -359.45586964 359.33629247 -359.61378479 360.69154358 C-360.40602316 367.49920068 -361.12161097 374.16235679 -360.91015625 381.01953125 C-345.97412147 380.41614886 -331.18861431 378.68596848 -316.34765625 376.95703125 C-313.87179412 376.67209709 -311.39588295 376.38758875 -308.91992188 376.10351562 C-302.91609305 375.41375681 -296.91288859 374.71876484 -290.91015625 374.01953125 C-296.70919814 366.92437679 -303.23317457 360.55134504 -309.7109375 354.0859375 C-310.95564634 352.84055428 -312.20020676 351.59502271 -313.44462585 350.34934998 C-316.0393442 347.75316426 -318.63584565 345.15877895 -321.23364258 342.56567383 C-324.57070294 339.23434602 -327.90320582 335.89850068 -331.23441792 332.56132603 C-333.79669751 329.99544522 -336.36133868 327.43193558 -338.92671776 324.86915398 C-340.15750814 323.63903224 -341.3875518 322.40816293 -342.61684608 321.1765461 C-344.32590451 319.46496455 -346.03810661 317.75659315 -347.7512207 316.04907227 C-348.51715042 315.2801062 -348.51715042 315.2801062 -349.29855347 314.49560547 C-351.26573467 312.07813104 -351.26573467 312.07813104 -353.91015625 311.01953125 Z " fill="#4d1300" transform="translate(457.91015625,33.98046875)"/>
<path d="M0 0 C0.85502145 -0.00438225 1.7100429 -0.00876451 2.59097409 -0.01327956 C5.47286266 -0.0266968 8.35472063 -0.03285297 11.2366333 -0.03897095 C13.29613382 -0.0468696 15.35563296 -0.0551384 17.41513062 -0.06375122 C24.19318312 -0.08999826 30.97124188 -0.10528129 37.74932861 -0.11953735 C40.08015192 -0.12489588 42.41097518 -0.13027339 44.7417984 -0.13566971 C54.43540791 -0.15730214 64.12901573 -0.17603989 73.82264328 -0.1872921 C87.72776663 -0.20353753 101.6326108 -0.2367258 115.53762889 -0.29369295 C125.30753359 -0.33235817 135.07736351 -0.35192074 144.84734273 -0.35721266 C150.68604189 -0.36087072 156.52444348 -0.37294051 162.36306 -0.4053154 C167.85587508 -0.43533573 173.34821159 -0.44172926 178.84109116 -0.42993164 C180.85751247 -0.4297104 182.87395561 -0.43805679 184.89030075 -0.45558548 C187.64310352 -0.47821437 190.39416174 -0.47001153 193.14697266 -0.45410156 C193.94523051 -0.46798365 194.74348836 -0.48186574 195.56593585 -0.49616849 C201.3046601 -0.41442862 203.81659667 1.03635639 207.82745361 5.15390015 C209.68978786 8.87856864 209.3987619 13.09885328 208.82745361 17.15390015 C207.15537892 20.27968158 205.04183012 22.54671189 201.82745361 24.15390015 C199.29578377 24.24945007 196.79175584 24.28405431 194.25991821 24.27415466 C193.07803169 24.27543869 193.07803169 24.27543869 191.87226868 24.27674866 C189.20935849 24.27841099 186.54651045 24.27286865 183.88360596 24.26742554 C181.95098688 24.26711938 180.0183677 24.26725239 178.08574867 24.26779079 C172.89582516 24.26801717 167.70592456 24.26220837 162.51600647 24.25518036 C157.65147833 24.24949842 152.78695584 24.24921795 147.92242432 24.24850464 C133.68243103 24.24325087 119.44244204 24.2292898 105.20245361 24.21640015 C57.49682861 24.18546265 57.49682861 24.18546265 8.82745361 24.15390015 C8.82745361 148.23390015 8.82745361 272.31390015 8.82745361 400.15390015 C132.90745361 400.15390015 256.98745361 400.15390015 384.82745361 400.15390015 C384.62945754 336.90745618 384.62945754 336.90745618 384.37701416 273.66122437 C384.35443115 261.43734741 384.35443115 261.43734741 384.35023499 255.71740723 C384.34557085 251.71669695 384.32681084 247.71631738 384.29957581 243.71569824 C384.26530307 238.61378316 384.25499332 233.51234958 384.26209223 228.41033006 C384.26060764 226.53720922 384.25067854 224.66407171 384.23137796 222.79104972 C384.20651568 220.260908 384.21249626 217.73263807 384.22618103 215.20245361 C384.21161771 214.46918917 384.19705439 213.73592472 384.18204975 212.98044014 C384.2646265 207.30253258 385.94387249 204.99552221 389.82745361 201.15390015 C393.76249571 199.1863791 398.53800582 199.68967419 402.82745361 200.15390015 C405.82942825 201.95508493 407.27911727 203.05722747 408.82745361 206.15390015 C408.93415887 208.89881964 408.97966881 211.61886046 408.98135376 214.3644104 C408.98573601 215.2235154 408.99011827 216.08262041 408.99463332 216.96775889 C409.00805076 219.86346699 409.01420677 222.75914463 409.02032471 225.65487671 C409.02822334 227.72422932 409.03649214 229.79358054 409.04510498 231.8629303 C409.07135219 238.67344848 409.08663506 245.4839729 409.10089111 252.29452515 C409.10624964 254.63649245 409.11162714 256.97845972 409.11702347 259.32042694 C409.13865592 269.06035962 409.15739368 278.80029061 409.16864586 288.54024124 C409.18489137 302.51192711 409.21807983 316.48333513 409.27504671 330.45491624 C409.31371155 340.27152968 409.33327445 350.0880687 409.33856642 359.90475631 C409.34222453 365.77140054 409.35429484 371.63774862 409.38666916 377.50431061 C409.41668882 383.02338986 409.42308325 388.54199282 409.4112854 394.06113625 C409.41106416 396.08723282 409.41941099 398.11335111 409.43693924 400.13937187 C409.459567 402.90530913 409.45136576 405.66950997 409.43545532 408.43545532 C409.44933741 409.23760412 409.4632195 410.03975293 409.47752225 410.86620927 C409.39599057 416.61718151 407.95642149 419.13570208 403.82745361 423.15390015 C400.93383158 424.60071116 398.42972889 424.28484189 395.19499588 424.29091454 C394.50225256 424.29356636 393.80950924 424.29621819 393.0957737 424.29895037 C390.75121365 424.30667087 388.40670573 424.30720359 386.06213379 424.30780029 C384.37351465 424.3118131 382.68489648 424.31625102 380.99627948 424.32107985 C376.33773729 424.33307137 371.67920547 424.33869975 367.02065086 424.343261 C362.00347587 424.34920731 356.98631334 424.36081952 351.96914673 424.37155151 C339.84378513 424.39609718 327.71841939 424.41070549 315.59304059 424.42361158 C312.17017568 424.42732182 308.74731118 424.43129519 305.32444668 424.43536425 C284.08362799 424.46059817 262.84280868 424.48265833 241.6019783 424.49509239 C236.67974088 424.49802225 231.75750348 424.50098389 226.83526611 424.5039978 C225.00009533 424.50511688 225.00009533 424.50511688 223.12785038 424.50625856 C203.29915047 424.51891803 183.47054012 424.55214781 163.64188209 424.59379964 C143.29930596 424.63618187 122.95677571 424.6597831 102.61415553 424.66501296 C91.18638651 424.6684312 79.75875745 424.68023511 68.3310318 424.71311569 C58.60058436 424.74106634 48.87030556 424.75213747 39.13982108 424.74092023 C34.17297555 424.73572087 29.20648345 424.73870308 24.23968887 424.76338577 C19.69461632 424.78578469 15.15015299 424.78521168 10.60507044 424.7661819 C8.95899644 424.7633687 7.31288195 424.7690533 5.66687337 424.78399484 C3.43159579 424.80304819 1.19850257 424.79135146 -1.03672409 424.7719326 C-2.27884431 424.77328913 -3.52096452 424.77464566 -4.80072474 424.7760433 C-9.29613914 423.94658327 -10.9447508 422.34451655 -14.17254639 419.15390015 C-15.6193574 416.26027812 -15.30348813 413.75617542 -15.30956078 410.52144241 C-15.3122126 409.82869909 -15.31486443 409.13595577 -15.31759661 408.42222023 C-15.32531711 406.07766018 -15.32584983 403.73315226 -15.32644653 401.38858032 C-15.33045934 399.69996118 -15.33489726 398.01134301 -15.33972609 396.32272601 C-15.35171761 391.66418382 -15.35734599 387.00565201 -15.36190724 382.3470974 C-15.36785355 377.3299224 -15.37946576 372.31275987 -15.39019775 367.29559326 C-15.41474342 355.17023166 -15.42935173 343.04486593 -15.44225782 330.91948712 C-15.44596806 327.49662221 -15.44994143 324.07375771 -15.45401049 320.65089321 C-15.47924441 299.41007452 -15.50130457 278.16925521 -15.51373863 256.92842484 C-15.51666849 252.00618741 -15.51963013 247.08395002 -15.52264404 242.16171265 C-15.52339009 240.93826546 -15.52413614 239.71481826 -15.5249048 238.45429692 C-15.53756427 218.62559701 -15.57079405 198.79698665 -15.61244588 178.96832862 C-15.65482811 158.62575249 -15.67842934 138.28322225 -15.6836592 117.94060206 C-15.68707744 106.51283304 -15.69888135 95.08520399 -15.73176193 83.65747833 C-15.75971258 73.92703089 -15.77078371 64.19675209 -15.75956647 54.46626762 C-15.75436711 49.49942208 -15.75734932 44.53292998 -15.78203201 39.56613541 C-15.80443094 35.02106286 -15.80385792 30.47659953 -15.78482814 25.93151698 C-15.78201494 24.28544298 -15.78769954 22.63932849 -15.80264108 20.9933199 C-15.82169443 18.75804232 -15.8099977 16.52494911 -15.79057884 14.28972244 C-15.79193537 13.04760223 -15.7932919 11.80548201 -15.79468954 10.52572179 C-14.96522951 6.03030739 -13.36316279 4.38169573 -10.17254639 1.15390015 C-6.97705779 -0.44384415 -3.51033261 0.00216469 0 0 Z " fill="#4d1300" transform="translate(35.17254638671875,67.84609985351563)"/>
</svg>
