<?xml version="1.0" encoding="UTF-8"?>
<svg version="1.1" xmlns="http://www.w3.org/2000/svg" width="512" height="512">
<path d="M0 0 C2.50208704 0.88054804 5.00489413 1.75864688 7.5090332 2.63330078 C12.52605389 4.38995205 17.53610406 6.16500655 22.54150391 7.95458984 C28.54227103 10.09974371 34.55346362 12.21246106 40.57421875 14.30078125 C42.27539749 14.89117488 43.97656945 15.48158804 45.67773438 16.07202148 C46.50490967 16.35906952 47.33208496 16.64611755 48.18432617 16.94186401 C51.57924999 18.12266209 54.97108245 19.31221121 58.36306763 20.50141907 C72.5593513 25.47676742 86.78568728 30.36455016 101.01169586 35.25404739 C119.05083757 41.45475793 137.08882529 47.65875428 155.10302734 53.93164062 C156.87054175 54.5470376 158.63827272 55.161813 160.40625 55.77587891 C165.04873663 57.38896166 169.68692062 59.013225 174.31716919 60.66113281 C175.80559023 61.19051936 177.29495229 61.71726579 178.78512573 62.24169922 C181.00123227 63.02451259 183.21202865 63.82080318 185.421875 64.62109375 C186.0804097 64.85171005 186.7389444 65.08232635 187.41743469 65.31993103 C192.85422903 67.31811652 195.49944461 69.52750027 198.5 74.4375 C199.56072073 77.64212453 199.65231255 80.66989614 199.70532227 84.03222656 C199.72526749 85.15308655 199.74521271 86.27394653 199.76576233 87.42877197 C199.79083107 89.23520172 199.79083107 89.23520172 199.81640625 91.078125 C199.83718735 92.31544373 199.85796844 93.55276245 199.87937927 94.82757568 C199.93365872 98.10888691 199.98391779 101.39022733 200.03222656 104.67163086 C200.08256092 108.02333104 200.1382636 111.3749372 200.19335938 114.7265625 C200.30044509 121.29680464 200.40223036 127.86711298 200.5 134.4375 C201.17691895 134.75493164 201.85383789 135.07236328 202.55126953 135.39941406 C203.8910083 136.04475098 203.8910083 136.04475098 205.2578125 136.703125 C206.14098145 137.12368164 207.02415039 137.54423828 207.93408203 137.97753906 C213.92503795 141.38628468 218.29228952 147.335157 220.83984375 153.6875 C222.87852894 162.1800111 222.85033765 171.83887711 218.47265625 179.54296875 C216.60022036 183.19008283 216.2602666 185.61739275 217.42456055 189.6003418 C217.90707275 190.76734619 218.38958496 191.93435059 218.88671875 193.13671875 C219.14499954 193.77180862 219.40328033 194.4068985 219.66938782 195.06123352 C220.49669361 197.08769253 221.34162102 199.10623318 222.1875 201.125 C222.73752638 202.46239845 223.28636609 203.80028559 223.83398438 205.13867188 C226.75710357 212.27421157 226.75710357 212.27421157 229.76782227 219.37304688 C232.98994295 226.97756879 234.56211979 234.96105072 231.546875 242.96875 C227.77980229 249.35846827 222.99423708 252.55918818 216.05102539 254.80230713 C211.73950606 255.8758544 207.51668865 255.86546489 203.09375 255.8359375 C202.12900757 255.83880768 201.16426514 255.84167786 200.17028809 255.84463501 C198.14330453 255.84666421 196.11630087 255.84121505 194.08935547 255.82861328 C191.00833846 255.81254349 187.92863306 255.82850144 184.84765625 255.84765625 C182.86718464 255.84567362 180.88671384 255.84182952 178.90625 255.8359375 C177.54179749 255.84504654 177.54179749 255.84504654 176.14978027 255.8543396 C168.67621654 255.7732179 161.22177543 254.66172974 155.5 249.4375 C152.16777181 269.45600748 152.22978209 285.8518995 157.5 305.4375 C159.36785156 305.63472656 159.36785156 305.63472656 161.2734375 305.8359375 C167.40656279 306.48353458 171.64173333 309.25542906 175.75 313.6875 C180.64979632 319.83189699 182.01644697 325.6907955 181.5 333.4375 C181.19096017 334.77667261 180.86360482 336.11210179 180.5 337.4375 C181.799375 337.355 183.09875 337.2725 184.4375 337.1875 C190.79276065 337.22740745 195.78914168 339.01063636 200.55078125 343.2734375 C206.64961076 349.86471908 207.9815514 355.58003449 207.81640625 364.46484375 C207.09171711 371.27334293 203.69743484 376.0861592 198.5 380.4375 C194.03968163 383.50731144 189.74656763 385.01629373 184.5 386.4375 C178.41120575 407.47924012 179.18823959 425.11963488 184.5 446.4375 C185.675625 446.52 186.85125 446.6025 188.0625 446.6875 C195.22145692 447.62182595 199.90589662 451.13080239 204.27734375 456.66796875 C208.35746709 462.57306739 208.21171974 469.51191948 207.5 476.4375 C205.72347992 483.08258461 201.05486632 487.6101247 195.5 491.4375 C191.4296773 493.42506567 188.10922196 493.68956468 183.60162544 493.69476891 C182.91655883 493.69827498 182.23149221 493.70178105 181.525666 493.70539337 C179.22512928 493.71471322 176.92484538 493.70978257 174.6242981 493.70492554 C172.96012696 493.70866155 171.29595758 493.71326287 169.631791 493.71865618 C165.05438948 493.73090854 160.47706094 493.73062306 155.89964676 493.72826743 C150.96414815 493.72785981 146.0286731 493.7388935 141.09318542 493.74838257 C131.41999833 493.76500784 121.7468356 493.77049288 112.07363541 493.77160732 C104.20774636 493.77255746 96.34186536 493.77666605 88.47597885 493.78300858 C66.16980145 493.8006283 43.8636433 493.80984678 21.55745889 493.80834763 C19.75301088 493.80822776 19.75301088 493.80822776 17.91210938 493.80810547 C16.70767256 493.80802371 15.50323574 493.80794195 14.26230083 493.80785771 C-5.24002464 493.8070455 -24.74227274 493.82616473 -44.24457584 493.8543822 C-64.27428188 493.88313363 -84.30395022 493.89692112 -104.33367741 493.89519465 C-115.57666038 493.89453133 -126.81956234 493.89999755 -138.0625267 493.92155075 C-147.63965733 493.93979266 -157.21667026 493.94408548 -166.79381077 493.9305319 C-171.67667869 493.92401631 -176.55932103 493.92383379 -181.44216728 493.9412384 C-185.92091369 493.95703763 -190.39925697 493.95403602 -194.87799396 493.93667014 C-196.48981183 493.93361515 -198.10166032 493.93717539 -199.71344207 493.94839029 C-213.06420543 494.03505954 -225.60389634 492.14307616 -237.625 485.875 C-238.28258301 485.53621826 -238.94016602 485.19743652 -239.61767578 484.84838867 C-258.59347014 474.61849808 -271.37545378 456.95133829 -277.9375 436.625 C-283.08174468 415.29085973 -279.94382521 393.31082616 -269.0625 374.4296875 C-265.3178168 368.34457731 -260.63004302 363.36787069 -255.5 358.4375 C-254.84515625 357.77492188 -254.1903125 357.11234375 -253.515625 356.4296875 C-244.62970039 347.9614773 -233.19844791 342.69421077 -221.5 339.4375 C-224.14380772 336.7135769 -226.76556047 334.21941987 -229.75 331.875 C-243.39819262 320.18502632 -251.1064601 301.92713806 -253.5 284.4375 C-254.94690227 261.19488656 -249.29317321 239.54613799 -233.75 221.6875 C-222.30189329 209.70652346 -206.15749455 199.7960833 -189.5 197.4375 C-187.52 197.4375 -185.54 197.4375 -183.5 197.4375 C-183.5 173.0175 -183.5 148.5975 -183.5 123.4375 C-187.13 122.4475 -190.76 121.4575 -194.5 120.4375 C-196.7434866 119.72828881 -198.98015172 118.99669618 -201.20556641 118.23266602 C-202.39695221 117.82536758 -203.58833801 117.41806915 -204.81582642 116.99842834 C-206.07780556 116.56294876 -207.33971594 116.12726987 -208.6015625 115.69140625 C-209.93185041 115.23426248 -211.26220455 114.77731139 -212.59262085 114.32054138 C-215.36170206 113.36891621 -218.12988846 112.41474393 -220.89746094 111.45874023 C-224.42003586 110.24220448 -227.94491632 109.03251139 -231.4705143 107.82476902 C-234.21179557 106.8847768 -236.95174352 105.94094569 -239.69132614 104.99601555 C-240.98969317 104.54872704 -242.28847328 104.1026355 -243.58769608 103.65783882 C-266.29544969 95.87620862 -266.29544969 95.87620862 -270.609375 88.5546875 C-272.58765633 83.85193101 -272.00877547 78.90729579 -270.375 74.1875 C-266.22047255 68.09419307 -261.22234627 65.56840558 -254.44140625 63.3359375 C-253.64521378 63.0617952 -252.8490213 62.78765289 -252.02870178 62.50520325 C-249.37730381 61.59541185 -246.72004632 60.70415539 -244.0625 59.8125 C-242.17126181 59.16708987 -240.28048461 58.52032756 -238.39013672 57.87231445 C-234.29582737 56.47047784 -230.19923193 55.07560301 -226.10107422 53.68505859 C-216.81370189 50.52911487 -207.54765127 47.31162566 -198.27905273 44.10107422 C-193.52896712 42.45578774 -188.77719374 40.81553598 -184.02368164 39.18017578 C-174.26737643 35.82292635 -164.51430964 32.46296391 -154.8046875 28.97265625 C-153.43550268 28.48444924 -152.06620552 27.99655715 -150.69677734 27.5090332 C-148.3356862 26.66498444 -145.97873513 25.80920173 -143.62744141 24.93823242 C-138.10553195 22.9745017 -134.21670164 21.79096682 -128.5 23.4375 C-125.68027069 25.80243426 -125.52149169 27.2655665 -125.0625 30.9375 C-125.59182208 35.17207665 -126.2029171 35.83345705 -129.5 38.4375 C-132.25956304 39.72188034 -135.10973728 40.64818432 -138.00390625 41.58203125 C-138.85770874 41.86843475 -139.71151123 42.15483826 -140.59118652 42.44992065 C-142.44123266 43.06908698 -144.29309032 43.68286095 -146.14651489 44.2918396 C-150.11997415 45.59747429 -154.08469919 46.9287339 -158.05015564 48.25843811 C-160.1138852 48.95015768 -162.1780705 49.64051894 -164.24269104 50.32957458 C-173.82119044 53.52946436 -183.35803124 56.84304369 -192.88717651 60.18658447 C-197.31003125 61.73797651 -201.73515747 63.28286121 -206.16015625 64.828125 C-207.44672874 65.27751938 -207.44672874 65.27751938 -208.7592926 65.73599243 C-217.22782846 68.69325892 -225.69798876 71.6456806 -234.17721558 74.57217407 C-235.71174695 75.10255544 -237.24571528 75.63456895 -238.77908325 76.16830444 C-240.87207389 76.89652697 -242.96697347 77.61895696 -245.0625 78.33984375 C-246.23941406 78.74710693 -247.41632813 79.15437012 -248.62890625 79.57397461 C-251.5 80.4375 -251.5 80.4375 -254.5 80.4375 C-254.5 81.0975 -254.5 81.7575 -254.5 82.4375 C-253.21335449 82.70087158 -251.92670898 82.96424316 -250.60107422 83.2355957 C-245.55447357 84.35991398 -240.75135289 85.94213831 -235.8828125 87.66796875 C-234.53786209 88.13823235 -234.53786209 88.13823235 -233.16574097 88.61799622 C-231.27404574 89.28046393 -229.3831975 89.94535476 -227.49316406 90.61254883 C-224.66908268 91.60943898 -221.84264602 92.59937166 -219.015625 93.58789062 C-207.13280037 97.75283975 -195.30158517 102.04793801 -183.5 106.4375 C-183.44811523 105.82624268 -183.39623047 105.21498535 -183.34277344 104.58520508 C-183.26575195 103.77978271 -183.18873047 102.97436035 -183.109375 102.14453125 C-183.03686523 101.34764893 -182.96435547 100.5507666 -182.88964844 99.72973633 C-181.92546167 94.05758749 -177.98339168 90.62061154 -173.5 87.4375 C-164.14672432 84.17812572 -153.79462707 83.29481291 -144 81.9375 C-143.23855682 81.83077972 -142.47711365 81.72405945 -141.69259644 81.61410522 C-67.93517849 71.308668 6.24435088 72.12636776 79.875 83 C80.56595764 83.09987213 81.25691528 83.19974426 81.96881104 83.30264282 C101.73305113 86.18997206 101.73305113 86.18997206 107.5 92.4375 C109.89263734 97.13648284 111.5 101.13055914 111.5 106.4375 C112.57499756 106.03515137 113.64999512 105.63280273 114.75756836 105.21826172 C128.45275029 100.11903131 142.24687664 95.32390304 156.0625 90.5625 C159.40974639 89.40816091 162.75678814 88.25324277 166.10325623 87.09664917 C168.16501108 86.384125 170.22721938 85.67291127 172.28993225 84.96316528 C173.20947189 84.64548187 174.12901154 84.32779846 175.07641602 84.00048828 C175.88514664 83.72181915 176.69387726 83.44315002 177.52711487 83.15603638 C179.53717747 82.46646314 179.53717747 82.46646314 181.5 81.4375 C180.96401184 81.25196564 180.42802368 81.06643127 179.87579346 80.87527466 C179.10886169 80.60979828 178.34192993 80.3443219 177.55175781 80.07080078 C176.67640884 79.76779556 175.80105988 79.46479034 174.89918518 79.15260315 C172.89506483 78.45886878 170.89094497 77.76513297 168.88682556 77.07139587 C163.13590629 75.08068573 157.38497745 73.09000324 151.6340332 71.09936523 C139.88995166 67.03422568 128.14597278 62.96879037 116.40234375 58.90234375 C98.88046594 52.83532916 81.3583111 46.76913257 63.83203125 40.71484375 C62.69167419 40.32086899 61.55131714 39.92689423 60.37640381 39.52098083 C54.64163661 37.53993598 48.90642439 35.56019505 43.17041016 33.58276367 C32.58681211 29.93267782 22.00761003 26.27117551 11.44290161 22.56671143 C6.63543406 20.88132779 1.82605445 19.20143694 -2.98339844 17.52172852 C-5.26387826 16.72336715 -7.54336182 15.92215359 -9.82177734 15.11791992 C-12.97118569 14.00637781 -16.12384819 12.90457033 -19.27734375 11.8046875 C-20.19873642 11.47649017 -21.12012909 11.14829285 -22.06944275 10.81015015 C-30.25042354 7.97584933 -36.71051345 6.62104025 -45.18359375 9.41796875 C-46.26742592 9.75600777 -46.26742592 9.75600777 -47.37315369 10.10087585 C-57.76716406 13.39097252 -68.04521565 17.0698783 -78.31323242 20.73071289 C-80.98759069 21.68190831 -83.66703242 22.61741474 -86.34765625 23.55078125 C-87.14986099 23.84132889 -87.95206573 24.13187653 -88.77857971 24.43122864 C-93.9005739 26.19896851 -98.07526584 26.85836862 -103.5 26.4375 C-106 24.875 -106 24.875 -107.5 22.4375 C-108.03145495 18.71731532 -108.29106069 16.50109153 -106.00048828 13.42138672 C-102.59583498 10.72013572 -99.08429622 9.56354985 -94.9921875 8.1953125 C-94.15269562 7.9044577 -93.31320374 7.61360291 -92.44827271 7.31393433 C-89.76080343 6.38583977 -87.06811856 5.47405421 -84.375 4.5625 C-82.61812869 3.95807923 -80.86161443 3.35261958 -79.10546875 2.74609375 C-75.60836972 1.53953713 -72.104909 0.35442199 -68.59667969 -0.81933594 C-65.31575298 -1.92329896 -62.07622268 -3.09377484 -58.84863281 -4.34472656 C-37.41268542 -12.48965241 -21.0162875 -7.60524955 0 0 Z M-150.625 99.0625 C-151.31507141 99.16664215 -152.00514282 99.2707843 -152.71612549 99.37808228 C-154.64809679 99.67264514 -156.57802421 99.9805215 -158.5078125 100.2890625 C-159.59723145 100.46260254 -160.68665039 100.63614258 -161.80908203 100.81494141 C-164.70244109 101.31760303 -164.70244109 101.31760303 -167.5 103.4375 C-167.93812747 105.73645074 -167.93812747 105.73645074 -167.84057617 108.43798828 C-167.84034958 109.47891632 -167.84012299 110.51984436 -167.83988953 111.59231567 C-167.82440567 112.71942963 -167.80892181 113.84654358 -167.79296875 115.0078125 C-167.78872391 116.15917694 -167.78447906 117.31054138 -167.78010559 118.49679565 C-167.76327052 122.18559855 -167.72560874 125.87386136 -167.6875 129.5625 C-167.67245944 132.05858588 -167.65876995 134.55468029 -167.64648438 137.05078125 C-167.6133512 143.17987275 -167.56310389 149.3086478 -167.5 155.4375 C-166.55540043 155.44081015 -165.61080086 155.44412029 -164.63757706 155.44753075 C-141.67012638 155.52846809 -118.70274287 155.62076614 -95.73538589 155.72502708 C-84.62861767 155.77518261 -73.52185695 155.82162519 -62.41503906 155.859375 C-52.73612489 155.89228102 -43.05726835 155.93210453 -33.37841773 155.98029006 C-28.25193762 156.00556885 -23.12549582 156.02734608 -17.99897003 156.04084396 C-13.17601098 156.05365176 -8.35318319 156.07569234 -3.53029633 156.10488319 C-1.75817786 156.113969 0.01396174 156.11965153 1.78610229 156.12171364 C4.20209487 156.1250291 6.6177137 156.14048693 9.03363037 156.1590271 C9.73791349 156.15709237 10.44219661 156.15515763 11.16782165 156.15316427 C14.7519123 156.1943981 17.50766981 156.36068367 20.5 158.4375 C21.90457737 161.24665474 21.74895157 163.32560534 21.5 166.4375 C20.44825268 168.60037613 20.44825268 168.60037613 18.5 170.4375 C15.88889737 170.84249418 13.69190766 170.98485393 11.07795715 170.95648193 C10.31585314 170.96398319 9.55374913 170.97148444 8.76855105 170.979213 C6.20716166 170.99956173 3.64665145 170.99137379 1.08520508 170.98339844 C-0.74773539 170.99212958 -2.58066823 171.00261374 -4.41358948 171.01472473 C-9.39678425 171.04266168 -14.37973127 171.04598772 -19.362993 171.04500484 C-24.56808678 171.04812735 -29.77306788 171.07373169 -34.97810364 171.09698486 C-44.8378075 171.13759927 -54.69744514 171.15789835 -64.5572198 171.17095876 C-75.7808355 171.1868104 -87.0043382 171.22521825 -98.22788846 171.26555204 C-121.31855771 171.34802545 -144.4092159 171.40127092 -167.5 171.4375 C-167.5 179.6875 -167.5 187.9375 -167.5 196.4375 C-80.71 196.4375 6.08 196.4375 95.5 196.4375 C95.5 188.1875 95.5 179.9375 95.5 171.4375 C91.92542969 171.41171875 88.35085938 171.3859375 84.66796875 171.359375 C81.21272849 171.32098215 77.75763886 171.27581287 74.30249023 171.22998047 C71.89794077 171.20172413 69.49329761 171.18053294 67.08862305 171.16650391 C63.63541532 171.14513945 60.1833397 171.09852094 56.73046875 171.046875 C55.65226364 171.04564636 54.57405853 171.04441772 53.46318054 171.04315186 C52.46236954 171.02343323 51.46155853 171.0037146 50.43041992 170.98339844 C49.54883713 170.97451599 48.66725433 170.96563354 47.75895691 170.95648193 C45.5 170.4375 45.5 170.4375 43.71528625 168.5947876 C42.07310503 165.67970716 42.07952536 163.73121804 42.5 160.4375 C44.04506466 158.40082385 45.22146156 157.57676922 47.5 156.4375 C49.04142175 156.31927029 50.58761097 156.26050189 52.13330078 156.23217773 C53.09414581 156.21223251 54.05499084 156.19228729 55.04495239 156.17173767 C56.60438065 156.14666893 56.60438065 156.14666893 58.1953125 156.12109375 C59.25789276 156.10031265 60.32047302 156.07953156 61.41525269 156.05812073 C64.81843438 155.99259739 68.22169489 155.93372727 71.625 155.875 C73.92839366 155.83181743 76.23177926 155.78820323 78.53515625 155.74414062 C84.19002021 155.63691318 89.84496303 155.53515198 95.5 155.4375 C95.57594813 148.22931655 95.62855678 141.02123595 95.66479492 133.81274414 C95.67989881 131.35957992 95.70038321 128.90644276 95.72631836 126.45336914 C95.76263057 122.93108445 95.77971036 119.40915619 95.79296875 115.88671875 C95.80845261 114.78663986 95.82393646 113.68656097 95.83988953 112.55314636 C95.84011612 111.53231461 95.84034271 110.51148285 95.84057617 109.4597168 C95.84723801 108.56036911 95.85389984 107.66102142 95.86076355 106.73442078 C95.6734569 104.38899492 95.6734569 104.38899492 94.20072937 102.67634583 C91.32723383 100.5832333 87.91663029 100.41380735 84.4765625 99.9375 C83.67198608 99.81658997 82.86740967 99.69567993 82.03845215 99.57110596 C79.40243046 99.17955823 76.76412559 98.80750582 74.125 98.4375 C72.29147321 98.17306434 70.45797732 97.90841428 68.62451172 97.64355469 C53.61914542 95.50085335 38.6103736 93.66927923 23.5 92.4375 C22.27474609 92.33453613 21.04949219 92.23157227 19.78710938 92.12548828 C-37.05836412 87.54281065 -94.31005401 90.42818808 -150.625 99.0625 Z M178.23754883 99.87109375 C177.32761673 100.185625 176.41768463 100.50015625 175.48017883 100.82421875 C174.48254013 101.17097656 173.48490143 101.51773438 172.45703125 101.875 C171.42301682 102.23335938 170.38900238 102.59171875 169.32365417 102.9609375 C167.11483614 103.72693525 164.90629299 104.493726 162.69799805 105.26123047 C159.40038391 106.4069653 156.10163847 107.54939179 152.80273438 108.69140625 C150.64576243 109.43989987 148.48885955 110.18859256 146.33203125 110.9375 C145.3769014 111.26806396 144.42177155 111.59862793 143.43769836 111.93920898 C132.74856859 115.65964129 122.14044658 119.5682467 111.5 123.4375 C111.5 147.5275 111.5 171.6175 111.5 196.4375 C128.33 196.4375 145.16 196.4375 162.5 196.4375 C168.2592566 187.63061752 168.2592566 187.63061752 166.5 182.4375 C165.86110999 180.92546032 165.19304039 179.42549848 164.5 177.9375 C160.76423029 169.91658269 160.30220017 162.2939341 163.0625 153.8125 C167.3098072 143.35645554 173.2676477 140.01878307 183.5 134.4375 C183.5 122.5575 183.5 110.6775 183.5 98.4375 C181.66712018 98.4375 179.95236987 99.27687773 178.23754883 99.87109375 Z M178.48046875 156.6328125 C176.60467639 160.08546617 176.26960033 163.55561462 176.5 167.4375 C178.09692844 172.3222223 180.9552195 175.96836601 185.5 178.4375 C189.96851047 179.74281757 193.3971201 179.81206299 197.8125 178.3125 C201.29140662 175.88535585 203.6037926 173.2299148 205.5 169.4375 C206.03718762 164.54116692 206.02418708 160.5697441 203.9375 156.0625 C200.29092612 152.13542043 196.89292399 149.77934628 191.4375 149 C185.89983198 149.82475907 181.92471455 152.15194903 178.48046875 156.6328125 Z M198.68066406 193.93139648 C195.23769193 194.73046514 191.76423692 194.54035784 188.25 194.5 C187.50492187 194.49548828 186.75984375 194.49097656 185.9921875 194.48632812 C184.1614236 194.47459246 182.33070127 194.4566585 180.5 194.4375 C178.3287587 199.60851763 176.1747661 204.78625763 174.03637695 209.97094727 C173.30669172 211.73331299 172.57234884 213.49375782 171.83325195 215.25219727 C170.77101896 217.78169761 169.7257867 220.31765728 168.68359375 222.85546875 C168.35032578 223.63899216 168.0170578 224.42251556 167.6736908 225.2297821 C166.37667312 228.42665726 165.48875974 230.809928 165.55102539 234.28637695 C166.83583667 237.19877011 167.5955564 238.04419755 170.5 239.4375 C173.64810651 239.87068873 176.7637574 239.85770266 179.9375 239.8359375 C181.3131311 239.84024277 181.3131311 239.84024277 182.71655273 239.84463501 C184.65316384 239.84667411 186.58979562 239.84115501 188.52636719 239.82861328 C191.4894011 239.81255743 194.45107098 239.82846717 197.4140625 239.84765625 C199.29687801 239.84567379 201.17969267 239.84183006 203.0625 239.8359375 C203.94800537 239.84201019 204.83351074 239.84808289 205.74584961 239.8543396 C209.16324263 239.8152939 211.92646703 239.64560631 215.15234375 238.47509766 C217.11420307 235.50885167 216.61102035 233.28440681 216.05789185 229.8520813 C215.19010823 226.0962743 213.86524603 222.65379898 212.33984375 219.12109375 C212.03051407 218.37916275 211.72118439 217.63723175 211.40248108 216.87281799 C210.4250532 214.53545291 209.43164689 212.20529576 208.4375 209.875 C207.76650336 208.27844606 207.09657155 206.68144417 206.42773438 205.08398438 C204.79740527 201.19654199 203.15272345 197.31547142 201.5 193.4375 C200.34664791 193.39383524 200.34664791 193.39383524 198.68066406 193.93139648 Z M-132.5 244.4375 C-132.5 254.0075 -132.5 263.5775 -132.5 273.4375 C-126.36634297 271.77452651 -126.36634297 271.77452651 -120.5 269.4375 C-118.65234375 269.453125 -118.65234375 269.453125 -116.4375 269.6875 C-115.36822266 269.78804688 -115.36822266 269.78804688 -114.27734375 269.890625 C-110.25463829 270.6827189 -106.38955201 272.14098266 -102.5 273.4375 C-102.5 263.8675 -102.5 254.2975 -102.5 244.4375 C-112.4 244.4375 -122.3 244.4375 -132.5 244.4375 Z M-223.01171875 234.296875 C-234.15287866 248.51336335 -239.11134157 264.35064348 -237.5 282.4375 C-234.94740898 299.33783015 -226.96271027 314.30942276 -213.1875 324.75 C-198.5323971 334.68290308 -184.49807234 337.90761951 -166.90440369 337.82518005 C-165.48932318 337.82936438 -164.07424604 337.83484786 -162.65917498 337.84149987 C-158.81245389 337.85582735 -154.96594935 337.85175019 -151.11921704 337.84433305 C-146.95502779 337.83957238 -142.79088348 337.85213608 -138.62670898 337.86235046 C-130.48812916 337.87948227 -122.34962673 337.88039089 -114.21103358 337.87513756 C-107.59813006 337.87108726 -100.98524932 337.87254958 -94.37234688 337.87788582 C-93.42928917 337.87863424 -92.48623146 337.87938266 -91.51459624 337.88015376 C-89.59858937 337.88168529 -87.6825825 337.88322364 -85.76657564 337.88476873 C-67.83278596 337.89847121 -49.89904 337.89306997 -31.96525133 337.88158352 C-15.55419853 337.87163416 0.85674181 337.88462515 17.26777727 337.90851771 C34.13143141 337.93288407 50.99503311 337.94252385 67.85870451 337.93586498 C77.32165423 337.93236977 86.78451727 337.93462582 96.24745369 337.95211601 C104.29487831 337.96680636 112.34215506 337.96751407 120.38957668 337.9500451 C124.49560137 337.94151014 128.60136151 337.93944655 132.70737267 337.95469666 C136.46422495 337.9684778 140.22058434 337.9638664 143.97740763 337.94445742 C145.98322267 337.93888339 147.9890624 337.95302268 149.99483067 337.96781152 C151.77856969 337.95309009 151.77856969 337.95309009 153.59834385 337.93807125 C155.13792801 337.93791025 155.13792801 337.93791025 156.70861489 337.93774599 C160.26557221 337.30030129 161.94049937 335.94430391 164.5 333.4375 C165.74677006 330.54043293 165.74677006 330.54043293 165.5 327.4375 C163.72960551 324.69033613 162.43708156 322.90604078 159.5 321.4375 C158.16971517 321.34380655 156.83487119 321.31090375 155.50129128 321.31000805 C154.23977082 321.30549658 154.23977082 321.30549658 152.95276511 321.30089396 C152.02360073 321.30264433 151.09443635 321.30439471 150.13711548 321.30619812 C148.66258142 321.30302455 148.66258142 321.30302455 147.1582588 321.29978687 C143.84328783 321.29376486 140.5283547 321.29478858 137.21337891 321.2956543 C134.84521927 321.29262429 132.47706021 321.28910328 130.10890198 321.28512573 C124.99879516 321.27722468 119.88869537 321.27208731 114.77858353 321.26883507 C106.70371647 321.26334319 98.62889176 321.24645072 90.55404663 321.22749329 C87.79272659 321.22113631 85.03140643 321.21482792 82.27008629 321.20851612 C81.57997062 321.20693236 80.88985496 321.2053486 80.1788267 321.20371684 C72.3200672 321.18577391 64.4613047 321.1695504 56.60253906 321.15454102 C55.88398115 321.15316514 55.16542323 321.15178927 54.42509083 321.15037171 C42.77847488 321.12843766 31.13186979 321.11768468 19.48523684 321.11017027 C7.53409418 321.10210381 -4.41695513 321.07882881 -16.3680445 321.0422166 C-23.08073255 321.02215064 -29.79327287 321.00952087 -36.50599289 321.01505089 C-42.81792254 321.01967988 -49.12954123 321.00598768 -55.44140816 320.97803879 C-57.76180183 320.97109746 -60.08222745 320.9710318 -62.40262032 320.97823906 C-65.56317085 320.9870666 -68.72268241 320.97153214 -71.88314819 320.94975281 C-72.80785113 320.95819534 -73.73255406 320.96663788 -74.6852783 320.97533625 C-80.86079987 320.89629572 -80.86079987 320.89629572 -84.06980324 318.5929842 C-86.032751 315.63457805 -86.08017761 313.91856566 -85.5 310.4375 C-84.02556229 308.28243637 -84.02556229 308.28243637 -81.5 306.4375 C-78.41186236 306.04141891 -75.6795801 305.89039045 -72.59100342 305.91851807 C-71.22605393 305.90726619 -71.22605393 305.90726619 -69.83352971 305.895787 C-66.77778711 305.87545219 -63.72278241 305.88362394 -60.66699219 305.89160156 C-58.47923038 305.88286972 -56.29147496 305.8723853 -54.10372925 305.86027527 C-48.15782421 305.83234725 -42.21212685 305.82901209 -36.26616573 305.82999516 C-30.05477654 305.82687191 -23.8434817 305.80126597 -17.63214111 305.77801514 C-7.20463313 305.74202323 3.22282825 305.7199419 13.65039062 305.70849609 C24.39066108 305.69666899 35.13086207 305.67647499 45.87109375 305.64501953 C46.53315587 305.64308343 47.195218 305.64114733 47.87734261 305.63915256 C51.19872431 305.62938803 54.52010546 305.61944993 57.84148645 305.60944796 C85.39429256 305.52698245 112.94709612 305.47293189 140.5 305.4375 C140.29141357 304.4155957 140.08282715 303.39369141 139.86791992 302.34082031 C139.59284223 300.9824409 139.31786375 299.62404139 139.04296875 298.265625 C138.90564331 297.59418457 138.76831787 296.92274414 138.62683105 296.23095703 C135.03892603 278.44884377 136.95851859 262.14490705 140.5 244.4375 C65.59 244.4375 -9.32 244.4375 -86.5 244.4375 C-86.83 258.9575 -87.16 273.4775 -87.5 288.4375 C-91.5 292.4375 -91.5 292.4375 -95.3125 292.5625 C-100.53895865 291.7637721 -105.32106694 289.63253406 -110.0949707 287.43408203 C-115.94870796 284.85520055 -119.62352373 285.6851628 -125.375 287.84765625 C-127.4487532 288.66884669 -129.51493947 289.50613585 -131.578125 290.35351562 C-135.65352175 291.95956415 -139.05441994 293.13843663 -143.5 292.4375 C-145.63378906 291.03637695 -145.63378906 291.03637695 -147.5 288.4375 C-148.12244043 285.10616791 -148.10496332 281.80361129 -148.109375 278.421875 C-148.12591125 277.45090881 -148.14244751 276.47994263 -148.15948486 275.47955322 C-148.20802119 272.38213817 -148.22934857 269.28521427 -148.25 266.1875 C-148.27815493 264.08591271 -148.30808168 261.98434836 -148.33984375 259.8828125 C-148.4137819 254.73441542 -148.46332229 249.58629192 -148.5 244.4375 C-153.01654375 244.33762746 -157.53247989 244.2655657 -162.04980469 244.21777344 C-163.58214534 244.19782276 -165.11441152 244.17065184 -166.64648438 244.13574219 C-178.03155784 243.88307084 -188.13279189 244.45125455 -196.8984375 252.59375 C-203.82541259 260.56821889 -205.88176819 267.69725296 -205.77734375 278.046875 C-205.11304757 286.16812968 -201.54327401 293.00409768 -195.5 298.4375 C-188.88246583 303.4138857 -182.72001898 305.6843608 -174.36474609 305.69287109 C-173.6777916 305.69649155 -172.9908371 305.700112 -172.2830658 305.70384216 C-170.80171403 305.71069984 -169.3203372 305.71324845 -167.83897018 305.71189499 C-165.49327394 305.71092503 -163.14802997 305.72392476 -160.80239868 305.74087524 C-154.13718069 305.78702123 -147.47201307 305.8117697 -140.80664062 305.81835938 C-136.72114693 305.82337122 -132.63613192 305.84759528 -128.55080032 305.88368607 C-126.99670916 305.89348368 -125.44255218 305.89581618 -123.88843918 305.89051437 C-121.71725866 305.88345044 -119.54750996 305.9007063 -117.37646484 305.92333984 C-115.5249733 305.9276149 -115.5249733 305.9276149 -113.63607788 305.93197632 C-109.91321917 306.53208681 -108.72525592 307.44260414 -106.5 310.4375 C-106 313.4375 -106 313.4375 -106.5 316.4375 C-108.7225044 319.42614663 -109.91162394 320.34192517 -113.62693787 320.94543457 C-115.4734066 320.95020813 -115.4734066 320.95020813 -117.35717773 320.95507812 C-118.03913712 320.9620874 -118.7210965 320.96909668 -119.42372131 320.97631836 C-121.67742763 320.99391184 -123.92987464 320.98226047 -126.18359375 320.96875 C-127.76099384 320.97144735 -129.33839231 320.9753318 -130.91578674 320.98034668 C-134.2271401 320.98624586 -137.53806207 320.97767611 -140.84936523 320.95898438 C-145.05881235 320.93636217 -149.26722977 320.94920717 -153.47663784 320.97327423 C-156.73958301 320.98786575 -160.00229238 320.98306301 -163.26524544 320.97276306 C-164.81471953 320.97012362 -166.36421614 320.97326574 -167.91366386 320.98268127 C-183.35438744 321.05583007 -196.61020282 318.08869059 -208.52734375 307.6640625 C-218.55488702 297.2635034 -220.92069805 284.51392905 -220.71484375 270.67578125 C-220.32045577 259.55697971 -215.1047721 249.47150937 -207.63671875 241.35546875 C-196.28996786 231.17035964 -183.25871242 228.98229057 -168.53523254 229.03877258 C-167.15217485 229.03332289 -165.76912181 229.0265671 -164.38607615 229.01863068 C-160.61414979 229.00071386 -156.84242139 229.00114899 -153.07046258 229.00476015 C-148.99219463 229.00538669 -144.91399156 228.98873883 -140.83575439 228.97424316 C-133.77940699 228.95150103 -126.7231088 228.93957964 -119.66672707 228.93511391 C-109.46453455 228.9286415 -99.26243085 228.90568494 -89.06027421 228.87877061 C-72.50593425 228.83554329 -55.95159804 228.8055534 -39.3972168 228.78393555 C-23.32102619 228.7629137 -7.24486623 228.73562807 8.83129883 228.69995117 C9.8230784 228.69775235 10.81485797 228.69555352 11.83669146 228.69328807 C16.81241044 228.68221811 21.78812914 228.67102536 26.76384771 228.65977156 C68.00920518 228.56664389 109.25457889 228.49524066 150.5 228.4375 C152.48 223.1575 154.46 217.8775 156.5 212.4375 C113.71316745 212.3461607 70.92634879 212.27541545 28.13943791 212.23323868 C23.0828673 212.22823613 18.02629689 212.22305881 12.96972656 212.21777344 C11.96309574 212.2167242 10.95646491 212.21567495 9.91933012 212.21459392 C-6.35907111 212.19721013 -22.63741557 212.16568365 -38.91578317 212.12888882 C-55.63100031 212.09142293 -72.34618782 212.06925222 -89.06144524 212.06114602 C-99.3675653 212.05566995 -109.67352489 212.0384026 -119.97959554 212.00583413 C-127.05620381 211.98461647 -134.13272966 211.9783163 -141.20936739 211.98349449 C-145.28629592 211.98604503 -149.36294491 211.98226094 -153.43982315 211.9606781 C-179.85968753 211.82785666 -204.21930682 212.90333606 -223.01171875 234.296875 Z M-250.58984375 376.6875 C-262.79630858 391.21773384 -264.89912823 408.20778275 -263.5 426.4375 C-262.80768766 431.01603444 -261.33436633 435.19363598 -259.5 439.4375 C-259.16097656 440.28957031 -258.82195312 441.14164062 -258.47265625 442.01953125 C-251.80083971 457.09641205 -238.60477662 468.31645801 -223.5 474.4375 C-211.71850239 478.43151125 -200.06425498 478.58486442 -187.75933838 478.57121277 C-186.15883606 478.57308284 -184.5583342 478.57538433 -182.95783305 478.57807809 C-178.57540595 478.58417765 -174.19299799 478.58406469 -169.81056762 478.58288372 C-165.07847664 478.58267926 -160.34639173 478.5882026 -155.61430359 478.59294128 C-146.35142851 478.60123698 -137.08855979 478.60399559 -127.8256813 478.60455366 C-120.29924021 478.60502909 -112.77280121 478.60708517 -105.24636078 478.61025429 C-83.90923788 478.61905591 -62.57212 478.62367413 -41.23499528 478.62292381 C-40.08543023 478.62288386 -38.93586519 478.6228439 -37.75146484 478.62280273 C-36.60049799 478.62276185 -35.44953114 478.62272097 -34.26368651 478.62267885 C-15.58906619 478.62227195 3.085534 478.63185398 21.7601485 478.6459411 C40.9333794 478.66029041 60.10660048 478.66721217 79.27983689 478.66634732 C90.04510489 478.66601498 100.81035176 478.66877882 111.57561493 478.67952538 C120.73569304 478.6886111 129.89574044 478.69082135 139.05582109 478.68401595 C143.73083973 478.6807417 148.40579936 478.68072669 153.08081245 478.6893692 C157.35769541 478.69719468 161.63447219 478.69584354 165.91135243 478.68708507 C167.4609607 478.68554139 169.01057675 478.68739867 170.56017587 478.69294515 C172.66223962 478.69997262 174.76392751 478.69473759 176.86597824 478.68638897 C178.61923357 478.68671502 178.61923357 478.68671502 180.4079082 478.68704766 C184.27228725 478.37517246 187.12969513 477.38253784 190.3125 475.1875 C192.17261431 472.44627891 192.01712419 470.6695262 191.5 467.4375 C189.8478845 464.86114728 189.11227044 463.86581245 186.5 462.4375 C182.08796034 461.6882951 177.71207189 461.76437875 173.24609375 461.80078125 C171.27070243 461.7849263 169.29531113 461.76906216 167.31992435 461.75265026 C164.55977815 461.73582436 161.79985065 461.74156429 159.03967285 461.74719238 C154.20516547 461.75364925 149.37077929 461.73090337 144.53639221 461.6985321 C141.96444241 461.68358712 139.39239856 461.67983117 136.82041931 461.68830872 C135.65563553 461.68457748 134.49085175 461.68084625 133.29077148 461.67700195 C132.26660629 461.67875931 131.2424411 461.68051666 130.1872406 461.68232727 C127.43087454 461.43120217 125.80578754 460.9425752 123.5 459.4375 C122.09542263 456.62834526 122.25104843 454.54939466 122.5 451.4375 C123.4230957 449.28027344 123.4230957 449.28027344 125.5 447.4375 C128.64833882 446.80012582 131.77669211 446.83248308 134.98046875 446.828125 C136.37245232 446.80332062 136.37245232 446.80332062 137.79255676 446.77801514 C140.75760435 446.72941573 143.72213866 446.70813778 146.6875 446.6875 C148.69729162 446.6593503 150.7070592 446.62942429 152.71679688 446.59765625 C157.64448901 446.52365355 162.5718942 446.47415194 167.5 446.4375 C167.29141357 445.3448584 167.08282715 444.2522168 166.86791992 443.12646484 C166.59285288 441.67547152 166.3178738 440.22446152 166.04296875 438.7734375 C165.90564331 438.05534912 165.76831787 437.33726074 165.62683105 436.59741211 C162.30840388 419.03635574 163.62651961 402.86816175 167.5 385.4375 C144.07 385.4375 120.64 385.4375 96.5 385.4375 C96.32958147 399.73759438 96.32958147 399.73759438 96.20214844 414.03808594 C96.17278017 415.83270843 96.14195464 417.62730793 96.109375 419.421875 C96.10824707 420.3514502 96.10711914 421.28102539 96.10595703 422.23876953 C95.96060888 428.78652652 95.96060888 428.78652652 93.6628418 432.03393555 C90.40477467 434.14824054 88.33017706 433.91577804 84.5 433.4375 C80.7798521 432.1945101 77.27455162 430.50274042 73.72851562 428.83789062 C67.56805395 426.09313047 63.90864757 426.49710943 57.625 428.84765625 C55.5512468 429.66884669 53.48506053 430.50613585 51.421875 431.35351562 C47.34647825 432.95956415 43.94558006 434.13843663 39.5 433.4375 C37.36621094 432.03637695 37.36621094 432.03637695 35.5 429.4375 C34.87755957 426.10616791 34.89503668 422.80361129 34.890625 419.421875 C34.87408875 418.45090881 34.85755249 417.47994263 34.84051514 416.47955322 C34.79197881 413.38213817 34.77065143 410.28521427 34.75 407.1875 C34.72184507 405.08591271 34.69191832 402.98434836 34.66015625 400.8828125 C34.5862181 395.73441542 34.53667771 390.58629192 34.5 385.4375 C3.7134779 385.34618664 -27.07301314 385.27542884 -57.85963839 385.23323868 C-61.4969206 385.22823605 -65.13420256 385.22305874 -68.77148438 385.21777344 C-69.8576288 385.21619957 -69.8576288 385.21619957 -70.96571554 385.21459392 C-82.67958091 385.19720386 -94.3933675 385.16567393 -106.10718618 385.12888882 C-118.13282152 385.09144036 -130.15841569 385.06925591 -142.18410695 385.06114602 C-148.93617574 385.05615717 -155.68808048 385.04419032 -162.44009018 385.01457977 C-168.79791729 384.98739032 -175.15549269 384.97906231 -181.51337242 384.98506927 C-183.84416892 384.98397064 -186.174974 384.97603809 -188.50572014 384.9606781 C-191.69486508 384.94069552 -194.88306709 384.94559155 -198.07223511 384.95648193 C-198.98860713 384.94483057 -199.90497915 384.9331792 -200.84912002 384.92117476 C-208.47052717 384.99123487 -214.76354617 387.14467606 -221.25 391.125 C-228.13216319 398.19833439 -231.82571722 406.14419408 -232.875 415.9375 C-231.80439399 425.92982273 -228.16689311 433.09061968 -220.83984375 440.00390625 C-212.67087438 446.473421 -202.78223917 446.87513084 -192.77662659 446.80931091 C-191.52879912 446.81313548 -190.28097165 446.81696004 -188.99533123 446.8209005 C-185.55745891 446.82854217 -182.12008237 446.82291668 -178.68225205 446.81160367 C-174.96521394 446.80270938 -171.24821096 446.81126534 -167.53117371 446.81781006 C-161.09903702 446.82694437 -154.66697176 446.82565517 -148.23483467 446.81762505 C-138.93189996 446.80637587 -129.62906666 446.81544917 -120.32614075 446.83018685 C-105.22662487 446.85392952 -90.12712154 446.86732032 -75.02758789 446.87133789 C-73.67353047 446.87170519 -73.67353047 446.87170519 -72.29211836 446.87207992 C-62.21006516 446.87462845 -52.12801292 446.87519109 -42.04595947 446.87414551 C-38.38391114 446.87381244 -34.7218628 446.87352706 -31.05981445 446.87329102 C-30.15609124 446.87322823 -29.25236803 446.87316544 -28.32125927 446.87310075 C-13.26800561 446.87249657 1.78519002 446.88734684 16.8384195 446.91412407 C26.12260781 446.92994967 35.40660917 446.93216593 44.69079954 446.91699005 C51.04398996 446.9075494 57.39706729 446.91224229 63.75024437 446.92820387 C67.4185482 446.93692703 71.08655193 446.93896975 74.75484085 446.92367744 C78.72521426 446.90725695 82.69513432 446.92142144 86.66551208 446.93870544 C88.41644493 446.92399528 88.41644493 446.92399528 90.20275015 446.90898794 C91.79088776 446.92338418 91.79088776 446.92338418 93.41110897 446.93807125 C94.32802893 446.93796391 95.24494888 446.93785658 96.18965429 446.93774599 C98.5 447.4375 98.5 447.4375 100.29852444 449.27730805 C101.90795687 452.1709857 101.84713812 454.17440165 101.5 457.4375 C99.5 460.4375 99.5 460.4375 96.5 461.4375 C94.8137278 461.53106888 93.12397091 461.56662012 91.43510628 461.56892776 C90.38168136 461.57276891 89.32825644 461.57661005 88.24290955 461.5805676 C86.50088267 461.57926787 86.50088267 461.57926787 84.72366333 461.57794189 C82.8776024 461.58239858 82.8776024 461.58239858 80.99424732 461.5869453 C77.57143109 461.59413419 74.14866505 461.59680529 70.72584486 461.59754276 C67.03644719 461.59939215 63.34706044 461.60693916 59.65766907 461.61367798 C51.58491875 461.62726968 43.5121734 461.63328803 35.43941355 461.63768864 C30.39641496 461.64045106 25.35341828 461.64468855 20.31042099 461.64919281 C6.34304233 461.66138925 -7.6243348 461.67168608 -21.59171867 461.6750679 C-22.93318448 461.67539725 -22.93318448 461.67539725 -24.30175061 461.67573325 C-25.19819458 461.67595153 -26.09463855 461.67616981 -27.01824749 461.6763947 C-28.83475614 461.67683816 -30.65126479 461.67728473 -32.46777344 461.67773438 C-33.36882317 461.6779558 -34.26987291 461.67817723 -35.19822718 461.67840537 C-49.78099421 461.68234883 -64.36371112 461.69978732 -78.9464588 461.7230939 C-93.92493291 461.74683913 -108.90338193 461.75927129 -123.88187516 461.76043582 C-132.28889131 461.76135109 -140.69584228 461.76706541 -149.10284042 461.78525543 C-156.2660737 461.80069964 -163.42922165 461.8057517 -170.59246843 461.79751733 C-174.24369452 461.79362533 -177.89474905 461.79446872 -181.54595375 461.80857468 C-185.51531765 461.82376854 -189.48444352 461.81540366 -193.4538269 461.80499268 C-194.59287094 461.81304908 -195.73191498 461.82110548 -196.9054755 461.82940602 C-210.76795461 461.74478224 -223.22305832 458.70948418 -233.81640625 449.40234375 C-242.82765437 439.98071621 -247.29911664 428.45869006 -247.8125 415.5625 C-247.51067564 403.52725365 -243.08453779 391.02203779 -234.5 382.4375 C-225.4740547 375.21991633 -216.5051378 370.31725805 -204.83729649 370.30721474 C-204.16558311 370.30527131 -203.49386974 370.30332788 -202.80180141 370.30132556 C-200.54082766 370.29599219 -198.27991477 370.29776961 -196.01893616 370.29946899 C-194.38562576 370.29705138 -192.75231597 370.29418924 -191.11900705 370.29091966 C-186.62267118 370.28315734 -182.12635056 370.28154676 -177.63000882 370.28086853 C-172.78398938 370.27903049 -167.93797891 370.27142465 -163.09196472 370.26438904 C-154.69208449 370.25285785 -146.29220628 370.24461652 -137.89232063 370.23826981 C-124.62086281 370.22795207 -111.3494301 370.20739132 -98.07798767 370.18515015 C-93.53950986 370.17767034 -89.00103193 370.17025664 -84.46255398 370.16286278 C-83.32832458 370.16101221 -82.19409518 370.15916165 -81.02549519 370.157255 C-68.11148166 370.13632361 -55.19746535 370.11749667 -42.28344727 370.09960938 C-41.10273737 370.09797119 -39.92202748 370.09633301 -38.7055385 370.09464519 C-19.56178991 370.06834698 -0.41803939 370.04971081 18.72571962 370.03301747 C38.36889873 370.01561158 58.01203985 369.98678336 77.65518862 369.9481281 C89.77801418 369.92470015 101.90077784 369.91073102 114.02362622 369.90880047 C122.32704166 369.90669498 130.63039545 369.89379847 138.93378323 369.87232114 C143.72827232 369.86026504 148.522639 369.85315878 153.31714249 369.85903358 C157.70346094 369.86431218 162.08952922 369.85590984 166.47580583 369.83647721 C168.06526023 369.83188615 169.65473895 369.83239325 171.24418854 369.83842559 C173.40024632 369.84588001 175.55545854 369.83500196 177.71145535 369.81946754 C178.91034246 369.81811102 180.10922957 369.81675449 181.3444466 369.81535685 C185.79950823 369.2818924 188.3709869 367.5665131 191.5 364.4375 C192.08442963 361.56512267 192.08442963 361.56512267 191.5 358.4375 C188.94382222 355.20473714 187.44048419 353.62377493 183.34723991 352.81305552 C181.55085747 352.81346409 181.55085747 352.81346409 179.71818447 352.81388092 C179.04572605 352.80721291 178.37326764 352.8005449 177.68043169 352.79367483 C175.42230531 352.77740461 173.16590455 352.79682843 170.90782166 352.81604004 C169.27450593 352.81171187 167.64119478 352.80519664 166.00789553 352.79667997 C161.51573995 352.77965415 157.02414002 352.79389364 152.53201354 352.81319475 C147.68858703 352.82859634 142.84522975 352.81522616 138.00180054 352.80545044 C128.51002201 352.79090588 119.01845702 352.80317755 109.5266987 352.82456368 C98.47133948 352.84855887 87.41602937 352.84686006 76.36064989 352.84425777 C56.62881664 352.84056518 36.89708399 352.8614104 17.1652832 352.89550781 C-1.97406561 352.92856914 -21.11330875 352.94277165 -40.25268555 352.93652344 C-61.09120949 352.92975398 -81.92968912 352.93223786 -102.76820654 352.95188284 C-103.87111942 352.95292232 -104.97403231 352.95396181 -106.1103668 352.9550328 C-108.32545491 352.95712369 -110.54054301 352.95923466 -112.75563108 352.96136597 C-120.45751921 352.96825391 -128.15939369 352.96893209 -135.86128426 352.96748352 C-145.25587988 352.96604126 -154.65038946 352.97578043 -164.04495657 352.99942988 C-168.83626864 353.01126279 -173.62746104 353.01843317 -178.418787 353.01259232 C-182.81036742 353.00739717 -187.20169567 353.01619069 -191.59323304 353.03586692 C-193.17672515 353.04058266 -194.76024201 353.04033762 -196.34373022 353.03445655 C-219.1402222 352.95801331 -235.25055146 360.17267316 -250.58984375 376.6875 Z M50.5 385.4375 C50.5 395.0075 50.5 404.5775 50.5 414.4375 C53.8 413.4475 57.1 412.4575 60.5 411.4375 C66.59513792 409.77518966 70.47075985 411.21870573 76.14453125 413.52734375 C78.39006269 414.55764329 78.39006269 414.55764329 80.5 414.4375 C80.5 404.8675 80.5 395.2975 80.5 385.4375 C70.6 385.4375 60.7 385.4375 50.5 385.4375 Z " fill="#4d1300" transform="translate(279.5,13.5625)"/>
</svg>
