<?xml version="1.0" encoding="UTF-8"?>
<svg version="1.1" xmlns="http://www.w3.org/2000/svg" width="512" height="512">
<path d="M0 0 C0.66879181 -0.00407553 1.33758362 -0.00815105 2.02664185 -0.01235008 C5.58156002 -0.03313416 9.13644072 -0.04745669 12.69140625 -0.05688477 C15.57704382 -0.06565301 18.46218534 -0.08631625 21.34765625 -0.1184082 C43.71407525 -0.36146183 65.15670811 1.08793163 86.75 7.48828125 C87.77706055 7.78565186 88.80412109 8.08302246 89.86230469 8.3894043 C122.2031317 17.98138824 151.66919507 33.23376236 178.0625 54.23828125 C179.09761719 55.04910156 180.13273437 55.85992187 181.19921875 56.6953125 C196.77719259 69.3611427 211.32520308 83.93187456 223.0625 100.23828125 C223.91426801 101.38492997 224.76715463 102.5307485 225.62109375 103.67578125 C231.66853133 111.86738327 237.05348412 120.37731523 242.0625 129.23828125 C242.4646875 129.94549316 242.866875 130.65270508 243.28125 131.38134766 C256.29775099 154.50089062 265.031052 179.64997878 270.375 205.61328125 C270.52235596 206.32379639 270.66971191 207.03431152 270.8215332 207.76635742 C273.80794017 223.40869176 274.43730954 239.04504218 274.375 254.92578125 C274.37226578 256.37686783 274.37226578 256.37686783 274.36947632 257.85726929 C274.32404826 272.19019102 273.81516072 286.13602042 271.0625 300.23828125 C270.90152832 301.13530762 270.74055664 302.03233398 270.57470703 302.95654297 C261.76471851 351.64421249 238.32143453 396.66834033 204.0625 432.23828125 C203.43037598 432.89763672 202.79825195 433.55699219 202.14697266 434.23632812 C193.00252521 443.7245843 183.70515991 452.46448565 173.0625 460.23828125 C171.91144983 461.09634277 170.76040823 461.95441576 169.609375 462.8125 C161.41974019 468.85005521 152.91711724 474.23285427 144.0625 479.23828125 C143.35528809 479.64046875 142.64807617 480.04265625 141.91943359 480.45703125 C118.79989063 493.47353224 93.65080247 502.20683325 67.6875 507.55078125 C66.97698486 507.69813721 66.26646973 507.84549316 65.53442383 507.99731445 C49.89208949 510.98372142 34.25573907 511.61309079 18.375 511.55078125 C17.40760895 511.54895844 16.4402179 511.54713562 15.44351196 511.54525757 C1.11059023 511.49982951 -12.83523917 510.99094197 -26.9375 508.23828125 C-27.83452637 508.07730957 -28.73155273 507.91633789 -29.65576172 507.75048828 C-78.34343124 498.94049976 -123.36755908 475.49721578 -158.9375 441.23828125 C-159.59685547 440.60615723 -160.25621094 439.9740332 -160.93554688 439.32275391 C-170.42380305 430.17830646 -179.1637044 420.88094116 -186.9375 410.23828125 C-187.79556152 409.08723108 -188.65363451 407.93618948 -189.51171875 406.78515625 C-195.54927396 398.59552144 -200.93207302 390.09289849 -205.9375 381.23828125 C-206.3396875 380.53106934 -206.741875 379.82385742 -207.15625 379.09521484 C-225.11442835 347.19840353 -236.964219 310.05579252 -237.17578125 273.30078125 C-237.17985678 272.63198944 -237.1839323 271.96319763 -237.18813133 271.2741394 C-237.20891541 267.71922123 -237.22323794 264.16434053 -237.23266602 260.609375 C-237.24143426 257.72373743 -237.2620975 254.83859591 -237.29418945 251.953125 C-237.53724308 229.586706 -236.08784962 208.14407314 -229.6875 186.55078125 C-229.39012939 185.5237207 -229.09275879 184.49666016 -228.78637695 183.43847656 C-219.19439301 151.09764955 -203.94201889 121.63158618 -182.9375 95.23828125 C-182.12667969 94.20316406 -181.31585938 93.16804688 -180.48046875 92.1015625 C-167.81463855 76.52358866 -153.24390669 61.97557817 -136.9375 50.23828125 C-135.79085128 49.38651324 -134.64503275 48.53362662 -133.5 47.6796875 C-125.30839798 41.63224992 -116.79846602 36.24729713 -107.9375 31.23828125 C-107.23028809 30.83609375 -106.52307617 30.43390625 -105.79443359 30.01953125 C-73.89762228 12.0613529 -36.75501127 0.21156225 0 0 Z M-117.9375 75.23828125 C-118.75347656 75.86089844 -119.56945312 76.48351562 -120.41015625 77.125 C-127.25102696 82.46976903 -133.63909609 88.27441551 -139.9375 94.23828125 C-140.86820312 95.11484375 -141.79890625 95.99140625 -142.7578125 96.89453125 C-149.90345519 103.81623642 -155.97675666 111.29451632 -161.9375 119.23828125 C-162.659375 120.18832031 -163.38125 121.13835937 -164.125 122.1171875 C-199.03196147 168.95523932 -213.95293186 229.23343771 -205.68676758 286.98730469 C-203.8668095 298.61011763 -201.394124 309.99295321 -197.9375 321.23828125 C-197.69692871 322.02444824 -197.45635742 322.81061523 -197.20849609 323.62060547 C-189.51688901 348.19912352 -177.58034148 370.81656763 -161.9375 391.23828125 C-161.00357422 392.46224609 -161.00357422 392.46224609 -160.05078125 393.7109375 C-154.70601222 400.55180821 -148.90136574 406.93987734 -142.9375 413.23828125 C-142.0609375 414.16898437 -141.184375 415.0996875 -140.28125 416.05859375 C-133.35954483 423.20423644 -125.88126493 429.27753791 -117.9375 435.23828125 C-116.51244141 436.32109375 -116.51244141 436.32109375 -115.05859375 437.42578125 C-68.22054193 472.33274272 -7.94234354 487.25371311 49.81152344 478.98754883 C61.43433638 477.16759075 72.81717196 474.69490525 84.0625 471.23828125 C84.84866699 470.99770996 85.63483398 470.75713867 86.44482422 470.50927734 C120.13975904 459.96477671 150.19062887 441.39079171 175.42285156 416.83105469 C176.88111838 415.41447745 178.35731656 414.0164121 179.8359375 412.62109375 C186.66056424 406.0548125 192.38103006 398.78573494 198.0625 391.23828125 C198.78566406 390.28695313 199.50882812 389.335625 200.25390625 388.35546875 C235.15130534 341.50690559 250.07892317 281.25005084 241.81176758 223.48925781 C239.9918095 211.86644487 237.519124 200.48360929 234.0625 189.23828125 C233.82192871 188.45211426 233.58135742 187.66594727 233.33349609 186.85595703 C222.78899546 153.16102221 204.21501046 123.11015238 179.65527344 97.87792969 C178.2386962 96.41966287 176.84063085 94.94346469 175.4453125 93.46484375 C168.87903125 86.64021701 161.60995369 80.91975119 154.0625 75.23828125 C153.11117188 74.51511719 152.15984375 73.79195312 151.1796875 73.046875 C72.28465073 14.27812312 -39.97937737 15.52308903 -117.9375 75.23828125 Z " fill="#4d1300" transform="translate(236.9375,-0.23828125)"/>
<path d="M0 0 C4.35408249 1.85206679 8.12424367 4.30143607 12 7 C12.99128906 7.68707031 13.98257813 8.37414062 15.00390625 9.08203125 C46.26482336 31.70238196 68.39559906 65.37873141 75.04296875 103.609375 C81.22079696 143.25101073 72.70467994 183.30388974 49 216 C46.4156552 219.40618625 43.74516453 222.72243993 41 226 C40.41347656 226.71027344 39.82695312 227.42054688 39.22265625 228.15234375 C15.86110728 255.75181543 -21.26835103 272.94964475 -57 276 C-72.2160931 276.69347324 -87.10041364 276.26113348 -102 273 C-102.99797607 272.7831958 -102.99797607 272.7831958 -104.01611328 272.56201172 C-132.05115156 266.24415807 -156.06969312 251.45478864 -176 231 C-176.556875 230.49984375 -177.11375 229.9996875 -177.6875 229.484375 C-184.21529607 223.43037058 -188.95098567 216.23759657 -193.80029297 208.83154297 C-194.77145999 207.34890255 -195.76005696 205.87768873 -196.75390625 204.41015625 C-217.18300872 172.73669765 -220.94039114 131.72007868 -213.49609375 95.55175781 C-205.27700084 59.3116463 -182.3487051 27.72883889 -151.9453125 6.8125 C-146.51248292 3.46922026 -142.80021703 2.53374112 -136.5078125 3.33203125 C-132.32941721 4.44496831 -129.68653803 6.67306627 -127 10 C-124.77216686 14.17718715 -124.59465275 18.09697051 -125.2890625 22.7109375 C-127.71860735 30.53353795 -135.68011317 35.14769792 -141.94921875 39.73046875 C-164.7188371 56.66919892 -179.76168942 84.07176398 -184 112 C-188.02852573 142.46861987 -180.94044284 172.84397404 -162.90625 197.91015625 C-146.04608245 219.13808459 -124.33359786 234.20337302 -98 241 C-96.87078125 241.31839844 -95.7415625 241.63679687 -94.578125 241.96484375 C-77.81160718 246.08060661 -58.58842157 245.6690523 -42 241 C-40.74960937 240.68289063 -39.49921875 240.36578125 -38.2109375 240.0390625 C-8.99893165 232.17861461 14.98969569 212.18376265 30.15234375 186.375 C45.13441054 160.04256907 48.7950875 128.93119678 41.4140625 99.67773438 C36.83169562 83.11615532 28.94354242 68.22424565 18 55 C17.31550781 54.15179688 16.63101563 53.30359375 15.92578125 52.4296875 C7.3863123 42.35911229 -3.38538737 34.72535065 -14.57421875 27.8515625 C-17.86529162 25.33953587 -19.46828114 22.7734575 -20.65234375 18.82421875 C-21.44333045 12.89723624 -20.58714245 8.84482959 -17 4 C-12.04702033 -0.83217529 -6.5694743 -1.25378202 0 0 Z " fill="#4d1300" transform="translate(325,124)"/>
<path d="M0 0 C4.39842702 2.19921351 7.29835226 4.89749787 10 9 C11.0322064 12.88648046 11.12791509 16.58142159 11.13371277 20.59042358 C11.13597833 21.23904157 11.13824388 21.88765956 11.14057809 22.55593264 C11.14688966 24.72138875 11.14609056 26.88678182 11.14526367 29.05224609 C11.14825693 30.60810934 11.15165984 32.16397184 11.15544128 33.71983337 C11.1642683 37.94095104 11.16661885 42.16204842 11.16725707 46.38317442 C11.16796828 49.02170363 11.17010395 51.66022771 11.17275429 54.29875565 C11.18200323 63.50744199 11.18608972 72.71611386 11.18530273 81.92480469 C11.18470198 90.50272624 11.19525454 99.0805849 11.2110464 107.65849054 C11.22413005 115.02849414 11.22948629 122.39847721 11.22884732 129.76849234 C11.22859259 134.16787212 11.23143027 138.56719599 11.24202538 142.96656418 C11.25172029 147.1050391 11.25177599 151.24340481 11.24450874 155.38188362 C11.24346465 156.89797818 11.24581536 158.4140796 11.2518692 159.93016243 C11.25961714 162.00543876 11.25492616 164.08034054 11.24723816 166.15560913 C11.24778293 167.31518316 11.24832769 168.47475719 11.24888897 169.66946983 C10.91300122 174.16418202 10.30810807 178.45124941 7.34375 181.9609375 C6.43109375 182.66089844 6.43109375 182.66089844 5.5 183.375 C4.58734375 184.09816406 4.58734375 184.09816406 3.65625 184.8359375 C-0.58680508 187.8180847 -4.97017587 187.54941156 -10 187 C-14.92422406 184.62907731 -17.32805833 181.70728055 -20 177 C-20.50336456 173.67037201 -20.50336456 173.67037201 -20.50793457 169.97888184 C-20.51417453 169.29603544 -20.5204145 168.61318904 -20.52684355 167.90965033 C-20.5427287 165.63407134 -20.53018803 163.35957026 -20.51757812 161.08398438 C-20.52300128 159.44752887 -20.53012502 157.81107824 -20.53881836 156.17463684 C-20.55703179 151.73865824 -20.54999244 147.30305234 -20.53730202 142.86706734 C-20.52716407 138.22138603 -20.5365699 133.5757363 -20.54284668 128.93005371 C-20.55012077 121.12892944 -20.54054165 113.32795672 -20.52148438 105.52685547 C-20.49971607 96.51197524 -20.50676761 87.49745689 -20.52879 78.48258543 C-20.5469508 70.73802963 -20.549499 62.99358268 -20.53903532 55.24901247 C-20.53280413 50.62551728 -20.53195446 46.0021921 -20.54518127 41.37870789 C-20.55674907 37.03160884 -20.54869726 32.68497566 -20.52560425 28.33792686 C-20.52032209 26.74401815 -20.52182253 25.15007013 -20.53065491 23.55617714 C-20.54161434 21.37729765 -20.52784467 19.19990344 -20.50793457 17.02111816 C-20.50642647 15.80292641 -20.50491837 14.58473465 -20.50336456 13.32962799 C-19.7198422 8.14682773 -17.19330533 5.0796572 -13.375 1.625 C-8.80155451 -0.57702931 -4.99046524 -0.80465156 0 0 Z " fill="#4d1300" transform="translate(255,89)"/>
</svg>
