<?xml version="1.0" encoding="UTF-8"?>
<svg version="1.1" xmlns="http://www.w3.org/2000/svg" width="512" height="512">
<path d="M0 0 C29.37185579 -0.74437649 55.86778651 10.24701319 77.21972656 30.23120117 C93.68437428 46.114529 106.38374547 70.09588409 107.07421875 93.28125 C107.04297005 96.74464759 106.99891784 97.82089957 104.94921875 100.71875 C101.48895082 102.99264035 98.76949297 103.28062082 94.73139954 103.27650452 C93.69233459 103.27787918 92.65326965 103.27925385 91.5827179 103.28067017 C90.44336288 103.27707489 89.30400787 103.27347961 88.13012695 103.26977539 C86.32993607 103.26999443 86.32993607 103.26999443 84.49337769 103.2702179 C81.20231343 103.2696402 77.91131175 103.26462154 74.62025857 103.25764394 C71.18093821 103.2513968 67.74161703 103.25080552 64.30229187 103.24961853 C57.78938734 103.24650924 51.27649958 103.23830125 44.76360244 103.22826904 C37.34892415 103.21709545 29.93424507 103.21159431 22.51956046 103.20657361 C7.26693684 103.19611831 -7.98567004 103.17852662 -23.23828125 103.15625 C-23.32950005 104.07592308 -23.32950005 104.07592308 -23.42256165 105.01417542 C-23.50652695 105.82104294 -23.59049225 106.62791046 -23.67700195 107.45922852 C-23.75843948 108.2579689 -23.83987701 109.05670929 -23.92378235 109.87965393 C-25.80837923 123.52188239 -36.35885914 138.03477958 -46.83398438 146.43603516 C-61.60992613 157.40565975 -79.20563323 162.54774706 -97.59765625 160.75390625 C-117.21139929 157.53405358 -133.26662464 147.7047285 -145.421875 131.890625 C-148.71108191 126.93913073 -151.04531966 121.66606599 -153.23828125 116.15625 C-153.56828125 115.34671875 -153.89828125 114.5371875 -154.23828125 113.703125 C-159.87861271 97.75834184 -157.62976945 79.18002404 -150.7421875 64.02734375 C-141.96001505 47.26137816 -129.55049491 35.85846482 -111.84765625 28.9453125 C-104.27329612 26.65486228 -97.27567118 25.83498573 -89.36328125 25.90625 C-87.90692261 25.90334961 -87.90692261 25.90334961 -86.42114258 25.90039062 C-81.34265762 25.93794265 -76.84801931 26.287798 -71.92578125 27.65625 C-68.80151911 28.35933276 -67.79585101 28.50410992 -65.046875 26.7890625 C-63.54282019 25.40608545 -62.08072448 23.97653233 -60.65625 22.51171875 C-45.36418883 7.61492896 -20.71496441 0.99951577 0 0 Z M-51.23828125 36.15625 C-50.01593459 39.82328997 -48.76890497 40.42731199 -45.67578125 42.65625 C-31.51694274 53.74498373 -26.76050733 69.1979022 -22.23828125 86.15625 C14.39171875 86.15625 51.02171875 86.15625 88.76171875 86.15625 C84.2057417 63.37636474 71.81739162 44.62425824 52.60058594 31.35400391 C20.09182049 10.17928228 -20.75866694 12.87321129 -51.23828125 36.15625 Z M-130.23828125 62.15625 C-138.36982271 73.38880304 -141.15583072 85.4096907 -140.23828125 99.15625 C-138.12919426 112.30898147 -132.11228885 124.90769103 -121.55078125 133.34375 C-109.0157543 142.04795634 -96.20967095 145.89568269 -81.0390625 143.69140625 C-66.98982224 140.8815582 -55.11776677 133.51043597 -46.86328125 121.65625 C-45.95858151 120.17397358 -45.0820777 118.67402223 -44.23828125 117.15625 C-43.84898437 116.46015625 -43.4596875 115.7640625 -43.05859375 115.046875 C-36.88204178 102.69377107 -37.36502783 88.75603468 -41.24609375 75.7890625 C-46.16481481 62.98735801 -55.2846647 52.81409199 -67.61328125 46.78125 C-90.13915737 37.1085284 -114.59385931 43.22423214 -130.23828125 62.15625 Z " fill="#E7364C" transform="translate(387.23828125,158.84375)"/>
<path d="M0 0 C1.7281651 1.49825973 3.43712136 3.01899667 5.125 4.5625 C5.96417969 5.32046875 6.80335938 6.0784375 7.66796875 6.859375 C24.74257499 23.06039674 37.72554243 46.78071415 38.4375 70.6875 C38.4062513 74.15089759 38.36219909 75.22714957 36.3125 78.125 C32.17041787 80.84693969 28.32177723 80.70632815 23.54678345 80.69621277 C22.7677895 80.69847833 21.98879555 80.70074388 21.18619573 80.70307809 C18.56763768 80.70942424 15.94913131 80.70858833 13.33056641 80.70776367 C11.45648634 80.71075478 9.58240688 80.7141572 7.70832825 80.71794128 C2.61122201 80.72679046 -2.48586745 80.72911979 -7.58298063 80.72975707 C-11.83505832 80.73070556 -16.08713207 80.73438318 -20.33920825 80.73792917 C-30.36969553 80.74607724 -40.40017384 80.74851308 -50.43066406 80.74780273 C-60.78426355 80.74720187 -71.13781095 80.75775469 -81.49139726 80.7735464 C-90.37469204 80.7866137 -99.25796978 80.79198697 -108.14127409 80.79134732 C-113.44940942 80.7910921 -118.75749847 80.79395702 -124.06562424 80.80452538 C-129.05766733 80.81419271 -134.04961978 80.81429491 -139.04166603 80.80700874 C-140.87465993 80.8059612 -142.70765943 80.80833585 -144.54064369 80.8143692 C-147.04147504 80.8220681 -149.54199175 80.8174583 -152.04281616 80.80973816 C-152.76937672 80.81488172 -153.49593728 80.82002529 -154.24451482 80.82532471 C-159.08432464 80.79227425 -162.77540666 80.16590936 -166.66015625 77.19921875 C-169.20116373 73.77580352 -168.32454256 69.60333196 -167.875 65.5625 C-163.54892687 42.49010998 -153.59356686 23.00505278 -136.875 6.5625 C-136.0396875 5.72847656 -135.204375 4.89445312 -134.34375 4.03515625 C-97.97884695 -30.49969486 -38.63227061 -30.78594203 0 0 Z M-129.875 22.5625 C-138.93212925 33.32913014 -149.875 49.06681592 -149.875 63.5625 C-93.775 63.5625 -37.675 63.5625 20.125 63.5625 C15.70906351 41.48281757 3.9330577 22.95826789 -14.515625 9.73046875 C-50.7167337 -13.63187465 -100.26587359 -10.42273784 -129.875 22.5625 Z " fill="#E7364C" transform="translate(185.875,383.4375)"/>
<path d="M0 0 C10.28921589 11.00462149 14.52494418 24.54452592 14.07421875 39.51171875 C12.57463247 53.76536206 6.03175061 65.47066117 -4.3125 75.1875 C-15.08821624 83.65298022 -27.77363809 87.91791617 -41.46875 86.96875 C-56.88001086 85.06068913 -68.53315475 78.30908159 -78.52734375 66.56640625 C-86.99975452 55.27603829 -89.59148195 42.06948383 -88.3125 28.1875 C-85.47265688 13.97224009 -78.69966883 1.99243792 -66.8984375 -6.5625 C-44.90824757 -20.52452535 -19.03282832 -17.87713476 0 0 Z M-65.01171875 13.94921875 C-71.64961761 22.50074611 -72.47799434 32.68725933 -71.3125 43.1875 C-68.13762544 54.33735708 -62.34852317 61.48681363 -52.3125 67.1875 C-42.2813781 71.15264527 -33.33455135 71.18676055 -23.3125 67.1875 C-14.31946815 62.62035817 -7.9285443 55.76419878 -4.1953125 46.37890625 C-1.26820172 35.79727126 -3.02494617 25.63479147 -8.3125 16.1875 C-12.96004502 8.5166385 -21.28691043 3.86087565 -29.77734375 1.65625 C-43.58091945 -0.89602902 -55.34060173 3.92238248 -65.01171875 13.94921875 Z " fill="#E7364D" transform="translate(158.3125,265.8125)"/>
<path d="M0 0 C9.74899474 9.15702542 14.78287031 20.6264627 16.12890625 33.89453125 C16.62688765 49.99592973 11.0293002 63.21120836 0.1328125 74.828125 C-10.36597678 84.91452321 -23.01955811 88.43324063 -37.25390625 89.12109375 C-52.20455525 88.42529982 -64.40809196 81.48830774 -74.50390625 70.80859375 C-83.54510886 60.18563005 -86.91364474 47.68621533 -86.60546875 33.90234375 C-85.26871724 19.52483861 -78.52317706 7.9708682 -68.25390625 -1.87890625 C-47.43099682 -18.6449385 -20.22870367 -16.86309613 0 0 Z M-61.96875 15.2265625 C-63.54496691 17.46563835 -64.92837372 19.72605054 -66.25390625 22.12109375 C-66.59550781 22.724375 -66.93710937 23.32765625 -67.2890625 23.94921875 C-70.77108385 31.3991249 -70.45542705 40.78474089 -68.3046875 48.546875 C-64.15613194 59.05567663 -58.13949025 64.83669835 -48.25390625 70.12109375 C-38.12159677 74.25041916 -28.06032658 72.10572783 -18.25390625 68.12109375 C-11.71540522 64.6175647 -7.80238847 59.53268156 -4.25390625 53.12109375 C-3.74150391 52.21617188 -3.74150391 52.21617188 -3.21875 51.29296875 C0.26327135 43.8430626 -0.05238545 34.45744661 -2.203125 26.6953125 C-5.99532952 17.0891919 -11.11679698 11.05338681 -20.25390625 6.12109375 C-34.64086519 0.00434528 -51.81133363 2.75538386 -61.96875 15.2265625 Z " fill="#E7364D" transform="translate(426.25390625,61.87890625)"/>
<path d="M0 0 C2.20027268 1.89467925 3.70197611 3.40395221 5 6 C5.1068142 7.97782665 5.14886075 9.95927058 5.16113281 11.93994141 C5.17074036 13.18949615 5.1803479 14.4390509 5.19024658 15.72647095 C5.19510068 17.1014996 5.199378 18.47653039 5.203125 19.8515625 C5.20736607 20.89453051 5.20736607 20.89453051 5.21169281 21.95856857 C5.22671295 25.65337251 5.23591866 29.34813728 5.24023438 33.04296875 C5.24565847 36.81703464 5.26954675 40.59072854 5.29820633 44.36467934 C5.31708937 47.29913261 5.32205215 50.2335019 5.32357025 53.16801071 C5.32655068 54.55593223 5.33441772 55.943854 5.34775543 57.33171463 C5.46409231 70.39246351 4.38541793 83.98419003 -1.625 95.8125 C-2.14658691 96.86920898 -2.14658691 96.86920898 -2.67871094 97.94726562 C-10.92877422 114.03525701 -24.85396488 124.83942925 -41.73046875 130.99609375 C-50.0992562 133.64220052 -58.0151125 134.14926524 -66.73706055 134.14526367 C-68.32366486 134.15030159 -68.32366486 134.15030159 -69.94232178 134.15544128 C-73.4237995 134.16490804 -76.90522897 134.16689183 -80.38671875 134.16796875 C-82.81093872 134.17118282 -85.23515849 134.174547 -87.65937805 134.17805481 C-92.73231456 134.18403429 -97.80523405 134.18589577 -102.87817383 134.18530273 C-109.38504528 134.18520084 -115.89180829 134.19888664 -122.39865398 134.21607494 C-127.40084843 134.2271765 -132.40301643 134.22922256 -137.40522194 134.22869301 C-139.80504546 134.22987462 -142.20486962 134.23430647 -144.60468102 134.24202538 C-147.95357336 134.25179379 -151.30222708 134.24896029 -154.65112305 134.24291992 C-155.64497513 134.24853943 -156.63882721 134.25415894 -157.66279602 134.25994873 C-159.03158401 134.253657 -159.03158401 134.253657 -160.42802429 134.24723816 C-161.21904887 134.24778293 -162.01007345 134.24832769 -162.82506847 134.24888897 C-165.32584797 133.96271149 -166.88038034 133.35070987 -169 132 C-171.48038907 128.2794164 -171.46337203 126.40203429 -171 122 C-169.13291495 119.63502561 -167.67938569 118.33969285 -165 117 C-163.55946491 116.90472726 -162.11462458 116.87098862 -160.67094421 116.86869812 C-159.30666542 116.86268585 -159.30666542 116.86268585 -157.91482544 116.85655212 C-156.91385834 116.85708084 -155.91289124 116.85760956 -154.8815918 116.8581543 C-153.82928879 116.85467987 -152.77698578 116.85120544 -151.6927948 116.84762573 C-149.39998087 116.840258 -147.10715975 116.83491806 -144.81433678 116.83133507 C-141.17701309 116.82417504 -137.53982474 116.80850853 -133.90254211 116.78999329 C-123.55768778 116.7375255 -113.21290422 116.68961476 -102.86791992 116.67407227 C-96.5436397 116.66394693 -90.21969507 116.63449866 -83.89554787 116.59275246 C-81.49202841 116.58049373 -79.08846141 116.57531175 -76.68491173 116.57755089 C-57.17544749 116.59124361 -40.98442145 115.10136072 -26.0703125 101.2265625 C-17.34894684 91.84698057 -12.8954343 78.93200062 -12.8581543 66.26953125 C-12.85467987 65.61358978 -12.85120544 64.95764832 -12.84762573 64.28182983 C-12.84030376 62.86484616 -12.83493953 61.44785128 -12.83133507 60.03085327 C-12.82413328 57.78585647 -12.80844127 55.54107367 -12.78999329 53.29614258 C-12.73768404 46.91588184 -12.68952836 40.53574427 -12.67407227 34.15527344 C-12.66398364 30.24595055 -12.63464575 26.33717611 -12.59275246 22.42807007 C-12.58045826 20.9418045 -12.57531833 19.45546147 -12.57755089 17.96914673 C-12.5799077 15.88899224 -12.55771587 13.81041036 -12.5300293 11.73046875 C-12.52416306 10.54864014 -12.51829681 9.36681152 -12.51225281 8.14916992 C-11.89462121 4.35216417 -10.70658069 2.69084219 -8 0 C-4.61786861 -1.12737713 -3.35228621 -1.06292002 0 0 Z " fill="#E7364D" transform="translate(436,287)"/>
<path d="M0 0 C1.05671402 -0.00511093 2.11342804 -0.01022186 3.2021637 -0.01548767 C6.65713327 -0.02926631 10.11190095 -0.02843699 13.56689453 -0.02612305 C15.98300245 -0.03001398 18.3991097 -0.03434947 20.81521606 -0.03910828 C25.86006905 -0.04654338 30.90485199 -0.0462971 35.94970703 -0.04101562 C42.41607458 -0.03519825 48.88215782 -0.05221985 55.34847832 -0.0753603 C60.3292712 -0.09007659 65.30999505 -0.09097265 70.29080582 -0.08785057 C72.67584933 -0.08836397 75.06089668 -0.09360525 77.44591904 -0.10366249 C80.77273006 -0.11598017 84.09897942 -0.10926497 87.42578125 -0.09765625 C88.90174019 -0.10912186 88.90174019 -0.10912186 90.40751648 -0.12081909 C95.31809236 -0.08288981 98.90972672 -0.05361287 102.82470703 3.2746582 C104.32470703 6.0871582 104.32470703 6.0871582 104.82470703 9.2746582 C103.71116456 12.49155868 102.92064281 14.58287164 99.99311733 16.43081093 C97.58563813 17.36769301 95.83284871 17.52512078 93.25514221 17.5262146 C92.34287369 17.53159744 91.43060516 17.53698029 90.49069214 17.54252625 C89.49691559 17.53840225 88.50313904 17.53427826 87.47924805 17.5300293 C85.90035545 17.53545998 85.90035545 17.53545998 84.28956604 17.54100037 C82.00224741 17.54789577 79.71491232 17.55039954 77.42758369 17.54905319 C73.79844705 17.54808768 70.1696064 17.56103625 66.54051208 17.57803345 C56.22128641 17.62427963 45.90208937 17.64888469 35.58276367 17.65551758 C29.26916507 17.66055418 22.95587252 17.68491991 16.64237785 17.72084427 C14.24443341 17.73059897 11.84644661 17.73299806 9.44848824 17.72767258 C-9.73322603 17.68709695 -25.11338821 19.11605186 -40.17529297 32.2746582 C-49.74566114 43.89466678 -54.27102934 55.89274736 -54.31713867 71.06445312 C-54.32417313 72.37238327 -54.33120758 73.68031342 -54.3384552 75.02787781 C-54.34027109 75.71677282 -54.34208698 76.40566784 -54.3439579 77.11543846 C-54.35118658 79.28891207 -54.36689544 81.46216807 -54.38529968 83.63557434 C-54.43750162 89.81008113 -54.48580036 95.98445639 -54.5012207 102.15917969 C-54.51129791 105.9476193 -54.54059818 109.73549115 -54.58254051 113.52370644 C-54.59484244 114.96334862 -54.59997322 116.40307089 -54.59774208 117.8427639 C-54.59539097 119.85291927 -54.61973624 121.86305223 -54.64526367 123.87304688 C-54.65112991 125.01553391 -54.65699615 126.15802094 -54.66304016 127.33512878 C-55.28597545 130.90980243 -56.35079487 132.06942041 -59.17529297 134.2746582 C-62.22036791 135.36776203 -63.73878067 135.39647559 -66.86279297 134.5246582 C-69.17529297 133.2746582 -69.17529297 133.2746582 -71.17529297 130.2746582 C-71.43598938 127.22328186 -71.43598938 127.22328186 -71.44995117 123.42333984 C-71.4550621 122.73016663 -71.46017303 122.03699341 -71.46543884 121.32281494 C-71.47935635 119.02672721 -71.47837472 116.73093943 -71.47607422 114.43481445 C-71.47996358 112.83117055 -71.48429875 111.22752766 -71.48905945 109.62388611 C-71.49652891 106.25540846 -71.49622779 102.88703555 -71.4909668 99.51855469 C-71.48520967 95.23181748 -71.50200766 90.94551765 -71.52531147 86.65885258 C-71.54016148 83.34109548 -71.54090468 80.02344051 -71.53780174 76.70565605 C-71.5383106 75.12743714 -71.54346523 73.54921183 -71.55361366 71.97102547 C-71.66094227 52.92413514 -67.04401058 36.74107214 -54.17529297 22.2746582 C-53.39605469 21.37360352 -53.39605469 21.37360352 -52.60107422 20.4543457 C-38.7491173 5.49557383 -19.80664076 -0.0504918 0 0 Z " fill="#E7364D" transform="translate(184.17529296875,90.725341796875)"/>
<path d="M0 0 C3.19763779 2.18785743 3.88264374 3.44522496 4.6875 7.25 C3.20254276 15.34976675 -4.4248702 20.41662303 -10.3046875 25.71289062 C-13.89963339 28.95460179 -17.35373172 32.30134406 -20.75 35.75 C-24.41354759 39.45034075 -28.12001281 43.00740365 -32.1015625 46.36328125 C-33.4485118 47.52454001 -34.75247903 48.73649974 -36.0234375 49.98046875 C-39.09183883 52.92542865 -41.25457186 54.7791324 -45.375 56 C-51.27246166 54.37311403 -54.76493705 50.26566311 -59 46 C-60.00387338 45.01816447 -61.00911085 44.03772195 -62.015625 43.05859375 C-71.84489768 33.42177123 -71.84489768 33.42177123 -72.375 28.5625 C-72 25 -72 25 -70.375 22.625 C-67.43721938 20.61493957 -65.5603504 20.07266021 -62 20 C-57.66472181 22.12399536 -54.50489405 25.25494941 -51.1875 28.6875 C-50.68541016 29.19861328 -50.18332031 29.70972656 -49.66601562 30.23632812 C-48.43936491 31.48634362 -47.21902509 32.7425468 -46 34 C-42.97022571 32.64768813 -40.91527387 31.14519457 -38.609375 28.76953125 C-37.98627441 28.1348291 -37.36317383 27.50012695 -36.72119141 26.84619141 C-36.07069824 26.17507324 -35.42020508 25.50395508 -34.75 24.8125 C-30.24712772 20.23193618 -25.75628032 15.75718979 -20.8359375 11.62109375 C-17.74624508 8.89296108 -14.92653562 5.89445539 -12.078125 2.91796875 C-8.01793854 -0.8293086 -5.37974907 -1.56909348 0 0 Z " fill="#E7364D" transform="translate(330,226)"/>
</svg>
