<?xml version="1.0" encoding="UTF-8"?>
<svg version="1.1" xmlns="http://www.w3.org/2000/svg" width="512" height="512">
<path d="M0 0 C1.31842392 -0.00686325 2.63684784 -0.0137265 3.995224 -0.02079773 C7.58423777 -0.03861852 11.17300557 -0.03758172 14.76205015 -0.03185534 C17.77117091 -0.02874692 20.78024553 -0.0348743 23.78935969 -0.04089409 C30.89525733 -0.05490173 38.00103464 -0.0534099 45.10693359 -0.04199219 C52.40859275 -0.03051832 59.70988427 -0.04458272 67.01149499 -0.07138866 C73.30739957 -0.09362681 79.60318944 -0.10016476 85.89913046 -0.09431225 C89.64752809 -0.09096033 93.39569026 -0.09323876 97.14405441 -0.11056328 C100.67210552 -0.12616039 104.19961701 -0.12193788 107.72764778 -0.10325813 C109.6193898 -0.09788307 111.51115682 -0.11198925 113.40284729 -0.12695312 C127.1145055 -0.01018463 138.71936024 4.45219531 148.95556641 13.62280273 C161.56575748 26.61256478 163.82084378 41.65413873 163.60400391 58.96655273 C163.59395126 60.37084321 163.58482946 61.77514067 163.57666016 63.17944336 C163.55323484 66.58782759 163.52043136 69.99584774 163.47900391 73.40405273 C164.29617889 73.3973909 165.11335388 73.39072906 165.95529175 73.38386536 C173.69285077 73.32351276 181.43029409 73.27795643 189.16802788 73.24861622 C193.14516191 73.23302454 197.12209987 73.21190669 201.09912109 73.17773438 C204.94411241 73.14490691 208.78891627 73.12715097 212.63403702 73.11942101 C214.09391349 73.11391912 215.55378082 73.10317638 217.01357651 73.08686256 C230.75583347 72.93952992 241.43324566 74.81560224 251.67822266 84.47827148 C258.71219426 91.92830055 262.55326583 99.89537575 262.64013672 110.21923828 C262.64974426 111.1475798 262.65935181 112.07592133 262.66925049 113.03239441 C262.67562531 114.52154106 262.67562531 114.52154106 262.68212891 116.04077148 C262.68782898 117.07539017 262.69352905 118.11000885 262.69940186 119.17597961 C262.70883522 121.36389143 262.71537922 123.55181735 262.71923828 125.73974609 C262.72891882 129.06235015 262.75994832 132.38432873 262.79150391 135.70678711 C262.79803723 137.83894492 262.80328641 139.97110713 262.80712891 142.10327148 C262.81947571 143.08591476 262.83182251 144.06855804 262.84454346 145.08097839 C262.80741876 156.75987356 259.44737838 166.07600221 251.40478516 174.60327148 C242.98669492 182.5512415 234.80831106 184.94715368 223.47900391 186.40405273 C223.78193359 186.97849121 224.08486328 187.55292969 224.39697266 188.14477539 C225.7703899 190.76641762 227.12477272 193.39745214 228.47900391 196.02905273 C228.95595703 196.93268555 229.43291016 197.83631836 229.92431641 198.76733398 C234.28881956 207.30929016 234.28881956 207.30929016 233.47900391 212.40405273 C232.04150391 215.27905273 232.04150391 215.27905273 229.47900391 217.40405273 C221.40246701 218.3474801 216.18577067 215.85338746 209.11962891 212.14624023 C208.05339294 211.60556915 206.98715698 211.06489807 205.88861084 210.50784302 C202.49316028 208.7817556 199.11100388 207.03132433 195.72900391 205.27905273 C193.47206782 204.12369326 191.21426231 202.97003052 188.95556641 201.81811523 C187.85958633 201.25881317 186.76360626 200.69951111 185.63441467 200.1232605 C181.46467999 197.99736056 177.29371776 195.87388651 173.12106323 193.75372314 C170.88265823 192.61025564 168.65474902 191.4492426 166.4284668 190.2824707 C159.23147129 186.66813945 153.43515287 185.63719338 145.41650391 185.77905273 C132.91427999 185.59494134 123.48733355 184.16033645 113.74072266 175.74780273 C106.77191202 168.52623731 102.32489113 160.50700131 102.47900391 150.40405273 C89.18338117 149.71371689 79.5794934 155.1109315 68.10791016 161.09155273 C66.17292781 162.07662019 64.23670036 163.0592453 62.29930115 164.03955078 C57.23293359 166.60957658 52.18085058 169.20641015 47.13226318 171.81115723 C39.03224816 175.98569053 30.91331882 180.12310555 22.7900219 184.25210571 C19.96469267 185.69395407 17.14701446 187.14995316 14.32997131 188.60791016 C12.59673743 189.49479594 10.86330383 190.38129155 9.12963867 191.26733398 C8.35393524 191.67360016 7.57823181 192.07986633 6.77902222 192.4984436 C2.34343963 194.74804638 -1.46295289 196.14716623 -6.52099609 196.40405273 C-9.46855341 195.05842874 -11.06376881 194.31850729 -12.52099609 191.40405273 C-13.35031717 183.93170058 -10.87097767 179.10301829 -7.39599609 172.59155273 C-6.89479248 171.62266113 -6.39358887 170.65376953 -5.87719727 169.65551758 C-4.44312092 166.89505407 -2.9874529 164.14742431 -1.52099609 161.40405273 C-1.15474121 160.71553223 -0.78848633 160.02701172 -0.41113281 159.31762695 C1.18484058 156.32690805 2.80701059 153.35296922 4.47900391 150.40405273 C3.00753906 150.49106445 3.00753906 150.49106445 1.50634766 150.57983398 C-14.62323726 151.23863667 -27.04069557 146.80704638 -39.27099609 135.96655273 C-48.36173122 125.61321551 -53.57265446 114.97366887 -53.69799805 100.97827148 C-53.71083328 99.72256348 -53.72366852 98.46685547 -53.7368927 97.1730957 C-53.74506592 95.81258547 -53.75250853 94.45207068 -53.75927734 93.09155273 C-53.76335287 92.39741272 -53.7674284 91.70327271 -53.77162743 90.98809814 C-53.79242818 87.30855618 -53.80675151 83.62905076 -53.81616211 79.94946289 C-53.82717013 76.1886587 -53.86152115 72.42845536 -53.90133381 68.66786194 C-53.92775197 65.74207626 -53.9358763 62.81642784 -53.93944359 59.89053345 C-53.94425065 58.50652035 -53.95569161 57.12251084 -53.97448158 55.73861694 C-54.18077711 39.5280197 -50.37910139 25.80421856 -39.33349609 13.65405273 C-27.95046287 3.03669439 -15.08730207 -0.05538671 0 0 Z M-27.52099609 26.40405273 C-35.4894009 36.48652412 -36.98064168 45.61080696 -36.91943359 58.27514648 C-36.92230377 59.59265396 -36.92517395 60.91016144 -36.9281311 62.26759338 C-36.93252883 65.04373854 -36.92620781 67.81959215 -36.91210938 70.59570312 C-36.89503536 74.12697597 -36.90486297 77.65756362 -36.92282677 81.1888113 C-36.93637181 84.59264227 -36.92684347 87.99629616 -36.91943359 91.40014648 C-36.92550629 92.65460068 -36.93157898 93.90905487 -36.93783569 95.20152283 C-36.83934808 107.61038514 -34.39251045 115.96421764 -25.96240234 125.09155273 C-16.38027876 134.28303819 -3.97960333 133.95049136 8.46142578 133.81933594 C10.50695018 133.80479994 12.55072928 133.82004817 14.59619141 133.83764648 C15.79872559 133.82789795 17.00125977 133.81814941 18.24023438 133.80810547 C22.42333986 134.57781454 23.9117399 136.07424104 26.47900391 139.40405273 C26.72124105 146.33350324 23.72840922 151.47268998 20.41650391 157.40405273 C19.9440625 158.27416992 19.47162109 159.14428711 18.98486328 160.04077148 C17.82753026 162.16839381 16.65888948 164.28888033 15.47900391 166.40405273 C16.13900391 166.73405273 16.79900391 167.06405273 17.47900391 167.40405273 C19.44422467 166.7120637 19.44422467 166.7120637 21.62719727 165.54907227 C22.91641335 164.90181686 22.91641335 164.90181686 24.23167419 164.2414856 C25.16794144 163.76146088 26.10420868 163.28143616 27.06884766 162.78686523 C28.04197403 162.29628632 29.0151004 161.8057074 30.01771545 161.30026245 C33.1544867 159.71732658 36.28567267 158.12370035 39.41650391 156.52905273 C43.48634208 154.46563608 47.55829189 152.40642267 51.63134766 150.34936523 C52.62887054 149.8454425 53.62639343 149.34151978 54.65414429 148.82232666 C61.14900496 145.55108367 67.66847043 142.33813026 74.23291016 139.20874023 C75.40272682 138.64752975 75.40272682 138.64752975 76.59617615 138.07498169 C77.31620316 137.73482025 78.03623016 137.39465881 78.77807617 137.04418945 C79.3999733 136.74954803 80.02187042 136.45490662 80.66261292 136.15133667 C85.22825714 134.27297865 89.84785702 134.10458273 94.72900391 133.84155273 C95.47408203 133.79836914 96.21916016 133.75518555 96.98681641 133.71069336 C98.8173529 133.60508548 100.64815566 133.50411072 102.47900391 133.40405273 C102.49302246 132.11942139 102.49302246 132.11942139 102.50732422 130.80883789 C102.55174359 127.58407855 102.61353621 124.36021604 102.68652344 121.13598633 C102.71448035 119.74938797 102.73581861 118.36263773 102.75 116.97583008 C102.88802338 104.23167112 105.15077952 94.61119717 113.72900391 84.84155273 C123.77802939 75.93446197 133.29156872 74.01107301 146.47900391 73.40405273 C146.56701264 68.9458464 146.61973312 64.48786734 146.66650391 60.02905273 C146.69164062 58.77737305 146.71677734 57.52569336 146.74267578 56.23608398 C146.84339792 43.4107977 144.57360431 34.71898234 135.59228516 25.45874023 C125.84381053 16.3039841 114.78459675 16.25326281 102.00512695 16.25878906 C100.88046021 16.25543045 99.75579346 16.25207184 98.5970459 16.24861145 C94.89492678 16.2391459 91.19285311 16.23716057 87.49072266 16.23608398 C84.90533937 16.23286845 82.31995627 16.22950415 79.73457336 16.22599792 C74.32035828 16.22001772 68.90616109 16.21811392 63.49194336 16.21875 C57.25831852 16.2193502 51.02478037 16.20880412 44.79117745 16.19300634 C38.76625628 16.1782886 32.74138172 16.17476373 26.7164402 16.17535973 C24.16610167 16.17418365 21.61576242 16.16978287 19.06543541 16.16202736 C15.49057294 16.15217356 11.91593086 16.1551268 8.34106445 16.16113281 C7.29914444 16.15551331 6.25722443 16.1498938 5.18373108 16.144104 C-6.80666995 16.19500763 -18.58533984 17.70354533 -27.52099609 26.40405273 Z M124.60400391 97.34155273 C124.04970703 98.01057617 123.49541016 98.67959961 122.92431641 99.36889648 C120.46973273 102.82521566 119.23996226 105.5066311 119.11254883 109.77026367 C119.08299606 110.6250531 119.0534433 111.47984253 119.022995 112.36053467 C119.00203262 113.27723938 118.98107025 114.19394409 118.95947266 115.13842773 C118.93299149 116.09042053 118.90651031 117.04241333 118.87922668 118.02325439 C118.82658572 120.03710869 118.77899499 122.05110043 118.73608398 124.06518555 C118.66705752 127.12947608 118.57100459 130.19212715 118.47314453 133.25561523 C118.42526326 135.21651297 118.37898772 137.1774507 118.33447266 139.13842773 C118.30338913 140.04703552 118.2723056 140.95564331 118.24028015 141.89178467 C118.12018652 149.44466111 119.55348647 155.85054935 124.66650391 161.71655273 C125.19630859 162.35206055 125.72611328 162.98756836 126.27197266 163.64233398 C132.11974462 168.31020151 137.72780065 168.62241252 144.90258789 168.46264648 C159.27492028 168.19435997 169.37058706 171.99930585 181.78076172 178.91430664 C186.05175588 181.27239625 190.42309703 183.42128961 194.79150391 185.59155273 C195.54488037 185.97762695 196.29825684 186.36370117 197.07446289 186.76147461 C200.59637373 188.72009244 200.59637373 188.72009244 204.47900391 189.40405273 C204.19025391 188.68217773 203.90150391 187.96030273 203.60400391 187.21655273 C203.23275391 186.28842773 202.86150391 185.36030273 202.47900391 184.40405273 C202.08712891 183.62030273 201.69525391 182.83655273 201.29150391 182.02905273 C200.18323155 178.4484805 200.54409451 176.01013185 201.47900391 172.40405273 C204.43784504 169.52324055 206.58975945 169.02989408 210.65478516 168.99780273 C211.64800781 168.97588867 212.64123047 168.95397461 213.66455078 168.93139648 C214.69644531 168.92237305 215.72833984 168.91334961 216.79150391 168.90405273 C225.93648256 168.82317484 232.98604603 168.36531257 240.13806152 161.96142578 C245.3017629 155.96429313 246.07959142 148.81884146 246.01025391 141.21655273 C246.01408081 140.27400635 246.01790771 139.33145996 246.02185059 138.36035156 C246.02455561 136.38044152 246.01729398 134.40049486 246.00048828 132.4206543 C245.97905834 129.41169613 246.00033826 126.40512525 246.02587891 123.39624023 C246.02323538 121.4613392 246.01810989 119.52643963 246.01025391 117.59155273 C246.01835083 116.7037915 246.02644775 115.81603027 246.03479004 114.90136719 C245.93293001 108.02500157 244.50454504 101.72388383 239.75842285 96.51611328 C233.72037129 90.86075826 227.45170566 90.10548722 219.47949219 90.12939453 C218.59413788 90.1242836 217.70878357 90.11917267 216.79660034 90.11390686 C213.88076954 90.10004961 210.96517615 90.10096482 208.04931641 90.10327148 C206.01439324 90.09938225 203.97947088 90.09504711 201.94454956 90.09028625 C197.68273282 90.08283222 193.42099892 90.08310929 189.15917969 90.08837891 C183.70969209 90.0941704 178.26054473 90.07724618 172.81111336 90.05403423 C168.60910066 90.03927011 164.40716938 90.03842888 160.20513535 90.04154396 C158.19657594 90.04103203 156.18801183 90.03581847 154.17947769 90.02573204 C151.36519811 90.01333395 148.55157453 90.02017969 145.73730469 90.03173828 C144.50418549 90.02027267 144.50418549 90.02027267 143.24615479 90.00857544 C136.02991784 90.07376746 129.34414384 91.43338789 124.60400391 97.34155273 Z " fill="#4d1300" transform="translate(151.52099609375,31.595947265625)"/>
<path d="M0 0 C11.10181606 11.33986669 16.74301965 27.42232653 17.19140625 43.046875 C16.81307582 57.26579381 12.11258639 69.55985634 3.81640625 81.046875 C4.53183594 81.36398437 5.24726563 81.68109375 5.984375 82.0078125 C26.37204317 91.55546564 40.72512802 107.06822565 48.69140625 128.171875 C52.38819951 138.53840714 53.13074972 149.15481898 53.15234375 160.07421875 C53.16232895 161.86213585 53.16232895 161.86213585 53.17251587 163.68617249 C53.18256668 166.18277457 53.18733526 168.6794031 53.18701172 171.17602539 C53.19142272 174.99865043 53.22792706 178.82015381 53.265625 182.64257812 C53.27148715 185.07812108 53.27546056 187.51366947 53.27734375 189.94921875 C53.29171478 191.08882553 53.30608582 192.22843231 53.32089233 193.40257263 C53.31473907 194.46460403 53.30858582 195.52663544 53.30224609 196.62084961 C53.30509613 197.55062119 53.30794617 198.48039276 53.31088257 199.43833923 C52.63632983 202.99684121 51.40169747 204.51560719 48.81640625 207.046875 C46.16315163 207.54933905 44.14238613 207.72055438 41.49084473 207.67506409 C40.75112631 207.68215847 40.0114079 207.68925286 39.24927378 207.69656223 C36.76917048 207.7141727 34.29062816 207.6960235 31.81054688 207.67797852 C30.03321111 207.68311621 28.25588044 207.69039635 26.4785614 207.69966125 C21.64998002 207.7182027 16.8219496 207.70521944 11.99339104 207.68557096 C6.94370743 207.66920576 1.8940593 207.67799438 -3.15563965 207.68309021 C-11.63623879 207.68761355 -20.11661755 207.67172641 -28.59716797 207.64379883 C-38.40616186 207.61174586 -48.21475822 207.61176189 -58.02378035 207.6290136 C-67.45420289 207.64486948 -76.88447948 207.63815116 -86.31489563 207.62107658 C-90.33079404 207.61419843 -94.34657574 207.61524638 -98.36247253 207.62262154 C-103.09038362 207.63027461 -107.81784152 207.6181903 -112.54567528 207.59077263 C-114.28232159 207.58387742 -116.01901015 207.58380296 -117.75565529 207.59098816 C-120.12362245 207.59965749 -122.49018289 207.58377143 -124.85803223 207.5615387 C-125.54791402 207.56977946 -126.23779582 207.57802023 -126.94858313 207.58651072 C-130.27408788 207.52874405 -131.94299967 207.23224773 -134.60969543 205.17761421 C-136.62959463 202.44308024 -136.6902776 200.82867231 -136.70117188 197.4465332 C-136.71378052 196.32048172 -136.72638916 195.19443024 -136.73937988 194.03425598 C-136.73128296 192.81767807 -136.72318604 191.60110016 -136.71484375 190.34765625 C-136.71867065 189.08406784 -136.72249756 187.82047943 -136.72644043 186.51860046 C-136.72916562 183.83565946 -136.7237805 181.15416952 -136.70507812 178.47143555 C-136.68702279 175.75297968 -136.68662448 173.03559156 -136.70507812 170.31713867 C-136.9344437 134.19426657 -136.9344437 134.19426657 -128.43359375 118.609375 C-128.09070313 117.95453125 -127.7478125 117.2996875 -127.39453125 116.625 C-124.29249946 110.88510907 -120.58969301 105.86223645 -116.18359375 101.046875 C-115.59320313 100.36496094 -115.0028125 99.68304688 -114.39453125 98.98046875 C-106.99547413 90.93596196 -97.2545783 85.11375666 -87.18359375 81.046875 C-87.63089844 80.39203125 -88.07820313 79.7371875 -88.5390625 79.0625 C-98.76940338 63.61882976 -103.18854412 47.45523189 -99.5 29.0078125 C-95.13952403 12.68769081 -85.54875341 -1.03878351 -70.8515625 -9.55859375 C-46.68578577 -22.18990018 -20.087886 -17.96769768 0 0 Z M-72.83984375 13.56640625 C-80.91092425 22.02868708 -83.533579 33.51307824 -83.39453125 44.859375 C-82.6428543 56.21804897 -77.6272527 66.66322657 -69.2890625 74.44921875 C-59.02757162 82.23576748 -48.05537983 84.88452738 -35.421875 83.578125 C-24.55777383 81.79583578 -15.91706291 76.90657263 -8.93359375 68.359375 C-2.23067005 58.66907584 0.84000463 48.20872528 -0.62890625 36.49609375 C-2.8079267 24.83708201 -7.43452572 14.96725094 -17.30859375 7.921875 C-36.05382889 -3.94180372 -56.71679843 -1.22572731 -72.83984375 13.56640625 Z M-102.0859375 110.8515625 C-123.42869088 133.18792637 -119.18359375 160.80101767 -119.18359375 191.046875 C-68.03359375 191.046875 -16.88359375 191.046875 35.81640625 191.046875 C37.62453624 146.58529183 37.62453624 146.58529183 17.609375 110.7421875 C8.90426639 102.34145332 -2.51879528 94.10727944 -15.18359375 94.046875 C-17.77685693 94.80272143 -20.10169011 95.81686955 -22.55078125 96.953125 C-35.27908553 102.24084785 -50.83558475 100.93394437 -63.4921875 96.1796875 C-65.05775908 95.47265517 -66.62091257 94.76027293 -68.18359375 94.046875 C-80.56321555 94.046875 -93.27561382 102.6783169 -102.0859375 110.8515625 Z " fill="#4d1300" transform="translate(183.18359375,272.953125)"/>
<path d="M0 0 C10.99888208 10.42097471 19.08121161 25.00910043 19.73046875 40.33984375 C20.10478989 57.580635 16.0674866 69.67207835 6.4921875 83.93359375 C7.83410156 84.55234375 7.83410156 84.55234375 9.203125 85.18359375 C17.13464889 88.93362177 23.93094993 93.01584008 30.4921875 98.93359375 C31.17667969 99.52527344 31.86117187 100.11695313 32.56640625 100.7265625 C46.28313359 113.36535449 54.26589536 132.03495835 55.7795105 150.42437744 C55.8996063 153.97500577 55.93443083 157.51378909 55.92578125 161.06640625 C55.9310231 162.34667694 55.93626495 163.62694763 55.94166565 164.9460144 C55.94803622 167.62351316 55.94828602 170.30014174 55.93823242 172.97753906 C55.9266196 176.40290915 55.94719042 179.82726697 55.97614956 183.25250435 C55.99887438 186.54464413 55.99205153 189.8367064 55.98828125 193.12890625 C55.99951523 194.35489532 56.01074921 195.5808844 56.02232361 196.84402466 C56.01294266 197.97975922 56.00356171 199.11549377 55.99389648 200.28564453 C55.99373032 201.28266388 55.99356415 202.27968323 55.99339294 203.30691528 C55.32948112 206.78629268 54.29034244 207.7795023 51.4921875 209.93359375 C48.90838509 210.32897041 46.74844064 210.47909771 44.16662598 210.44825745 C43.42690756 210.45520297 42.68718915 210.4621485 41.92505503 210.4693045 C39.44517313 210.48760816 36.96624426 210.47730142 34.48632812 210.46704102 C32.70899234 210.47409777 30.93166256 210.48284176 29.15434265 210.4931488 C24.32585432 210.5156787 19.49769321 210.51269487 14.66917229 210.50382733 C10.6406088 210.49872306 6.6121071 210.50600536 2.58354998 210.51329941 C-6.91815037 210.5303095 -16.41969015 210.52672096 -25.92138672 210.51000977 C-35.73042196 210.49308138 -45.53901243 210.50893035 -55.3479991 210.54123265 C-63.76509127 210.56790318 -72.18204478 210.57521159 -80.59917498 210.56671757 C-85.62844749 210.56178165 -90.65745223 210.56403999 -95.68669128 210.58450508 C-100.41465094 210.60282278 -105.14196912 210.59695167 -109.86989403 210.57230568 C-111.60655075 210.56728558 -113.34325603 210.57081856 -115.07987404 210.58345413 C-117.44807627 210.59932407 -119.8141503 210.58449448 -122.18225098 210.56178284 C-122.87213277 210.57361857 -123.56201457 210.58545429 -124.27280188 210.59764868 C-127.93232676 210.52617175 -129.27901197 210.15781061 -131.93433475 207.55568314 C-133.7056813 204.60385938 -134.00890304 202.98655367 -134.00952148 199.57104492 C-134.01890244 198.52192429 -134.02828339 197.47280365 -134.03794861 196.39189148 C-134.02671463 195.26483292 -134.01548065 194.13777435 -134.00390625 192.9765625 C-134.00536148 191.80080154 -134.00681671 190.62504059 -134.00831604 189.41365051 C-134.00665631 186.92133106 -133.995087 184.42900144 -133.97436523 181.93676758 C-133.94570681 178.17288096 -133.95369758 174.4104305 -133.96679688 170.64648438 C-133.94173938 139.54936352 -133.94173938 139.54936352 -127.2578125 125.55859375 C-126.95407715 124.89778809 -126.6503418 124.23698242 -126.33740234 123.55615234 C-123.65142147 117.88913443 -120.46228413 112.81022158 -116.5078125 107.93359375 C-115.85296875 107.10472656 -115.198125 106.27585937 -114.5234375 105.421875 C-106.38120831 95.71954715 -96.00053986 89.09624103 -84.5078125 83.93359375 C-84.96671875 83.17175781 -85.425625 82.40992188 -85.8984375 81.625 C-95.69403003 65.1412403 -100.53103112 50.15747465 -95.9453125 30.87109375 C-91.97507351 15.73217054 -83.32545132 3.05521507 -70.15625 -5.53515625 C-47.71976438 -18.50728363 -20.07671778 -16.54296527 0 0 Z M-68.984375 15.1796875 C-77.12578909 24.55275141 -80.5078125 35.67408775 -80.5078125 47.93359375 C-79.36459946 60.15168313 -73.69423318 70.81619604 -64.3203125 78.68359375 C-54.85073693 85.60792447 -43.73127244 87.92690366 -32.14453125 86.52734375 C-21.5219112 84.43028127 -12.24953683 79.5544295 -5.5078125 70.93359375 C1.70097924 59.96224558 4.48426359 48.61100886 1.8046875 35.59375 C-1.43179578 24.03680762 -7.18415211 15.02646435 -17.55078125 8.68359375 C-34.56830599 -0.26953338 -54.70074041 1.83668251 -68.984375 15.1796875 Z M-98.3203125 113.18359375 C-120.49040561 136.66156285 -116.5078125 161.435962 -116.5078125 193.93359375 C-65.3578125 193.93359375 -14.2078125 193.93359375 38.4921875 193.93359375 C40.55773763 149.2429803 40.55773763 149.2429803 20.8359375 113.078125 C13.85216264 106.687971 6.22647124 102.47974055 -2.5078125 98.93359375 C-3.6009375 98.47984375 -4.6940625 98.02609375 -5.8203125 97.55859375 C-10.9409433 96.36774938 -15.61707269 98.20786283 -20.4453125 99.93359375 C-33.92631522 104.51017032 -49.12985794 104.19636781 -62.27734375 98.328125 C-74.02576324 93.25655818 -90.2437127 105.44903574 -98.3203125 113.18359375 Z " fill="#4d1300" transform="translate(409.5078125,270.06640625)"/>
<path d="M0 0 C3.13597594 1.00211632 4.12696315 0.43607057 7.01953125 -1.02734375 C16.88499169 -5.35172834 27.04669252 -5.01631327 37.01953125 -1.24609375 C47.15099062 3.3254184 53.45377033 10.4864447 57.45703125 20.78515625 C60.52102344 29.33369445 60.2371234 39.19708783 56.76953125 47.59765625 C52.27746074 56.14102244 45.77570351 62.75382148 38.97265625 69.5 C38.07585144 70.39634659 37.17904663 71.29269318 36.25506592 72.21620178 C34.37142544 74.09683669 32.48604424 75.97547895 30.59716797 77.85083008 C28.1754231 80.25545181 25.76044879 82.66673949 23.34762955 85.08031368 C21.03792951 87.38967722 18.72399568 89.69478495 16.41015625 92 C15.5424762 92.86656723 14.67479614 93.73313446 13.78082275 94.6259613 C12.57882233 95.81839195 12.57882233 95.81839195 11.35253906 97.03491211 C10.64671692 97.73692245 9.94089478 98.4389328 9.21368408 99.16221619 C6.82566363 101.36846548 5.59486471 101.7631029 2.33203125 102.28515625 C-1.74645979 101.75889934 -2.36842794 101.41628395 -5.22998047 98.79199219 C-6.27844147 97.83480286 -6.27844147 97.83480286 -7.3480835 96.85827637 C-13.67946681 90.87813773 -19.87265537 84.76248365 -26.05224609 78.62597656 C-27.79429651 76.90051091 -29.54169843 75.18043129 -31.29443359 73.46582031 C-33.8506471 70.96472861 -36.38968957 68.44725577 -38.92578125 65.92578125 C-39.70092072 65.17331116 -40.47606018 64.42084106 -41.27468872 63.64556885 C-50.90835262 53.97452472 -54.81285214 44.81268557 -54.86425781 31.36010742 C-54.76628331 25.15130438 -53.60767701 20.24183193 -50.54296875 14.78515625 C-49.98609375 13.75390625 -49.42921875 12.72265625 -48.85546875 11.66015625 C-36.47580196 -3.73078084 -18.07136502 -8.63317131 0 0 Z M-34.54296875 20.78515625 C-38.44875615 26.7111785 -39.1408915 32.7457156 -37.79296875 39.59765625 C-33.49697475 49.39485524 -23.21591602 57.16050519 -15.41015625 64.1796875 C-9.7380778 69.33401492 -4.12202258 74.61338805 0.45703125 80.78515625 C3.50273088 79.42159959 5.62048721 77.87777303 7.98461914 75.53222656 C8.65533951 74.87103821 9.32605988 74.20984985 10.0171051 73.52862549 C10.73075729 72.81406189 11.44440948 72.09949829 12.1796875 71.36328125 C12.92157822 70.62567566 13.66346893 69.88807007 14.42784119 69.12811279 C15.99456361 67.56712943 17.55867699 66.00352369 19.12036133 64.4375 C21.50541563 62.04929054 23.9034587 59.67469253 26.30273438 57.30078125 C27.82502962 55.78075957 29.34654025 54.2599516 30.8671875 52.73828125 C31.58286392 52.03181458 32.29854034 51.3253479 33.03590393 50.59747314 C38.47644156 45.10617221 41.94623689 40.01095949 42.58203125 32.15625 C42.27509769 26.33410394 39.65708642 22.03975939 35.70703125 17.91015625 C29.80660521 14.05218538 24.88485307 12.04055048 17.7734375 13.12890625 C13.451715 14.35327283 8.67413259 16.56805491 5.45703125 19.78515625 C0.05944288 20.4598548 -2.56967139 20.08792566 -6.98046875 16.84765625 C-16.64094136 9.84298367 -26.54312177 12.78530927 -34.54296875 20.78515625 Z " fill="#4d1300" transform="translate(204.54296875,65.21484375)"/>
<path d="M0 0 C4.35464754 0.95010492 6.88972324 -0.10285844 11.03125 -1.5 C17.60669587 -3.54948962 24.32869647 -2.1183238 30.4375 0.75 C38.14958482 6.19382458 43.50451318 12.34865501 45.4375 21.75 C46.28465231 30.44372695 45.21367374 38.03835457 39.63598633 44.99780273 C33.93488154 51.22239113 28.07674756 57.2660885 22.09667969 63.22119141 C20.53981276 64.77260781 18.98848142 66.32942068 17.4375 67.88671875 C16.44042534 68.88313399 15.44304126 69.87923972 14.4453125 70.875 C13.55473145 71.76445312 12.66415039 72.65390625 11.74658203 73.5703125 C8.6780378 76.46690405 6.973397 77.668253 2.75 78.3125 C-0.76570625 78.18731985 -2.39846123 77.41699737 -4.97265625 75.05078125 C-5.66528564 74.41487061 -6.35791504 73.77895996 -7.0715332 73.1237793 C-7.89355225 72.34043213 -8.71557129 71.55708496 -9.5625 70.75 C-10.05616058 70.28067047 -10.54982117 69.81134094 -11.05844116 69.32778931 C-14.56811673 65.98054895 -18.03542487 62.59284686 -21.48193359 59.18066406 C-22.70416268 57.97506172 -23.93174172 56.77485959 -25.16455078 55.58007812 C-33.57623016 47.42519278 -40.75525467 40.3712452 -41.58984375 28.06640625 C-41.49063288 19.66182787 -39.09678438 13.11138622 -33.5625 6.75 C-23.91785064 -2.06419031 -12.42726406 -4.36044353 0 0 Z M-22.375 19.5625 C-23.93420541 22.43472049 -24.43382287 24.46873318 -24.5625 27.75 C-22.71816046 33.06631164 -20.31307666 36.56257187 -16.23828125 40.46484375 C-15.73201706 40.96544815 -15.22575287 41.46605255 -14.70414734 41.98182678 C-13.10366645 43.56012747 -11.48978343 45.12384937 -9.875 46.6875 C-8.77967738 47.76273388 -7.6852669 48.83889778 -6.59179688 49.91601562 C-3.92581809 52.53817194 -1.24763925 55.1474511 1.4375 57.75 C7.16471094 52.98115769 12.47940705 47.89129744 17.75 42.625 C18.56017578 41.82707031 19.37035156 41.02914062 20.20507812 40.20703125 C20.97916016 39.43488281 21.75324219 38.66273438 22.55078125 37.8671875 C23.59939331 36.82473877 23.59939331 36.82473877 24.66918945 35.76123047 C27.20463013 32.87748612 28.31606948 30.68096735 28.8125 26.875 C28.32572519 22.81854321 27.0647346 20.86119887 24.4375 17.75 C21.00211687 15.38340273 19.1187906 14.7378341 14.9375 14.8125 C11.34397213 15.57188311 11.34397213 15.57188311 8.375 17.8125 C4.85365254 20.13509088 3.57519758 20.48018193 -0.5625 19.75 C-2.89687576 18.55383937 -5.10888135 17.26034352 -7.31640625 15.84375 C-12.90999565 13.11991516 -18.15550581 15.34300581 -22.375 19.5625 Z " fill="#4d1300" transform="translate(331.5625,128.25)"/>
</svg>
