<?xml version="1.0" encoding="UTF-8"?>
<svg version="1.1" xmlns="http://www.w3.org/2000/svg" width="512" height="512">
<path d="M0 0 C0.65790527 0.19335938 1.31581055 0.38671875 1.99365234 0.5859375 C17.30253759 5.17329363 30.97023742 12.43025989 43 23 C43.80566406 23.66257812 44.61132812 24.32515625 45.44140625 25.0078125 C66.30273653 42.70239937 78.99608917 68.96480254 82 96 C83.41341116 120.76787965 79.56478548 142.51332673 67.625 164.3125 C67.28637939 164.93423096 66.94775879 165.55596191 66.59887695 166.1965332 C60.27233688 177.2654279 51.20198688 186.06274249 42.21484375 194.9453125 C40.98699685 196.1668701 39.75967626 197.38895693 38.53285217 198.61154175 C35.32591582 201.80528411 32.11343715 204.99338554 28.89923096 208.17980957 C23.75208465 213.2835572 18.61181117 218.39420324 13.47482491 223.5081749 C11.69429778 225.27859659 9.91033716 227.04550085 8.1259613 228.81204224 C7.01997121 229.91119566 5.91409483 231.01046352 4.80834961 232.10986328 C4.32244354 232.58903198 3.83653748 233.06820068 3.33590698 233.56188965 C0.75159016 236.13785932 -1.6919439 238.78326759 -4.06104279 241.55893993 C-8.47161332 246.61458445 -13.19255055 251.33750097 -17.9372406 256.0776825 C-18.93186369 257.07489459 -19.9262737 258.07231923 -20.9204908 259.0699361 C-23.63477254 261.79222733 -26.35212907 264.51143052 -29.0700475 267.23009026 C-32.00778904 270.16969282 -34.94268165 273.1121376 -37.87799072 276.0541687 C-44.28629856 282.47601388 -50.69834221 288.89412008 -57.11121631 295.31140494 C-61.11750979 299.32046676 -65.12306773 303.33026293 -69.12849617 307.34018898 C-80.22652355 318.45039943 -91.32549022 329.55966964 -102.42791653 340.66548443 C-103.1373525 341.37513996 -103.84678846 342.0847955 -104.57772249 342.81595575 C-105.64434563 343.8829063 -105.64434563 343.8829063 -106.73251671 344.97141141 C-108.17332323 346.41266139 -109.61412821 347.85391293 -111.05493164 349.29516602 C-111.76961281 350.01006861 -112.48429397 350.72497121 -113.22063214 351.46153752 C-124.81151081 363.05636777 -136.39561492 374.65794123 -147.97682952 386.26242342 C-159.87726702 398.18657626 -171.78332408 410.10509379 -183.69504219 422.01797801 C-190.37901496 428.70286705 -197.06055491 435.39014795 -203.73589897 442.0836544 C-209.41678272 447.77994106 -215.10278256 453.471058 -220.79550105 459.15551838 C-223.69851277 462.0546253 -226.59905806 464.95609064 -229.49308968 467.86416435 C-232.14461245 470.52843466 -234.80302129 473.1856298 -237.46697999 475.83746395 C-238.88042124 477.24802665 -240.28649976 478.66595538 -241.69226354 480.08416957 C-249.07725052 487.41197718 -255.20231134 492.41004153 -265.67285156 493.6027832 C-266.52581944 493.71526303 -267.37878731 493.82774286 -268.25760269 493.94363117 C-271.16934477 494.31900321 -274.08374686 494.66153574 -277 495 C-278.06429733 495.12793819 -279.12859467 495.25587639 -280.22514343 495.3876915 C-288.21436015 496.34708857 -296.20957462 497.24760002 -304.20749187 498.13118911 C-306.95669772 498.43539555 -309.7056257 498.74207401 -312.45455956 499.04872686 C-318.93677819 499.77181922 -325.41941048 500.49110863 -331.90234375 501.20776367 C-338.56283491 501.94410401 -345.22263425 502.68647631 -351.88212371 503.43181723 C-357.64190879 504.07627925 -363.4020685 504.71731 -369.1625464 505.35554963 C-372.58550232 505.73481638 -376.00831366 506.11527763 -379.4307785 506.49895287 C-383.23432197 506.92435327 -387.03844602 507.3441277 -390.84277344 507.76245117 C-391.96078339 507.88864838 -393.07879333 508.01484558 -394.23068237 508.14486694 C-403.91021812 509.19858441 -412.2758263 510.07846209 -421 505 C-425.45629095 501.14280525 -428.97812785 496.9041502 -430 491 C-430.35766397 482.3795043 -429.62841308 473.94464543 -428.65478516 465.38793945 C-428.51169418 464.08391174 -428.36860321 462.77988403 -428.22117615 461.43634033 C-427.83248203 457.89661143 -427.43563525 454.35784249 -427.03692675 450.81922936 C-426.61861798 447.09635505 -426.20707893 443.37273131 -425.79452515 439.6492157 C-425.10135245 433.40258552 -424.40288973 427.15656434 -423.70117188 420.91088867 C-422.89219506 413.71000273 -422.09142997 406.50823975 -421.29508555 399.30594665 C-420.52549268 392.34718255 -419.75028687 385.38905478 -418.97248459 378.43120384 C-418.6430052 375.48307671 -418.31542234 372.53474822 -417.98939896 369.58623695 C-417.53335869 365.46479119 -417.06908806 361.34431196 -416.60400391 357.22387695 C-416.47093338 356.01273727 -416.33786285 354.8015976 -416.20075989 353.55375671 C-414.7416943 340.75834795 -413.19418616 332.95134511 -403.76799965 323.51073074 C-403.25093628 322.99016129 -402.7338729 322.46959185 -402.20114094 321.93324757 C-400.47087135 320.1936894 -398.73359614 318.46130562 -396.99624634 316.7288208 C-395.74016255 315.46899945 -394.48451154 314.20874649 -393.22925603 312.94809985 C-389.78094835 309.48755929 -386.32641657 306.03329123 -382.87080932 302.58004189 C-379.14377198 298.85341266 -375.42246585 295.12106775 -371.70037842 291.38949585 C-364.40675926 284.07926246 -357.10758884 276.77459647 -349.80621572 269.47210839 C-343.86869648 263.53363857 -337.93276002 257.59359128 -331.99793625 251.65242767 C-315.16378795 234.80066328 -298.32544926 217.95310202 -281.48174079 201.11089316 C-280.57365988 200.20289217 -279.66557898 199.29489117 -278.72998047 198.359375 C-277.8207867 197.45026299 -276.91159293 196.54115099 -275.97484784 195.60449013 C-261.25210809 180.88256265 -246.53936108 166.15069366 -231.83114226 151.41426006 C-216.72121613 136.27557813 -201.60381603 121.14439513 -186.47864187 106.02094722 C-177.99033005 97.53329852 -169.50510564 89.04261607 -161.02791214 80.54386139 C-153.80722657 73.30492827 -146.57959742 66.07301668 -139.34301038 58.84997848 C-135.65424555 55.1677261 -131.96871329 51.48239056 -128.29191971 47.7881813 C-124.91862934 44.39907843 -121.53605177 41.01952961 -118.14618222 37.64701208 C-116.92858346 36.43246534 -115.71427337 35.21460958 -114.50382586 33.99293557 C-98.65586644 18.00789966 -80.82285755 6.09009978 -59 0 C-57.38738281 -0.47953125 -57.38738281 -0.47953125 -55.7421875 -0.96875 C-38.44674423 -5.30264298 -17.07979478 -5.20076796 0 0 Z M-99.75714111 84.68847656 C-102.26980389 87.21151503 -104.78543118 89.73159425 -107.30078125 92.25195312 C-112.20336164 97.16514054 -117.10274357 102.081506 -122 107 C-117.37567699 112.55153557 -112.4514384 117.68532596 -107.33251953 122.78100586 C-106.48308273 123.63058868 -105.63364594 124.48017151 -104.75846863 125.35549927 C-102.44871678 127.66467735 -100.13677455 129.97163402 -97.82380533 132.27758861 C-95.39968269 134.69542349 -92.97842664 137.1161257 -90.55685425 139.53651428 C-85.97977614 144.11049497 -81.40015687 148.68192244 -76.81959999 153.25241905 C-71.60112649 158.45968184 -66.38552138 163.66981362 -61.17014527 168.88017833 C-50.44993325 179.58996199 -39.72615683 190.29616999 -29 201 C-25.08150031 197.68830562 -21.23259738 194.35740165 -17.58447266 190.74560547 C-16.79319977 189.96394012 -16.00192688 189.18227478 -15.18667603 188.37692261 C-14.35421356 187.54871002 -13.5217511 186.72049744 -12.6640625 185.8671875 C-11.78527435 184.99409943 -10.90648621 184.12101135 -10.00106812 183.22146606 C-8.14905611 181.37886337 -6.29846544 179.5348311 -4.44921875 177.68945312 C-1.64774962 174.89767096 1.16421905 172.11675906 3.9765625 169.3359375 C22.01566792 151.40483082 35.73768385 135.21900749 36.99609375 108.765625 C37.01479552 90.73711454 29.70020071 74.44289489 17.484375 61.38671875 C4.56211993 48.97241395 -11.61198289 42.04778511 -29.5 41.5 C-60.96570879 42.52569608 -79.04507772 63.88161916 -99.75714111 84.68847656 Z M-158.47240257 143.2934885 C-159.59600907 144.39560747 -159.59600907 144.39560747 -160.7423147 145.51999146 C-161.57390938 146.34085659 -162.40550406 147.16172172 -163.26229858 148.00746155 C-164.13900007 148.86919729 -165.01570155 149.73093304 -165.91896975 150.61878198 C-168.364217 153.02374228 -170.80709052 155.43106715 -173.24883127 157.83958471 C-174.81000343 159.37898706 -176.37210612 160.91743877 -177.93453789 162.45556259 C-198.34967559 182.55318613 -218.69688457 202.7195236 -239.02425194 222.90587711 C-241.60551719 225.46891582 -244.18695921 228.03177633 -246.76855469 230.59448242 C-247.41018443 231.23143146 -248.05181417 231.86838049 -248.71288724 232.52463102 C-259.08324388 242.81721378 -269.48981155 253.07240095 -279.91083984 263.31364841 C-290.61668145 273.83632657 -301.2838852 284.39702799 -311.91631949 294.99387926 C-318.4698422 301.52315645 -325.0508951 308.02179749 -331.67112388 314.48344105 C-336.21737546 318.92653563 -340.72518938 323.40641739 -345.20551418 327.91597343 C-347.78610723 330.51125972 -350.37952405 333.08823599 -353.02012825 335.6225605 C-364.9056805 347.05347591 -372.43516496 355.79233867 -372.93508053 372.76432037 C-372.93929439 373.62968397 -372.94350825 374.49504756 -372.94784981 375.38663429 C-373.03339315 379.67340759 -373.62372556 383.89011582 -374.16674805 388.13842773 C-374.3518155 389.7945932 -374.53398118 391.45108784 -374.71208191 393.10801697 C-374.80179953 393.93626417 -374.89151714 394.76451138 -374.98395348 395.61785698 C-375.07561602 396.46455011 -375.16727856 397.31124325 -375.26171875 398.18359375 C-375.45900421 399.98920437 -375.65650343 401.79479165 -375.85420227 403.60035706 C-376.36426114 408.26379985 -376.8714937 412.92754545 -377.37805176 417.59136963 C-377.89934996 422.38597647 -378.42343988 427.18027814 -378.94726562 431.97460938 C-379.96751167 441.31611691 -380.98456234 450.65796863 -382 460 C-381.0453932 459.91022322 -380.0907864 459.82044643 -379.10725212 459.72794914 C-371.8798977 459.12185967 -364.93697094 458.91964095 -357.71707153 459.68435669 C-322.35268498 463.29606987 -287.36882455 459.68953376 -258.90024352 436.91135859 C-245.24728008 425.76432039 -232.61043504 413.46723513 -220.1796875 400.9921875 C-219.59317354 400.40405985 -219.00665959 399.81593221 -218.40237248 399.20998251 C-203.20388337 383.94580748 -188.42311367 368.29986097 -173.76043439 352.52257752 C-165.23817784 343.35992029 -156.61366444 334.30294431 -147.9140625 325.30859375 C-147.29550356 324.66901694 -146.67694463 324.02944012 -146.03964148 323.37048219 C-142.93384702 320.16023272 -139.82634281 316.9516444 -136.71798682 313.74387527 C-111.20864165 287.41429921 -86.00415705 260.80938897 -61 234 C-64.23455913 230.17366516 -67.47349853 226.40162301 -71.01765442 222.85536194 C-71.75648865 222.11370789 -72.49532288 221.37205383 -73.25654602 220.60792542 C-74.44210335 219.42540443 -74.44210335 219.42540443 -75.65161133 218.21899414 C-76.49944183 217.36941132 -77.34727234 216.51982849 -78.22079468 215.64450073 C-80.5264133 213.33525691 -82.8342389 211.02824915 -85.1432631 208.72241139 C-87.56394705 206.30427303 -89.98217471 203.88368021 -92.40080261 201.46348572 C-96.45477854 197.40769658 -100.51084535 193.35400746 -104.56811523 189.30151367 C-109.26324769 184.61184426 -113.95473718 179.91855355 -118.64439374 175.22340876 C-122.67578124 171.18749214 -126.70910293 167.15351624 -130.74406642 163.12117475 C-133.15228811 160.71451412 -135.55982401 158.30717791 -137.96561623 155.89808846 C-140.63979409 153.22138794 -143.31712711 150.54788511 -145.99536133 147.87524414 C-147.19610039 146.67146873 -147.19610039 146.67146873 -148.4210968 145.44337463 C-149.14583191 144.72145935 -149.87056702 143.99954407 -150.61726379 143.25575256 C-151.56654361 142.30703828 -151.56654361 142.30703828 -152.5350008 141.33915806 C-155.29475428 138.81646309 -156.12594134 140.98472894 -158.47240257 143.2934885 Z " fill="#000000" transform="translate(430,3)"/>
<path d="M0 0 C1.19190445 -0.00524185 2.3838089 -0.0104837 3.61183167 -0.0158844 C6.12573469 -0.02229136 8.63966775 -0.02098486 11.15356445 -0.01245117 C14.98768793 -0.00394224 18.8203204 -0.03272265 22.65429688 -0.06445312 C25.10286414 -0.06606539 27.55143403 -0.06548713 30 -0.0625 C31.7097123 -0.07935097 31.7097123 -0.07935097 33.45396423 -0.09654236 C41.68796584 -0.02488482 46.83091448 1.3772823 53.31640625 6.68359375 C58.51308202 13.03508636 60.26907324 18.24270371 59.9453125 26.53515625 C59.03067459 33.53166482 55.77516317 37.77991631 50.4453125 42.20703125 C46.34536496 44.88350428 42.69046616 45.68879817 37.83325195 45.75585938 C36.70470291 45.77507446 35.57615387 45.79428955 34.41340637 45.81408691 C33.20190414 45.82258667 31.99040192 45.83108643 30.7421875 45.83984375 C29.48560837 45.8512439 28.22902924 45.86264404 26.93437195 45.87438965 C24.27551823 45.89327169 21.61711481 45.90707348 18.95825195 45.9140625 C15.57660429 45.92499553 12.19658226 45.97298754 8.81544209 46.03000641 C5.56198354 46.07657821 2.30843243 46.08017989 -0.9453125 46.08984375 C-2.14669357 46.11453735 -3.34807465 46.13923096 -4.58586121 46.16467285 C-12.63739517 46.1224405 -18.10874299 44.52688268 -24.43359375 39.43359375 C-29.15424779 33.88682526 -30.70925296 28.19689585 -30.37109375 20.99609375 C-29.58095579 14.22879456 -26.88195144 9.81752097 -22.05859375 5.12109375 C-14.63952957 0.35169535 -8.69922957 -0.02236562 0 0 Z " fill="#000000" transform="translate(339.43359375,466.56640625)"/>
<path d="M0 0 C1.06848679 -0.0159874 2.13697357 -0.03197479 3.23783875 -0.04844666 C4.95666008 -0.05649071 4.95666008 -0.05649071 6.71020508 -0.06469727 C8.49519157 -0.07823997 8.49519157 -0.07823997 10.3162384 -0.09205627 C12.83368416 -0.10655414 15.35116756 -0.11544435 17.86865234 -0.11914062 C21.69865407 -0.13100721 25.52702897 -0.18017666 29.35668945 -0.23071289 C31.8078535 -0.2401811 34.25902741 -0.24741423 36.71020508 -0.25219727 C37.84596481 -0.27172958 38.98172455 -0.2912619 40.15190125 -0.31138611 C48.39565934 -0.26517589 55.36173612 1.31718785 61.48234558 7.1577301 C65.85554459 12.13025531 67.2566376 17.78522543 67.54223633 24.30639648 C66.95107646 31.17567419 63.71369086 36.55158568 58.60473633 41.05639648 C54.03994297 44.41012222 50.51361168 45.55289615 44.86914062 45.59692383 C43.75415695 45.60968353 42.63917328 45.62244324 41.49040222 45.6355896 C40.29449966 45.63781525 39.09859711 45.64004089 37.86645508 45.64233398 C36.62732864 45.64899078 35.38820221 45.65564758 34.11152649 45.6625061 C31.49152102 45.6726247 28.87148983 45.67732337 26.25146484 45.67700195 C23.57540874 45.67683937 20.90003689 45.69072899 18.22412109 45.71801758 C14.35468735 45.75474441 10.48604599 45.7644787 6.61645508 45.76733398 C5.42662521 45.78170502 4.23679535 45.79607605 3.01091003 45.81088257 C-4.84848746 45.76787369 -10.35851878 44.84377576 -16.48120117 39.56030273 C-16.9272168 39.00213867 -17.37323242 38.44397461 -17.83276367 37.86889648 C-18.29424805 37.31331055 -18.75573242 36.75772461 -19.23120117 36.18530273 C-23.29711253 29.95694808 -23.13873985 23.51775958 -22.45776367 16.30639648 C-20.92855832 10.32507427 -17.48280128 7.03992225 -12.55541992 3.53295898 C-8.36843357 1.08470253 -4.85104285 0.05515485 0 0 Z " fill="#000000" transform="translate(443.457763671875,466.693603515625)"/>
<path d="M0 0 C2.13825587 0.00097171 4.27290533 -0.04072168 6.41064453 -0.08496094 C15.36999351 -0.16283152 22.76537775 0.90057867 29.87475586 6.83789062 C34.0708715 11.27389379 36.14126396 17.03054329 36.37158203 23.05566406 C35.89374171 30.72441848 33.48615578 35.72640479 27.77392578 40.81347656 C22.75318971 44.97840535 18.7857576 45.81742103 12.28955078 45.83691406 C11.51512634 45.84357086 10.7407019 45.85022766 9.94281006 45.85708618 C8.3054847 45.86719618 6.66811826 45.87190371 5.03076172 45.87158203 C2.54600596 45.87593786 0.06305294 45.91222353 -2.42138672 45.95019531 C-4.01773486 45.95606763 -5.61409138 45.96003424 -7.21044922 45.96191406 C-7.94406677 45.9762851 -8.67768433 45.99065613 -9.43353271 46.00546265 C-15.78970408 45.9501609 -21.14271814 44.00952503 -25.74951172 39.53613281 C-30.6463765 32.38897468 -32.55761125 27.2723511 -31.72607422 18.50097656 C-30.46936845 12.12605095 -27.04902946 7.22233465 -21.72607422 3.50097656 C-14.74618858 -0.08555914 -7.70263641 -0.02464844 0 0 Z " fill="#000000" transform="translate(229.72607421875,466.4990234375)"/>
</svg>
