<?xml version="1.0" encoding="UTF-8"?>
<svg version="1.1" xmlns="http://www.w3.org/2000/svg" width="512" height="512">
<path d="M0 0 C1.51199478 -0.02409439 1.51199478 -0.02409439 3.05453491 -0.04867554 C7.66151307 -0.09304648 12.26834661 -0.1341784 16.87548828 -0.15722656 C19.30820266 -0.17380439 21.74086797 -0.20111801 24.17333984 -0.23925781 C27.67522526 -0.29390053 31.17596889 -0.31588078 34.67822266 -0.33056641 C36.3111879 -0.36457047 36.3111879 -0.36457047 37.97714233 -0.39926147 C45.48096553 -0.37817683 45.48096553 -0.37817683 48.87597656 2.49902344 C50.61973526 6.17230207 50.2308137 8.31916832 49.15478516 12.19287109 C37.56695629 23.78069996 16.53857894 15.83670166 0.15478516 16.19287109 C0.15478516 107.60287109 0.15478516 199.01287109 0.15478516 293.19287109 C1.80478516 293.85287109 3.45478516 294.51287109 5.15478516 295.19287109 C7.16230331 296.17769132 9.16412975 297.17439623 11.15478516 298.19287109 C11.15836769 296.50043557 11.15836769 296.50043557 11.16202259 294.77380943 C11.22079116 267.33262129 11.29665763 239.89152114 11.39050007 212.45042992 C11.43548467 199.18017749 11.47489322 185.90995207 11.5012207 172.63964844 C11.52417916 161.07459875 11.55755314 149.50963431 11.60348672 137.9446522 C11.62744787 131.81987337 11.64615773 125.69517912 11.65239906 119.57035446 C11.65843676 113.80674904 11.67838924 108.04336011 11.70906067 102.27983475 C11.71786195 100.16346997 11.72155917 98.04707692 11.71979332 95.93069458 C11.71814414 93.04236152 11.73480984 90.15469121 11.75605774 87.26644897 C11.74878638 86.00865161 11.74878638 86.00865161 11.74136811 84.7254442 C11.81069941 79.01933207 12.73715955 74.59476378 16.95556641 70.40380859 C19.71864772 68.88239615 22.24264428 68.38817539 25.34228516 67.81787109 C35.87798164 65.5080316 42.90451706 61.11370828 49.15478516 52.19287109 C51.28175326 48.12050533 52.70011129 43.95505341 53.84619141 39.51318359 C54.07177734 38.64435547 54.29736328 37.77552734 54.52978516 36.88037109 C54.78888672 35.71054688 54.78888672 35.71054688 55.05322266 34.51708984 C56.65421167 31.13911656 58.96294576 29.03339453 62.15478516 27.19287109 C65.23430185 26.48664021 68.22019546 26.50830767 71.36962891 26.54589844 C72.73173996 26.53275604 72.73173996 26.53275604 74.12136841 26.51934814 C77.11216528 26.4974069 80.1014742 26.5118883 83.09228516 26.52880859 C85.17684207 26.52543895 87.26139707 26.52058509 89.34594727 26.51431274 C93.71047712 26.50694855 98.07449464 26.51763264 102.43896484 26.54101562 C108.02793663 26.56950276 113.61570786 26.55309641 119.20463562 26.52315331 C123.5078635 26.50506832 127.81080767 26.51084396 132.11404419 26.52379227 C134.17449079 26.52712294 136.23496332 26.52305115 138.29537964 26.5113945 C141.17759221 26.49866627 144.05787244 26.51809065 146.93994141 26.54589844 C147.7879129 26.53577728 148.6358844 26.52565613 149.509552 26.51522827 C153.68127124 26.5896331 156.35180296 26.9284845 159.66186523 29.58804321 C162.13051193 32.16750824 163.02336055 33.46517046 163.77978516 36.88037109 C166.60741353 47.8171176 170.33207782 56.46510915 179.96728516 63.00537109 C184.43313949 65.58949651 189.1890015 66.89926359 194.15478516 68.19287109 C199.18650337 69.52200421 201.75158735 71.20626795 205.15478516 75.19287109 C206.45869726 79.10460741 206.30829582 82.82769452 206.31300354 86.90568542 C206.31794152 87.80663022 206.32287949 88.70757501 206.32796711 89.63582116 C206.3433741 92.6667988 206.3517114 95.69775519 206.36010742 98.72875977 C206.36968343 100.89666431 206.37969334 103.06456697 206.3901062 105.23246765 C206.41719139 111.12878418 206.43818138 117.02510875 206.45810819 122.92145324 C206.47994547 129.07943045 206.50734519 135.2373828 206.53416443 141.39533997 C206.58412189 153.0612461 206.62904939 164.727166 206.67218679 176.39309913 C206.72153309 189.67225561 206.77646088 202.95138612 206.83186638 216.2305187 C206.94573331 243.55127957 207.05256208 270.87206435 207.15478516 298.19287109 C207.78126953 297.83193359 208.40775391 297.47099609 209.05322266 297.09912109 C209.87048828 296.63505859 210.68775391 296.17099609 211.52978516 295.69287109 C212.34189453 295.22880859 213.15400391 294.76474609 213.99072266 294.28662109 C216.15478516 293.19287109 216.15478516 293.19287109 218.15478516 293.19287109 C218.15478516 201.78287109 218.15478516 110.37287109 218.15478516 16.19287109 C169.29888656 16.02232732 169.29888656 16.02232732 120.44287109 15.89501953 C111.00292969 15.84960937 111.00292969 15.84960937 106.58648682 15.82330322 C103.49577964 15.80626827 100.40526722 15.80044083 97.31451416 15.80133057 C93.37402861 15.80210035 89.43406414 15.78387167 85.49371386 15.75178194 C84.04637684 15.74324884 82.59898122 15.74143553 81.15162992 15.74704695 C79.19853573 15.75366123 77.24540524 15.73346641 75.29241943 15.71185303 C74.19732937 15.70816586 73.1022393 15.70447868 71.97396469 15.70067978 C68.46567468 15.0687441 67.27989969 14.01274965 65.15478516 11.19287109 C64.60115318 7.31744729 64.40651355 5.19175134 66.79309273 2.005867 C69.85398313 -0.34388088 71.60508484 -0.30991634 75.44186401 -0.31506348 C76.73447144 -0.32634277 78.02707886 -0.33762207 79.3588562 -0.34924316 C80.78936992 -0.34146603 82.21988142 -0.33327336 83.65039062 -0.32470703 C85.15847449 -0.33012785 86.66655305 -0.33725028 88.17462158 -0.34594727 C92.26983022 -0.36419179 96.36463601 -0.35710779 100.45985174 -0.34443092 C104.74653047 -0.33430531 109.03317466 -0.34369573 113.31985474 -0.34997559 C120.52091666 -0.35725485 127.72181454 -0.34765866 134.92285156 -0.32861328 C143.24355897 -0.30686045 151.56387407 -0.3138831 159.88457191 -0.3359189 C167.03036886 -0.35408472 174.17604785 -0.35662497 181.32186043 -0.34616423 C185.58880357 -0.33993364 189.8555625 -0.33908129 194.12249374 -0.35231018 C198.13634546 -0.36388474 202.14969292 -0.35581405 206.1634903 -0.33273315 C207.63484231 -0.32745386 209.10623692 -0.32894655 210.57757187 -0.33778381 C212.58961194 -0.34875229 214.60174498 -0.33254388 216.61373901 -0.31506348 C217.73866194 -0.31355537 218.86358486 -0.31204727 220.02259636 -0.31049347 C225.23803732 0.52766423 228.29855637 3.0820878 231.46728516 7.19287109 C233.67293217 11.11402135 234.28143357 14.13240931 234.26831055 18.59423828 C234.26823502 19.45482849 234.26815948 20.3154187 234.26808167 21.2020874 C234.26292038 22.12201477 234.25775909 23.04194214 234.25244141 23.98974609 C234.25031898 25.41290131 234.25031898 25.41290131 234.24815369 26.86480713 C234.24256257 29.89086071 234.23001168 32.91683993 234.21728516 35.94287109 C234.21226901 37.99625544 234.2077063 40.04964095 234.20361328 42.10302734 C234.19259605 47.13300385 234.17533749 52.16292487 234.15478516 57.19287109 C235.12103317 57.42796387 236.08728119 57.66305664 237.08280945 57.90527344 C246.93180963 60.3222029 256.68655864 62.98884626 266.42431641 65.81787109 C267.92205161 66.25112213 269.41982988 66.68422429 270.91764832 67.1171875 C274.02484982 68.01611975 277.13141748 68.91720145 280.23754883 69.81982422 C284.18733453 70.96735983 288.13885356 72.10879571 292.09088612 73.24856567 C295.17257163 74.13817526 298.2532224 75.03132649 301.33359337 75.92547607 C302.789486 76.34757674 304.2457059 76.76855057 305.70228004 77.18829346 C331.95988311 84.76153761 331.95988311 84.76153761 337.02978516 93.38037109 C339.91960909 103.1736633 335.59610867 113.42877823 332.78759766 122.87646484 C332.34701004 124.38258414 331.90723635 125.88894175 331.4682312 127.39552307 C330.31644398 131.34068281 329.15433195 135.28272333 327.98974609 139.22412109 C326.58289713 143.99231344 325.18815978 148.76405905 323.79170036 153.53530216 C322.70362427 157.25209537 321.61383646 160.96835422 320.51834106 164.68296814 C318.31421822 172.16471585 316.16449739 179.65629484 314.15478516 187.19287109 C314.93490967 187.63566406 315.71503418 188.07845703 316.51879883 188.53466797 C319.48144086 190.2177236 322.44286941 191.90287887 325.40356445 193.58935547 C326.67230829 194.31152171 327.94149696 195.03290716 329.21118164 195.75341797 C335.9596268 199.58368887 342.68387923 203.45234366 349.32275391 207.47021484 C350.34780029 208.08888428 351.37284668 208.70755371 352.42895508 209.3449707 C358.61219185 213.53672342 363.0112274 218.98109757 365.15478516 226.19287109 C365.58398939 229.94204697 365.56413925 233.66385017 365.54246521 237.43434143 C365.55054352 239.12142815 365.55054352 239.12142815 365.55878502 240.84259742 C365.5730804 244.60733479 365.56595677 248.37172134 365.55883789 252.13647461 C365.56454054 254.83710847 365.57140381 257.53771724 365.57963562 260.23834229 C365.59681395 266.80941775 365.59766583 273.38039755 365.59242272 279.95148963 C365.58837877 285.29214713 365.58982722 290.63277639 365.59517097 295.97343254 C365.5959194 296.73397612 365.59666782 297.49451969 365.59743892 298.27811004 C365.59897041 299.82319992 365.60050876 301.36828979 365.60205389 302.91337966 C365.61577487 317.39542068 365.61034357 331.87740764 365.59886868 346.35944741 C365.58893179 359.60814866 365.60188551 372.85671035 365.62580287 386.10539008 C365.65018346 399.71326453 365.65980461 413.32107394 365.65315014 426.9289698 C365.64965623 434.56721077 365.65190152 442.20534434 365.66940117 449.8435688 C365.68410996 456.34415737 365.6847758 462.84456287 365.66733026 469.3451478 C365.65880768 472.66143452 365.65886248 475.97732606 365.67198181 479.29360771 C365.68512075 482.88884437 365.67370595 486.48318671 365.6559906 490.0783844 C365.66559561 491.12614329 365.67520061 492.17390219 365.68509668 493.25341135 C365.62433998 499.23086138 365.12336021 502.63416771 361.15478516 507.19287109 C355.63605496 512.0546096 352.10282758 512.34865209 344.90332031 512.36987305 C343.46411476 512.37972984 343.46411476 512.37972984 341.99583435 512.38978577 C338.81183806 512.40954231 335.62788894 512.42118555 332.44384766 512.43115234 C331.35845074 512.43522787 330.27305382 512.4393034 329.15476608 512.44350243 C323.41193582 512.4643715 317.66912953 512.47867058 311.92626953 512.48803711 C305.98523711 512.49911373 300.04457799 512.53352591 294.10367775 512.57320881 C289.5432565 512.5993106 284.98292514 512.60772314 280.42243576 512.61131859 C278.23192188 512.61619986 276.04141242 512.62785733 273.85097122 512.64635658 C270.78868967 512.67061475 267.72738658 512.66980746 264.66503906 512.6628418 C263.75683914 512.67565186 262.84863922 512.68846191 261.91291809 512.70166016 C255.80316076 512.65088879 255.80316076 512.65088879 252.59164429 510.38224792 C250.47518876 507.15735371 250.61651995 504.96072751 251.15478516 501.19287109 C274.2836512 478.06400505 316.44747986 496.54082115 349.15478516 496.19287109 C349.15478516 411.05287109 349.15478516 325.91287109 349.15478516 238.19287109 C340.52640013 242.50706361 332.20875587 246.77231082 323.96728516 251.69287109 C315.20385191 256.86576499 306.37468637 261.89705656 297.46728516 266.81787109 C286.92560084 272.64498891 276.44127113 278.56076884 265.99707031 284.56054688 C260.4694141 287.73507955 254.93772342 290.90255677 249.40478516 294.06787109 C248.81146393 294.40742828 248.2181427 294.74698547 247.60684204 295.09683228 C238.20494274 300.47556804 228.76126377 305.77583332 219.29931641 311.04833984 C212.28309728 314.96995281 205.33261036 318.99247687 198.40478516 323.06787109 C188.28540386 329.01679492 178.04108015 334.71163766 167.75073242 340.35668945 C160.41118997 344.38480495 153.10497572 348.46482568 145.84228516 352.63037109 C145.00036621 353.11054688 144.15844727 353.59072266 143.29101562 354.08544922 C139.4116325 356.30223958 135.55483195 358.54626344 131.73291016 360.86083984 C121.60461822 366.92489776 112.85483587 370.63877585 100.94824219 368.05639648 C95.48918415 366.3688691 90.69798168 363.42626991 85.77978516 360.56787109 C84.5996638 359.89548881 83.41881977 359.22437355 82.23730469 358.55444336 C79.15074542 356.80009172 76.07374716 355.02963661 72.9987793 353.25506592 C70.01956286 351.53894969 67.03239016 349.83683291 64.04541016 348.13427734 C60.53317955 346.1312238 57.02178183 344.12677645 53.5144043 342.11523438 C45.77475815 337.67724667 38.00740617 333.29163134 30.21728516 328.94287109 C21.76771939 324.2257263 13.3460006 319.46398843 4.95019531 314.65185547 C-1.32229615 311.05807985 -7.6111613 307.49430069 -13.90771484 303.94287109 C-21.93418309 299.41515486 -29.94176587 294.85534157 -37.93865967 290.27563477 C-47.52734413 284.78437266 -57.1351125 279.33027919 -66.78271484 273.94287109 C-74.2600626 269.76725485 -81.7244452 265.57151703 -89.15771484 261.31787109 C-89.97796143 260.84857178 -90.79820801 260.37927246 -91.64331055 259.89575195 C-96.20915762 257.2809055 -100.77171993 254.66037986 -105.33287048 252.03735352 C-107.90815158 250.55710975 -110.48467277 249.07903284 -113.06137085 247.60125732 C-114.32646893 246.874952 -115.59098283 246.14762812 -116.85488892 245.41925049 C-118.62370763 244.39993521 -120.39440575 243.38395948 -122.16552734 242.36865234 C-123.1892041 241.77995361 -124.21288086 241.19125488 -125.26757812 240.5847168 C-127.84579112 239.09685 -127.84579112 239.09685 -130.84521484 238.19287109 C-130.84521484 323.33287109 -130.84521484 408.47287109 -130.84521484 496.19287109 C-91.50044922 496.23154297 -91.50044922 496.23154297 -51.36083984 496.27099609 C-34.79052028 496.29614837 -18.22021107 496.32228012 -1.64990234 496.35302734 C7.05094347 496.36912041 15.75178969 496.38496401 24.45263672 496.40039062 C25.54319406 496.40233456 26.6337514 496.4042785 27.75735593 496.40628135 C45.37934839 496.43732893 63.00132781 496.45428407 80.62334248 496.46606532 C98.69907743 496.47846238 116.77474382 496.50593105 134.8504355 496.54748416 C146.01027186 496.57266099 157.16999459 496.58598533 168.32985976 496.58430067 C175.97548814 496.58427098 183.62100047 496.59883873 191.26658365 496.62503538 C195.68223272 496.63972929 200.09764382 496.64784348 204.51331329 496.63867378 C208.55256262 496.63042737 212.59133243 496.64042901 216.63051036 496.66520771 C218.09489503 496.67092293 219.55932468 496.66982741 221.02369615 496.66138354 C223.00840918 496.65091616 224.9932102 496.66725598 226.97787094 496.68506241 C228.08209766 496.68658129 229.18632438 496.68810017 230.32401252 496.68966508 C233.84294535 497.31520036 235.02660948 498.36381332 237.15478516 501.19287109 C237.65478516 504.69287109 237.65478516 504.69287109 237.15478516 508.19287109 C235.01933639 511.03858765 233.83664817 512.07316088 230.29885638 512.69426775 C229.18269328 512.69491716 228.06653018 512.69556657 226.91654396 512.69623566 C225.62690699 512.70666665 224.33727002 512.71709764 223.00855315 512.72784472 C221.57419147 512.71919612 220.13983204 512.71016948 218.70547485 512.70080566 C217.18424137 512.70541293 215.66301234 512.71176467 214.14179265 512.71971464 C209.95511239 512.7364557 205.76879553 512.72814005 201.58211374 512.71576977 C197.06939096 512.70674089 192.55673185 512.72067833 188.04402161 512.73168945 C179.20052544 512.7495033 170.35716485 512.74562171 161.51366331 512.73403889 C154.32701313 512.72501495 147.14040101 512.72377606 139.9537468 512.72813416 C138.4209958 512.72905355 138.4209958 512.72905355 136.85728013 512.72999153 C134.78158764 512.7312704 132.70589516 512.73256725 130.6302027 512.73388189 C111.15223307 512.74529638 91.67433866 512.73216097 72.19638138 512.71068043 C55.47805118 512.69281402 38.75983209 512.69590811 22.04150391 512.71435547 C2.6375824 512.73575608 -16.7662731 512.74419201 -36.17020476 512.73190641 C-38.23898481 512.73063219 -40.30776488 512.72937471 -42.37654495 512.72813416 C-43.90344365 512.7272085 -43.90344365 512.7272085 -45.46118879 512.72626415 C-52.63940863 512.72280842 -59.81758665 512.72864451 -66.99580002 512.73805237 C-75.74355748 512.74926497 -84.49117134 512.74624808 -93.23891233 512.72492939 C-97.70345128 512.7144082 -102.16775073 512.71031523 -106.63228798 512.723526 C-110.71834403 512.73543401 -114.8039383 512.72891387 -118.88995238 512.70761579 C-120.36906376 512.70314288 -121.84821405 512.7054315 -123.32730047 512.71511894 C-125.33660388 512.72727083 -127.3460164 512.71242184 -129.35529137 512.69623566 C-130.47177917 512.69558625 -131.58826697 512.69493684 -132.73858774 512.69426775 C-137.75632302 511.88442621 -140.85697724 509.31465432 -144.15771484 505.56787109 C-146.48548169 502.29175479 -146.97109256 500.64217882 -146.98222923 496.67993164 C-146.98984105 495.2463083 -146.98984105 495.2463083 -146.99760664 493.78372288 C-146.99810439 492.72635898 -146.99860215 491.66899508 -146.99911499 490.57958984 C-147.00349724 489.46195975 -147.0078795 488.34432966 -147.01239455 487.19283199 C-147.02582242 483.42201005 -147.03197041 479.6512115 -147.03808594 475.88037109 C-147.04598389 473.1869743 -147.05424737 470.49358054 -147.06286621 467.80018616 C-147.08740646 459.69708887 -147.1020219 451.5939854 -147.11492628 443.49086237 C-147.11863772 441.20188895 -147.12261101 438.91291614 -147.12667894 436.62394333 C-147.1519204 422.40933079 -147.17397337 408.19471729 -147.18640709 393.98008728 C-147.1893368 390.68626909 -147.19229845 387.39245093 -147.1953125 384.09863281 C-147.19605855 383.27996786 -147.1968046 382.4613029 -147.19757326 381.61782992 C-147.2102185 368.36503448 -147.24342881 355.11237347 -147.28511433 341.85964084 C-147.32756519 328.25191901 -147.35110596 314.64426591 -147.35632765 301.03647804 C-147.35973875 293.39686698 -147.37145769 285.75746576 -147.40443039 278.11791992 C-147.43247581 271.60926954 -147.4434108 265.100872 -147.43223493 258.59216589 C-147.42705894 255.27320566 -147.43260726 251.95520206 -147.45470047 248.63624763 C-147.47738972 245.03106603 -147.46909599 241.42721033 -147.45321655 237.82202148 C-147.46709864 236.78250336 -147.48098073 235.74298523 -147.49528348 234.67196655 C-147.40642829 226.463734 -145.03167695 220.14017991 -139.8605957 213.734375 C-133.56013959 208.37863913 -126.68899009 204.43971604 -119.40771484 200.56787109 C-117.07357255 199.30871792 -114.74280315 198.04344534 -112.41162109 196.77880859 C-111.30447754 196.18036133 -110.19733398 195.58191406 -109.05664062 194.96533203 C-104.5784915 192.49373688 -100.20623145 189.86390896 -95.84521484 187.19287109 C-95.99840179 186.65671677 -96.15158875 186.12056244 -96.30941772 185.56816101 C-96.78103926 183.91748565 -97.25264047 182.26680449 -97.72422791 180.61611938 C-98.28834327 178.64185528 -98.85260791 176.66763382 -99.41700745 174.69345093 C-100.9923049 169.18243199 -102.56488555 163.67066092 -104.13256836 158.1574707 C-107.04615716 147.92062321 -109.97661768 137.69169908 -113.03662109 127.49755859 C-113.73429917 125.14925075 -114.43050631 122.80051309 -115.1260376 120.4515686 C-115.55922953 119.00279748 -115.99883661 117.555927 -116.44525146 116.11117554 C-121.52375309 99.66679115 -121.52375309 99.66679115 -118.01318359 91.18188477 C-112.6512391 82.14070848 -98.71849506 80.54673055 -89.38818359 77.85693359 C-87.99534541 77.45146097 -86.60263255 77.04555764 -85.21003723 76.63925171 C-81.55834039 75.57513503 -77.90491642 74.51707345 -74.25109863 73.46026611 C-70.60230613 72.40365628 -66.95530876 71.34088821 -63.30810547 70.27880859 C-56.3995531 68.26818442 -49.48836325 66.26680249 -42.57562256 64.27062988 C-39.10316524 63.26739601 -35.63162607 62.26103863 -32.16015625 61.25439453 C-30.23884807 60.69976041 -28.31746754 60.14537684 -26.39599609 59.59130859 C-25.5386235 59.34208649 -24.68125092 59.09286438 -23.79789734 58.83609009 C-18.07481103 57.19287109 -18.07481103 57.19287109 -15.84521484 57.19287109 C-15.86878052 55.30181641 -15.86878052 55.30181641 -15.89282227 53.37255859 C-15.94736609 48.66868549 -15.98165361 43.96484002 -16.01000977 39.26074219 C-16.02504084 37.22976979 -16.04547131 35.19882955 -16.0715332 33.16796875 C-16.10816716 30.23868851 -16.12499836 27.30983966 -16.13818359 24.38037109 C-16.15366745 23.48108887 -16.16915131 22.58180664 -16.18510437 21.65527344 C-16.18670549 15.57643073 -15.75554184 9.32223786 -11.39299011 4.63134766 C-7.48006384 1.28776104 -5.0431596 0.07291384 0 0 Z M70.15478516 43.19287109 C68.50478516 47.48287109 66.85478516 51.77287109 65.15478516 56.19287109 C59.27985788 67.28995595 52.32933659 74.40839741 41.15478516 80.19287109 C34.71978516 82.17287109 34.71978516 82.17287109 28.15478516 84.19287109 C28.15478516 158.44287109 28.15478516 232.69287109 28.15478516 309.19287109 C35.41478516 313.15287109 42.67478516 317.11287109 50.15478516 321.19287109 C54.06798042 323.44218805 57.96437691 325.69880721 61.84228516 328.00537109 C70.15130612 332.89462442 78.50715394 337.68997748 86.9281311 342.38314819 C88.67309492 343.35574073 90.41628349 344.33151613 92.15942383 345.30737305 C95.14380309 346.96381678 98.14355861 348.58590008 101.15478516 350.19287109 C101.83009277 350.57523926 102.50540039 350.95760742 103.20117188 351.3515625 C107.05820025 353.33937374 109.92403718 353.36098611 114.05126953 352.05712891 C118.04648336 350.41564133 121.7025411 348.27983562 125.40478516 346.06787109 C127.26908959 344.97885184 129.13368867 343.89033688 130.99853516 342.80224609 C132.48740234 341.92729492 132.48740234 341.92729492 134.00634766 341.03466797 C139.04337341 338.0880704 144.11129711 335.19567092 149.17956543 332.30328369 C150.80941437 331.37234507 152.4377152 330.43869759 154.06591797 329.50488281 C166.04740232 322.64576112 178.10708288 315.93958437 190.15478516 309.19287109 C190.15478516 234.94287109 190.15478516 160.69287109 190.15478516 84.19287109 C185.20478516 82.54287109 180.25478516 80.89287109 175.15478516 79.19287109 C171.45481976 76.92243778 168.40789661 74.93545776 165.15478516 72.19287109 C164.51025391 71.65919922 163.86572266 71.12552734 163.20166016 70.57568359 C155.04975496 63.16808278 151.84832063 53.35009364 148.15478516 43.19287109 C122.41478516 43.19287109 96.67478516 43.19287109 70.15478516 43.19287109 Z M-25.58886719 76.05712891 C-26.27068054 76.25552872 -26.9524939 76.45392853 -27.65496826 76.65834045 C-29.91484777 77.31701865 -32.17299171 77.98145116 -34.43115234 78.64599609 C-36.00988421 79.10756395 -37.58871265 79.56880161 -39.16763306 80.02972412 C-42.48551803 80.99916135 -45.80262701 81.97119421 -49.11914062 82.9453125 C-53.3351304 84.18361827 -57.5523261 85.41774817 -61.77004051 86.65016556 C-65.82414318 87.83491414 -69.87769357 89.02154668 -73.93115234 90.20849609 C-75.06824709 90.54130459 -75.06824709 90.54130459 -76.22831345 90.88083649 C-85.45577846 93.58338642 -94.66400582 96.33631778 -103.84521484 99.19287109 C-100.14430714 113.27190948 -96.2864429 127.2954443 -92.20068359 141.26708984 C-91.99654531 141.96561695 -91.79240704 142.66414406 -91.58208275 143.38383865 C-89.38459761 150.89819533 -87.1729624 158.40833725 -84.95315838 165.91612816 C-83.7708091 169.91761002 -82.59219011 173.92018241 -81.41552734 177.92333984 C-81.18078012 178.72155529 -80.94603291 179.51977074 -80.70417213 180.34217453 C-77.4845823 191.31314191 -74.44075764 202.31806276 -71.55003166 213.38004494 C-70.4042238 217.74506534 -69.23128894 222.1029027 -68.05951023 226.46101284 C-67.14056551 229.89231293 -66.24379694 233.32656735 -65.39511108 236.77597046 C-62.23973811 252.87577399 -62.23973811 252.87577399 -52.25657654 264.90979004 C-49.53107111 266.31254925 -46.79145433 267.35726538 -43.84521484 268.19287109 C-42.31475057 265.13194255 -43.54421212 263.15198198 -44.50073242 259.91186523 C-44.78365646 258.9423719 -44.78365646 258.9423719 -45.07229614 257.95329285 C-45.7046205 255.79280212 -46.34724086 253.63551027 -46.98974609 251.47802734 C-47.43871662 249.95067255 -47.88700212 248.42311624 -48.3346405 246.89537048 C-49.5262463 242.83475202 -50.72635699 238.77669668 -51.9284668 234.71917725 C-53.10749478 230.73576391 -54.28012745 226.7504728 -55.45263672 222.76513672 C-55.6824719 221.9842185 -55.91230709 221.20330029 -56.14910698 220.39871788 C-58.01346291 214.06296246 -59.87468863 207.72628906 -61.73253059 201.38862038 C-62.92108197 197.33525967 -64.1135733 193.28312734 -65.31341553 189.23309326 C-66.50909307 185.19578961 -67.69402869 181.15547084 -68.87170982 177.11288261 C-69.31459314 175.59940507 -69.7612056 174.08701299 -70.21183205 172.57582283 C-70.83497429 170.48409511 -71.44447436 168.38882562 -72.05102539 166.29223633 C-72.39876511 165.11008041 -72.74650482 163.9279245 -73.1047821 162.70994568 C-74.14087217 157.78849119 -74.63086854 153.16665371 -72.73193359 148.39599609 C-70.33640703 145.59873526 -67.99116417 144.49040442 -64.65771484 142.94287109 C-55.41347861 138.17663348 -50.09686369 132.32295673 -46.53662109 122.55224609 C-44.68079959 116.21938627 -44.87753947 110.45658555 -45.10302734 103.88427734 C-44.81965289 99.82687044 -44.11257587 97.55686425 -41.84521484 94.19287109 C-39.63818359 92.87255859 -39.63818359 92.87255859 -37.03271484 92.06787109 C-36.06978516 91.75978516 -35.10685547 91.45169922 -34.11474609 91.13427734 C-33.03580078 90.82361328 -31.95685547 90.51294922 -30.84521484 90.19287109 C-29.59095703 89.83064453 -28.33669922 89.46841797 -27.04443359 89.09521484 C-24.57316724 88.3909418 -22.09807838 87.69988709 -19.61865234 87.02490234 C-16.96069731 86.46638683 -16.96069731 86.46638683 -15.84521484 85.19287109 C-15.77294983 83.33999608 -15.76140265 81.48453232 -15.78271484 79.63037109 C-15.79173828 78.61845703 -15.80076172 77.60654297 -15.81005859 76.56396484 C-15.82166016 75.78150391 -15.83326172 74.99904297 -15.84521484 74.19287109 C-19.41410564 74.19287109 -22.1574334 75.05263595 -25.58886719 76.05712891 Z M234.15478516 74.19287109 C234.15478516 77.82287109 234.15478516 81.45287109 234.15478516 85.19287109 C238.09982341 86.75444874 242.03474117 88.17625769 246.10791016 89.36474609 C246.81302734 89.57333252 247.51814453 89.78191895 248.24462891 89.99682617 C249.66599096 90.41369264 251.09047206 90.82009153 252.51806641 91.21508789 C256.7225824 92.45710111 259.44076198 93.70629182 262.15478516 97.19287109 C263.33342399 100.72878759 263.11048236 103.34474374 262.96728516 107.06787109 C262.81228183 117.62603148 265.1783415 127.09286951 272.16650391 135.26318359 C276.57232693 139.539169 281.72397755 142.42724392 287.09228516 145.31787109 C291.33550805 147.91576266 291.33550805 147.91576266 292.15478516 151.19287109 C292.54629309 157.82064667 291.30355951 163.23849717 289.41674805 169.56860352 C289.12574722 170.5761116 288.8347464 171.58361969 288.53492737 172.62165833 C287.57573097 175.93354053 286.60161716 179.24083597 285.62744141 182.54833984 C284.9562387 184.85634556 284.28604169 187.16464397 283.61680603 189.47322083 C281.85587916 195.53861059 280.08254612 201.60030062 278.30621338 207.66119385 C275.80296659 216.21090201 273.31680531 224.76559746 270.82847595 233.31965637 C269.50394301 237.87274599 268.17484595 242.42446425 266.84205627 246.97514343 C266.23543387 249.05186701 265.62882023 251.12859315 265.0222168 253.20532227 C264.74528992 254.14725433 264.46836304 255.0891864 264.18304443 256.05966187 C263.92924515 256.93004593 263.67544586 257.80042999 263.41395569 258.69718933 C263.19364717 259.44912158 262.97333864 260.20105383 262.7463541 260.9757719 C262.10866265 263.36573037 261.61607288 265.76324338 261.15478516 268.19287109 C263.09351658 267.23703141 265.03072845 266.27810917 266.96728516 265.31787109 C268.04623047 264.78419922 269.12517578 264.25052734 270.23681641 263.70068359 C274.73266722 261.53517184 274.73266722 261.53517184 277.23394775 257.45358276 C277.56650574 256.27812897 277.89906372 255.10267517 278.24169922 253.89160156 C278.42998071 253.23794113 278.6182622 252.5842807 278.81224918 251.91081238 C279.44228665 249.71344747 280.05619693 247.51189462 280.67041016 245.31005859 C281.11831708 243.73629704 281.56725044 242.16282731 282.01713562 240.58963013 C282.9846302 237.19844081 283.94508489 233.80536473 284.90011597 230.41064453 C286.40864946 225.04853982 287.93187881 219.69068507 289.45776367 214.33349609 C291.04952265 208.74210038 292.64003316 203.15036122 294.22511292 197.55706787 C298.05155644 184.05487256 301.90991882 170.56212768 305.79150391 157.07568359 C306.05876156 156.14707394 306.32601921 155.21846428 306.60137558 154.26171494 C307.91759629 149.68901537 309.23435035 145.11646963 310.5513916 140.54400635 C312.7906106 132.76914831 315.02547597 124.99303875 317.26050758 117.21697617 C318.30964758 113.56696425 319.3590516 109.91702826 320.40844727 106.26708984 C320.74766708 105.08719482 321.0868869 103.9072998 321.43638611 102.69165039 C321.67345779 101.86705322 321.91052948 101.04245605 322.15478516 100.19287109 C319.4669002 97.50498614 317.04428499 97.12804253 313.38525391 96.08569336 C312.68901413 95.8853952 311.99277435 95.68509705 311.2754364 95.47872925 C308.96611464 94.81602837 306.65425413 94.16267715 304.34228516 93.50927734 C302.73225253 93.04908959 301.12239153 92.58830099 299.51269531 92.12693787 C295.26353167 90.91072255 291.01218757 89.7023109 286.76031494 88.49560547 C282.46739074 87.27598016 278.17634774 86.04977729 273.88525391 84.82373047 C269.04633131 83.44117723 264.20727688 82.0591339 259.36645508 80.6832428 C257.89745582 80.26532763 256.42846152 79.84739506 254.95947266 79.42944336 C254.26801651 79.23309579 253.57656036 79.03674822 252.864151 78.83445072 C248.23548213 77.51548286 243.6297612 76.13451437 239.04199219 74.67979431 C236.99547561 74.06795564 236.99547561 74.06795564 234.15478516 74.19287109 Z M234.15478516 102.19287109 C234.15478516 161.92287109 234.15478516 221.65287109 234.15478516 283.19287109 C241.11953423 281.08615807 241.11953423 281.08615807 242.79370117 277.01928711 C243.19441005 275.67007209 243.56374532 274.31131425 243.90869141 272.94677734 C244.12777161 272.18033905 244.34685181 271.41390076 244.5725708 270.62423706 C245.31393789 268.00793634 246.01479036 265.38235383 246.71728516 262.75537109 C247.24191485 260.87636881 247.76961201 258.99822083 248.30004883 257.12084961 C249.19565999 253.94478401 250.08742251 250.76785603 250.96882629 247.58781433 C253.85189565 237.18722784 256.86264184 226.82588846 259.88916016 216.46630859 C260.39359426 214.73758899 260.8979429 213.00884444 261.40220642 211.28007507 C261.65278337 210.42106 261.90336031 209.56204493 262.16153049 208.67699909 C262.53802187 207.38632668 262.53802187 207.38632668 262.92211914 206.06958008 C263.17339789 205.2082783 263.42467665 204.34697653 263.68356991 203.4595747 C264.44491203 200.8498704 265.2061187 198.24012663 265.96728516 195.63037109 C266.21969593 194.76514454 266.4721067 193.89991798 266.73216629 193.00847244 C268.19917022 187.97787677 269.66190702 182.94607554 271.11858368 177.9124794 C271.5696866 176.35618318 272.02223981 174.80030654 272.47629547 173.24486923 C273.10177111 171.10156074 273.72228061 168.95687529 274.34155273 166.81176758 C274.69316971 165.60101059 275.04478668 164.3902536 275.40705872 163.14280701 C276.27763616 160.21540251 276.27763616 160.21540251 276.15478516 157.19287109 C273.95991358 155.57981951 273.95991358 155.57981951 271.15478516 154.06787109 C259.37819205 146.82655133 253.1780362 136.25047604 249.15478516 123.19287109 C248.06120524 117.50625551 248.05039894 111.95730996 248.15478516 106.19287109 C246.19769835 105.5225539 244.23907402 104.85672426 242.27978516 104.19287109 C241.18923828 103.82162109 240.09869141 103.45037109 238.97509766 103.06787109 C236.32857661 102.09409909 236.32857661 102.09409909 234.15478516 102.19287109 Z M-23.97021484 104.19287109 C-25.06591797 104.56412109 -26.16162109 104.93537109 -27.29052734 105.31787109 C-28.13357422 105.60662109 -28.97662109 105.89537109 -29.84521484 106.19287109 C-29.82201172 106.79873047 -29.79880859 107.40458984 -29.77490234 108.02880859 C-29.4682494 122.26626674 -33.40897693 135.04718483 -42.72802734 146.00146484 C-47.17183083 150.60104742 -52.28436449 154.06489277 -57.84521484 157.19287109 C-56.36352909 165.80297009 -53.94594051 174.11165395 -51.47802734 182.47802734 C-51.04217159 183.96780173 -50.60671529 185.45769304 -50.17163086 186.94769287 C-48.77696893 191.71863252 -47.37418493 196.48716364 -45.97021484 201.25537109 C-45.49018912 202.88633503 -45.01018835 204.51730632 -44.5302124 206.14828491 C-44.29202726 206.95762576 -44.05384212 207.76696661 -43.80843925 208.60083294 C-42.84973552 211.85904367 -41.89150134 215.11739222 -40.93362045 218.37584496 C-40.45799348 219.99352474 -39.98211504 221.61113062 -39.50598526 223.22866249 C-36.5967148 233.11635715 -33.75578854 243.01753873 -31.03271484 252.95849609 C-30.24898011 255.78200428 -29.46354845 258.60503493 -28.67767334 261.427948 C-28.20940294 263.13395754 -27.75110996 264.84273994 -27.30328369 266.55422974 C-26.69853395 268.86451191 -26.06118688 271.16328332 -25.41552734 273.46240234 C-24.91690186 275.32795776 -24.91690186 275.32795776 -24.40820312 277.23120117 C-22.76579895 281.09557564 -22.76579895 281.09557564 -15.84521484 283.19287109 C-15.84521484 223.46287109 -15.84521484 163.73287109 -15.84521484 102.19287109 C-18.77660315 102.19287109 -21.20261784 103.25071041 -23.97021484 104.19287109 Z M-99.15771484 207.58740234 C-99.76784424 207.93542404 -100.37797363 208.28344574 -101.0065918 208.64201355 C-102.29605882 209.37956305 -103.58369899 210.12031432 -104.86962891 210.86401367 C-106.83327793 211.99847477 -108.80349971 213.12077801 -110.77490234 214.24169922 C-112.0279184 214.96038261 -113.28053609 215.67976108 -114.53271484 216.39990234 C-115.67095703 217.05450439 -116.80919922 217.70910645 -117.98193359 218.38354492 C-120.31025295 219.85482517 -122.04726526 221.138809 -123.84521484 223.19287109 C-122.86166016 223.70333984 -121.87810547 224.21380859 -120.86474609 224.73974609 C-111.50515757 229.63051703 -102.28986063 234.73034384 -93.1550293 240.02978516 C-88.12834831 242.93540351 -83.06624179 245.65177012 -77.84521484 248.19287109 C-79.48936359 238.76263865 -82.22985952 229.72336581 -84.97021484 220.56787109 C-85.44327651 218.97554357 -85.91593602 217.3830965 -86.38818359 215.79052734 C-87.53589586 211.92324831 -88.68903678 208.05762718 -89.84521484 204.19287109 C-93.79376693 204.19287109 -95.73258198 205.62779384 -99.15771484 207.58740234 Z M308.15478516 204.19287109 C306.41646318 209.97373165 304.68944639 215.75780194 302.97290039 221.54516602 C302.38714519 223.51419342 301.79829058 225.48230153 301.20629883 227.44946289 C300.35677027 230.27434118 299.5183791 233.10231908 298.68212891 235.93115234 C298.41448227 236.81249344 298.14683563 237.69383453 297.87107849 238.60188293 C297.63075394 239.42250717 297.39042938 240.24313141 297.14282227 241.08862305 C296.92742294 241.81032181 296.71202362 242.53202057 296.49009705 243.27558899 C295.96140521 245.40428741 295.96140521 245.40428741 297.15478516 248.19287109 C304.4191497 244.16287079 311.68189723 240.12998775 318.94163513 236.09165955 C322.43951065 234.14600913 325.9391927 232.20365795 329.43994141 230.26318359 C330.8658739 229.46918432 332.29166995 228.67493991 333.71728516 227.88037109 C334.67828125 227.34972046 334.67828125 227.34972046 335.65869141 226.80834961 C338.12418225 225.42942204 340.145579 224.20207725 342.15478516 222.19287109 C337.26585369 219.30449512 332.37235261 216.42413452 327.47314453 213.55322266 C325.9888396 212.68227204 324.50565724 211.80940369 323.02392578 210.93408203 C321.11278139 209.8057825 319.19701768 208.68578493 317.27978516 207.56787109 C316.16861328 206.91560547 315.05744141 206.26333984 313.91259766 205.59130859 C311.22419401 203.96674127 311.22419401 203.96674127 308.15478516 204.19287109 Z " fill="#4d1300" transform="translate(146.84521484375,-0.19287109375)"/>
<path d="M0 0 C2.38713694 2.21660009 4.65738245 4.51411775 6.9128418 6.86547852 C7.81583008 7.77426758 7.81583008 7.77426758 8.73706055 8.70141602 C21.3361343 22.25947439 26.22604296 40.75508179 25.9128418 58.86547852 C24.73948958 77.94789089 16.82291118 95.68986079 2.9128418 108.86547852 C-12.35431657 121.72203293 -31.01275796 128.64967855 -51.04711914 127.08862305 C-71.56357595 124.84448213 -89.05490039 115.25199163 -101.9621582 99.17797852 C-113.28456533 83.16396622 -117.77715584 64.15588324 -115.4621582 44.74047852 C-112.05428945 25.0951175 -102.09509547 8.44509436 -85.98950195 -3.41577148 C-60.03917199 -20.31659391 -24.00188769 -21.0403087 0 0 Z M-82.13793945 14.53344727 C-93.18539885 24.5941433 -99.19759665 38.99686935 -100.08325195 53.73266602 C-100.10333677 69.84068625 -94.40805313 82.92051647 -83.5871582 94.55297852 C-82.3496582 95.69766602 -82.3496582 95.69766602 -81.0871582 96.86547852 C-80.6230957 97.33469727 -80.1590332 97.80391602 -79.6809082 98.28735352 C-69.5719615 107.90076362 -55.76306875 111.42021881 -42.1496582 111.10766602 C-27.62073913 109.95869537 -13.38567384 103.29762049 -3.84887695 92.27954102 C6.00705335 79.98785707 10.46035858 66.07510287 9.7565918 50.38110352 C7.8772546 35.27412375 0.55593455 21.6647363 -11.0871582 11.86547852 C-33.88267459 -4.31560115 -60.56865397 -3.0095716 -82.13793945 14.53344727 Z " fill="#4d1300" transform="translate(301.087158203125,163.134521484375)"/>
<path d="M0 0 C3.6772646 1.91077755 7.20790801 4.03844595 10.75 6.1875 C19.97270502 11.67815269 29.27421211 16.97071853 38.6875 22.125 C49.585644 28.10237587 60.41686312 34.18336917 71.18994141 40.38378906 C76.10762174 43.21220295 81.03073316 46.03112603 85.95501709 48.84802246 C87.14662601 49.52978695 88.3380744 50.2118321 89.52935791 50.89416504 C96.05489848 54.63118367 102.59275157 58.34316689 109.16796875 61.9921875 C110.87678223 62.94182373 110.87678223 62.94182373 112.62011719 63.91064453 C114.77596821 65.10597729 116.93405556 66.29728871 119.09472656 67.48388672 C128.79145692 72.85858125 128.79145692 72.85858125 132 76 C132.92995212 79.47182124 133.34268246 81.84734082 132.3125 85.3125 C130.62884529 87.47719891 129.64816011 88.21270916 127 89 C119.86930265 88.82886326 114.60938856 85.32823083 108.5625 81.8125 C107.46212402 81.184646 106.36174805 80.55679199 105.22802734 79.90991211 C96.83830558 75.108854 88.49914134 70.21909345 80.16430664 65.32348633 C71.5467188 60.27663307 62.82197233 55.43568453 54.07788086 50.61230469 C45.55011852 45.89526184 37.12858187 41.01630822 28.73120117 36.07177734 C21.99477522 32.12107454 15.1851216 28.33312605 8.3125 24.625 C-14.29315178 12.41369644 -14.29315178 12.41369644 -16 9 C-16.57801822 2.75740319 -16.57801822 2.75740319 -14.1875 -0.375 C-9.02446305 -4.21039888 -5.43777216 -2.30099474 0 0 Z " fill="#4d1300" transform="translate(309,384)"/>
<path d="M0 0 C3.125 1.4375 3.125 1.4375 5.125 4.4375 C5.5 7.875 5.5 7.875 5.125 11.4375 C2.36518792 14.75733823 -0.77665013 16.72854057 -4.51171875 18.8359375 C-5.63352539 19.47289551 -6.75533203 20.10985352 -7.91113281 20.76611328 C-9.12818386 21.44836948 -10.34530813 22.13049507 -11.5625 22.8125 C-12.82550466 23.52663416 -14.08819574 24.24132318 -15.35058594 24.95654297 C-24.44887143 30.10383017 -33.57975101 35.19361283 -42.7109375 40.28222656 C-49.88064516 44.28842598 -56.98220273 48.40064581 -64.0625 52.5625 C-72.54927726 57.54911222 -81.11605098 62.34928787 -89.77563477 67.02856445 C-96.23075102 70.52228584 -102.6298836 74.10365751 -109 77.75 C-109.87567627 78.25007568 -110.75135254 78.75015137 -111.65356445 79.26538086 C-115.33148301 81.37323708 -118.99602462 83.49392594 -122.609375 85.7109375 C-132.54141435 91.76404606 -132.54141435 91.76404606 -137.875 91.4375 C-141.69625828 89.44380003 -142.65740253 88.10238116 -144 84 C-143.875 80.4375 -143.875 80.4375 -141.93359375 78.046875 C-138.33399832 74.70502371 -134.09172004 72.47994724 -129.8125 70.125 C-127.92030283 69.06428374 -126.02839071 68.00305888 -124.13671875 66.94140625 C-123.12528809 66.37695801 -122.11385742 65.81250977 -121.07177734 65.23095703 C-115.99484695 62.38269595 -110.94991551 59.47870049 -105.90103149 56.58114624 C-95.31383399 50.50883898 -84.68108089 44.52299539 -74.01953125 38.58203125 C-67.00330812 34.66041604 -60.05291618 30.63774481 -53.125 26.5625 C-43.95080691 21.17170111 -34.69193083 15.9511162 -25.375 10.8125 C-24.75580688 10.47043518 -24.13661377 10.12837036 -23.49865723 9.77593994 C-19.63464066 7.64337092 -15.75894767 5.53363413 -11.875 3.4375 C-11.05628418 2.98656982 -10.23756836 2.53563965 -9.39404297 2.07104492 C-5.71592783 0.11172663 -4.24987003 -0.61691662 0 0 Z " fill="#4d1300" transform="translate(213.875,381.5625)"/>
</svg>
