<?xml version="1.0" encoding="UTF-8"?>
<svg version="1.1" xmlns="http://www.w3.org/2000/svg" width="512" height="512">
<path d="M0 0 C1.53488823 -0.0099852 1.53488823 -0.0099852 3.1007843 -0.02017212 C5.25817073 -0.03025572 7.41558808 -0.03499048 9.57299805 -0.03466797 C12.83631146 -0.03902648 16.09825469 -0.07535285 19.36132812 -0.11328125 C37.21810293 -0.21021847 50.20648793 2.00037504 63.80078125 14.3359375 C72.46427078 23.37873919 76.15593001 34.05272923 77.17578125 46.3359375 C77.2840625 47.48449219 77.39234375 48.63304687 77.50390625 49.81640625 C77.75682939 52.6551357 77.9811101 55.49271415 78.17578125 58.3359375 C79.17996094 58.69945312 80.18414062 59.06296875 81.21875 59.4375 C82.60070426 59.94410338 83.9821804 60.45201215 85.36328125 60.9609375 C86.08418945 61.22583984 86.80509766 61.49074219 87.54785156 61.76367188 C93.40971708 63.95767702 98.94278148 66.55032341 104.50390625 69.4296875 C107.06641485 70.57734708 107.06641485 70.57734708 109.27734375 69.7578125 C111.54938889 68.05611614 113.37634917 66.17369776 115.30078125 64.0859375 C124.12308854 55.09007662 134.6599249 50.13465243 147.234375 49.34765625 C162.66800836 49.28616767 174.93925583 55.22779745 185.7578125 65.90234375 C186.2832666 66.43102051 186.8087207 66.95969727 187.35009766 67.50439453 C189.52557288 69.68685176 191.73184937 71.83633191 193.9375 73.98828125 C195.64332608 75.66524478 197.34774912 77.34363666 199.05078125 79.0234375 C199.85990967 79.81911133 200.66903809 80.61478516 201.50268555 81.43457031 C211.80259311 91.72485878 219.40283303 102.6730561 220.24609375 117.77734375 C219.73739307 136.28839631 212.22163201 147.90002262 199.17578125 160.3359375 C201.23054413 167.05040854 204.17547844 173.39021433 206.98632812 179.8125 C207.38013672 180.72 207.77394531 181.6275 208.1796875 182.5625 C208.53877197 183.38314941 208.89785645 184.20379883 209.26782227 185.04931641 C210.09655074 187.13640188 210.69292295 189.14626778 211.17578125 191.3359375 C211.85979004 191.39015869 212.54379883 191.44437988 213.24853516 191.50024414 C231.74390954 193.06614644 245.60594918 195.19083404 258.828125 209.3671875 C266.92783202 219.60974546 269.48238217 230.4025281 269.51171875 243.16015625 C269.51837555 244.18341507 269.52503235 245.20667389 269.53189087 246.26094055 C269.54197447 248.41832698 269.54670923 250.57574433 269.54638672 252.7331543 C269.55074523 255.99646771 269.5870716 259.25841094 269.625 262.52148438 C269.72193722 280.37825918 267.51134371 293.36664418 255.17578125 306.9609375 C246.13297956 315.62442703 235.45898952 319.31608626 223.17578125 320.3359375 C222.02722656 320.44421875 220.87867188 320.5525 219.6953125 320.6640625 C216.85658305 320.91698564 214.0190046 321.14126635 211.17578125 321.3359375 C210.81226563 322.34011719 210.44875 323.34429687 210.07421875 324.37890625 C209.56761537 325.76086051 209.0597066 327.14233665 208.55078125 328.5234375 C208.15342773 329.6047998 208.15342773 329.6047998 207.74804688 330.70800781 C205.55404173 336.56987333 202.96139534 342.10293773 200.08203125 347.6640625 C198.93437167 350.2265711 198.93437167 350.2265711 199.75390625 352.4375 C201.45560261 354.70954514 203.33802099 356.53650542 205.42578125 358.4609375 C214.42164213 367.28324479 219.37706632 377.82008115 220.1640625 390.39453125 C220.22555108 405.82816461 214.2839213 418.09941208 203.609375 428.91796875 C203.08069824 429.44342285 202.55202148 429.96887695 202.00732422 430.51025391 C199.82486699 432.68572913 197.67538684 434.89200562 195.5234375 437.09765625 C193.84647397 438.80348233 192.16808209 440.50790537 190.48828125 442.2109375 C189.69260742 443.02006592 188.89693359 443.82919434 188.07714844 444.6628418 C177.78685997 454.96274936 166.83866265 462.56298928 151.734375 463.40625 C134.01999645 462.91944265 122.44825312 456.06881169 110.35546875 443.5859375 C109.96617187 443.1734375 109.576875 442.7609375 109.17578125 442.3359375 C102.46131021 444.39070038 96.12150442 447.33563469 89.69921875 450.14648438 C88.79171875 450.54029297 87.88421875 450.93410156 86.94921875 451.33984375 C86.12856934 451.69892822 85.30791992 452.0580127 84.46240234 452.42797852 C82.37531687 453.25670699 80.36545097 453.8530792 78.17578125 454.3359375 C78.12156006 455.01994629 78.06733887 455.70395508 78.01147461 456.40869141 C76.44557231 474.90406579 74.32088471 488.76610543 60.14453125 501.98828125 C49.90197329 510.08798827 39.10919065 512.64253842 26.3515625 512.671875 C25.32830368 512.6785318 24.30504486 512.6851886 23.2507782 512.69204712 C21.09339177 512.70213072 18.93597442 512.70686548 16.77856445 512.70654297 C13.51525104 512.71090148 10.25330781 512.74722785 6.99023438 512.78515625 C-10.86654043 512.88209347 -23.85492543 510.67149996 -37.44921875 498.3359375 C-46.11270828 489.29313581 -49.80436751 478.61914577 -50.82421875 466.3359375 C-50.9325 465.18738281 -51.04078125 464.03882813 -51.15234375 462.85546875 C-51.40526689 460.0167393 -51.6295476 457.17916085 -51.82421875 454.3359375 C-52.82839844 453.97242188 -53.83257812 453.60890625 -54.8671875 453.234375 C-56.24914176 452.72777162 -57.6306179 452.21986285 -59.01171875 451.7109375 C-59.73262695 451.44603516 -60.45353516 451.18113281 -61.19628906 450.90820312 C-67.05815458 448.71419798 -72.59121898 446.12155159 -78.15234375 443.2421875 C-80.71485235 442.09452792 -80.71485235 442.09452792 -82.92578125 442.9140625 C-85.19782639 444.61575886 -87.02478667 446.49817724 -88.94921875 448.5859375 C-97.77152604 457.58179838 -108.3083624 462.53722257 -120.8828125 463.32421875 C-136.31644586 463.38570733 -148.58769333 457.44407755 -159.40625 446.76953125 C-159.9317041 446.24085449 -160.4571582 445.71217773 -160.99853516 445.16748047 C-163.17401038 442.98502324 -165.38028687 440.83554309 -167.5859375 438.68359375 C-169.29176358 437.00663022 -170.99618662 435.32823834 -172.69921875 433.6484375 C-173.50834717 432.85276367 -174.31747559 432.05708984 -175.15112305 431.23730469 C-185.45103061 420.94701622 -193.05127053 409.9988189 -193.89453125 394.89453125 C-193.4077239 377.1801527 -186.55709294 365.60840937 -174.07421875 353.515625 C-173.66171875 353.12632812 -173.24921875 352.73703125 -172.82421875 352.3359375 C-174.87898163 345.62146646 -177.82391594 339.28166067 -180.63476562 332.859375 C-181.02857422 331.951875 -181.42238281 331.044375 -181.828125 330.109375 C-182.18720947 329.28872559 -182.54629395 328.46807617 -182.91625977 327.62255859 C-183.74498824 325.53547312 -184.34136045 323.52560722 -184.82421875 321.3359375 C-185.50822754 321.28171631 -186.19223633 321.22749512 -186.89697266 321.17163086 C-205.39234704 319.60572856 -219.25438668 317.48104096 -232.4765625 303.3046875 C-240.57626952 293.06212954 -243.13081967 282.2693469 -243.16015625 269.51171875 C-243.16681305 268.48845993 -243.17346985 267.46520111 -243.18032837 266.41093445 C-243.19041197 264.25354802 -243.19514673 262.09613067 -243.19482422 259.9387207 C-243.19918273 256.67540729 -243.2355091 253.41346406 -243.2734375 250.15039062 C-243.37037472 232.29361582 -241.15978121 219.30523082 -228.82421875 205.7109375 C-219.78141706 197.04744797 -209.10742702 193.35578874 -196.82421875 192.3359375 C-195.67566406 192.22765625 -194.52710938 192.119375 -193.34375 192.0078125 C-190.50502055 191.75488936 -187.6674421 191.53060865 -184.82421875 191.3359375 C-184.46070313 190.33175781 -184.0971875 189.32757813 -183.72265625 188.29296875 C-183.21605287 186.91101449 -182.7081441 185.52953835 -182.19921875 184.1484375 C-181.93431641 183.4275293 -181.66941406 182.70662109 -181.39648438 181.96386719 C-179.20247923 176.10200167 -176.60983284 170.56893727 -173.73046875 165.0078125 C-172.58280917 162.4453039 -172.58280917 162.4453039 -173.40234375 160.234375 C-175.10404011 157.96232986 -176.98645849 156.13536958 -179.07421875 154.2109375 C-188.07007963 145.38863021 -193.02550382 134.85179385 -193.8125 122.27734375 C-193.87398858 106.84371039 -187.9323588 94.57246292 -177.2578125 83.75390625 C-176.72913574 83.22845215 -176.20045898 82.70299805 -175.65576172 82.16162109 C-173.47330449 79.98614587 -171.32382434 77.77986938 -169.171875 75.57421875 C-167.49491147 73.86839267 -165.81651959 72.16396963 -164.13671875 70.4609375 C-163.34104492 69.65180908 -162.54537109 68.84268066 -161.72558594 68.0090332 C-151.43529747 57.70912564 -140.48710015 50.10888572 -125.3828125 49.265625 C-107.66843395 49.75243235 -96.09669062 56.60306331 -84.00390625 69.0859375 C-83.61460937 69.4984375 -83.2253125 69.9109375 -82.82421875 70.3359375 C-76.10974771 68.28117462 -69.76994192 65.33624031 -63.34765625 62.52539062 C-62.44015625 62.13158203 -61.53265625 61.73777344 -60.59765625 61.33203125 C-59.36668213 60.79340454 -59.36668213 60.79340454 -58.11083984 60.24389648 C-56.02375437 59.41516801 -54.01388847 58.8187958 -51.82421875 58.3359375 C-51.76999756 57.65192871 -51.71577637 56.96791992 -51.65991211 56.26318359 C-50.09400981 37.76780921 -47.96932221 23.90576957 -33.79296875 10.68359375 C-23.55041079 2.58388673 -12.75762815 0.02933658 0 0 Z M-14.98046875 35.01953125 C-15.42390625 35.59832031 -15.86734375 36.17710938 -16.32421875 36.7734375 C-16.78828125 37.34964844 -17.25234375 37.92585938 -17.73046875 38.51953125 C-20.07695154 42.41636874 -19.96732159 46.3953565 -20.03515625 50.859375 C-20.06351563 52.1278125 -20.091875 53.39625 -20.12109375 54.703125 C-20.17586291 57.36725342 -20.21733421 60.03077824 -20.25390625 62.6953125 C-20.28484375 63.96632812 -20.31578125 65.23734375 -20.34765625 66.546875 C-20.36747559 67.70493652 -20.38729492 68.86299805 -20.40771484 70.05615234 C-20.9641218 74.43761248 -22.21810415 77.85007176 -25.50683594 80.89257812 C-30.82204669 84.02768934 -36.18681099 86.0273455 -42.07421875 87.8359375 C-43.94890604 88.43833593 -45.82261539 89.04378658 -47.6953125 89.65234375 C-48.58589355 89.94125488 -49.47647461 90.23016602 -50.39404297 90.52783203 C-56.78410549 92.6527172 -62.86654791 95.28625362 -68.8203125 98.421875 C-69.87641724 98.97210327 -69.87641724 98.97210327 -70.95385742 99.53344727 C-72.32584086 100.25490361 -73.69002211 100.99148324 -75.04418945 101.74584961 C-79.90594583 104.31732136 -83.31703523 105.00528886 -88.82421875 104.3359375 C-96.23247422 101.20745124 -101.09141803 95.21732449 -106.5078125 89.44726562 C-111.37164535 84.40312794 -115.19964107 80.91577751 -122.37890625 80.015625 C-133.85360887 80.98150906 -141.38994013 90.53826454 -149.13671875 98.2734375 C-150.01650391 99.12873047 -150.89628906 99.98402344 -151.80273438 100.86523438 C-157.52783901 106.56425653 -162.14408648 111.5750116 -163.32421875 119.8359375 C-162.04014078 128.82448331 -156.60510419 134.00832601 -150.26171875 139.9609375 C-139.23579569 150.36659453 -139.23579569 150.36659453 -138.41796875 158.25390625 C-138.59806982 162.57121539 -140.23431606 165.9346564 -142.32421875 169.6484375 C-143.06613045 171.05078695 -143.80291399 172.45585871 -144.53515625 173.86328125 C-144.91510742 174.59272949 -145.29505859 175.32217773 -145.68652344 176.07373047 C-151.06104963 186.76050294 -155.32656527 198.01018935 -158.74658203 209.46240234 C-160.09510261 213.8132137 -161.50845086 217.05647364 -164.82421875 220.3359375 C-168.75044688 222.30443823 -172.01280735 222.58651851 -176.375 222.609375 C-177.63119141 222.63 -178.88738281 222.650625 -180.18164062 222.671875 C-182.8065759 222.69780029 -185.43159818 222.71609895 -188.05664062 222.7265625 C-196.66108738 222.88500756 -202.8003376 223.41794795 -209.19921875 229.6484375 C-212.52334538 235.14603154 -213.13346229 240.83299033 -213.125 247.140625 C-213.12928513 247.86404083 -213.13357025 248.58745667 -213.13798523 249.33279419 C-213.14369316 250.85385091 -213.14425509 252.37493492 -213.13989258 253.89599609 C-213.13673638 256.19807483 -213.16022133 258.49886118 -213.18554688 260.80078125 C-213.37726806 273.38067463 -213.37726806 273.38067463 -208.140625 284.4921875 C-207.56183594 284.935625 -206.98304688 285.3790625 -206.38671875 285.8359375 C-205.52240234 286.53203125 -205.52240234 286.53203125 -204.640625 287.2421875 C-200.74378751 289.58867029 -196.76479975 289.47904034 -192.30078125 289.546875 C-191.03234375 289.57523437 -189.76390625 289.60359375 -188.45703125 289.6328125 C-185.79290283 289.68758166 -183.12937801 289.72905296 -180.46484375 289.765625 C-179.19382813 289.7965625 -177.9228125 289.8275 -176.61328125 289.859375 C-175.45521973 289.87919434 -174.2971582 289.89901367 -173.10400391 289.91943359 C-168.72254377 290.47584055 -165.31008449 291.7298229 -162.26757812 295.01855469 C-159.13246691 300.33376544 -157.13281075 305.69852974 -155.32421875 311.5859375 C-154.72182032 313.46062479 -154.11636967 315.33433414 -153.5078125 317.20703125 C-153.21890137 318.0976123 -152.92999023 318.98819336 -152.63232422 319.90576172 C-150.50743905 326.29582424 -147.87390263 332.37826666 -144.73828125 338.33203125 C-144.3714624 339.03610107 -144.00464355 339.7401709 -143.62670898 340.46557617 C-142.90525264 341.83755961 -142.16867301 343.20174086 -141.41430664 344.5559082 C-138.84283489 349.41766458 -138.15486739 352.82875398 -138.82421875 358.3359375 C-141.95270501 365.74419297 -147.94283176 370.60313678 -153.71289062 376.01953125 C-158.75702831 380.8833641 -162.24437874 384.71135982 -163.14453125 391.890625 C-162.17864719 403.36532762 -152.62189171 410.90165888 -144.88671875 418.6484375 C-144.03142578 419.52822266 -143.17613281 420.40800781 -142.29492188 421.31445312 C-136.59589972 427.03955776 -131.58514465 431.65580523 -123.32421875 432.8359375 C-114.33567294 431.55185953 -109.15183024 426.11682294 -103.19921875 419.7734375 C-92.79356172 408.74751444 -92.79356172 408.74751444 -84.90625 407.9296875 C-80.58894086 408.10978857 -77.22549985 409.74603481 -73.51171875 411.8359375 C-72.1093693 412.5778492 -70.70429754 413.31463274 -69.296875 414.046875 C-68.56742676 414.42682617 -67.83797852 414.80677734 -67.08642578 415.19824219 C-56.39965331 420.57276838 -45.1499669 424.83828402 -33.69775391 428.25830078 C-29.34694255 429.60682136 -26.10368261 431.02016961 -22.82421875 434.3359375 C-20.85571802 438.26216563 -20.57363774 441.5245261 -20.55078125 445.88671875 C-20.53015625 447.14291016 -20.50953125 448.39910156 -20.48828125 449.69335938 C-20.46235596 452.31829465 -20.4440573 454.94331693 -20.43359375 457.56835938 C-20.27514869 466.17280613 -19.7422083 472.31205635 -13.51171875 478.7109375 C-8.01412471 482.03506413 -2.32716592 482.64518104 3.98046875 482.63671875 C4.70388458 482.64100388 5.42730042 482.645289 6.17263794 482.64970398 C7.69369466 482.65541191 9.21477867 482.65597384 10.73583984 482.65161133 C13.03791858 482.64845513 15.33870493 482.67194008 17.640625 482.69726562 C30.22051838 482.88898681 30.22051838 482.88898681 41.33203125 477.65234375 C41.77546875 477.07355469 42.21890625 476.49476563 42.67578125 475.8984375 C43.13984375 475.32222656 43.60390625 474.74601562 44.08203125 474.15234375 C46.42851404 470.25550626 46.31888409 466.2765185 46.38671875 461.8125 C46.41507812 460.5440625 46.4434375 459.275625 46.47265625 457.96875 C46.52742541 455.30462158 46.56889671 452.64109676 46.60546875 449.9765625 C46.63640625 448.70554687 46.66734375 447.43453125 46.69921875 446.125 C46.71903809 444.96693848 46.73885742 443.80887695 46.75927734 442.61572266 C47.3156843 438.23426252 48.56966665 434.82180324 51.85839844 431.77929688 C57.17360919 428.64418566 62.53837349 426.6445295 68.42578125 424.8359375 C70.30046854 424.23353907 72.17417789 423.62808842 74.046875 423.01953125 C74.93745605 422.73062012 75.82803711 422.44170898 76.74560547 422.14404297 C83.13566799 420.0191578 89.21811041 417.38562138 95.171875 414.25 C95.87594482 413.88318115 96.58001465 413.5163623 97.30541992 413.13842773 C98.67740336 412.41697139 100.04158461 411.68039176 101.39575195 410.92602539 C106.25750833 408.35455364 109.66859773 407.66658614 115.17578125 408.3359375 C122.58403672 411.46442376 127.44298053 417.45455051 132.859375 423.22460938 C137.72320785 428.26874706 141.55120357 431.75609749 148.73046875 432.65625 C160.20517137 431.69036594 167.74150263 422.13361046 175.48828125 414.3984375 C176.36806641 413.54314453 177.24785156 412.68785156 178.15429688 411.80664062 C183.87940151 406.10761847 188.49564898 401.0968634 189.67578125 392.8359375 C188.39170328 383.84739169 182.95666669 378.66354899 176.61328125 372.7109375 C165.58735819 362.30528047 165.58735819 362.30528047 164.76953125 354.41796875 C164.94963232 350.10065961 166.58587856 346.7372186 168.67578125 343.0234375 C169.41769295 341.62108805 170.15447649 340.21601629 170.88671875 338.80859375 C171.26666992 338.07914551 171.64662109 337.34969727 172.03808594 336.59814453 C177.41261213 325.91137206 181.67812777 314.66168565 185.09814453 303.20947266 C186.44666511 298.8586613 187.86001336 295.61540136 191.17578125 292.3359375 C195.10200938 290.36743677 198.36436985 290.08535649 202.7265625 290.0625 C204.61084961 290.0315625 204.61084961 290.0315625 206.53320312 290 C209.1581384 289.97407471 211.78316068 289.95577605 214.40820312 289.9453125 C223.01264988 289.78686744 229.1519001 289.25392705 235.55078125 283.0234375 C238.87490788 277.52584346 239.48502479 271.83888467 239.4765625 265.53125 C239.48084763 264.80783417 239.48513275 264.08441833 239.48954773 263.33908081 C239.49525566 261.81802409 239.49581759 260.29694008 239.49145508 258.77587891 C239.48829888 256.47380017 239.51178383 254.17301382 239.53710938 251.87109375 C239.72883056 239.29120037 239.72883056 239.29120037 234.4921875 228.1796875 C233.91339844 227.73625 233.33460938 227.2928125 232.73828125 226.8359375 C232.16207031 226.371875 231.58585937 225.9078125 230.9921875 225.4296875 C227.09535001 223.08320471 223.11636225 223.19283466 218.65234375 223.125 C216.7496875 223.08246094 216.7496875 223.08246094 214.80859375 223.0390625 C212.14446533 222.98429334 209.48094051 222.94282204 206.81640625 222.90625 C205.54539062 222.8753125 204.274375 222.844375 202.96484375 222.8125 C201.80678223 222.79268066 200.6487207 222.77286133 199.45556641 222.75244141 C195.07410627 222.19603445 191.66164699 220.9420521 188.61914062 217.65332031 C185.48402941 212.33810956 183.48437325 206.97334526 181.67578125 201.0859375 C181.07338282 199.21125021 180.46793217 197.33754086 179.859375 195.46484375 C179.57046387 194.5742627 179.28155273 193.68368164 178.98388672 192.76611328 C176.85900155 186.37605076 174.22546513 180.29360834 171.08984375 174.33984375 C170.53961548 173.28373901 170.53961548 173.28373901 169.97827148 172.20629883 C169.25681514 170.83431539 168.52023551 169.47013414 167.76586914 168.1159668 C165.19439739 163.25421042 164.50642989 159.84312102 165.17578125 154.3359375 C168.30426751 146.92768203 174.29439426 142.06873822 180.06445312 136.65234375 C185.10859081 131.7885109 188.59594124 127.96051518 189.49609375 120.78125 C188.53020969 109.30654738 178.97345421 101.77021612 171.23828125 94.0234375 C170.38298828 93.14365234 169.52769531 92.26386719 168.64648438 91.35742188 C162.94746222 85.63231724 157.93670715 81.01606977 149.67578125 79.8359375 C140.68723544 81.12001547 135.50339274 86.55505206 129.55078125 92.8984375 C119.14512422 103.92436056 119.14512422 103.92436056 111.2578125 104.7421875 C106.94050336 104.56208643 103.57706235 102.92584019 99.86328125 100.8359375 C98.4609318 100.0940258 97.05586004 99.35724226 95.6484375 98.625 C94.91898926 98.24504883 94.18954102 97.86509766 93.43798828 97.47363281 C82.75121581 92.09910662 71.5015294 87.83359098 60.04931641 84.41357422 C55.69850505 83.06505364 52.45524511 81.65170539 49.17578125 78.3359375 C47.20728052 74.40970937 46.92520024 71.1473489 46.90234375 66.78515625 C46.87140625 64.90086914 46.87140625 64.90086914 46.83984375 62.97851562 C46.81391846 60.35358035 46.7956198 57.72855807 46.78515625 55.10351562 C46.62671119 46.49906887 46.0937708 40.35981865 39.86328125 33.9609375 C34.36568721 30.63681087 28.67872842 30.02669396 22.37109375 30.03515625 C21.28597 30.02872856 21.28597 30.02872856 20.17892456 30.02217102 C18.65786784 30.01646309 17.13678383 30.01590116 15.61572266 30.02026367 C13.31364392 30.02341987 11.01285757 29.99993492 8.7109375 29.97460938 C-3.86895588 29.78288819 -3.86895588 29.78288819 -14.98046875 35.01953125 Z " fill="#000000" transform="translate(242.82421875,-0.3359375)"/>
<path d="M0 0 C0.7115625 0.65871094 1.423125 1.31742188 2.15625 1.99609375 C22.62557116 21.56004109 32.21283253 50.29053633 33 78.0078125 C33.08031313 85.45685572 32.30326314 92.67470104 31 100 C30.77699219 101.27875 30.55398438 102.5575 30.32421875 103.875 C25.83972669 124.95848872 14.62789207 142.52074913 0 158 C-0.65871094 158.7115625 -1.31742188 159.423125 -1.99609375 160.15625 C-21.56004109 180.62557116 -50.29053633 190.21283253 -78.0078125 191 C-85.45685572 191.08031313 -92.67470104 190.30326314 -100 189 C-101.27875 188.77699219 -102.5575 188.55398438 -103.875 188.32421875 C-124.95848872 183.83972669 -142.52074913 172.62789207 -158 158 C-158.7115625 157.34128906 -159.423125 156.68257812 -160.15625 156.00390625 C-180.62557116 136.43995891 -190.21283253 107.70946367 -191 79.9921875 C-191.08031313 72.54314428 -190.30326314 65.32529896 -189 58 C-188.77699219 56.72125 -188.55398437 55.4425 -188.32421875 54.125 C-183.83972669 33.04151128 -172.62789207 15.47925087 -158 0 C-157.34128906 -0.7115625 -156.68257812 -1.423125 -156.00390625 -2.15625 C-138.42234046 -20.55144962 -111.50841086 -31.38501083 -86.390625 -32.9296875 C-52.73608774 -33.62759265 -24.52097991 -23.17232601 0 0 Z M-141.125 26.234375 C-155.60954445 43.09529003 -161.5232257 65.09456381 -160 87 C-157.88558608 109.40194436 -146.39933395 128.55376009 -129.4375 143.125 C-111.53972012 156.91188357 -89.26206225 162.237973 -66.984375 159.5703125 C-45.3532184 156.41168706 -26.2432923 144.19552651 -12.94921875 126.9375 C0.19836423 107.12390801 5.11300661 84.45519316 0.55102539 61.01416016 C-3.94102026 40.94394635 -16.88390707 22.35762017 -34 11 C-71.03356067 -10.34681346 -111.64997663 -4.75774516 -141.125 26.234375 Z " fill="#000000" transform="translate(335,177)"/>
</svg>
