<?xml version="1.0" encoding="UTF-8"?>
<svg version="1.1" xmlns="http://www.w3.org/2000/svg" width="512" height="512">
<path d="M0 0 C1.6015625 0.94921875 1.6015625 0.94921875 3.375 2.3125 C4.3230249 3.02140381 5.2710498 3.73030762 6.24780273 4.46069336 C9.55112126 7.23339749 11.38854323 10.42776374 13.18359375 14.3046875 C13.51685165 14.99795135 13.85010956 15.69121521 14.19346619 16.40548706 C18.56365084 25.62043967 22.48754965 35.03734799 26.4375 44.4375 C27.29752537 46.47314144 28.15813587 48.50853576 29.01928711 50.54370117 C30.84806531 54.86639872 32.67460684 59.1900322 34.5 63.51416016 C38.96145542 74.07379194 43.46325282 84.61626499 47.96017456 95.16082764 C55.79481029 113.53222223 63.60174656 131.91504841 71.375 150.3125 C78.71425035 151.01666481 86.05370715 151.71865497 93.39324951 152.41976929 C96.13195912 152.68151511 98.87060191 152.94394539 101.60919189 153.2069397 C119.21497816 154.89735893 136.82408708 156.54226052 154.44020462 158.12165451 C160.30849964 158.6488591 166.17629137 159.18164591 172.04410362 159.71419334 C177.82178649 160.23777247 183.60023088 160.75170523 189.37935638 161.2590971 C193.02449681 161.5814403 196.66877554 161.9128281 200.3128891 162.24656105 C202.01325287 162.40038845 203.71396145 162.55045891 205.41501617 162.69644737 C228.53624448 164.6855665 228.53624448 164.6855665 237.375 173.3125 C243.62461864 181.50058596 244.11573098 189.27148003 243.375 199.3125 C241.84224788 205.3102257 239.00539715 209.22052113 234.375 213.3125 C233.33026875 214.39287825 232.2888884 215.4765021 231.25 216.5625 C228.39866664 219.41997847 225.39588253 221.97140547 222.25 224.5 C217.95939876 227.9501136 213.88833509 231.55022092 209.875 235.3125 C205.13655469 239.75105252 200.25378683 243.90393847 195.1875 247.96875 C191.39335871 251.13053441 187.81216235 254.49795364 184.20874023 257.87329102 C180.883452 260.97030084 177.48780061 263.90871684 173.9375 266.75 C169.56248028 270.25893139 165.45479091 273.97094505 161.375 277.8125 C156.46803946 282.4329227 151.43674627 286.77482658 146.171875 290.98828125 C142.30145402 294.20462271 138.6303349 297.61851404 134.96459961 301.06469727 C134.19901733 301.78290649 134.19901733 301.78290649 133.41796875 302.515625 C132.92216309 302.99064453 132.42635742 303.46566406 131.91552734 303.95507812 C130.375 305.3125 130.375 305.3125 128.61962891 306.46679688 C126.6459633 307.70810451 126.6459633 307.70810451 124.375 310.3125 C124.69825233 317.50574797 126.39455207 324.42094931 128.01123047 331.41894531 C128.27965759 332.59906693 128.54808472 333.77918854 128.824646 334.99507141 C129.55669406 338.20895847 130.29314056 341.42179791 131.03161383 344.63421345 C131.80787909 348.01588219 132.57843737 351.39885106 133.34963989 354.78167725 C134.81177703 361.19127022 136.27901721 367.59968362 137.74810612 374.00768638 C139.4090592 381.25375646 141.06417957 388.50115467 142.71885848 395.74865961 C145.30215919 407.06278861 147.8887114 418.37616965 150.47998047 429.68847656 C150.85417618 431.32237083 150.85417618 431.32237083 151.2359314 432.98927307 C151.47420654 434.02907822 151.71248169 435.06888336 151.95797729 436.14019775 C152.18816433 437.14933479 152.41835136 438.15847183 152.65551376 439.19818878 C153.16202925 441.39065164 153.67998418 443.58048744 154.20621109 445.76830292 C154.47759777 446.90564125 154.74898445 448.04297958 155.02859497 449.21478271 C155.27583376 450.23564846 155.52307255 451.25651421 155.77780342 452.30831528 C157.90524048 463.0103423 156.16172804 471.57831183 150.1875 480.625 C144.13779393 486.40583024 137.52992955 489.41804235 129.1875 489.5625 C128.30707031 489.58828125 127.42664063 489.6140625 126.51953125 489.640625 C117.76172879 488.72676735 110.91002902 484.5150684 103.55770874 479.90625 C100.50307367 477.99186175 97.42940323 476.10831314 94.359375 474.21875 C93.7157048 473.82131592 93.07203461 473.42388184 92.40885925 473.0144043 C84.84909538 468.35353489 77.20671159 463.83301759 69.5625 459.3125 C66.99326473 457.79204629 64.42429007 456.27115298 61.85546875 454.75 C61.23431183 454.38230499 60.61315491 454.01460999 59.97317505 453.63577271 C55.61083851 451.0512029 51.25993772 448.44807684 46.9140625 445.8359375 C41.80007268 442.7621174 36.67659997 439.7049692 31.54296875 436.6640625 C30.89233963 436.27847168 30.24171051 435.89288086 29.57136536 435.49560547 C26.16254693 433.4759226 22.75213651 431.45897012 19.34033203 429.44433594 C13.34993921 425.9014851 7.37547148 422.35211016 1.51171875 418.6015625 C0.68712158 418.07739746 -0.13747559 417.55323242 -0.98706055 417.01318359 C-2.44213121 416.08039366 -3.88850683 415.13382157 -5.32348633 414.17041016 C-8.20572077 412.32681542 -10.02105488 411.27017029 -13.48828125 411.51318359 C-16.88804404 412.37953037 -19.2397957 413.6045481 -22.2109375 415.4609375 C-23.28956055 416.12657715 -24.36818359 416.7922168 -25.47949219 417.47802734 C-26.33673889 418.01614044 -26.33673889 418.01614044 -27.21130371 418.56512451 C-29.68056486 420.11454249 -32.16329882 421.64175936 -34.64550781 423.1703186 C-35.96123887 423.98064192 -37.27633276 424.79200065 -38.59082031 425.6043396 C-45.79961036 430.05428169 -53.08393094 434.37419638 -60.375 438.6875 C-61.71898548 439.48392677 -63.06289785 440.28047695 -64.40673828 441.07714844 C-69.1587958 443.89370684 -73.91265668 446.70721572 -78.66650391 449.52075195 C-83.40368059 452.32463004 -88.13978742 455.13030627 -92.875 457.9375 C-93.86216003 458.522397 -93.86216003 458.522397 -94.8692627 459.11911011 C-102.12923515 463.42238762 -109.37196268 467.75164041 -116.578125 472.14453125 C-117.53927216 472.73019867 -117.53927216 472.73019867 -118.51983643 473.32769775 C-121.54808141 475.17427361 -124.57350381 477.02525851 -127.59472656 478.88330078 C-138.53524457 485.57684584 -147.41527759 490.9207759 -160.625 489.3125 C-168.73991463 486.66293149 -174.44064954 482.77092118 -178.625 475.3125 C-179.24375 474.260625 -179.8625 473.20875 -180.5 472.125 C-183.49987835 461.95874558 -181.19173597 451.56033426 -178.79516602 441.49511719 C-178.49014205 440.16820041 -178.18638774 438.84099124 -177.88378906 437.51351929 C-177.2356233 434.68250953 -176.57868624 431.85374278 -175.91449165 429.02645111 C-174.86249223 424.54830972 -173.83058671 420.06567766 -172.80101013 415.58233643 C-171.16980807 408.49003574 -169.52511627 401.40094345 -167.87468141 394.31309628 C-164.91922305 381.61900505 -161.98594561 368.91978196 -159.05911011 356.219064 C-158.03332401 351.77027295 -157.00132958 347.3229825 -155.96400273 342.87686872 C-155.31848314 340.10636313 -154.67706828 337.3349177 -154.03655243 334.5632515 C-153.60012866 332.68088459 -153.15852197 330.79972164 -152.71672058 328.91860962 C-151.28999306 322.72713713 -149.92401993 316.67088363 -149.625 310.3125 C-151.39959075 307.85138874 -152.56227889 306.59359291 -154.875 304.8125 C-155.69991943 304.11906494 -155.69991943 304.11906494 -156.54150391 303.41162109 C-158.21417687 302.01556588 -159.91426289 300.66148644 -161.625 299.3125 C-163.4174758 297.85516131 -165.20918575 296.39687997 -167 294.9375 C-167.89460938 294.21820313 -168.78921875 293.49890625 -169.7109375 292.7578125 C-173.76121706 289.35905244 -177.5825426 285.73567369 -181.4309082 282.11206055 C-185.74709157 278.06995807 -190.22994499 274.31661892 -194.84765625 270.62109375 C-198.04942799 267.95970542 -201.08734918 265.15787754 -204.125 262.3125 C-208.02076281 258.66361551 -211.95834284 255.15551562 -216.125 251.8125 C-220.88688842 247.9919151 -225.33935594 243.92182197 -229.79125977 239.75170898 C-233.116548 236.65469916 -236.51219939 233.71628316 -240.0625 230.875 C-267.67494686 208.69583931 -267.67494686 208.69583931 -269.046875 196.58984375 C-269.467449 188.31559326 -268.77791489 181.10968673 -263.625 174.3125 C-258.41038605 168.62493269 -252.33078055 165.21976774 -244.61499023 164.29907227 C-243.98826385 164.22347108 -243.36153746 164.14786989 -242.71581936 164.06997776 C-231.14038752 162.73047037 -219.51985207 161.7641276 -207.91483235 160.71949458 C-204.30826976 160.39409111 -200.70205761 160.06484907 -197.09580994 159.73597717 C-190.28139913 159.11506039 -183.46672507 158.49708883 -176.65192932 157.88041264 C-164.43794812 156.7751023 -152.22435474 155.66552452 -140.01097006 154.55364329 C-135.73402767 154.16440813 -131.45694799 153.77672908 -127.17974579 153.39035976 C-125.16077106 153.20780498 -123.14185224 153.0246455 -121.12295532 152.8412323 C-118.67112009 152.61852513 -116.2191965 152.3967875 -113.76716614 152.17623901 C-111.64498477 151.98288536 -109.52339435 151.78286273 -107.4026432 151.57440662 C-105.65642818 151.40975435 -103.90758514 151.26934239 -102.15678978 151.16401958 C-98.09041904 150.89736561 -98.09041904 150.89736561 -94.95129395 148.51902771 C-94.63285522 147.73085159 -94.3144165 146.94267548 -93.98632812 146.13061523 C-93.60300827 145.22819595 -93.21968842 144.32577667 -92.82475281 143.39601135 C-92.43914688 142.39778854 -92.05354095 141.39956573 -91.65625 140.37109375 C-91.00515007 138.80324379 -91.00515007 138.80324379 -90.34089661 137.20372009 C-88.90589872 133.73053192 -87.51628731 130.24090071 -86.125 126.75 C-85.12743741 124.31643535 -84.12632267 121.88432404 -83.12182617 119.45361328 C-81.55108257 115.65017512 -79.98344881 111.84559777 -78.43095398 108.03466797 C-74.77686203 99.06690937 -71.03121013 90.14261759 -67.20703125 81.24609375 C-66.9432304 80.63237097 -66.67942955 80.01864819 -66.40763474 79.38632774 C-65.09480739 76.33377479 -63.7800088 73.28207989 -62.46435547 70.23074341 C-60.5154397 65.70806061 -58.57435382 61.18204795 -56.63485718 56.65531921 C-55.71065998 54.50004723 -54.7847615 52.3455039 -53.85708618 50.19172668 C-51.63277484 45.02366689 -49.4254193 39.84979464 -47.26583195 34.65438652 C-46.20497643 32.10500234 -45.13581935 29.55913635 -44.06606102 27.01347733 C-43.31717346 25.22196573 -42.58005328 23.42554921 -41.84333801 21.6289978 C-37.63841712 11.64120905 -33.43168083 4.14638596 -23.4296875 -0.765625 C-16.65995266 -2.99077461 -6.4700049 -3.10308973 0 0 Z " fill="#4d1300" transform="translate(268.625,12.6875)"/>
</svg>
