<?xml version="1.0" encoding="UTF-8"?>
<svg version="1.1" xmlns="http://www.w3.org/2000/svg" width="512" height="512">
<path d="M0 0 C5.50579517 3.56868175 10.06140562 7.64962038 14.66841125 12.29693604 C15.48943329 13.1093425 16.31045532 13.92174896 17.15635681 14.7587738 C19.83747559 17.41739553 22.50380703 20.09027291 25.16914368 22.76470947 C26.56945863 24.16110974 27.96978041 25.55750344 29.37086505 26.95313144 C33.76570218 31.33105673 38.15030047 35.71904654 42.52827454 40.11383057 C47.02104548 44.62353018 51.52997443 49.1165871 56.04732305 53.6016562 C59.94977878 57.47729551 63.84231323 61.36270634 67.72715396 65.25600219 C70.03685373 67.57059424 72.35088612 69.88050114 74.67229652 72.18335724 C77.26137336 74.75489622 79.83381348 77.3420516 82.40278625 79.93365479 C83.15874588 80.67792221 83.91470551 81.42218964 84.693573 82.18901062 C93.05447458 90.69943927 98.61765781 100.48259639 98.73945618 112.59283447 C97.75842646 130.50291552 85.57894834 141.30163936 73.59492493 153.15142822 C72.32885829 154.41121272 71.06331325 155.67152159 69.79826355 156.93232727 C66.49201219 160.22537153 63.18021062 163.51277031 59.86671448 166.79852295 C54.54173112 172.08010961 49.22372637 177.36870297 43.9087944 182.6604023 C42.05370193 184.50526851 40.1952415 186.34669155 38.33641052 188.18778992 C37.20648586 189.3108909 36.07666829 190.43409965 34.94697571 191.55743408 C34.4285762 192.06909622 33.9101767 192.58075836 33.37606812 193.10792542 C30.05550813 196.41779694 28.5518223 198.26901539 28.34492493 202.95611572 C28.41812228 208.50691507 30.56849652 212.03541243 33.58711243 216.56158447 C34.08525452 217.33977539 34.58339661 218.11796631 35.09663391 218.91973877 C39.72469996 226.07846917 44.60463779 233.05059572 49.71211243 239.87408447 C50.11784485 240.41871338 50.52357727 240.96334229 50.94160461 241.5244751 C73.40939762 271.5646805 116.68688071 326.11429113 155.59492493 333.21783447 C158.89589717 333.44786738 161.64430061 333.55472697 164.50134277 331.7335968 C165.0751619 331.2025383 165.64898102 330.6714798 166.2401886 330.12432861 C167.27724442 329.16516037 167.27724442 329.16516037 168.33525085 328.18661499 C172.75055165 323.89081672 177.09311994 319.52825378 181.40751076 315.13158989 C183.78672201 312.70971528 186.17578669 310.29765607 188.56420422 307.88486576 C192.99210594 303.41155466 197.4160096 298.93446507 201.82319641 294.44073486 C204.90775018 291.29637619 208.00473411 288.16472798 211.10996056 285.04078865 C212.28056845 283.85854185 213.44666107 282.67180434 214.60782814 281.48028374 C223.72012014 272.1357987 233.05657432 263.86453245 246.71211243 262.87408447 C260.33994887 262.7370229 270.17799473 268.44333861 279.77804565 277.66586304 C281.23313223 279.1001923 282.68297479 280.53985505 284.12837219 281.98394775 C284.92784271 282.77509476 285.72731323 283.56624176 286.55101013 284.38136292 C289.1739254 286.98032059 291.78924772 289.58674598 294.40351868 292.19439697 C296.2361245 294.01802624 298.06880288 295.8415826 299.90155029 297.66506958 C303.73559613 301.48266192 307.56527159 305.30457479 311.39253235 309.12896729 C315.79326144 313.52606502 320.2069429 317.90986077 324.62674671 322.28777707 C328.90497006 326.52689483 333.16908831 330.77992624 337.42837334 335.03808212 C339.2298522 336.83537617 341.03542082 338.62858123 342.84526253 340.41745377 C357.03768372 354.45843976 368.8195849 366.83224177 369.14961243 387.74908447 C368.99179728 412.06013191 350.80768855 426.92906326 334.84492493 442.94439697 C334.25341518 443.53873409 333.66190544 444.13307121 333.05247116 444.74541855 C329.927843 447.88488146 326.80047392 451.02158132 323.67060852 454.15582275 C320.47823253 457.35369161 317.29526188 460.5607537 314.11436653 463.7700367 C311.62787563 466.27532708 309.13453053 468.77371358 306.63938522 471.27038193 C305.4641638 472.44858633 304.29138896 473.62923739 303.12135696 474.81259537 C286.34295003 491.7685669 268.83733534 504.89127519 244.02461243 505.43658447 C189.05437066 505.30311356 125.18504174 472.04389094 78.71211243 444.87408447 C77.84457336 444.37263916 76.9770343 443.87119385 76.08320618 443.35455322 C48.72390789 427.52375315 23.44598034 408.51253221 0.18867493 387.13189697 C-1.91789241 385.21139867 -4.0557827 383.3472664 -6.22538757 381.49908447 C-13.75219844 374.94797131 -20.89005285 367.75912347 -27.34648132 360.15142822 C-28.90020712 358.32884846 -30.4761871 356.53733908 -32.07304382 354.75299072 C-41.11401801 344.58787424 -49.27878444 333.86372915 -57.28788757 322.87408447 C-57.82300964 322.14431396 -58.35813171 321.41454346 -58.9094696 320.66265869 C-84.62170432 285.48479647 -104.64474695 246.46086843 -120.28788757 205.87408447 C-120.87497498 204.35645508 -120.87497498 204.35645508 -121.47392273 202.8081665 C-126.4399844 189.83969953 -130.6694618 176.68599106 -134.60038757 163.37408447 C-134.80753387 162.67532196 -135.01468018 161.97655945 -135.22810364 161.25662231 C-144.05703992 131.33175553 -144.05703992 131.33175553 -143.72538757 118.49908447 C-143.71144958 117.56209717 -143.6975116 116.62510986 -143.68315125 115.659729 C-143.50543158 109.01752887 -142.76308891 103.08204912 -140.28788757 96.87408447 C-139.94757507 95.9072876 -139.60726257 94.94049072 -139.25663757 93.94439697 C-132.36722003 75.6502004 -116.63261402 62.05907771 -103.09648132 48.47955322 C-102.49019457 47.87043909 -101.88390781 47.26132496 -101.25924873 46.63375282 C-98.06027115 43.41994375 -94.85855583 40.20889405 -91.65434265 37.00030518 C-88.3742431 33.71469526 -85.10355486 30.41987866 -81.83489895 27.12288952 C-79.28930023 24.5585689 -76.7369224 22.00107627 -74.18271065 19.4453373 C-72.97431511 18.23394434 -71.76838497 17.02008624 -70.56513786 15.80357933 C-50.99150681 -3.97058346 -26.31511222 -16.39175391 0 0 Z M-49.85038757 30.24908447 C-51.3371791 31.78339901 -52.81911051 33.32251621 -54.28788757 34.87408447 C-49.37238133 40.80115724 -44.06428888 46.23312111 -38.61064148 51.66485596 C-37.64403646 52.63117838 -36.67765263 53.59772209 -35.71147156 54.56446838 C-33.10670544 57.16951964 -30.49888307 59.7714913 -27.89047289 62.3728931 C-25.1580542 65.09903086 -22.42849558 67.82802933 -19.69862366 70.55671692 C-14.53718143 75.71505975 -9.37319698 80.87084967 -4.20827901 86.02571207 C1.67523323 91.89801984 7.5558825 97.77319111 13.43630099 103.64859664 C25.52507039 115.72693317 37.61740433 127.80169477 49.71211243 139.87408447 C53.07586583 138.27972233 55.32224262 136.52128862 57.96992493 133.88189697 C58.76012024 133.09427979 59.55031555 132.3066626 60.36445618 131.49517822 C61.18043274 130.67146729 61.9964093 129.84775635 62.83711243 128.99908447 C63.66082336 128.18310791 64.4845343 127.36713135 65.33320618 126.52642822 C66.12082336 125.73623291 66.90844055 124.9460376 67.71992493 124.13189697 C68.79717834 123.05125977 68.79717834 123.05125977 69.89619446 121.9487915 C72.1451158 119.37937317 73.56845117 117.2149229 73.93476868 113.79595947 C73.59894464 109.2418579 72.75201853 106.46108177 69.62921143 103.07177734 C68.99584806 102.38031364 68.3624847 101.68884995 67.70992851 100.9764328 C64.50160903 97.60024359 61.2629123 94.26083635 57.97602844 90.96099854 C57.23683167 90.21523056 56.49763489 89.46946259 55.73603821 88.70109558 C53.31557222 86.26109236 50.8912571 83.82496872 48.46601868 81.38970947 C47.63291609 80.55253136 46.7998135 79.71535324 45.94146538 78.85280609 C41.53911909 74.42969197 37.13356988 70.00979593 32.72554016 65.59234619 C28.18337357 61.03907829 23.65301235 56.47424713 19.12513828 51.90677261 C15.62900685 48.38448751 12.12401015 44.87112586 8.61657524 41.36009979 C6.94232698 39.68098982 5.27145011 37.99851098 3.60408211 36.31256866 C1.27126451 33.95536697 -1.073906 31.61115268 -3.42240906 29.26959229 C-4.1026564 28.57653488 -4.78290375 27.88347748 -5.48376465 27.16941833 C-11.14878152 21.56503431 -17.15766436 17.46512483 -25.29179382 16.84674072 C-35.701912 16.98934508 -42.80708317 23.23558249 -49.85038757 30.24908447 Z M-75.5032196 55.92828369 C-76.18127655 56.59673309 -76.8593335 57.2651825 -77.55793762 57.95388794 C-78.29639923 58.68809967 -79.03486084 59.4223114 -79.79570007 60.17877197 C-80.55454498 60.93191681 -81.31338989 61.68506165 -82.0952301 62.46102905 C-83.70905514 64.06537719 -85.32140548 65.67120985 -86.93241882 67.27838135 C-89.37449034 69.71083841 -91.82701581 72.13240342 -94.28007507 74.55377197 C-95.84844748 76.1156054 -97.41617538 77.67808636 -98.98320007 79.24127197 C-99.7095163 79.95524139 -100.43583252 80.66921082 -101.18415833 81.40481567 C-111.05476813 91.31792756 -118.63008254 102.44694892 -119.36991882 116.80377197 C-118.27753362 157.6901896 -96.37962839 206.00720213 -77.41337585 241.72467041 C-76.05762927 244.31382289 -74.75001204 246.92544527 -73.44023132 249.53814697 C-60.03157936 276.08931546 -43.94934315 300.73761472 -25.28788757 323.87408447 C-24.5170282 324.83959229 -23.74616882 325.8051001 -22.95195007 326.79986572 C-18.36137613 332.49378813 -13.56670351 337.95162199 -8.61210632 343.33111572 C-6.68682852 345.43759615 -4.82194576 347.57424927 -2.97538757 349.74908447 C4.56398382 358.41400183 12.92152156 366.49193081 21.71211243 373.87408447 C22.62863586 374.66814697 23.5451593 375.46220947 24.48945618 376.28033447 C49.39842022 397.78580961 76.67193701 416.12936215 105.61933899 431.73736572 C107.58609734 432.80563764 109.53681207 433.89838004 111.48554993 434.99908447 C139.51631718 450.60737105 170.29076859 461.94691277 200.89961243 471.24908447 C201.57563507 471.45473022 202.25165771 471.66037598 202.94816589 471.87225342 C232.58622227 481.49405368 232.58622227 481.49405368 262.52461243 476.62408447 C270.80503044 472.1220063 277.10289369 465.47937227 283.71211243 458.87408447 C284.74891537 457.84366537 285.786047 456.81357693 286.82344055 455.78375244 C294.14815484 448.50877974 301.44034472 441.20195484 308.71211243 433.87408447 C303.79660619 427.9470117 298.48851373 422.51504783 293.03486633 417.08331299 C292.06826132 416.11699057 291.10187748 415.15044686 290.13569641 414.18370056 C287.53093029 411.5786493 284.92310793 408.97667765 282.31469774 406.37527585 C279.58227905 403.64913808 276.85272044 400.92013962 274.12284851 398.19145203 C268.96140628 393.0331092 263.79742183 387.87731928 258.63250387 382.72245687 C252.74899163 376.8501491 246.86834235 370.97497784 240.98792386 365.0995723 C228.89915447 353.02123578 216.80682052 340.94647418 204.71211243 328.87408447 C201.19086872 330.52660099 199.04326513 332.38279075 196.36836243 335.23345947 C195.53304993 336.1022876 194.69773743 336.97111572 193.83711243 337.86627197 C192.10975048 339.68103021 190.39073188 341.5037729 188.68086243 343.33502197 C180.25466259 352.04380778 170.95867683 357.90241409 158.64961243 358.18658447 C134.39853025 357.81018187 109.73721005 334.57582139 91.71211243 319.87408447 C91.17666809 319.43773682 90.64122375 319.00138916 90.08955383 318.55181885 C71.71631951 303.48721737 54.53998469 286.95967988 40.12226868 268.03033447 C38.03879252 265.30189244 35.8963155 262.64660335 33.71211243 259.99908447 C2.58232879 221.07100473 2.58232879 221.07100473 3.32929993 200.08111572 C5.00457901 186.04637972 13.91361858 177.35818763 23.58711243 167.87408447 C24.46625305 167.00396729 25.34539368 166.1338501 26.25117493 165.23736572 C28.40029813 163.11160256 30.55397174 160.99068558 32.71211243 158.87408447 C31.22375026 155.41447623 29.26081237 153.17361546 26.60601807 150.52075195 C25.74647018 149.65700958 24.8869223 148.79326721 24.00132751 147.90335083 C23.04686454 146.95437085 22.09230187 146.00549114 21.13764954 145.05670166 C20.13364124 144.05162018 19.13006611 143.04610583 18.12689209 142.04019165 C15.4043232 139.31277866 12.67555079 136.59165116 9.94548869 133.87174129 C7.09191582 131.02695093 4.24361521 128.17689086 1.3946228 125.32751465 C-3.38782708 120.54600098 -8.17413314 115.76837524 -12.9629364 110.9932251 C-18.50695772 105.46495128 -24.04571283 99.93144598 -29.58149916 94.39492679 C-34.90133953 89.07447716 -40.22402614 83.75688513 -45.54832268 78.44089508 C-47.81743743 76.17531935 -50.08569322 73.90888866 -52.35330391 71.64180756 C-55.01932167 68.97679065 -57.68786197 66.3143257 -60.35841942 63.65385818 C-61.34091847 62.67429178 -62.32256098 61.69386545 -63.30330658 60.71254349 C-64.6361532 59.37920983 -65.97236436 58.04924195 -67.30877686 56.71948242 C-68.0574405 55.97249462 -68.80610415 55.22550682 -69.57745457 54.45588303 C-72.47533124 51.77594344 -72.96186291 53.41592317 -75.5032196 55.92828369 Z M235.96992493 295.32330322 C234.71308899 296.59464111 234.71308899 296.59464111 233.43086243 297.8916626 C232.14695618 299.21327393 232.14695618 299.21327393 230.83711243 300.56158447 C229.9579718 301.45426025 229.07883118 302.34693604 228.17304993 303.2666626 C226.0124466 305.46249315 223.85917846 307.66502883 221.71211243 309.87408447 C223.20088439 313.33660423 225.16592415 315.57493842 227.82493591 318.22741699 C228.68592896 319.09115936 229.546922 319.95490173 230.43400574 320.84481812 C231.39005956 321.79379429 232.34620901 322.74267413 233.30244446 323.69146729 C234.30808241 324.69654095 235.31327988 325.7020555 236.31806946 326.70797729 C239.04480872 329.43529038 241.77767053 332.15639295 244.51166773 334.87642765 C247.3686673 337.72092492 250.2200043 340.57108676 253.07194519 343.4206543 C258.47235654 348.81484941 263.87784591 354.203926 269.2851752 359.59118533 C275.44140507 365.72506068 281.59195704 371.86461585 287.74203706 378.00465631 C300.39241842 390.63413243 313.0499177 403.25645292 325.71211243 415.87408447 C326.83135752 414.92418488 327.94926257 413.97270622 329.06660461 413.02056885 C329.68928223 412.49088501 330.31195984 411.96120117 330.95350647 411.41546631 C337.9043828 405.32316663 343.86982484 398.53470362 344.70429993 389.01080322 C344.74459132 377.99110721 338.32576648 371.27839239 330.93312073 363.82403564 C330.21291748 363.10788086 329.49271423 362.39172607 328.75068665 361.65386963 C327.97595001 360.87562836 327.20121338 360.09738708 326.40299988 359.29556274 C323.86257844 356.74639902 321.31498367 354.20454959 318.76679993 351.66314697 C316.9910457 349.88604449 315.21558836 348.10864529 313.44041443 346.33096313 C309.73002448 342.61763256 306.01615124 338.90782152 302.29951477 335.20074463 C298.00697837 330.91912193 293.72173731 326.63029879 289.4401511 322.33772814 C285.30882554 318.1962303 281.17189244 314.06037603 277.03255081 309.92689133 C275.27597824 308.17165346 273.52089163 306.4149272 271.76731491 304.65669632 C269.32126155 302.20557387 266.86890629 299.76093708 264.41474915 297.31793213 C263.69049744 296.58963196 262.96624573 295.86133179 262.220047 295.11096191 C261.21510696 294.11448135 261.21510696 294.11448135 260.18986511 293.09786987 C259.61139769 292.5201565 259.03293026 291.94244312 258.43693352 291.34722328 C255.6711321 288.98500182 253.45507549 287.95484133 249.83711243 287.56158447 C243.91309311 288.1539864 240.03899214 291.17062504 235.96992493 295.32330322 Z " fill="#FFFFFF" transform="translate(143.2878875732422,7.12591552734375)"/>
<path d="M0 0 C50.84290164 17.12092858 91.51206598 52.34481997 118.81738281 97.94873047 C119.39383545 98.91117676 119.39383545 98.91117676 119.98193359 99.89306641 C136.76909506 128.41652212 145.74347691 163.14164657 146.19238281 196.13623047 C146.24845703 197.71694336 146.24845703 197.71694336 146.30566406 199.32958984 C146.40338488 207.94530876 146.40338488 207.94530876 143.40722656 211.59716797 C139.51454756 215.13169702 138.30792755 215.97277151 132.94238281 215.88623047 C128.35052147 215.18243116 126.06292038 213.19426803 122.81738281 209.94873047 C121.39954211 207.11304905 121.4679448 204.5060027 121.23925781 201.34326172 C121.13322775 199.96451719 121.02608506 198.58585789 120.91796875 197.20727539 C120.86153198 196.48188568 120.80509521 195.75649597 120.74694824 195.00912476 C117.34360546 152.40429367 103.42862765 112.40107186 74.81738281 79.94873047 C73.955 78.96517578 73.09261719 77.98162109 72.20410156 76.96826172 C40.46991901 41.2920854 -5.62441828 18.39969956 -53.38574219 15.56591797 C-55.06071777 15.45799927 -55.06071777 15.45799927 -56.76953125 15.34790039 C-59.00462507 15.2092862 -61.24112812 15.09145938 -63.47851562 14.99682617 C-70.10617682 14.59045186 -73.62573745 13.89359162 -78.18261719 8.94873047 C-80.40484362 6.14679279 -80.17949625 4.75523215 -80.12011719 1.07373047 C-79.41631788 -3.51813088 -77.42815475 -5.80573197 -74.18261719 -9.05126953 C-55.60483744 -18.3401594 -18.3685825 -5.89448597 0 0 Z " fill="#FFFFFF" transform="translate(366.1826171875,10.05126953125)"/>
<path d="M0 0 C15.20417783 7.82672296 29.86057514 19.04008557 40.57128906 32.40722656 C40.9721875 32.90689941 41.37308594 33.40657227 41.78613281 33.92138672 C59.66834667 56.4930387 70.01291462 82.57729932 71.57128906 111.40722656 C71.63574219 112.20773438 71.70019531 113.00824219 71.76660156 113.83300781 C72.05551451 119.56311461 71.06894632 122.80504596 67.57128906 127.40722656 C64.16560342 129.88408885 61.63621245 130.64787065 57.50878906 130.34472656 C53.64829221 129.66563343 51.33359951 128.25078143 48.57128906 125.40722656 C46.89705261 122.57660835 46.29804239 120.35933089 46.11425781 117.09082031 C46.05665283 116.25381592 45.99904785 115.41681152 45.93969727 114.55444336 C45.87999756 113.66023682 45.82029785 112.76603027 45.75878906 111.84472656 C43.39012335 83.24500629 31.68822934 55.82386502 9.50878906 36.96972656 C-10.14847329 21.3571684 -32.17664335 12.472813 -57.30371094 10.96972656 C-63.01199233 10.57369747 -66.95953212 9.70611719 -71.24121094 5.71972656 C-73.2968512 1.71663763 -74.17356967 -2.24646842 -72.80371094 -6.56152344 C-71.19427607 -9.72674535 -69.64521379 -11.43668999 -66.74121094 -13.53027344 C-46.74121779 -19.94536558 -17.64918045 -8.74575784 0 0 Z " fill="#FFFFFF" transform="translate(359.4287109375,95.5927734375)"/>
</svg>
