<?xml version="1.0" encoding="UTF-8"?>
<svg version="1.1" xmlns="http://www.w3.org/2000/svg" width="512" height="512">
<path d="M0 0 C4.00833802 -0.31995603 7.38376995 -2.80680192 10.8125 -4.75 C35.09114394 -18.08518925 63.95834292 -20.38879862 90.5 -12.875 C117.62972781 -4.70470524 140.01374669 13.45001183 154 38 C167.25095756 63.73927008 171.13991935 92.42512248 162.25 120.25 C162.00290283 120.96494629 161.75580566 121.67989258 161.5012207 122.41650391 C160.22394558 126.19609512 160.22394558 126.19609512 160.46484375 130.1015625 C162.83429555 133.03172427 165.57445659 135.54864483 168.3125 138.125 C183.62102236 153.03667149 194.50729451 171.1409242 202 191.0625 C202.29116699 191.83585693 202.58233398 192.60921387 202.88232422 193.40600586 C204.6269154 198.2901206 205.53086674 202.83367002 206 208 C206.66902344 207.95359375 207.33804687 207.9071875 208.02734375 207.859375 C231.28374976 206.98530873 254.44962985 218.04056451 271.375 233.5 C290.05704164 251.15428609 303.3781977 274.89024472 304.3359375 301.06640625 C304.7506191 331.04490747 296.12557664 357.90189042 275 380 C257.8155601 397.26725648 233.3301357 408.14565936 209 409 C208.14535156 409.03996094 207.29070312 409.07992188 206.41015625 409.12109375 C182.48042373 409.71845859 158.05868965 401.94433251 140 386 C139.19433594 385.32453125 138.38867188 384.6490625 137.55859375 383.953125 C127.70520912 375.46868389 119.82262686 365.663976 114 354 C114 353.34 114 352.68 114 352 C113.08710205 352.02094727 112.1742041 352.04189453 111.23364258 352.06347656 C107.83233465 352.13182717 104.43176101 352.18188329 101.0300293 352.21972656 C99.56051079 352.23978825 98.09107159 352.26704478 96.62182617 352.30175781 C94.50419513 352.35052141 92.38762313 352.37302161 90.26953125 352.390625 C88.99698486 352.41157227 87.72443848 352.43251953 86.41333008 352.45410156 C82.39494523 351.91950491 80.81171386 350.86850644 78 348 C76.03861695 343.66861243 75.76312657 341.76048837 77.1875 337.1875 C79.0782953 333.86230826 80.38608852 332.48326163 84.07421875 331.37890625 C88.32453281 330.82846504 92.5321307 330.896005 96.8125 330.9375 C97.69615234 330.94201172 98.57980469 330.94652344 99.49023438 330.95117188 C101.66018559 330.96290134 103.83010172 330.98083505 106 331 C105.68289063 329.93007813 105.36578125 328.86015625 105.0390625 327.7578125 C98.98957017 305.87957334 103.98229054 279.88795449 114.84838867 260.25317383 C129.38822341 235.05778013 151.13896972 218.1427653 179 210 C180.66214419 209.64480206 182.32774271 209.30404678 184 209 C180.88672896 187.10981298 165.66371751 164.95479926 150 150 C149.34 150 148.68 150 148 150 C146.72310728 151.4520385 146.72310728 151.4520385 145.4375 153.375 C129.67101648 174.98233577 106.08328472 189.65778892 79.71972656 194.41113281 C51.97017961 198.64088342 23.79434262 193.45821309 0.2734375 177.59375 C-2.57802553 175.48583303 -5.30378583 173.30175197 -8 171 C-8.71929687 170.42894531 -9.43859375 169.85789063 -10.1796875 169.26953125 C-17.19908204 163.52018281 -22.61695901 156.2509732 -28 149 C-44.59431032 166.47893348 -57.04680157 185.62246169 -63.75 208.9375 C-63.94875732 209.61586914 -64.14751465 210.29423828 -64.35229492 210.99316406 C-67.77544184 223.59410095 -68.31490286 236.45120075 -68.30078125 249.42578125 C-68.30468365 250.94980482 -68.30902138 252.47382733 -68.31376648 253.99784851 C-68.32115177 257.16176922 -68.32099156 260.32557815 -68.31567383 263.48950195 C-68.30985058 267.51826781 -68.32691598 271.54657818 -68.3500185 275.57526875 C-68.36482359 278.71106073 -68.36561904 281.84674418 -68.36250877 284.98256493 C-68.36301731 286.46754047 -68.3681657 287.95252285 -68.37832069 289.43746376 C-68.45208247 301.71332853 -67.52542461 311.63669582 -59 321 C-49.13345487 330.86654513 -37.77303558 330.54737724 -24.68579102 330.56420898 C-23.73760498 330.56364502 -22.78941895 330.56308105 -21.8125 330.5625 C-18.95562413 330.56612088 -16.09935036 330.57576081 -13.24259949 330.60325623 C-11.47518979 330.6199044 -9.70758162 330.62303192 -7.94013977 330.61024475 C-1.82170741 330.66236373 3.16252811 331.52865352 7.9375 335.6875 C9.51470508 339.12024047 9.80436219 342.34776087 9 346 C6.5625 348.9375 6.5625 348.9375 4 351 C3.67 351.33 3.34 351.66 3 352 C0.91351199 352.10344985 -1.17653471 352.1352325 -3.26557922 352.14044189 C-3.92766945 352.14341302 -4.58975967 352.14638414 -5.27191323 352.1494453 C-7.50721576 352.15816856 -9.74246496 352.15964365 -11.9777832 352.16113281 C-13.57420467 352.16575883 -15.17062502 352.17078319 -16.76704407 352.17617798 C-21.11889103 352.18933428 -25.47072254 352.19575446 -29.8225863 352.20018864 C-32.54354769 352.20311721 -35.26450484 352.20722185 -37.9854641 352.21169281 C-46.5038998 352.22538293 -55.02232584 352.23503931 -63.54077178 352.2388947 C-73.36226059 352.24336422 -83.18360945 352.26085413 -93.00505573 352.2898953 C-100.60010793 352.31156949 -108.19512097 352.32160221 -115.79020375 352.32293582 C-120.3234149 352.32398075 -124.85649476 352.32982042 -129.38967323 352.34775543 C-133.66357286 352.36433301 -137.93724399 352.36634502 -142.21116447 352.35761642 C-143.77192424 352.35685091 -145.33269676 352.36112393 -146.89342499 352.37107468 C-165.0978206 352.48023778 -180.12415426 348.6004178 -193.5234375 335.703125 C-200.17308785 328.44514701 -204.17444877 320.37293068 -207 311 C-207.26401108 310.16440804 -207.26401108 310.16440804 -207.53335571 309.31193542 C-208.18541942 306.08136082 -208.17273537 302.88114234 -208.19287109 299.59887695 C-208.20104858 298.85816452 -208.20922607 298.11745209 -208.21765137 297.35429382 C-208.24247509 294.89896415 -208.25903639 292.44369331 -208.2734375 289.98828125 C-208.28142302 288.71668183 -208.28142302 288.71668183 -208.28956985 287.41939354 C-208.31632053 282.91022015 -208.33566749 278.40107428 -208.35009766 273.8918457 C-208.3632884 270.2096184 -208.39085531 266.52796501 -208.43212891 262.84594727 C-208.86375004 223.43962676 -204.05838737 186.16877646 -179 154 C-178.04673828 152.74509766 -178.04673828 152.74509766 -177.07421875 151.46484375 C-172.74772511 145.89500825 -168.08514361 140.87869547 -163 136 C-159.58047754 132.82632076 -159.58047754 132.82632076 -157 129 C-157.52993504 127.12326873 -158.14963599 125.27150183 -158.8125 123.4375 C-168.06059143 96.71370477 -165.43695652 67.66671394 -153.25390625 42.33203125 C-140.43029564 16.56613395 -118.97225873 -2.0354483 -91.93115234 -11.74267578 C-61.62589729 -21.62696798 -26.69272127 -17.79514751 0 0 Z M-122.6875 32.6875 C-130.50917963 41.71251495 -136.06988867 52.77536385 -140 64 C-140.47953125 65.36511719 -140.47953125 65.36511719 -140.96875 66.7578125 C-146.80070175 87.00764496 -143.96371828 110.39182883 -134.25 128.9375 C-122.13200648 150.5587925 -105.40396881 164.09682711 -82.18359375 172.125 C-78.7991003 173.0552166 -75.48167483 173.57851099 -72 174 C-71.58492188 173.19820312 -71.16984375 172.39640625 -70.7421875 171.5703125 C-63.53526364 158.27218103 -51.9939244 137.9969622 -38 131 C-38.68529391 126.38140457 -39.75594868 121.93141003 -41 117.4375 C-48.8331657 88.97132173 -44.13870255 60.8034762 -29.8984375 35.15234375 C-25.92175047 28.54907948 -21.57127791 22.34892092 -16 17 C-16.7016776 13.80598467 -16.7016776 13.80598467 -19.51953125 12.5 C-55.63689195 -3.95203619 -95.13102956 3.9042004 -122.6875 32.6875 Z M-5.64257812 34.38378906 C-16.89145126 47.77723154 -24.26973497 66.50538987 -25 84 C-25.03996094 84.82371094 -25.07992187 85.64742188 -25.12109375 86.49609375 C-25.67585843 108.98037999 -17.94998354 130.22342073 -3 147 C-2.33484375 147.75925781 -1.6696875 148.51851562 -0.984375 149.30078125 C5.17495538 155.90495216 12.2751847 160.4554699 20 165 C20.8559375 165.50660156 21.711875 166.01320312 22.59375 166.53515625 C41.15468315 176.65086482 64.87172708 177.63049669 85 172 C107.72465487 164.89819475 125.98939061 149.65099287 137.2109375 128.68359375 C148.46176626 106.39072679 148.456669 82.05840186 140.9375 58.69921875 C132.83240305 37.45148196 116.52244931 20.58469001 96 11 C59.68414746 -4.17261648 20.58475096 5.32732475 -5.64257812 34.38378906 Z M-151.4375 153.0625 C-178.81418532 181.18761268 -188.1313546 216.37059467 -188.16796875 254.703125 C-188.17129715 255.9469696 -188.17462555 257.19081421 -188.17805481 258.47235107 C-188.18307567 261.07726679 -188.18546465 263.68218883 -188.18530273 266.28710938 C-188.18750223 270.25401337 -188.20574525 274.22064452 -188.22460938 278.1875 C-188.22754181 280.73437406 -188.22952761 283.28124942 -188.23046875 285.828125 C-188.23765427 287.00127258 -188.24483978 288.17442017 -188.25224304 289.38311768 C-188.21737708 302.0218297 -186.3875401 312.79294807 -177.703125 322.3984375 C-170.75493658 328.93228441 -163.14095194 331.3170232 -153.69970703 331.22705078 C-152.88928452 331.22734283 -152.078862 331.22763489 -151.24388123 331.22793579 C-148.58174704 331.22654937 -145.91989742 331.21102074 -143.2578125 331.1953125 C-141.40550896 331.19157992 -139.55320344 331.18873411 -137.70089722 331.18673706 C-132.83799743 331.17911988 -127.97521809 331.15948787 -123.11236572 331.1373291 C-118.14523955 331.11682937 -113.17809383 331.10772653 -108.2109375 331.09765625 C-98.47390556 331.07624015 -88.73696282 331.04212737 -79 331 C-80.33943682 327.59548009 -81.80184013 324.36600024 -83.5 321.125 C-89.0487719 310.09273587 -89.15739963 299.24068665 -89.16796875 287.140625 C-89.17119303 285.7874956 -89.17455792 284.43436652 -89.17805481 283.08123779 C-89.18402139 280.24702145 -89.18589767 277.41283545 -89.18530273 274.57861328 C-89.18522204 271.71429044 -89.19207512 268.85012945 -89.20581055 265.98583984 C-89.39843339 225.13662219 -89.39843339 225.13662219 -84.4375 206.5 C-84.21642578 205.62214844 -83.99535156 204.74429688 -83.76757812 203.83984375 C-83.19063413 201.55647025 -82.59677258 199.27824332 -82 197 C-81.66491111 195.66710679 -81.33103285 194.33390635 -81 193 C-81.52730713 192.82984375 -82.05461426 192.6596875 -82.59790039 192.484375 C-98.08829489 187.42793369 -112.56343436 181.85038629 -125 171 C-125.83144531 170.2884375 -126.66289063 169.576875 -127.51953125 168.84375 C-134.35861982 162.85570243 -140.34753022 156.83573858 -145 149 C-148.13188794 149 -149.24326313 150.90337092 -151.4375 153.0625 Z M169 236 C168.08992188 236.43054688 167.17984375 236.86109375 166.2421875 237.3046875 C148.77529051 246.11278085 134.95415647 261.76204416 128.421875 280.2421875 C121.51727545 301.25909164 121.85852281 323.19478699 131.625 343.25 C141.53523319 362.39870519 157.04149055 376.76361082 177.41015625 384.19140625 C199.65084594 391.13533199 221.30154962 389.02982162 242.0625 378.4375 C249.25764972 374.47282566 255.19496611 369.79519485 261 364 C262.04800781 362.96939453 262.04800781 362.96939453 263.1171875 361.91796875 C277.43893274 346.89964057 283.86368443 326.64753927 284.03125 306.18359375 C283.07185475 283.18209253 273.13209641 263.46731345 256.75 247.6875 C241.321061 234.32009293 221.4723583 227.26779833 201.0390625 227.75 C189.70458099 228.68239951 179.24464526 230.92120986 169 236 Z " fill="#FFFFFF" transform="translate(208,60)"/>
<path d="M0 0 C0.64589584 -0.00671722 1.29179169 -0.01343445 1.95726013 -0.02035522 C4.09219053 -0.03935053 6.22680677 -0.04326022 8.36181641 -0.04541016 C9.84770843 -0.05183742 11.33359917 -0.05856573 12.81948853 -0.06558228 C15.93486464 -0.07755912 19.05012983 -0.08126273 22.16552734 -0.08007812 C26.15264992 -0.079875 30.13905921 -0.10716811 34.1260128 -0.14162254 C37.19557952 -0.16388953 40.26497459 -0.16791573 43.3346138 -0.16685867 C44.80420005 -0.16921529 46.27379098 -0.17804238 47.74329758 -0.19352341 C49.80202512 -0.21317954 51.85921504 -0.20734891 53.91796875 -0.1953125 C55.67311295 -0.19958755 55.67311295 -0.19958755 57.4637146 -0.20394897 C61.26458173 0.39753605 62.8913093 1.58884484 65.58837891 4.29052734 C67.41106699 8.39157553 67.95526723 10.28641194 66.40087891 14.54052734 C63.62488836 18.75237507 63.62488836 18.75237507 61.58837891 20.29052734 C58.67971802 20.68493652 58.67971802 20.68493652 55.08496094 20.71044922 C54.42931152 20.71891876 53.77366211 20.72738831 53.09814453 20.7361145 C50.93062947 20.75951372 48.76382323 20.76050592 46.59619141 20.75927734 C45.08787756 20.7663782 43.57956642 20.77407708 42.07125854 20.78234863 C38.90875748 20.7958008 35.74650606 20.79735946 32.58398438 20.79150391 C28.5361438 20.78561274 24.48950471 20.81616977 20.44189644 20.85662079 C17.32597428 20.8825065 14.21034088 20.88537439 11.09432602 20.88172913 C9.60240539 20.88342019 8.11047141 20.89306161 6.61865616 20.91087341 C4.52848938 20.93307921 2.44074634 20.92335749 0.35058594 20.90576172 C-1.4312056 20.90884338 -1.4312056 20.90884338 -3.24899292 20.9119873 C-7.30901956 20.11418754 -8.77942074 18.39530675 -11.41162109 15.29052734 C-11.74162109 14.96052734 -12.07162109 14.63052734 -12.41162109 14.29052734 C-12.79549456 9.3001723 -12.49875352 6.29236568 -9.41162109 2.29052734 C-5.83827404 -0.09170403 -4.24473574 0.02769364 0 0 Z " fill="#FFFFFF" transform="translate(384.41162109375,357.70947265625)"/>
<path d="M0 0 C3.16872216 0.68885264 4.96142228 2.13674555 7.15625 4.46875 C8.68839888 7.53304776 8.38563548 10.0853142 8.15625 13.46875 C6.50485695 17.0074494 5.44019771 18.27945153 2.15625 20.46875 C-4.79052871 21.14101891 -4.79052871 21.14101891 -8.78125 18.59375 C-11.59472261 15.69502065 -11.80596778 14.84657221 -12.21875 10.71875 C-12.155931 7.58922143 -11.69807761 5.55489294 -9.90625 2.96875 C-6.30587166 0.02966564 -4.51800289 -0.30120019 0 0 Z " fill="#FFFFFF" transform="translate(251.84375,391.53125)"/>
</svg>
