<?xml version="1.0" encoding="UTF-8"?>
<svg version="1.1" xmlns="http://www.w3.org/2000/svg" width="512" height="512">
<path d="M0 0 C7.33143289 4.9778011 7.33143289 4.9778011 15.6640625 5.91796875 C18.35297204 4.43488009 18.35297204 4.43488009 20.88671875 2.5 C24.0304065 0.20285931 27.25872421 -1.25696827 30.859375 -2.66015625 C31.48537598 -2.90797852 32.11137695 -3.15580078 32.75634766 -3.41113281 C59.71548167 -13.72486283 90.1097511 -13.50219511 116.5703125 -1.6875 C143.02527208 10.7841238 163.28165839 33.04430722 173.2109375 60.58203125 C181.74897674 85.77120597 180.20172351 111.56807779 171.671875 136.46484375 C172.25453125 136.95210937 172.8371875 137.439375 173.4375 137.94140625 C185.90898915 148.72649907 195.57401014 161.13785208 203.671875 175.46484375 C204.03265137 176.10115723 204.39342773 176.7374707 204.76513672 177.39306641 C210.96619222 188.54009978 214.92591742 200.30467084 218.671875 212.46484375 C219.28482422 212.55459473 219.89777344 212.6443457 220.52929688 212.73681641 C242.53633421 216.04116401 262.37291177 221.65942477 279.671875 236.46484375 C280.45949219 237.10808594 281.24710937 237.75132812 282.05859375 238.4140625 C300.60381406 254.16439875 312.52192894 276.35400203 315.671875 300.46484375 C317.74810847 330.63668694 311.88581205 358.00107124 291.73022461 381.19921875 C273.83959331 400.97927914 250.10394634 413.77501749 223.29980469 415.62890625 C196.0954158 416.91465917 170.48331173 409.52182562 149.671875 391.46484375 C148.86234375 390.81128906 148.0528125 390.15773438 147.21875 389.484375 C142.00351861 385.11374869 137.8177896 380.35510611 133.796875 374.90234375 C133.11830444 373.98279907 133.11830444 373.98279907 132.42602539 373.04467773 C129.33712247 368.71698704 126.95338387 364.26662405 124.671875 359.46484375 C123.75897705 359.46073486 122.8460791 359.45662598 121.90551758 359.45239258 C118.50352722 359.42534973 115.10332439 359.37620513 111.7019043 359.31225586 C110.23261553 359.28912382 108.76316208 359.27469135 107.29370117 359.26928711 C105.17523155 359.25996096 103.05933435 359.21890248 100.94140625 359.171875 C99.66885986 359.15616455 98.39631348 359.1404541 97.08520508 359.12426758 C92.83828553 358.30380197 91.3701198 356.76804535 88.671875 353.46484375 C86.92901917 349.97913209 87.80828467 346.16971217 88.671875 342.46484375 C90.91776825 339.47031941 92.12056867 338.64861253 95.671875 337.46484375 C97.29906982 337.3834052 98.92939219 337.35731355 100.55859375 337.3671875 C101.49638672 337.37041016 102.43417969 337.37363281 103.40039062 337.37695312 C104.37685547 337.38533203 105.35332031 337.39371094 106.359375 337.40234375 C107.34744141 337.40685547 108.33550781 337.41136719 109.35351562 337.41601562 C111.79302974 337.42780072 114.23242189 337.44425364 116.671875 337.46484375 C116.53112549 336.80709961 116.39037598 336.14935547 116.24536133 335.47167969 C114.85118015 328.49401486 114.31961081 321.8228366 114.359375 314.71484375 C114.36428955 313.66570801 114.3692041 312.61657227 114.37426758 311.53564453 C114.72445891 288.20033111 123.34293997 266.01945238 138.671875 248.46484375 C139.18878906 247.80484375 139.70570313 247.14484375 140.23828125 246.46484375 C153.61634138 229.83447327 175.59868173 218.01835569 196.671875 215.46484375 C189.18890258 194.29139805 179.65195545 172.0516247 161.671875 157.46484375 C161.011875 157.46484375 160.351875 157.46484375 159.671875 157.46484375 C158.46883595 158.8548212 157.33552164 160.30533276 156.234375 161.77734375 C139.06088954 183.64573891 114.02612484 198.61437467 86.26171875 202.18359375 C55.03783639 204.62986092 26.25014074 197.29879192 2.1640625 176.71484375 C-4.74503644 170.47716195 -10.81108793 163.96872376 -16.328125 156.46484375 C-32.43856246 171.14324232 -44.4286596 190.72336183 -50.828125 211.52734375 C-51.04702393 212.23205811 -51.26592285 212.93677246 -51.49145508 213.6628418 C-52.21366475 216.24835814 -52.78450258 218.83544344 -53.328125 221.46484375 C-53.72765381 223.38248535 -53.72765381 223.38248535 -54.13525391 225.33886719 C-56.96945669 240.47219523 -56.78938967 255.71673978 -56.71923828 271.04980469 C-56.70199298 274.85762884 -56.71212732 278.66482535 -56.72995567 282.47262764 C-56.74085173 285.44801482 -56.73732333 288.42325546 -56.7295723 291.39864731 C-56.72759438 292.80267286 -56.72994313 294.20671243 -56.73701096 295.61072159 C-56.78428582 307.61094013 -55.50963801 318.18060507 -47.328125 327.46484375 C-39.09446726 334.44820531 -30.72030774 336.9081956 -20.1328125 336.8359375 C-18.18098773 336.85330859 -16.22916485 336.87089308 -14.27734375 336.88867188 C-11.2315739 336.89876046 -8.18592263 336.90233415 -5.14013672 336.90063477 C-2.17900873 336.90420813 0.78121997 336.93154743 3.7421875 336.9609375 C4.64856964 336.95275497 5.55495178 336.94457245 6.48880005 336.93614197 C12.1801238 337.00297208 15.30815815 337.730617 19.671875 341.46484375 C21.58490963 344.54233425 21.67440898 346.32294083 21.609375 349.96484375 C20.46236218 354.24702496 19.10037797 355.69482401 15.671875 358.46484375 C12.46923065 359.09125614 12.46923065 359.09125614 8.78015137 359.09303284 C8.0990148 359.10012722 7.41787824 359.10722161 6.71610117 359.11453098 C4.4397127 359.13209554 2.16503544 359.11401595 -0.11132812 359.09594727 C-1.74613216 359.10108712 -3.38093067 359.1083689 -5.01571655 359.11763 C-9.45437671 359.1361557 -13.89243661 359.12319353 -18.33107185 359.10353971 C-22.98549204 359.08713926 -27.63987459 359.09596908 -32.29431152 359.10105896 C-40.11915647 359.10558196 -47.94376258 359.08970623 -55.76855469 359.06176758 C-64.7895338 359.02980427 -73.81008002 359.02969595 -82.8310895 359.04698235 C-91.52839311 359.06290908 -100.22553946 359.05606872 -108.9228363 359.03904533 C-112.6131158 359.03220788 -116.30326798 359.03317339 -119.99354553 359.04059029 C-124.35380278 359.04831395 -128.71357473 359.03593099 -133.07374954 359.00874138 C-134.66471035 359.00191625 -136.255717 359.00169561 -137.84667587 359.00895691 C-149.68873869 359.05673096 -161.19397026 357.9168011 -171.265625 351.02734375 C-172.09964844 350.47175781 -172.93367188 349.91617187 -173.79296875 349.34375 C-185.32740415 340.79511606 -193.9584875 328.86490109 -196.328125 314.46484375 C-196.43022748 311.84767452 -196.48520626 309.25673204 -196.48925781 306.63964844 C-196.49422272 305.8664325 -196.49918762 305.09321655 -196.50430298 304.29656982 C-196.51887931 301.74327692 -196.52572333 299.1900464 -196.53125 296.63671875 C-196.53407738 295.75785255 -196.53690475 294.87898636 -196.53981781 293.97348785 C-196.55480153 289.31142376 -196.56403283 284.64939047 -196.56835938 279.98730469 C-196.57380552 275.21688716 -196.59775333 270.44676065 -196.62633133 265.67643356 C-196.64515559 261.97161094 -196.65017396 258.26685519 -196.65169525 254.56198883 C-196.65468408 252.80647461 -196.66258148 251.05096047 -196.67588043 249.29549408 C-196.96299506 208.43936638 -180.89545996 171.47229172 -152.328125 142.46484375 C-151.74901367 142.01028809 -151.16990234 141.55573242 -150.57324219 141.08740234 C-148.80285999 139.62379936 -147.5073117 138.44066308 -146.328125 136.46484375 C-146.31915124 133.24438566 -147.27963415 130.48589711 -148.328125 127.46484375 C-148.69565493 126.17880747 -149.05293777 124.8897853 -149.3984375 123.59765625 C-149.66043945 122.63194702 -149.66043945 122.63194702 -149.92773438 121.64672852 C-156.89097316 94.38590754 -152.29295095 65.15280821 -138.265625 40.96484375 C-123.13209659 16.1676199 -99.498683 -1.04248517 -71.34619141 -8.02685547 C-48.59366908 -13.33048648 -20.44124751 -12.36541303 0 0 Z M-103.328125 32.46484375 C-104.07835938 33.1196875 -104.82859375 33.77453125 -105.6015625 34.44921875 C-121.04111817 48.85947071 -130.52636889 69.36134962 -131.64453125 90.4140625 C-132.38073354 113.1985796 -126.18289556 134.4276701 -110.828125 151.71484375 C-109.3356686 153.30528971 -107.83620149 154.88920111 -106.328125 156.46484375 C-105.75320312 157.10292969 -105.17828125 157.74101562 -104.5859375 158.3984375 C-94.87127156 168.83356909 -80.07503944 176.10323489 -66.328125 179.46484375 C-64.32910994 179.52760353 -62.32653164 179.54466177 -60.328125 179.46484375 C-59.87824219 178.61664063 -59.42835938 177.7684375 -58.96484375 176.89453125 C-50.83544471 161.93213005 -39.90516192 146.9087183 -26.328125 136.46484375 C-26.50988281 135.90539062 -26.69164062 135.3459375 -26.87890625 134.76953125 C-36.30877336 104.69067307 -35.74334485 74.13004922 -21.140625 45.83984375 C-16.97895545 38.04258078 -11.89671751 31.30715969 -6.328125 24.46484375 C-5.668125 23.47484375 -5.008125 22.48484375 -4.328125 21.46484375 C-36.66912601 3.39724542 -75.57203203 8.05394765 -103.328125 32.46484375 Z M8.671875 38.46484375 C-6.64412987 56.86296511 -15.01157655 79.42169934 -13.0859375 103.4921875 C-10.51637701 126.38225187 -0.0849348 146.45517612 17.359375 161.65234375 C35.73791724 176.30864959 58.01258181 183.85396753 81.69042969 181.2421875 C104.16160735 178.18136522 124.99571368 167.07745529 139.375 149.3671875 C153.26158613 130.63280666 160.36440553 107.73090642 157.17578125 84.390625 C153.56973735 61.82841205 141.73177255 40.73826948 123.234375 27.02734375 C86.5427104 2.34386029 39.23923295 5.59918821 8.671875 38.46484375 Z M-137.69921875 157.81640625 C-159.56405358 180.90037565 -175.26024316 210.62859832 -175.50512695 243.07739258 C-175.51169815 243.8036232 -175.51826935 244.52985382 -175.52503967 245.27809143 C-175.54460101 247.65935399 -175.55639509 250.04055409 -175.56640625 252.421875 C-175.57048178 253.24144873 -175.5745573 254.06102245 -175.57875633 254.90543175 C-175.5995416 259.24172074 -175.61387703 263.57797877 -175.62329102 267.91430664 C-175.63435423 272.36933194 -175.66877469 276.82385768 -175.70846272 281.27870655 C-175.73471897 284.72674937 -175.74299067 288.17467448 -175.74657249 291.62280846 C-175.75141327 293.26411001 -175.76295481 294.90540721 -175.78161049 296.54660988 C-175.92360035 309.86264408 -174.30341535 319.30087907 -164.84375 329.26171875 C-157.92514733 335.32086767 -150.48962845 337.62131141 -141.46020508 337.57836914 C-140.25985878 337.57858818 -140.25985878 337.57858818 -139.03526306 337.57881165 C-136.38936658 337.5781148 -133.74354044 337.57033304 -131.09765625 337.5625 C-129.26348407 337.56063501 -127.4293114 337.55921149 -125.59513855 337.55821228 C-120.76676051 337.55439347 -115.93841254 337.54456859 -111.11004639 337.5335083 C-106.18339444 337.52328052 -101.25673763 337.51871173 -96.33007812 337.51367188 C-86.66274721 337.50294578 -76.9954386 337.48587696 -67.328125 337.46484375 C-68.03388672 336.15773438 -68.03388672 336.15773438 -68.75390625 334.82421875 C-75.76661859 321.5496369 -77.79451602 309.72998665 -77.7265625 294.80859375 C-77.72859116 293.21455757 -77.73150911 291.62052231 -77.73526001 290.02648926 C-77.73965648 286.69823299 -77.73334647 283.37021991 -77.71923828 280.04199219 C-77.70225754 275.83744038 -77.7122116 271.63346269 -77.72956181 267.42893124 C-77.80432943 246.09886513 -77.13107606 225.96706966 -71.09765625 205.3359375 C-70.19868032 202.47729575 -70.19868032 202.47729575 -70.328125 199.46484375 C-71.43027344 199.13613281 -72.53242187 198.80742187 -73.66796875 198.46875 C-89.14930388 193.6832973 -103.12435378 187.31748316 -115.328125 176.46484375 C-116.070625 175.86414063 -116.813125 175.2634375 -117.578125 174.64453125 C-123.46051719 169.76296273 -127.85688355 164.14599836 -132.359375 158.02734375 C-133.33390625 156.75890625 -133.33390625 156.75890625 -134.328125 155.46484375 C-135.76636263 155.34748101 -135.76636263 155.34748101 -137.69921875 157.81640625 Z M154.421875 262.8671875 C139.71591827 280.12945312 134.37319277 301.13231925 135.671875 323.46484375 C138.31856807 345.06455074 149.23243712 363.47657165 165.671875 377.46484375 C176.32565207 385.56473667 188.5894874 390.85615337 201.671875 393.46484375 C202.785625 393.69171875 203.899375 393.91859375 205.046875 394.15234375 C229.65595301 396.27381599 251.17867869 389.02866835 269.921875 373.27734375 C285.35423911 358.68259151 294.46345901 338.48521858 295.14501953 317.31079102 C295.33994151 296.65437756 289.30482137 278.20765086 275.671875 262.46484375 C275.07246094 261.67078125 274.47304688 260.87671875 273.85546875 260.05859375 C262.76633851 246.88653207 245.41640392 238.42125982 228.671875 235.46484375 C227.95902344 235.3359375 227.24617188 235.20703125 226.51171875 235.07421875 C198.57015476 230.85243175 173.16772695 242.85208516 154.421875 262.8671875 Z " fill="#4d1300" transform="translate(196.328125,53.53515625)"/>
<path d="M0 0 C3.5386994 1.65139305 4.81070153 2.71605229 7 6 C7.22705078 8.54370117 7.22705078 8.54370117 7.1953125 11.54296875 C7.18886719 12.61611328 7.18242187 13.68925781 7.17578125 14.79492188 C7.15902344 15.91447266 7.14226562 17.03402344 7.125 18.1875 C7.11597656 19.31865234 7.10695313 20.44980469 7.09765625 21.61523438 C7.07406862 24.41036828 7.041153 27.20507845 7 30 C7.70084717 29.97381592 8.40169434 29.94763184 9.1237793 29.9206543 C12.3114565 29.8164646 15.49877526 29.75160417 18.6875 29.6875 C19.79029297 29.64560547 20.89308594 29.60371094 22.02929688 29.56054688 C30.02667447 29.43974057 30.02667447 29.43974057 32.85009766 31.06494141 C35.19903562 33.36654561 36.96484854 35.69939597 37.0546875 39.0234375 C36.5672181 45.40292831 36.5672181 45.40292831 33.625 48.5 C29.94860358 50.60079795 27.27462034 51.12287649 23.11328125 51.09765625 C22.17548828 51.09443359 21.23769531 51.09121094 20.27148438 51.08789062 C18.80678711 51.07532227 18.80678711 51.07532227 17.3125 51.0625 C15.83040039 51.05573242 15.83040039 51.05573242 14.31835938 51.04882812 C11.87884526 51.03704303 9.43945311 51.02059011 7 51 C7.02094727 51.6705542 7.04189453 52.3411084 7.06347656 53.03198242 C7.14686027 56.0836678 7.19873016 59.13511317 7.25 62.1875 C7.28351563 63.24259766 7.31703125 64.29769531 7.3515625 65.38476562 C7.45071882 73.24290413 7.45071882 73.24290413 5.109375 77.17578125 C1.84242363 80.00108919 -0.55040405 80.39503275 -4.89453125 80.35546875 C-8.65569115 79.72046773 -10.40291048 77.72377681 -13 75 C-13.98043964 72.05868109 -14.11621202 70.17498335 -14.09765625 67.11328125 C-14.09443359 66.17548828 -14.09121094 65.23769531 -14.08789062 64.27148438 C-14.07951172 63.29501953 -14.07113281 62.31855469 -14.0625 61.3125 C-14.05798828 60.32443359 -14.05347656 59.33636719 -14.04882812 58.31835938 C-14.03704303 55.87884526 -14.02059011 53.43945311 -14 51 C-14.86951294 51.01571045 -14.86951294 51.01571045 -15.7565918 51.03173828 C-18.40018321 51.07348615 -21.04370505 51.09938538 -23.6875 51.125 C-24.59951172 51.14175781 -25.51152344 51.15851563 -26.45117188 51.17578125 C-32.44556005 51.2193768 -36.71954829 51.09555022 -41.3125 46.875 C-43.50786259 43.13475263 -43.87407936 40.24185572 -43 36 C-41.20636089 33.1899654 -39.98119065 31.49059532 -37 30 C-35.2595583 29.91550372 -33.51590278 29.89276976 -31.7734375 29.90234375 C-30.7421875 29.90556641 -29.7109375 29.90878906 -28.6484375 29.91210938 C-27.02808594 29.92467773 -27.02808594 29.92467773 -25.375 29.9375 C-23.74304688 29.94426758 -23.74304688 29.94426758 -22.078125 29.95117188 C-19.38536211 29.96298224 -16.69270812 29.97945222 -14 30 C-14.01571045 29.35973877 -14.0314209 28.71947754 -14.04760742 28.05981445 C-14.11017115 25.14413369 -14.14905808 22.22859445 -14.1875 19.3125 C-14.21263672 18.30509766 -14.23777344 17.29769531 -14.26367188 16.25976562 C-14.32791953 9.77075293 -13.8877138 5.99084644 -9.25 1.1875 C-5.99828436 -0.52868326 -3.62539838 -0.38162088 0 0 Z " fill="#4d1300" transform="translate(418,328)"/>
<path d="M0 0 C3.08416293 2.05610862 4.68386831 3.45571068 5.44140625 7.15625 C5.65351271 11.26153629 5.33679 13.461136 3.125 17 C-0.38127086 20.30001963 -3.06465874 20.41119712 -7.73828125 20.3359375 C-10 20 -10 20 -13 18 C-15.46240464 14.30639305 -16.45203714 11.44213423 -16 7 C-14.4165167 3.8330334 -12.97595724 1.80167916 -10.25 -0.4375 C-6.68393635 -1.32901591 -3.4737169 -1.03867575 0 0 Z " fill="#4d1300" transform="translate(255,392)"/>
</svg>
