<?xml version="1.0" encoding="UTF-8"?>
<svg version="1.1" xmlns="http://www.w3.org/2000/svg" width="512" height="512">
<path d="M0 0 C24.48639938 21.35429291 40.22038199 53.22549505 42.49609375 85.67626953 C44.35866635 121.96115918 38.4197199 153.81985348 14.625 182.1875 C13.95726562 183.00734375 13.28953125 183.8271875 12.6015625 184.671875 C7.56199768 190.63707418 1.79329392 195.42690801 -4.375 200.1875 C-5.19355469 200.84492188 -6.01210938 201.50234375 -6.85546875 202.1796875 C-30.85304004 220.70804487 -60.8296508 229.36298531 -90.8125 229.4375 C-91.47974091 229.43983643 -92.14698181 229.44217285 -92.83444214 229.44458008 C-102.09997578 229.45681089 -110.78481013 228.76848389 -119.84765625 226.8671875 C-143.62874942 222.28478417 -171.3470146 232.81393547 -192.375 243.1875 C-193.16680664 243.57454102 -193.95861328 243.96158203 -194.77441406 244.36035156 C-222.5435325 258.06243748 -245.98010954 278.29572086 -264.375 303.1875 C-264.78137695 303.72777832 -265.18775391 304.26805664 -265.60644531 304.82470703 C-272.96658381 314.62736936 -279.3721888 325.0020011 -285.72705078 335.47509766 C-287.33903809 338.12830936 -288.96352708 340.77352305 -290.58984375 343.41796875 C-299.78354593 358.44525288 -307.74388842 373.4608758 -313.375 390.1875 C-313.643125 390.96996094 -313.91125 391.75242187 -314.1875 392.55859375 C-315.6366826 397.72130675 -315.60343962 403.04727425 -315.6875 408.375 C-315.70538574 409.14827637 -315.72327148 409.92155273 -315.74169922 410.71826172 C-315.73309618 416.41224682 -314.70906318 420.54183644 -310.82421875 424.9453125 C-304.6458697 429.74004015 -297.9060248 431.49704016 -290.375 433.1875 C-289.65248047 433.35491699 -288.92996094 433.52233398 -288.18554688 433.69482422 C-250.76424749 442.17433142 -212.25580029 440.64273095 -174.14535522 440.69011688 C-165.83112037 440.70075761 -157.51702399 440.71812697 -149.2028724 440.75821257 C-144.725552 440.77887421 -140.24856161 440.77782082 -135.77120972 440.77209473 C-92.81771401 440.86793126 -92.81771401 440.86793126 -78.375 446.1875 C-76.218936 448.478318 -75.45010532 450.00693819 -75.25 453.15234375 C-75.46108008 456.6945314 -75.75205726 458.46386739 -78.13012695 461.22631836 C-83.17470185 464.27522891 -88.30575102 464.16837114 -94.10546875 464.53125 C-95.38272827 464.62586014 -96.65998779 464.72047028 -97.97595215 464.81794739 C-101.44738036 465.07503719 -104.91996277 465.31040296 -108.39321518 465.54135513 C-112.03942386 465.78700046 -115.68433484 466.05050064 -119.3293457 466.31323242 C-120.80393619 466.41934678 -122.27853031 466.52541053 -123.75312805 466.63142395 C-124.84956351 466.71025283 -124.84956351 466.71025283 -125.96814919 466.79067421 C-128.19393804 466.94967867 -130.41990059 467.10602096 -132.6459198 467.26176453 C-141.39886535 467.87730824 -150.13785827 468.58025797 -158.875 469.39453125 C-180.3943518 471.37825065 -201.75711043 472.57320194 -223.375 472.625 C-224.44881927 472.6311734 -225.52263855 472.6373468 -226.6289978 472.64370728 C-260.25133392 472.76925939 -306.28369487 471.15442436 -332.15234375 446.59765625 C-335.66695324 442.78655949 -338.14325775 438.85323613 -340.375 434.1875 C-340.7875 433.37667969 -341.2 432.56585938 -341.625 431.73046875 C-348.24234776 416.03724472 -345.57592829 395.62797004 -339.375 380.1875 C-330.14491751 357.95712929 -317.05529566 338.32063265 -303.24609375 318.7265625 C-299.69135626 313.67144309 -296.2678312 308.53959452 -292.875 303.375 C-286.80014922 294.18044141 -280.09860099 285.8363339 -272.6640625 277.69921875 C-271.12239771 276.0075968 -269.59654556 274.30144349 -268.0859375 272.58203125 C-263.47265145 267.34254314 -258.77319048 262.60820411 -253.375 258.1875 C-252.86759277 257.76243164 -252.36018555 257.33736328 -251.83740234 256.89941406 C-224.66088215 234.16258379 -194.18923106 220.06779533 -160.375 210.1875 C-161.03991455 209.74269287 -161.7048291 209.29788574 -162.38989258 208.83959961 C-168.89984561 204.45496071 -174.66446147 199.55870263 -180.375 194.1875 C-180.97957031 193.65898437 -181.58414063 193.13046875 -182.20703125 192.5859375 C-204.24812941 172.45472373 -217.05275518 136.21243809 -218.53027344 107.13134766 C-219.88811159 69.57758427 -209.47000631 36.41238378 -183.66357422 8.55224609 C-136.58361913 -40.79818564 -51.42187458 -43.4282189 0 0 Z M-174.5625 24.59375 C-194.73500683 48.86379728 -200.99161808 76.30499925 -199.375 107.1875 C-196.87635802 132.90667274 -183.23564372 157.76947512 -163.75048828 174.58984375 C-140.51962304 193.53140596 -109.96987956 200.64567935 -80.51953125 197.7578125 C-56.98319056 194.98198207 -35.70165278 186.20553281 -17.375 171.1875 C-16.51261719 170.49011719 -15.65023437 169.79273438 -14.76171875 169.07421875 C3.11009672 153.87066811 13.61011643 132.32134765 16.625 109.1875 C16.92000178 104.28831362 16.95919382 99.40714159 16.9375 94.5 C16.93534485 93.83764343 16.9331897 93.17528687 16.93096924 92.49285889 C16.77665366 62.93295141 6.7497113 38.77769345 -13.80859375 17.69140625 C-35.18178807 -2.55873024 -64.37283807 -11.68504629 -93.44140625 -11.0625 C-123.78147246 -9.86257648 -153.92106741 1.88817416 -174.5625 24.59375 Z " fill="#4d1300" transform="translate(344.375,34.8125)"/>
<path d="M0 0 C3.07203217 2.86479191 4.32852089 4.83430833 4.73828125 9.11328125 C4.85761691 13.65431733 4.83974915 16.87755188 2.9375 21.0625 C-0.56575643 24.7454106 -3.56395264 27.34848199 -8.69824219 27.83203125 C-18.64648468 27.75726054 -28.56100602 27.08825468 -38.48626709 26.45669556 C-44.08133548 26.10235413 -49.67743446 25.76498537 -55.2734375 25.42578125 C-56.96154037 25.32317238 -56.96154037 25.32317238 -58.68374634 25.2184906 C-81.82938995 23.81347644 -104.92919855 22.44569597 -128.125 22.4375 C-128.85990662 22.43650299 -129.59481323 22.43550598 -130.35198975 22.43447876 C-138.72154382 22.43578232 -147.0331811 22.70337895 -155.37841797 23.3762207 C-170.10179081 24.54962262 -170.10179081 24.54962262 -174.1875 21.25 C-177.65436457 17.31464022 -177.78415692 14.9682009 -177.71875 9.8828125 C-177.41889867 6.78791845 -176.50312491 4.98582578 -174.5 2.625 C-170.96208457 0.2612845 -167.99315396 0.46459943 -163.8203125 0.6484375 C-163.17109833 0.67346344 -162.52188416 0.69848938 -161.85299683 0.72427368 C-159.77643805 0.80610866 -157.7008717 0.90239151 -155.625 1 C-137.56660027 1.77651982 -119.68203342 1.51197364 -101.625 0.8125 C-100.502146 0.76964874 -99.37929199 0.72679749 -98.22241211 0.68264771 C-81.1342101 0.02270682 -64.06640275 -0.85259379 -47 -1.9375 C-45.49110199 -2.03340927 -45.49110199 -2.03340927 -43.95172119 -2.1312561 C-34.57101544 -2.73288029 -25.19390525 -3.34239563 -15.83300781 -4.20678711 C-9.2862736 -4.67881514 -5.14845681 -4.32689455 0 0 Z " fill="#4d1300" transform="translate(505.5,395.375)"/>
<path d="M0 0 C3.1773359 -0.09277188 6.35371759 -0.15513649 9.53195572 -0.20697784 C10.47112744 -0.23664454 11.41029917 -0.26631123 12.37793064 -0.29687691 C18.00906176 -0.34527621 21.20212522 0.31708492 25.6562233 4.106987 C29.08539402 7.80688173 29.95592078 10.6862219 30.1562233 15.606987 C29.95592078 20.5277521 29.08539402 23.40709227 25.6562233 27.106987 C20.49379138 31.40995064 16.72421307 31.66910015 10.30490494 31.47563934 C8.87917837 31.45321702 8.87917837 31.45321702 7.42464924 31.43034172 C-5.89169121 31.14353271 -19.18967509 30.22911565 -32.47792935 29.3554883 C-35.52041273 29.15633109 -38.56317983 28.9617076 -41.60595268 28.76703107 C-48.77638499 28.3082183 -55.94633365 27.84235493 -63.1159935 27.37163544 C-70.49343589 26.88738259 -77.87154578 26.4144949 -85.25007492 25.94711745 C-91.62461663 25.54298908 -97.99871779 25.13238309 -104.37250084 24.71646059 C-108.16322619 24.46913142 -111.95406317 24.22412665 -115.7453289 23.98521042 C-119.29436964 23.76124085 -122.8427884 23.52915707 -126.39089203 23.29081535 C-128.30854819 23.16397693 -130.22674209 23.04535189 -132.14493942 22.92697906 C-133.28958664 22.84850235 -134.43423386 22.77002563 -135.61356735 22.68917084 C-136.60541818 22.62464533 -137.597269 22.56011982 -138.61917591 22.49363899 C-142.62902241 21.92459594 -145.4632723 20.9874914 -148.3437767 18.106987 C-148.75416005 14.41353685 -149.01116424 12.07111342 -146.85309982 8.9535141 C-143.36697222 6.3881892 -140.00789549 6.22976957 -135.81960678 5.93755341 C-134.50879119 5.82724509 -134.50879119 5.82724509 -133.17149448 5.71470833 C-121.04505374 4.7536141 -108.88307643 4.3037195 -96.73049545 3.8179245 C-94.10131428 3.70905604 -91.4721489 3.59980556 -88.8429985 3.49019623 C-83.3627077 3.26263303 -77.88224113 3.03978282 -72.40163803 2.81987762 C-66.13368123 2.56832301 -59.86607022 2.30924167 -53.59859055 2.04608572 C-47.48630731 1.78962936 -41.37381077 1.53868313 -35.26120567 1.29001999 C-32.69840516 1.1852986 -30.13565722 1.07928084 -27.57296944 0.97183609 C-18.38327319 0.58855087 -9.19279408 0.29413132 0 0 Z " fill="#4d1300" transform="translate(482.34377670288086,312.8930130004883)"/>
<path d="M0 0 C3.05867481 3.30667547 4.36051016 5.53158326 4.25 10.0625 C2.91642128 13.52980468 1.49371762 14.55231574 -1.6875 16.5 C-21.1603052 24.14638948 -44.78775508 21.08571743 -65.1875 19.1875 C-65.89622253 19.12166718 -66.60494507 19.05583435 -67.33514404 18.98800659 C-73.18226478 18.43983387 -79.02690346 17.86662259 -84.87042236 17.28137207 C-89.99491114 16.76844906 -95.12092005 16.27734825 -100.25 15.8125 C-100.97696075 15.74573059 -101.70392151 15.67896118 -102.45291138 15.61016846 C-117.13586091 14.29836222 -131.77117474 14.31564678 -146.50024414 14.69848633 C-147.34402618 14.71308899 -148.18780823 14.72769165 -149.05715942 14.74273682 C-150.63484315 14.77017685 -152.21236428 14.81373653 -153.78903198 14.87664795 C-157.49819021 14.9284162 -159.49103551 14.6254893 -162.65087891 12.60717773 C-165.35250326 9.81195838 -165.51852671 8.13664661 -165.76171875 4.3984375 C-165.66536514 1.93381353 -165.19462109 0.45925742 -163.6875 -1.5 C-159.84134054 -4.06410631 -156.29356029 -4.17008564 -151.80859375 -4.56640625 C-150.92070663 -4.64967667 -150.03281952 -4.73294708 -149.11802673 -4.81874084 C-140.24276982 -5.61135987 -131.35954899 -6.00004503 -122.45727539 -6.33425903 C-106.48356515 -6.94341069 -90.70622692 -8.04918993 -74.8203125 -9.83203125 C-51.63234509 -12.42716499 -19.6533899 -15.13263435 0 0 Z " fill="#4d1300" transform="translate(495.6875,480.5)"/>
</svg>
