<?xml version="1.0" encoding="UTF-8"?>
<svg version="1.1" xmlns="http://www.w3.org/2000/svg" width="512" height="512">
<path d="M0 0 C30.69 0 61.38 0 93 0 C98.06957138 10.13914276 103.10114187 20.2797715 108 30.5 C108.58972716 31.72792059 109.17957074 32.95578526 109.76953125 34.18359375 C111.18082153 37.12185385 112.5909722 40.06065446 114 43 C108.80600042 49.34416469 103.05268239 55.09964979 97.25073242 60.87963867 C95.56638951 62.55862286 93.88745722 64.24288417 92.20898438 65.92773438 C83.25507383 74.88529194 83.25507383 74.88529194 78.77734375 78.65234375 C75.98644021 80.69846705 75.98644021 80.69846705 75 83 C76.258125 83.04125 77.51625 83.0825 78.8125 83.125 C112.3810691 86.58128427 147.41166874 109.9113074 168.6875 135.375 C170.14505424 137.23445339 171.58161026 139.11050224 173 141 C173.41378906 141.54946289 173.82757813 142.09892578 174.25390625 142.66503906 C189 162.37418377 189 162.37418377 189 168 C189.74121094 167.74605469 190.48242188 167.49210938 191.24609375 167.23046875 C231.82014243 153.97065113 276.15795872 158.90865012 314.08764648 177.90478516 C322.24648722 182.18395014 329.69496393 187.40893232 337 193 C337.94488281 193.71929687 338.88976562 194.43859375 339.86328125 195.1796875 C368.49876366 217.80627708 387.05425714 248.82647091 396 284 C396.17934082 284.67804688 396.35868164 285.35609375 396.54345703 286.0546875 C401.92361989 307.34025735 401.4922361 334.79468199 396 356 C395.79600586 356.82951172 395.59201172 357.65902344 395.38183594 358.51367188 C392.61361973 369.61071326 389.20996386 380.0456565 383.9296875 390.20849609 C382.96234216 392.07256649 382.02781264 393.95109108 381.09375 395.83203125 C376.853999 404.22459662 371.95094512 411.68609648 366 419 C365.55720703 419.54430664 365.11441406 420.08861328 364.65820312 420.64941406 C337.35192897 454.02587679 299.14868966 475.54569154 256 480 C237.13577612 480.90729483 218.36618011 480.79185716 200 476 C199.2776416 475.81276367 198.5552832 475.62552734 197.81103516 475.43261719 C193.12363489 474.17292596 188.55570424 472.67095825 184 471 C183.32163086 470.75411133 182.64326172 470.50822266 181.94433594 470.25488281 C160.43636574 462.31516431 142.51852525 449.73522001 126 434 C125.23042969 433.29488281 124.46085938 432.58976562 123.66796875 431.86328125 C112.7248339 421.5116672 103.64945038 408.49447283 97 395 C97 394.34 97 393.68 97 393 C96.4423999 393.14099121 95.8847998 393.28198242 95.31030273 393.42724609 C51.13000407 404.50976169 6.20392278 402.45898504 -33.8125 379.125 C-44.80243447 372.53029034 -54.70270548 364.82959526 -64 356 C-64.474375 355.55285645 -64.94875 355.10571289 -65.4375 354.64501953 C-92.54328607 328.94216965 -111.45024379 291.8295749 -113.17700195 254.13623047 C-113.20305157 252.79664702 -113.22325957 251.45693999 -113.23828125 250.1171875 C-113.24812042 249.38892258 -113.25795959 248.66065765 -113.26809692 247.9103241 C-113.65676445 211.66286327 -106.32879843 177.99389385 -85 148 C-84.60506348 147.44280273 -84.21012695 146.88560547 -83.80322266 146.31152344 C-72.39788498 130.48724445 -58.30864727 116.69355122 -42 106 C-41.40541992 105.60377441 -40.81083984 105.20754883 -40.19824219 104.79931641 C-23.71130222 93.93475396 -2.04917615 83.53014648 18 83 C12.46191768 76.51926537 6.7823841 70.35636728 0.3125 64.79296875 C-4.10208028 60.94249353 -8.36508688 56.96043062 -12.5625 52.875 C-13.29791016 52.18535156 -14.03332031 51.49570313 -14.79101562 50.78515625 C-15.48001953 50.11097656 -16.16902344 49.43679687 -16.87890625 48.7421875 C-17.5035376 48.1426123 -18.12816895 47.54303711 -18.77172852 46.92529297 C-20 45 -20 45 -19.94506836 42.81176758 C-18.59996941 38.8098289 -16.83258497 35.06908533 -15 31.26953125 C-14.60425781 30.43789963 -14.20851563 29.60626801 -13.80078125 28.74943542 C-12.53908972 26.10125448 -11.26964622 23.45687489 -10 20.8125 C-9.14532408 19.02172733 -8.29115172 17.23071425 -7.4375 15.43945312 C-1.58662505 3.1732501 -1.58662505 3.1732501 0 0 Z M-49.84765625 154.02734375 C-75.38032182 182.58484721 -83.98872836 217.34640388 -82 255 C-78.84279933 288.09451468 -60.52461982 318.25272468 -35.76171875 339.7890625 C-8.37949414 361.71033426 25.68672516 372.108649 60.64941406 368.74511719 C69.10161012 367.68489997 76.97016922 365.84782945 85 363 C84.82609741 362.07888428 84.82609741 362.07888428 84.64868164 361.13916016 C84.11559754 358.30190593 83.58902148 355.46347911 83.0625 352.625 C82.88009766 351.65949219 82.69769531 350.69398438 82.50976562 349.69921875 C74.85702721 308.23529058 83.75896023 264.51706962 107.56274414 229.58837891 C112.79015068 222.16033531 118.69819602 215.52401145 125 209 C125.86238281 208.07445312 126.72476563 207.14890625 127.61328125 206.1953125 C137.3482797 196.01322523 148.70767374 187.85477959 161 181 C155.5803287 168.68999282 147.14878691 158.72912041 138 149 C137.4740625 148.40960938 136.948125 147.81921875 136.40625 147.2109375 C115.9873502 125.22936679 84.22134846 112.42621373 54.62817383 110.87573242 C14.30189954 109.56861886 -22.29876886 124.25170691 -49.84765625 154.02734375 Z M201 197 C201.17390259 197.95869995 201.17390259 197.95869995 201.35131836 198.93676758 C201.88493963 201.89448549 202.41124658 204.85346263 202.9375 207.8125 C203.21110352 209.31973633 203.21110352 209.31973633 203.49023438 210.85742188 C210.86543969 252.56085557 202.23589739 295.61244407 178.27294922 330.73852539 C176.2633148 333.55922848 174.1628607 336.29542391 172 339 C171.53480957 339.58330078 171.06961914 340.16660156 170.59033203 340.76757812 C158.1923813 356.12728454 143.10298184 370.60112441 125 379 C134.32417925 404.80971268 159.49798302 425.30580692 183.4375 436.8125 C191.74883445 440.66865968 200.11169845 443.7773684 209 446 C210.26199219 446.31839844 211.52398437 446.63679687 212.82421875 446.96484375 C245.85317919 454.37290236 279.37446129 447.07858771 308 430 C315.66379749 425.09407738 322.4015526 419.24290507 329 413 C329.82371094 412.24074219 330.64742187 411.48148438 331.49609375 410.69921875 C348.02497279 394.94392219 359.15175078 373.94471581 365 352 C365.17644043 351.3498291 365.35288086 350.6996582 365.53466797 350.02978516 C373.47880766 319.1271605 367.64782015 284.0982986 352.125 256.5 C347.93015007 249.58217731 343.18098984 243.20099119 338 237 C337.57348145 236.48695313 337.14696289 235.97390625 336.70751953 235.4453125 C316.34777165 211.29253669 285.34203561 194.68801736 253.78271484 191.796875 C235.40430556 190.29747938 218.71545121 192.02808863 201 197 Z M143.59765625 233.39453125 C121.53197021 256.77872929 110.38786392 288.44594176 109.6875 320.3125 C109.99264181 330.30952692 111.02459997 340.43621417 114 350 C122.60122913 345.10471128 129.50923652 339.22818349 136.57519531 332.36914062 C137.75339851 331.2369673 138.96275677 330.13731472 140.1796875 329.046875 C163.38210312 307.67369547 174.54626042 274.23779002 176.12890625 243.49609375 C176.26591233 237.51349505 175.75192852 231.62982245 175.125 225.6875 C175.04660889 224.92236084 174.96821777 224.15722168 174.88745117 223.36889648 C174.39051103 219.01268966 173.56256196 215.12962805 172 211 C163.22882842 211 149.52238971 227.48906522 143.59765625 233.39453125 Z " fill="#4d1300" transform="translate(113,16)"/>
</svg>
